G04*
G04 #@! TF.GenerationSoftware,Altium Limited,Altium Designer,20.0.1 (14)*
G04*
G04 Layer_Color=65535*
%FSLAX44Y44*%
%MOMM*%
G71*
G01*
G75*
%ADD10C,0.2540*%
%ADD11C,0.1000*%
%ADD12C,0.1800*%
%ADD13C,0.1778*%
%ADD14C,0.1524*%
%ADD15C,0.2200*%
%ADD16C,0.1500*%
%ADD17C,0.2032*%
G36*
X20483Y146774D02*
X20603D01*
X20747Y146762D01*
X20903Y146750D01*
X21071Y146738D01*
X21444Y146678D01*
X21840Y146606D01*
X22237Y146498D01*
X22609Y146354D01*
X22621D01*
X22657Y146330D01*
X22705Y146306D01*
X22765Y146270D01*
X22850Y146234D01*
X22946Y146174D01*
X23162Y146041D01*
X23414Y145873D01*
X23666Y145669D01*
X23919Y145429D01*
X24159Y145153D01*
X24171Y145140D01*
X24183Y145116D01*
X24219Y145080D01*
X24255Y145020D01*
X24303Y144948D01*
X24363Y144852D01*
X24423Y144756D01*
X24483Y144636D01*
X24555Y144516D01*
X24628Y144372D01*
X24760Y144059D01*
X24892Y143711D01*
X25000Y143326D01*
Y143314D01*
X25012Y143278D01*
X25024Y143218D01*
X25036Y143146D01*
X25060Y143038D01*
X25084Y142918D01*
X25108Y142786D01*
X25120Y142641D01*
X25144Y142473D01*
X25168Y142293D01*
X25192Y142089D01*
X25216Y141885D01*
X25240Y141440D01*
X25252Y140971D01*
Y140659D01*
X25240Y140539D01*
Y140251D01*
X25216Y139914D01*
X25192Y139542D01*
X25168Y139157D01*
X25120Y138785D01*
Y138773D01*
X25108Y138737D01*
Y138689D01*
X25096Y138617D01*
X25084Y138521D01*
X25072Y138425D01*
X25048Y138304D01*
X25024Y138172D01*
X24976Y137872D01*
X24916Y137535D01*
X24832Y137175D01*
X24748Y136803D01*
X22922Y137019D01*
Y137031D01*
X22934Y137067D01*
X22946Y137115D01*
X22958Y137187D01*
X22982Y137271D01*
X23006Y137379D01*
X23030Y137487D01*
X23054Y137620D01*
X23114Y137908D01*
X23174Y138232D01*
X23234Y138569D01*
X23294Y138917D01*
Y138965D01*
X23306Y139013D01*
X23318Y139073D01*
X23330Y139157D01*
Y139265D01*
X23342Y139374D01*
X23354Y139506D01*
X23378Y139794D01*
X23402Y140119D01*
X23414Y140467D01*
X23426Y140839D01*
Y141032D01*
X23414Y141116D01*
Y141296D01*
X23402Y141512D01*
X23378Y141752D01*
X23306Y142245D01*
Y142257D01*
X23294Y142269D01*
Y142305D01*
X23282Y142353D01*
X23246Y142473D01*
X23198Y142629D01*
X23126Y142798D01*
X23042Y142990D01*
X22946Y143170D01*
X22825Y143350D01*
X22813Y143374D01*
X22765Y143422D01*
X22681Y143506D01*
X22573Y143615D01*
X22441Y143735D01*
X22273Y143855D01*
X22093Y143963D01*
X21876Y144071D01*
X21864D01*
X21852Y144083D01*
X21816Y144095D01*
X21768Y144107D01*
X21708Y144131D01*
X21636Y144155D01*
X21456Y144203D01*
X21240Y144251D01*
X20963Y144299D01*
X20663Y144324D01*
X20326Y144335D01*
X20315D01*
X20290D01*
X20242D01*
X20182D01*
X20110Y144324D01*
X20014D01*
X19810Y144299D01*
X19582Y144275D01*
X19341Y144227D01*
X19101Y144155D01*
X18873Y144071D01*
X18861D01*
X18849Y144059D01*
X18777Y144023D01*
X18669Y143963D01*
X18536Y143891D01*
X18392Y143783D01*
X18248Y143663D01*
X18092Y143518D01*
X17960Y143362D01*
X17948Y143338D01*
X17900Y143278D01*
X17839Y143194D01*
X17767Y143062D01*
X17695Y142906D01*
X17611Y142714D01*
X17539Y142509D01*
X17479Y142281D01*
Y142269D01*
X17467Y142257D01*
Y142221D01*
X17455Y142173D01*
X17431Y142041D01*
X17407Y141873D01*
X17383Y141656D01*
X17359Y141416D01*
X17335Y141152D01*
Y140599D01*
X17347Y140503D01*
Y140395D01*
X17359Y140155D01*
X17383Y139878D01*
X17407Y139566D01*
X17443Y139229D01*
Y139193D01*
X17455Y139145D01*
X17467Y139073D01*
Y139001D01*
X17479Y138905D01*
X17515Y138689D01*
X17539Y138436D01*
X17575Y138160D01*
X17623Y137872D01*
X17659Y137596D01*
X17059Y137019D01*
X9610Y137680D01*
Y146318D01*
X11532D01*
Y139602D01*
X15653Y139242D01*
Y139254D01*
X15641Y139302D01*
X15629Y139374D01*
X15617Y139482D01*
X15605Y139614D01*
X15593Y139758D01*
X15569Y139938D01*
X15557Y140142D01*
Y140167D01*
X15545Y140239D01*
Y140347D01*
X15533Y140491D01*
X15521Y140659D01*
Y140839D01*
X15509Y141224D01*
Y141440D01*
X15521Y141548D01*
Y141668D01*
X15533Y141812D01*
Y141981D01*
X15569Y142329D01*
X15605Y142714D01*
X15665Y143110D01*
X15749Y143495D01*
Y143506D01*
X15761Y143543D01*
X15773Y143591D01*
X15797Y143663D01*
X15821Y143759D01*
X15845Y143855D01*
X15893Y143975D01*
X15929Y144095D01*
X16037Y144372D01*
X16170Y144660D01*
X16338Y144960D01*
X16530Y145237D01*
Y145249D01*
X16554Y145273D01*
X16590Y145309D01*
X16626Y145357D01*
X16746Y145489D01*
X16914Y145657D01*
X17119Y145837D01*
X17371Y146030D01*
X17659Y146210D01*
X17984Y146378D01*
X17996D01*
X18020Y146390D01*
X18080Y146414D01*
X18152Y146438D01*
X18236Y146474D01*
X18344Y146510D01*
X18464Y146546D01*
X18608Y146582D01*
X18765Y146618D01*
X18945Y146654D01*
X19125Y146690D01*
X19329Y146726D01*
X19546Y146750D01*
X19762Y146774D01*
X20254Y146786D01*
X20266D01*
X20315D01*
X20387D01*
X20483Y146774D01*
D02*
G37*
G36*
X25000Y127311D02*
X11700D01*
X12601Y123791D01*
X10655D01*
X9610Y127744D01*
Y129654D01*
X25000D01*
Y127311D01*
D02*
G37*
G36*
X17587Y119226D02*
X17780D01*
X18008Y119214D01*
X18260Y119202D01*
X18548Y119178D01*
X18837Y119154D01*
X19149Y119130D01*
X19798Y119046D01*
X20435Y118926D01*
X20747Y118853D01*
X21047Y118769D01*
X21059D01*
X21119Y118745D01*
X21191Y118721D01*
X21300Y118685D01*
X21432Y118637D01*
X21588Y118577D01*
X21756Y118505D01*
X21936Y118433D01*
X22333Y118241D01*
X22753Y118012D01*
X23162Y117748D01*
X23354Y117592D01*
X23534Y117436D01*
X23546Y117424D01*
X23570Y117400D01*
X23618Y117352D01*
X23691Y117280D01*
X23763Y117195D01*
X23847Y117099D01*
X23943Y116979D01*
X24051Y116847D01*
X24159Y116703D01*
X24267Y116535D01*
X24387Y116366D01*
X24495Y116174D01*
X24700Y115766D01*
X24784Y115549D01*
X24868Y115321D01*
Y115309D01*
X24880Y115261D01*
X24904Y115201D01*
X24928Y115105D01*
X24952Y114985D01*
X24988Y114841D01*
X25024Y114684D01*
X25060Y114504D01*
X25096Y114300D01*
X25132Y114084D01*
X25168Y113855D01*
X25192Y113615D01*
X25216Y113351D01*
X25240Y113087D01*
X25252Y112522D01*
Y112294D01*
X25240Y112198D01*
Y111969D01*
X25228Y111693D01*
X25204Y111381D01*
X25168Y111044D01*
X25132Y110684D01*
Y110636D01*
X25120Y110588D01*
X25108Y110515D01*
X25096Y110431D01*
X25084Y110335D01*
X25072Y110227D01*
X25048Y110107D01*
X25012Y109831D01*
X24964Y109530D01*
X24904Y109218D01*
X24844Y108906D01*
X22994Y109170D01*
Y109182D01*
X23006Y109206D01*
Y109254D01*
X23018Y109302D01*
X23042Y109374D01*
X23054Y109470D01*
X23078Y109566D01*
X23102Y109675D01*
X23150Y109927D01*
X23198Y110203D01*
X23258Y110515D01*
X23306Y110840D01*
Y110876D01*
X23318Y110924D01*
X23330Y110996D01*
Y111068D01*
X23342Y111164D01*
X23354Y111272D01*
X23366Y111393D01*
X23390Y111645D01*
X23402Y111933D01*
X23426Y112234D01*
Y112714D01*
X23414Y112798D01*
Y112906D01*
X23402Y113014D01*
X23390Y113147D01*
X23366Y113423D01*
X23330Y113711D01*
X23270Y114024D01*
X23186Y114324D01*
Y114336D01*
X23174Y114360D01*
X23162Y114396D01*
X23138Y114456D01*
X23114Y114528D01*
X23078Y114600D01*
X22994Y114793D01*
X22885Y114997D01*
X22741Y115225D01*
X22573Y115441D01*
X22369Y115658D01*
X22357Y115670D01*
X22345Y115682D01*
X22309Y115706D01*
X22261Y115742D01*
X22201Y115790D01*
X22141Y115850D01*
X21960Y115970D01*
X21732Y116102D01*
X21468Y116234D01*
X21168Y116366D01*
X20819Y116487D01*
X20807D01*
X20771Y116499D01*
X20723Y116511D01*
X20639Y116535D01*
X20555Y116559D01*
X20435Y116583D01*
X20302Y116607D01*
X20146Y116643D01*
X19990Y116667D01*
X19798Y116691D01*
X19606Y116715D01*
X19389Y116739D01*
X19161Y116763D01*
X18921Y116775D01*
X18669Y116787D01*
X18404D01*
Y116775D01*
X18416Y116751D01*
X18428Y116715D01*
X18440Y116655D01*
X18464Y116583D01*
X18488Y116499D01*
X18512Y116414D01*
X18548Y116306D01*
X18608Y116054D01*
X18669Y115778D01*
X18741Y115465D01*
X18801Y115141D01*
Y115129D01*
X18813Y115105D01*
Y115057D01*
X18825Y114985D01*
X18837Y114901D01*
X18849Y114805D01*
X18861Y114697D01*
X18873Y114576D01*
X18909Y114300D01*
X18933Y113988D01*
X18945Y113651D01*
X18957Y113303D01*
Y113195D01*
X18945Y113075D01*
Y112906D01*
X18921Y112702D01*
X18897Y112474D01*
X18873Y112210D01*
X18825Y111933D01*
X18765Y111633D01*
X18705Y111333D01*
X18621Y111020D01*
X18512Y110708D01*
X18392Y110395D01*
X18260Y110095D01*
X18092Y109807D01*
X17912Y109542D01*
X17900Y109530D01*
X17864Y109482D01*
X17803Y109422D01*
X17707Y109338D01*
X17587Y109230D01*
X17455Y109122D01*
X17275Y108990D01*
X17083Y108870D01*
X16854Y108749D01*
X16602Y108617D01*
X16314Y108509D01*
X16001Y108413D01*
X15665Y108317D01*
X15293Y108257D01*
X14884Y108209D01*
X14452Y108197D01*
X14440D01*
X14427D01*
X14391D01*
X14343D01*
X14223Y108209D01*
X14067Y108221D01*
X13863Y108245D01*
X13635Y108269D01*
X13382Y108317D01*
X13106Y108377D01*
X12818Y108449D01*
X12517Y108533D01*
X12205Y108653D01*
X11892Y108785D01*
X11592Y108942D01*
X11292Y109134D01*
X11004Y109350D01*
X10739Y109590D01*
X10727Y109602D01*
X10679Y109650D01*
X10607Y109735D01*
X10523Y109855D01*
X10427Y109999D01*
X10307Y110167D01*
X10187Y110371D01*
X10054Y110612D01*
X9922Y110876D01*
X9802Y111176D01*
X9682Y111501D01*
X9586Y111849D01*
X9490Y112234D01*
X9430Y112642D01*
X9381Y113075D01*
X9370Y113543D01*
Y113675D01*
X9381Y113783D01*
Y113904D01*
X9394Y114048D01*
X9406Y114204D01*
X9418Y114384D01*
X9442Y114564D01*
X9478Y114756D01*
X9550Y115177D01*
X9658Y115597D01*
X9802Y116006D01*
Y116018D01*
X9826Y116054D01*
X9850Y116114D01*
X9886Y116186D01*
X9934Y116282D01*
X9982Y116378D01*
X10054Y116499D01*
X10138Y116631D01*
X10331Y116919D01*
X10559Y117207D01*
X10847Y117508D01*
X11172Y117796D01*
X11184Y117808D01*
X11220Y117832D01*
X11268Y117868D01*
X11340Y117916D01*
X11436Y117976D01*
X11544Y118048D01*
X11676Y118120D01*
X11820Y118205D01*
X11989Y118289D01*
X12181Y118373D01*
X12373Y118469D01*
X12589Y118553D01*
X12818Y118649D01*
X13070Y118733D01*
X13322Y118805D01*
X13599Y118877D01*
X13611D01*
X13671Y118889D01*
X13743Y118913D01*
X13863Y118938D01*
X14007Y118961D01*
X14175Y118998D01*
X14379Y119022D01*
X14608Y119058D01*
X14848Y119094D01*
X15124Y119130D01*
X15425Y119154D01*
X15737Y119178D01*
X16085Y119202D01*
X16434Y119226D01*
X16806Y119238D01*
X17203D01*
X17215D01*
X17227D01*
X17263D01*
X17299D01*
X17419D01*
X17587Y119226D01*
D02*
G37*
G36*
X21720Y99198D02*
X21828Y99186D01*
X21936Y99174D01*
X22069Y99162D01*
X22345Y99114D01*
X22645Y99054D01*
X22946Y98958D01*
X23234Y98826D01*
X23246D01*
X23270Y98814D01*
X23306Y98790D01*
X23354Y98754D01*
X23486Y98670D01*
X23654Y98549D01*
X23847Y98393D01*
X24039Y98213D01*
X24243Y97997D01*
X24423Y97744D01*
Y97732D01*
X24447Y97708D01*
X24459Y97672D01*
X24495Y97624D01*
X24531Y97552D01*
X24580Y97480D01*
X24615Y97384D01*
X24664Y97276D01*
X24772Y97036D01*
X24880Y96747D01*
X24976Y96435D01*
X25060Y96074D01*
Y96062D01*
X25072Y96026D01*
Y95978D01*
X25084Y95906D01*
X25108Y95810D01*
X25120Y95702D01*
X25132Y95570D01*
X25156Y95438D01*
X25168Y95281D01*
X25192Y95113D01*
X25216Y94753D01*
X25240Y94344D01*
X25252Y93912D01*
Y93672D01*
X25240Y93539D01*
Y93383D01*
X25228Y93215D01*
X25216Y93035D01*
X25204Y92831D01*
X25192Y92614D01*
X25144Y92158D01*
X25072Y91689D01*
X24988Y91221D01*
Y91209D01*
X24976Y91161D01*
X24964Y91101D01*
X24940Y91017D01*
X24916Y90908D01*
X24892Y90788D01*
X24856Y90644D01*
X24820Y90488D01*
X24736Y90163D01*
X24652Y89803D01*
X24555Y89455D01*
X24447Y89106D01*
X22645Y89407D01*
Y89419D01*
X22657Y89443D01*
X22669Y89491D01*
X22693Y89563D01*
X22717Y89647D01*
X22741Y89743D01*
X22765Y89863D01*
X22801Y89983D01*
X22837Y90127D01*
X22885Y90284D01*
X22970Y90632D01*
X23066Y91017D01*
X23162Y91425D01*
Y91437D01*
X23174Y91473D01*
X23186Y91545D01*
X23198Y91629D01*
X23222Y91725D01*
X23246Y91858D01*
X23270Y92002D01*
X23294Y92158D01*
X23318Y92338D01*
X23342Y92530D01*
X23366Y92734D01*
X23390Y92951D01*
X23414Y93407D01*
X23426Y93888D01*
Y94008D01*
X23414Y94092D01*
Y94200D01*
X23402Y94320D01*
X23390Y94452D01*
X23378Y94597D01*
X23342Y94921D01*
X23270Y95258D01*
X23186Y95594D01*
X23066Y95906D01*
Y95918D01*
X23042Y95942D01*
X23030Y95978D01*
X22994Y96038D01*
X22898Y96159D01*
X22753Y96315D01*
X22657Y96387D01*
X22561Y96459D01*
X22453Y96519D01*
X22321Y96591D01*
X22177Y96639D01*
X22020Y96675D01*
X21852Y96699D01*
X21672Y96711D01*
X21660D01*
X21636D01*
X21600D01*
X21552Y96699D01*
X21480D01*
X21408Y96687D01*
X21228Y96639D01*
X21023Y96567D01*
X20795Y96471D01*
X20543Y96327D01*
X20423Y96231D01*
X20302Y96135D01*
X20290Y96123D01*
X20278Y96110D01*
X20242Y96074D01*
X20194Y96038D01*
X20062Y95906D01*
X19894Y95750D01*
X19702Y95534D01*
X19485Y95294D01*
X19257Y95017D01*
X19029Y94705D01*
X19017Y94693D01*
X19005Y94669D01*
X18969Y94621D01*
X18921Y94549D01*
X18861Y94477D01*
X18801Y94381D01*
X18717Y94272D01*
X18633Y94152D01*
X18440Y93876D01*
X18224Y93552D01*
X17996Y93215D01*
X17755Y92843D01*
X17743Y92831D01*
X17731Y92795D01*
X17695Y92746D01*
X17647Y92674D01*
X17587Y92590D01*
X17515Y92482D01*
X17431Y92362D01*
X17347Y92242D01*
X17143Y91954D01*
X16914Y91641D01*
X16662Y91305D01*
X16398Y90980D01*
X16386Y90968D01*
X16362Y90944D01*
X16326Y90896D01*
X16278Y90836D01*
X16206Y90764D01*
X16121Y90680D01*
X15941Y90476D01*
X15713Y90248D01*
X15449Y90007D01*
X15172Y89779D01*
X14872Y89551D01*
X14860D01*
X14836Y89527D01*
X14788Y89503D01*
X14728Y89467D01*
X14656Y89419D01*
X14560Y89370D01*
X14452Y89323D01*
X14343Y89274D01*
X14067Y89166D01*
X13767Y89070D01*
X13418Y89010D01*
X13238Y88998D01*
X13058Y88986D01*
X13046D01*
X13010D01*
X12962D01*
X12878Y88998D01*
X12794D01*
X12685Y89010D01*
X12577Y89022D01*
X12445Y89046D01*
X12169Y89094D01*
X11881Y89178D01*
X11592Y89286D01*
X11316Y89431D01*
X11304D01*
X11280Y89455D01*
X11244Y89479D01*
X11196Y89515D01*
X11063Y89611D01*
X10907Y89755D01*
X10727Y89923D01*
X10535Y90139D01*
X10343Y90380D01*
X10174Y90644D01*
Y90656D01*
X10150Y90680D01*
X10138Y90728D01*
X10102Y90776D01*
X10066Y90848D01*
X10030Y90944D01*
X9982Y91040D01*
X9934Y91161D01*
X9886Y91281D01*
X9838Y91425D01*
X9730Y91725D01*
X9634Y92074D01*
X9562Y92446D01*
Y92458D01*
X9550Y92494D01*
X9538Y92554D01*
X9526Y92626D01*
X9514Y92723D01*
X9502Y92843D01*
X9478Y92975D01*
X9466Y93119D01*
X9442Y93275D01*
X9430Y93455D01*
X9394Y93828D01*
X9381Y94248D01*
X9370Y94681D01*
Y95005D01*
X9381Y95161D01*
Y95342D01*
X9394Y95534D01*
X9406Y95738D01*
Y95834D01*
X9418Y95942D01*
X9430Y96074D01*
X9442Y96243D01*
X9454Y96423D01*
X9490Y96807D01*
Y96831D01*
X9502Y96891D01*
X9514Y97000D01*
X9526Y97132D01*
X9538Y97276D01*
X9562Y97432D01*
X9610Y97768D01*
Y97793D01*
X9622Y97840D01*
X9634Y97925D01*
X9658Y98033D01*
X9670Y98153D01*
X9694Y98285D01*
X9742Y98537D01*
X11592Y98333D01*
Y98321D01*
X11580Y98273D01*
X11568Y98201D01*
X11544Y98105D01*
X11532Y97985D01*
X11508Y97840D01*
X11484Y97684D01*
X11460Y97516D01*
Y97492D01*
X11448Y97432D01*
X11436Y97348D01*
X11412Y97228D01*
X11400Y97084D01*
X11376Y96916D01*
X11352Y96747D01*
X11328Y96555D01*
Y96531D01*
X11316Y96471D01*
X11304Y96375D01*
X11292Y96243D01*
X11280Y96098D01*
X11256Y95930D01*
X11244Y95750D01*
X11232Y95558D01*
Y95534D01*
X11220Y95474D01*
Y95378D01*
X11208Y95269D01*
Y95125D01*
X11196Y94981D01*
Y94429D01*
X11208Y94260D01*
Y94056D01*
X11220Y93840D01*
X11256Y93395D01*
Y93371D01*
X11268Y93299D01*
X11280Y93191D01*
X11304Y93059D01*
X11340Y92903D01*
X11388Y92734D01*
X11436Y92566D01*
X11508Y92398D01*
X11520Y92386D01*
X11544Y92326D01*
X11580Y92254D01*
X11640Y92170D01*
X11712Y92062D01*
X11796Y91954D01*
X11904Y91858D01*
X12025Y91761D01*
X12037Y91749D01*
X12085Y91725D01*
X12157Y91689D01*
X12253Y91653D01*
X12385Y91605D01*
X12529Y91569D01*
X12697Y91545D01*
X12890Y91533D01*
X12902D01*
X12914D01*
X12950D01*
X12998Y91545D01*
X13118Y91569D01*
X13274Y91605D01*
X13454Y91677D01*
X13671Y91773D01*
X13887Y91917D01*
X13995Y92002D01*
X14103Y92098D01*
X14115Y92110D01*
X14127Y92122D01*
X14163Y92158D01*
X14199Y92194D01*
X14319Y92326D01*
X14463Y92482D01*
X14632Y92687D01*
X14836Y92939D01*
X15040Y93215D01*
X15257Y93515D01*
X15268Y93527D01*
X15280Y93552D01*
X15317Y93600D01*
X15353Y93660D01*
X15413Y93744D01*
X15473Y93840D01*
X15545Y93948D01*
X15629Y94068D01*
X15809Y94344D01*
X16013Y94657D01*
X16230Y95005D01*
X16470Y95366D01*
X16482Y95378D01*
X16494Y95414D01*
X16530Y95462D01*
X16578Y95534D01*
X16638Y95618D01*
X16710Y95726D01*
X16794Y95846D01*
X16878Y95966D01*
X17083Y96255D01*
X17323Y96567D01*
X17575Y96891D01*
X17852Y97216D01*
X17864Y97228D01*
X17888Y97252D01*
X17924Y97300D01*
X17984Y97360D01*
X18044Y97432D01*
X18128Y97516D01*
X18224Y97612D01*
X18332Y97708D01*
X18572Y97937D01*
X18849Y98177D01*
X19161Y98405D01*
X19485Y98633D01*
X19497Y98645D01*
X19521Y98658D01*
X19570Y98681D01*
X19642Y98730D01*
X19726Y98766D01*
X19822Y98814D01*
X19942Y98874D01*
X20062Y98922D01*
X20206Y98982D01*
X20363Y99030D01*
X20687Y99126D01*
X21059Y99186D01*
X21252Y99198D01*
X21456Y99210D01*
X21468D01*
X21504D01*
X21552D01*
X21636D01*
X21720Y99198D01*
D02*
G37*
G36*
X25000Y84096D02*
X21744Y82883D01*
X21732D01*
X21720Y82871D01*
X21648Y82847D01*
X21540Y82811D01*
X21408Y82751D01*
X21252Y82691D01*
X21083Y82606D01*
X20735Y82438D01*
X20711Y82426D01*
X20663Y82402D01*
X20567Y82354D01*
X20459Y82282D01*
X20338Y82198D01*
X20206Y82114D01*
X20074Y82006D01*
X19942Y81886D01*
X19930Y81874D01*
X19882Y81826D01*
X19822Y81754D01*
X19750Y81669D01*
X19666Y81549D01*
X19582Y81417D01*
X19497Y81261D01*
X19425Y81093D01*
X19413Y81069D01*
X19389Y81009D01*
X19365Y80913D01*
X19329Y80780D01*
X19293Y80624D01*
X19257Y80432D01*
X19245Y80216D01*
X19233Y79987D01*
Y79639D01*
X19221Y79471D01*
Y79062D01*
X19209Y78846D01*
Y78786D01*
X19197Y78750D01*
X19185Y78630D01*
X19173Y78474D01*
X19149Y78293D01*
X19125Y78089D01*
X19089Y77861D01*
X19053Y77633D01*
X25000D01*
Y75206D01*
X9610D01*
Y80420D01*
X9622Y80552D01*
Y80696D01*
X9634Y80864D01*
Y81045D01*
X9658Y81237D01*
X9670Y81441D01*
X9706Y81874D01*
X9766Y82306D01*
X9850Y82727D01*
Y82739D01*
X9862Y82775D01*
X9874Y82835D01*
X9898Y82907D01*
X9922Y83003D01*
X9946Y83111D01*
X9994Y83243D01*
X10030Y83375D01*
X10138Y83664D01*
X10271Y83976D01*
X10439Y84289D01*
X10631Y84577D01*
X10643Y84589D01*
X10655Y84613D01*
X10691Y84649D01*
X10727Y84697D01*
X10859Y84829D01*
X11027Y84997D01*
X11232Y85178D01*
X11484Y85358D01*
X11784Y85538D01*
X12109Y85694D01*
X12121D01*
X12145Y85706D01*
X12205Y85730D01*
X12277Y85754D01*
X12361Y85778D01*
X12469Y85814D01*
X12589Y85850D01*
X12734Y85886D01*
X12890Y85910D01*
X13070Y85947D01*
X13250Y85983D01*
X13454Y86007D01*
X13671Y86031D01*
X13887Y86055D01*
X14379Y86067D01*
X14391D01*
X14416D01*
X14463D01*
X14536D01*
X14620Y86055D01*
X14704D01*
X14932Y86043D01*
X15184Y86007D01*
X15449Y85970D01*
X15725Y85910D01*
X15989Y85826D01*
X16001D01*
X16013Y85814D01*
X16049Y85802D01*
X16109Y85790D01*
X16230Y85730D01*
X16398Y85658D01*
X16578Y85574D01*
X16770Y85466D01*
X16975Y85346D01*
X17167Y85202D01*
X17191Y85190D01*
X17251Y85129D01*
X17335Y85045D01*
X17443Y84937D01*
X17575Y84793D01*
X17707Y84637D01*
X17839Y84457D01*
X17972Y84264D01*
X17984Y84241D01*
X18020Y84168D01*
X18080Y84060D01*
X18164Y83916D01*
X18248Y83736D01*
X18332Y83532D01*
X18416Y83315D01*
X18500Y83075D01*
Y83087D01*
X18512Y83111D01*
X18536Y83159D01*
X18560Y83219D01*
X18596Y83291D01*
X18633Y83375D01*
X18741Y83556D01*
X18885Y83772D01*
X19053Y83988D01*
X19245Y84192D01*
X19474Y84385D01*
X19485D01*
X19497Y84409D01*
X19546Y84433D01*
X19594Y84469D01*
X19654Y84505D01*
X19738Y84553D01*
X19822Y84613D01*
X19930Y84673D01*
X20050Y84733D01*
X20182Y84805D01*
X20326Y84877D01*
X20471Y84949D01*
X20819Y85093D01*
X21203Y85250D01*
X25000Y86619D01*
Y84096D01*
D02*
G37*
G36*
Y63300D02*
X9610D01*
Y65727D01*
X23174D01*
Y72298D01*
X25000D01*
Y63300D01*
D02*
G37*
G36*
Y54337D02*
X24988Y54229D01*
Y54085D01*
X24976Y53917D01*
X24952Y53712D01*
X24928Y53484D01*
X24892Y53244D01*
X24844Y52991D01*
X24784Y52727D01*
X24724Y52451D01*
X24640Y52187D01*
X24531Y51910D01*
X24423Y51658D01*
X24291Y51406D01*
X24135Y51177D01*
X24123Y51165D01*
X24099Y51129D01*
X24039Y51069D01*
X23967Y50997D01*
X23871Y50901D01*
X23763Y50805D01*
X23618Y50697D01*
X23462Y50589D01*
X23282Y50481D01*
X23078Y50372D01*
X22850Y50276D01*
X22597Y50180D01*
X22321Y50108D01*
X22020Y50048D01*
X21696Y50012D01*
X21348Y50000D01*
X9610D01*
Y59227D01*
X11436D01*
Y52427D01*
X16206D01*
Y58554D01*
X18032D01*
Y52427D01*
X21372D01*
X21384D01*
X21420D01*
X21468D01*
X21540Y52439D01*
X21624D01*
X21720Y52463D01*
X21936Y52499D01*
X22165Y52571D01*
X22405Y52667D01*
X22609Y52811D01*
X22705Y52895D01*
X22789Y52991D01*
Y53004D01*
X22801Y53016D01*
X22825Y53052D01*
X22850Y53100D01*
X22873Y53148D01*
X22910Y53220D01*
X22982Y53400D01*
X23054Y53616D01*
X23114Y53881D01*
X23162Y54181D01*
X23174Y54529D01*
Y59527D01*
X25000D01*
Y54337D01*
D02*
G37*
%LPC*%
G36*
X16506Y116787D02*
X16494D01*
X16458D01*
X16410D01*
X16338D01*
X16254D01*
X16145D01*
X16025Y116775D01*
X15905D01*
X15605Y116763D01*
X15280Y116751D01*
X14944Y116727D01*
X14584Y116691D01*
X14572D01*
X14536D01*
X14488Y116679D01*
X14427Y116667D01*
X14343Y116655D01*
X14247Y116643D01*
X14139Y116619D01*
X14019Y116607D01*
X13755Y116547D01*
X13466Y116463D01*
X13178Y116378D01*
X12890Y116258D01*
X12878D01*
X12854Y116246D01*
X12818Y116222D01*
X12770Y116198D01*
X12625Y116114D01*
X12457Y116006D01*
X12253Y115874D01*
X12049Y115706D01*
X11856Y115501D01*
X11664Y115273D01*
Y115261D01*
X11640Y115249D01*
X11616Y115201D01*
X11592Y115153D01*
X11556Y115093D01*
X11520Y115009D01*
X11472Y114913D01*
X11424Y114817D01*
X11388Y114697D01*
X11340Y114564D01*
X11304Y114420D01*
X11268Y114264D01*
X11220Y113916D01*
X11196Y113531D01*
Y113399D01*
X11208Y113315D01*
X11220Y113195D01*
X11244Y113062D01*
X11268Y112918D01*
X11304Y112762D01*
X11352Y112594D01*
X11412Y112426D01*
X11472Y112246D01*
X11556Y112065D01*
X11664Y111885D01*
X11772Y111717D01*
X11904Y111549D01*
X12061Y111393D01*
X12073Y111381D01*
X12097Y111356D01*
X12145Y111320D01*
X12217Y111272D01*
X12301Y111212D01*
X12409Y111140D01*
X12529Y111068D01*
X12673Y110996D01*
X12830Y110924D01*
X12998Y110852D01*
X13190Y110780D01*
X13394Y110720D01*
X13623Y110672D01*
X13863Y110636D01*
X14115Y110612D01*
X14379Y110600D01*
X14391D01*
X14452D01*
X14524D01*
X14632Y110612D01*
X14752Y110624D01*
X14896Y110636D01*
X15052Y110660D01*
X15220Y110684D01*
X15569Y110768D01*
X15749Y110828D01*
X15917Y110900D01*
X16085Y110972D01*
X16242Y111068D01*
X16386Y111176D01*
X16506Y111297D01*
X16518Y111308D01*
X16530Y111333D01*
X16566Y111369D01*
X16602Y111429D01*
X16650Y111513D01*
X16698Y111597D01*
X16746Y111717D01*
X16806Y111837D01*
X16866Y111981D01*
X16914Y112149D01*
X16962Y112330D01*
X17011Y112534D01*
X17047Y112750D01*
X17083Y112991D01*
X17095Y113243D01*
X17107Y113519D01*
Y113723D01*
X17095Y113807D01*
Y113904D01*
X17083Y114012D01*
X17071Y114252D01*
X17035Y114528D01*
X16998Y114829D01*
X16951Y115141D01*
Y115153D01*
X16939Y115177D01*
Y115225D01*
X16914Y115285D01*
X16902Y115369D01*
X16878Y115465D01*
X16830Y115682D01*
X16770Y115934D01*
X16686Y116210D01*
X16602Y116499D01*
X16506Y116787D01*
D02*
G37*
G36*
X14379Y83616D02*
X14367D01*
X14343D01*
X14295D01*
X14235D01*
X14163D01*
X14067Y83604D01*
X13875Y83592D01*
X13647Y83568D01*
X13406Y83532D01*
X13166Y83484D01*
X12938Y83412D01*
X12926D01*
X12914Y83399D01*
X12842Y83375D01*
X12745Y83327D01*
X12613Y83267D01*
X12469Y83183D01*
X12313Y83075D01*
X12169Y82943D01*
X12037Y82799D01*
X12025Y82775D01*
X11977Y82727D01*
X11929Y82631D01*
X11856Y82510D01*
X11772Y82354D01*
X11700Y82174D01*
X11628Y81958D01*
X11568Y81729D01*
Y81718D01*
X11556Y81706D01*
Y81669D01*
X11544Y81609D01*
X11532Y81549D01*
X11520Y81477D01*
X11496Y81297D01*
X11472Y81069D01*
X11460Y80804D01*
X11436Y80504D01*
Y77633D01*
X17227D01*
Y77657D01*
X17239Y77693D01*
X17251Y77741D01*
X17263Y77873D01*
X17287Y78041D01*
X17323Y78233D01*
X17347Y78450D01*
X17371Y78678D01*
X17395Y78906D01*
Y79014D01*
X17407Y79134D01*
Y79291D01*
X17419Y79471D01*
Y79663D01*
X17431Y80084D01*
Y80264D01*
X17419Y80396D01*
X17407Y80564D01*
X17395Y80744D01*
X17371Y80937D01*
X17335Y81153D01*
X17251Y81609D01*
X17191Y81838D01*
X17119Y82066D01*
X17035Y82270D01*
X16939Y82474D01*
X16830Y82667D01*
X16698Y82823D01*
X16686Y82835D01*
X16662Y82859D01*
X16614Y82895D01*
X16554Y82943D01*
X16482Y83003D01*
X16374Y83075D01*
X16266Y83147D01*
X16134Y83219D01*
X15977Y83291D01*
X15809Y83363D01*
X15617Y83435D01*
X15401Y83496D01*
X15172Y83544D01*
X14932Y83580D01*
X14668Y83604D01*
X14379Y83616D01*
D02*
G37*
%LPD*%
D10*
X123845Y19500D02*
G03*
X123845Y19500I-6350J0D01*
G01*
X55580Y92658D02*
G03*
X55580Y92658I-1524J0D01*
G01*
X102495Y29500D02*
X132495D01*
X102495Y9500D02*
X132495D01*
D11*
X135500Y116000D02*
G03*
X135500Y116000I-500J0D01*
G01*
D12*
X37500Y115750D02*
Y124750D01*
X56000D01*
X37500Y115750D02*
X56000D01*
Y124750D01*
X37500Y97750D02*
Y106750D01*
X56000D01*
X37500Y97750D02*
X56000D01*
Y106750D01*
X137367Y56500D02*
Y65500D01*
X118867Y56500D02*
X137367D01*
X118867Y65500D02*
X137367D01*
X118867Y56500D02*
Y65500D01*
X137250Y86500D02*
Y95500D01*
X118750Y86500D02*
X137250D01*
X118750Y95500D02*
X137250D01*
X118750Y86500D02*
Y95500D01*
X80250Y13000D02*
X89250D01*
X80250D02*
Y31500D01*
X89250Y13000D02*
Y31500D01*
X80250D02*
X89250D01*
X37500Y76750D02*
X46500D01*
X46500Y58250D01*
X37500D02*
Y76750D01*
Y58250D02*
X46500D01*
X37500Y76750D02*
X46500Y76750D01*
X37500Y76750D02*
Y95250D01*
X46500D02*
X46500Y76750D01*
X37500Y95250D02*
X46500D01*
X37500Y56000D02*
X46500D01*
Y37500D02*
Y56000D01*
X37500Y37500D02*
Y56000D01*
Y37500D02*
X46500D01*
X37500Y106750D02*
Y115750D01*
X56000D01*
X37500Y106750D02*
X56000D01*
Y115750D01*
Y124750D02*
Y133750D01*
X37500Y124750D02*
X56000D01*
X37500Y133750D02*
X56000D01*
X37500Y124750D02*
Y133750D01*
X60750Y104250D02*
Y113250D01*
X79250D01*
X60750Y104250D02*
X79250D01*
Y113250D01*
X124000Y36000D02*
X125750Y37750D01*
X124000Y39500D02*
X125750Y37750D01*
X124000Y36000D02*
Y39500D01*
X90644Y143220D02*
X99026D01*
Y134584D02*
Y142966D01*
X131000Y146250D02*
X131000Y146750D01*
X113000Y146250D02*
Y146750D01*
X131000Y116250D02*
X131000Y115750D01*
X113000Y115750D02*
Y116250D01*
Y115750D02*
X131000Y115750D01*
X113000Y146750D02*
X131000Y146750D01*
X137367Y74500D02*
Y83500D01*
X118867Y74500D02*
X137367D01*
X118867Y83500D02*
X137367D01*
X118867Y74500D02*
Y83500D01*
X137367Y65500D02*
Y74500D01*
X118867Y65500D02*
X137367D01*
X118867Y74500D02*
X137367D01*
X118867Y65500D02*
Y74500D01*
X48500Y13000D02*
X57500D01*
X48500D02*
Y31500D01*
X57500Y13000D02*
Y31500D01*
X48500D02*
X57500D01*
X57500D02*
X66500D01*
Y13000D02*
Y31500D01*
X57500Y13000D02*
Y31500D01*
Y13000D02*
X66500D01*
X66750Y31500D02*
X75750D01*
Y13000D02*
Y31500D01*
X66750Y13000D02*
Y31500D01*
Y13000D02*
X75750D01*
X99750Y104250D02*
Y113250D01*
X81250Y104250D02*
X99750D01*
X81250Y113250D02*
X99750D01*
X81250Y104250D02*
Y113250D01*
X56000Y143250D02*
X65000D01*
Y124750D02*
Y143250D01*
X56000Y124750D02*
Y143250D01*
Y124750D02*
X65000D01*
D13*
X60152Y92150D02*
X61930D01*
X56723Y88721D02*
X60152Y92150D01*
X56723Y86816D02*
Y88721D01*
X56596Y41350D02*
Y46430D01*
Y41350D02*
X56723Y41223D01*
X61930D01*
X102570Y41350D02*
X107650D01*
X107777Y41477D01*
Y46684D01*
X107904Y87070D02*
Y92150D01*
X107777Y92277D02*
X107904Y92150D01*
X102570Y92277D02*
X107777D01*
D14*
X40427Y7752D02*
Y14864D01*
X35347Y7752D02*
X40427D01*
X4105Y30358D02*
Y40772D01*
X9185Y40772D01*
X4105Y7752D02*
Y16642D01*
Y7752D02*
X9439D01*
X124250Y102464D02*
Y107036D01*
X123488Y104750D02*
X124250D01*
X125012D01*
X146714Y131250D02*
X151286D01*
X149000D02*
Y132012D01*
Y131250D02*
X149000Y130488D01*
D15*
X112304Y43338D02*
X137196D01*
X112304Y32162D02*
Y43338D01*
X137196Y32162D02*
Y43338D01*
X112304Y32162D02*
X137196D01*
D16*
X97756Y116042D02*
Y142204D01*
X65244D02*
X97756D01*
X65244Y116042D02*
Y142204D01*
Y116042D02*
X97756D01*
D17*
X137249Y98249D02*
Y111249D01*
X111249Y98249D02*
Y111249D01*
X120440D01*
X111249Y98249D02*
X120440D01*
X128060Y111249D02*
X137249D01*
X128060Y98249D02*
X137249D01*
X142499Y118251D02*
X155499D01*
X142499Y144251D02*
X155499D01*
Y135060D02*
Y144251D01*
X142499Y135060D02*
Y144251D01*
X155499Y118251D02*
Y127440D01*
X142499Y118251D02*
Y127440D01*
M02*
