M48
;Layer_Color=9474304
;FILE_FORMAT=4:4
METRIC,LZ
;TYPE=PLATED
T1F00S00C0.3000
T2F00S00C0.4000
T3F00S00C0.5000
%
T01
X00014753Y000125
X00032253
Y000225
X0004725Y0001025
X00057253Y000075
X000685Y0001725
X0008425
X00097Y000185
X000995Y0003375
X0008525Y0003325
X00074Y0003375
X0006725Y0003425
X00075Y000575
Y00068
Y000785
X000875
Y00068
X0008725Y000575
X001
Y00068
Y000785
X0011175Y0008875
X00109Y0010275
X00122253Y000975
X0012125Y000755
X0012625Y000455
X0011625Y0003925
X00113253Y00024
X001235Y000215
X0013125Y0001775
X00158Y00031
X00144753Y0005
X00148Y00133
X00159
X00165Y00141
X00122Y00131
X00116
X0011
X00093Y0011475
X0007Y00114
X0004Y00117
Y00131
Y0014475
X0005325Y001445
X0004Y00099
Y00085
Y0007
Y0005675
X00014753Y000325
T02
X00067Y000265
X000545Y0007175
X0005475Y0009675
X0007975Y001025
X0013125
Y00096
X0014725Y0011375
X00153
X0015625Y000445
X00163
X00128Y00055
T03
X0016Y000192
Y0007
X0016025Y000955
M30
