G04*
G04 #@! TF.GenerationSoftware,Altium Limited,Altium Designer,20.0.1 (14)*
G04*
G04 Layer_Physical_Order=2*
G04 Layer_Color=16711680*
%FSLAX44Y44*%
%MOMM*%
G71*
G01*
G75*
%ADD12C,0.1800*%
%ADD20C,0.5000*%
%ADD32C,0.5000*%
%ADD34C,0.1600*%
%ADD35C,0.3000*%
%ADD39C,0.6000*%
%ADD40R,0.8000X1.0000*%
%ADD41C,1.2000*%
%ADD42C,0.8000*%
G36*
X113029Y141280D02*
X116069D01*
X114414Y140899D01*
X113029Y141280D01*
X112800D01*
X112418Y141449D01*
X113029Y141280D01*
D02*
G37*
G36*
X92170Y140801D02*
X90570D01*
X89770Y141280D01*
X92970D01*
X92170Y140801D01*
D02*
G37*
G36*
X105400Y140740D02*
X103600D01*
X102700Y141280D01*
X106300D01*
X105400Y140740D01*
D02*
G37*
G36*
X167247Y56379D02*
X165977Y55948D01*
X165313Y56813D01*
X158368Y63758D01*
X158433Y64847D01*
X159556Y65704D01*
X160000Y65616D01*
X161678Y65950D01*
X163100Y66900D01*
X164051Y68322D01*
X164384Y70000D01*
X164051Y71678D01*
X163100Y73100D01*
X161678Y74050D01*
X160000Y74384D01*
X159137Y74213D01*
X157867Y75158D01*
Y90509D01*
X159137Y91337D01*
X160250Y91116D01*
X161928Y91449D01*
X163350Y92400D01*
X164300Y93822D01*
X164634Y95500D01*
X164300Y97178D01*
X163350Y98600D01*
X161928Y99551D01*
X160250Y99884D01*
X159137Y99663D01*
X157867Y100491D01*
Y113616D01*
X157894Y113750D01*
X157867Y113884D01*
Y114000D01*
X157599Y116036D01*
X156813Y117934D01*
X155563Y119563D01*
X153934Y120813D01*
X152036Y121599D01*
X150000Y121867D01*
X147964Y121599D01*
X146066Y120813D01*
X144437Y119563D01*
X143187Y117934D01*
X142401Y116036D01*
X142133Y114000D01*
Y61000D01*
X142401Y58964D01*
X143187Y57066D01*
X144437Y55437D01*
X151883Y47991D01*
Y46604D01*
X151728Y46373D01*
X151356Y44500D01*
X151728Y42627D01*
X152662Y41231D01*
X152937Y40566D01*
X154187Y38937D01*
X155816Y37687D01*
X157714Y36901D01*
X159750Y36633D01*
X161786Y36901D01*
X163684Y37687D01*
X165313Y38937D01*
X165977Y39802D01*
X167247Y39371D01*
Y4023D01*
X160670D01*
Y6799D01*
X160784Y7370D01*
Y11130D01*
X160670Y11701D01*
Y13050D01*
X160402D01*
X160333Y13393D01*
X159052Y15312D01*
X159051Y15312D01*
X145384Y28979D01*
X140164Y41583D01*
Y55250D01*
Y93000D01*
X139713Y95263D01*
X138432Y97182D01*
X138432Y97182D01*
X137164Y98449D01*
Y102500D01*
X136713Y104763D01*
X135432Y106682D01*
X133513Y107963D01*
X131250Y108414D01*
X128987Y107963D01*
X127068Y106682D01*
X125787Y104763D01*
X125336Y102500D01*
Y96000D01*
X125336Y96000D01*
X125787Y93737D01*
X127068Y91818D01*
X128336Y90550D01*
Y61027D01*
X127745Y59843D01*
X126127Y59521D01*
X124539Y58461D01*
X123478Y56873D01*
X123106Y55000D01*
X123272Y54168D01*
X122101Y53542D01*
X119353Y56290D01*
Y70198D01*
X120623Y71241D01*
X121250Y71116D01*
X122928Y71449D01*
X124350Y72400D01*
X125301Y73822D01*
X125634Y75500D01*
X125301Y77178D01*
X124350Y78600D01*
X123422Y79220D01*
X123421Y79222D01*
X122151Y80202D01*
Y92250D01*
X122151Y92250D01*
X121949Y93265D01*
X121375Y94124D01*
X121374Y94125D01*
X113898Y101601D01*
X113219Y103673D01*
X113190Y103724D01*
X113050Y104428D01*
X112100Y105850D01*
X110678Y106800D01*
X109000Y107134D01*
X108023Y106940D01*
X106753Y107831D01*
Y130617D01*
X115372Y139236D01*
X116298Y139450D01*
X122570D01*
Y139450D01*
X123670D01*
Y139450D01*
X135270D01*
Y139450D01*
X136370D01*
Y139450D01*
X147970D01*
Y148517D01*
X167247D01*
Y56379D01*
D02*
G37*
G36*
X112301Y100580D02*
X111170Y99449D01*
X108648Y100275D01*
X111475Y103102D01*
X112301Y100580D01*
D02*
G37*
G36*
X85570Y139450D02*
X87521D01*
X88719Y139130D01*
X88921Y138116D01*
X89495Y137256D01*
X95199Y131552D01*
Y96286D01*
X95199Y96286D01*
X95401Y95272D01*
X95976Y94411D01*
X110849Y79538D01*
Y42250D01*
X110849Y42250D01*
X110937Y41810D01*
X109766Y41184D01*
X104600Y46350D01*
X103178Y47301D01*
X101500Y47634D01*
X62335D01*
X58884Y49360D01*
Y69672D01*
X59022Y69877D01*
X59394Y71750D01*
X59022Y73623D01*
X59009Y73641D01*
Y94485D01*
X59271Y94877D01*
X59320Y95119D01*
X62316Y98116D01*
X77672D01*
X77877Y97978D01*
X79750Y97606D01*
X81623Y97978D01*
X83211Y99039D01*
X84271Y100627D01*
X84644Y102500D01*
X84271Y104373D01*
X83211Y105961D01*
X81623Y107022D01*
X79750Y107394D01*
X77877Y107022D01*
X77672Y106884D01*
X60500D01*
X58822Y106551D01*
X57400Y105600D01*
X53119Y101320D01*
X52877Y101271D01*
X51289Y100211D01*
X50229Y98623D01*
X49856Y96750D01*
X50229Y94877D01*
X50241Y94859D01*
Y74015D01*
X49978Y73623D01*
X49606Y71750D01*
X49978Y69877D01*
X50116Y69672D01*
Y43250D01*
Y27344D01*
X47542Y24492D01*
X44871Y21820D01*
X44142Y20729D01*
X43885Y19441D01*
X43885Y19441D01*
Y13858D01*
X43525Y12415D01*
X43200Y11928D01*
X42866Y10250D01*
X43200Y8572D01*
X44150Y7150D01*
X45572Y6199D01*
X47250Y5866D01*
X48928Y6199D01*
X50350Y7150D01*
X51301Y8572D01*
X51634Y10250D01*
X51301Y11928D01*
X50975Y12415D01*
X50615Y13858D01*
Y18048D01*
X52301Y19734D01*
X55153Y22307D01*
X64635D01*
X65127Y21978D01*
X67000Y21606D01*
X68873Y21978D01*
X70461Y23039D01*
X71522Y24627D01*
X71579Y24914D01*
X72886Y25849D01*
X72886Y25849D01*
X84652D01*
X89375Y21126D01*
X90236Y20551D01*
X91250Y20349D01*
X91689D01*
X92249Y19912D01*
X92668Y19079D01*
X92102Y17351D01*
X89495Y14744D01*
X88921Y13884D01*
X88755Y13050D01*
X85570D01*
Y4023D01*
X2753D01*
Y43250D01*
X36000D01*
Y148517D01*
X85570D01*
Y139450D01*
D02*
G37*
G36*
X112102Y91225D02*
X109275Y88398D01*
X108404Y90823D01*
X109677Y92096D01*
X112102Y91225D01*
D02*
G37*
G36*
X122299Y77769D02*
X118781Y75895D01*
X118700Y78785D01*
X120300Y79313D01*
X122299Y77769D01*
D02*
G37*
G36*
X138250Y55250D02*
X130250Y49750D01*
X128250Y53750D01*
Y56750D01*
X130250Y60750D01*
X138250Y55250D01*
D02*
G37*
G36*
X126602Y47975D02*
X123775Y45148D01*
X122904Y47573D01*
X124177Y48846D01*
X126602Y47975D01*
D02*
G37*
G36*
X116711Y41707D02*
X113762Y39008D01*
X113037Y41582D01*
X114253Y42629D01*
X116711Y41707D01*
D02*
G37*
G36*
X62000Y45750D02*
Y40750D01*
X57000Y38250D01*
X52000Y43250D01*
X57000Y48250D01*
X62000Y45750D01*
D02*
G37*
G36*
X77869Y34550D02*
Y32950D01*
X75501Y31751D01*
Y35749D01*
X77869Y34550D01*
D02*
G37*
G36*
X70512Y32005D02*
X69342Y30912D01*
X66848Y31783D01*
X69732Y34552D01*
X70512Y32005D01*
D02*
G37*
G36*
X87766Y31866D02*
X86634Y30734D01*
X85062Y30757D01*
X87743Y33438D01*
X87766Y31866D01*
D02*
G37*
G36*
X102943Y31932D02*
X101980Y30632D01*
X99366Y31254D01*
X101935Y34317D01*
X102943Y31932D01*
D02*
G37*
G36*
X138250Y41407D02*
X143907Y27750D01*
X131423Y28920D01*
X134248Y29250D01*
X131423Y30819D01*
Y28920D01*
X123127Y29250D01*
Y34250D01*
X125304Y34337D01*
X130250Y42250D01*
X138250Y41407D01*
D02*
G37*
G36*
X62000Y29191D02*
X54503Y24191D01*
X55559Y25629D01*
X53438Y27750D01*
X52000Y26694D01*
X57000Y34191D01*
X62000Y29191D01*
D02*
G37*
G36*
X111731Y22017D02*
X109743Y23200D01*
Y24800D01*
X111731Y25983D01*
Y22017D01*
D02*
G37*
G36*
X54502Y24191D02*
X50611Y20681D01*
X48490Y22802D01*
X52000Y26693D01*
X54502Y24191D01*
D02*
G37*
G36*
X97352Y16025D02*
X94830Y15199D01*
X93699Y16330D01*
X94525Y18852D01*
X97352Y16025D01*
D02*
G37*
G36*
X49249Y11751D02*
X45251D01*
X45750Y13750D01*
X48750D01*
X49249Y11751D01*
D02*
G37*
G36*
X105670Y11189D02*
X102470D01*
X103270Y11700D01*
X104870D01*
X105670Y11189D01*
D02*
G37*
G36*
X92970D02*
X89770D01*
X90570Y11700D01*
X92170D01*
X92970Y11189D01*
D02*
G37*
G36*
X115063D02*
X112831Y8957D01*
X112461Y10428D01*
X113592Y11559D01*
X115063Y11189D01*
D02*
G37*
G36*
X125500Y11220D02*
X125531Y7957D01*
X125161Y9428D01*
X125292Y11559D01*
X125500Y11220D01*
D02*
G37*
G36*
X130518Y27119D02*
X148956Y8681D01*
Y7370D01*
X149070Y6799D01*
Y4023D01*
X135270D01*
Y13050D01*
X126419D01*
X123344Y16125D01*
X122484Y16699D01*
X121470Y16901D01*
X121470Y16901D01*
X116631D01*
X114804Y18728D01*
X115200Y20129D01*
X116354Y20900D01*
X117304Y22322D01*
X117638Y24000D01*
X117304Y25678D01*
X117025Y26096D01*
X117703Y27366D01*
X124322D01*
X130518Y27119D01*
D02*
G37*
D12*
X111505Y95500D02*
X116600Y90405D01*
X109745Y95500D02*
X111505D01*
X104000Y101245D02*
X109745Y95500D01*
X116600Y55150D02*
X126250Y45500D01*
X116600Y55150D02*
Y90405D01*
X104000Y131757D02*
X116770Y144527D01*
X104000Y101245D02*
Y131757D01*
X100750Y99750D02*
Y132750D01*
X104500Y136500D01*
X100750Y99750D02*
X111750Y88750D01*
X116770Y144527D02*
Y146250D01*
X104500Y136500D02*
Y145820D01*
X104070Y146250D02*
X104500Y145820D01*
D20*
X144753Y50000D02*
D03*
X122253Y97500D02*
D03*
X57253Y7500D02*
D03*
X32253Y12500D02*
D03*
Y22500D02*
D03*
X14753Y12500D02*
D03*
Y32500D02*
D03*
X116250Y39250D02*
D03*
X123500Y21500D02*
D03*
X131250Y17750D02*
D03*
X74000Y33750D02*
D03*
X113253Y24000D02*
D03*
X99500Y33750D02*
D03*
X126250Y45500D02*
D03*
X68500Y17250D02*
D03*
X158000Y31000D02*
D03*
X160000Y19200D02*
D03*
X111750Y88750D02*
D03*
X109000Y102750D02*
D03*
X93000Y114750D02*
D03*
X47250Y10250D02*
D03*
X97000Y18500D02*
D03*
X67250Y34250D02*
D03*
X85250Y33250D02*
D03*
X84250Y17250D02*
D03*
X165000Y141000D02*
D03*
X160000Y70000D02*
D03*
X160250Y95500D02*
D03*
X87500Y68000D02*
D03*
X75000D02*
D03*
X100000D02*
D03*
Y57500D02*
D03*
X87250D02*
D03*
X75000D02*
D03*
X70000Y114000D02*
D03*
X40000Y144750D02*
D03*
Y117000D02*
D03*
Y131000D02*
D03*
Y99000D02*
D03*
Y85000D02*
D03*
Y70000D02*
D03*
Y56750D02*
D03*
X121250Y75500D02*
D03*
X53250Y144500D02*
D03*
X87500Y78500D02*
D03*
X100000D02*
D03*
X75000D02*
D03*
X148000Y133000D02*
D03*
X122000Y131000D02*
D03*
X116000D02*
D03*
X110000D02*
D03*
X159000Y133000D02*
D03*
D32*
X54500Y26691D02*
Y43250D01*
X101500D01*
X54500D02*
Y71750D01*
Y26691D02*
X66809D01*
X113000Y31750D02*
X134250D01*
X101500Y43250D02*
X113000Y31750D01*
X54750Y96750D02*
X60500Y102500D01*
X66809Y26691D02*
X67000Y26500D01*
X54625Y96625D02*
X54750Y96750D01*
X54625Y71875D02*
Y96625D01*
X54500Y71750D02*
X54625Y71875D01*
X60500Y102500D02*
X79750D01*
D34*
X91370Y139130D02*
Y146250D01*
Y139130D02*
X97850Y132650D01*
X116250Y39250D02*
Y39500D01*
X113500Y42250D02*
X116250Y39500D01*
X85750Y28500D02*
X91250Y23000D01*
X72886Y28500D02*
X85750D01*
X91250Y23000D02*
X98864D01*
X67250Y34136D02*
X72886Y28500D01*
X74000Y33750D02*
X78500D01*
X82500Y37750D01*
X87114D01*
X92626Y25800D02*
X100024D01*
X87200Y31226D02*
X92626Y25800D01*
X87200Y31226D02*
Y31300D01*
X85250Y33250D02*
X87200Y31300D01*
X96264Y28600D02*
X101184D01*
X87114Y37750D02*
X96264Y28600D01*
X97850Y96286D02*
X113500Y80636D01*
Y42250D02*
Y80636D01*
X113253Y24000D02*
X113500D01*
X109743D02*
X113253D01*
X100024Y25800D02*
X106870Y18954D01*
X99993Y33750D02*
X109743Y24000D01*
X116770Y6250D02*
Y7250D01*
X99500Y33750D02*
X99993D01*
X106870Y17150D02*
X116770Y7250D01*
X106870Y17150D02*
Y18954D01*
X98864Y23000D02*
X104070Y17794D01*
Y6250D02*
Y17794D01*
X101184Y28600D02*
X115534Y14250D01*
X121470D01*
X97850Y96286D02*
Y132650D01*
X91370Y12870D02*
X97000Y18500D01*
X91370Y6250D02*
Y12870D01*
X109000Y102750D02*
X119500Y92250D01*
Y77250D02*
Y92250D01*
Y77250D02*
X121250Y75500D01*
X121470Y14250D02*
X129470Y6250D01*
X67250Y34136D02*
Y34250D01*
D35*
X47250Y19441D02*
X54500Y26691D01*
X47250Y10250D02*
Y19441D01*
X128000Y55000D02*
X128250Y55250D01*
X134250D01*
D39*
X153000Y113750D02*
D03*
X156250Y44500D02*
D03*
X163000D02*
D03*
X128000Y55000D02*
D03*
X67000Y26500D02*
D03*
X131250Y96000D02*
D03*
Y102500D02*
D03*
X54500Y71750D02*
D03*
X54750Y96750D02*
D03*
X79750Y102500D02*
D03*
X147250Y113750D02*
D03*
D40*
X154870Y146250D02*
D03*
Y6250D02*
D03*
X142170D02*
D03*
X129470D02*
D03*
X116770D02*
D03*
X104070D02*
D03*
X91370D02*
D03*
X78670D02*
D03*
Y146250D02*
D03*
X91370D02*
D03*
X104070D02*
D03*
X116770D02*
D03*
X129470D02*
D03*
X142170D02*
D03*
D41*
X150000Y61000D02*
Y114000D01*
X159750Y44500D02*
Y51250D01*
X150000Y61000D02*
X159750Y51250D01*
D42*
X134250Y31750D02*
Y55250D01*
Y93000D01*
X131250Y96000D02*
X134250Y93000D01*
X154870Y7370D02*
Y11130D01*
X134250Y31750D02*
X154870Y11130D01*
X131250Y96000D02*
Y102500D01*
M02*
