G04*
G04 #@! TF.GenerationSoftware,Altium Limited,Altium Designer,20.0.1 (14)*
G04*
G04 Layer_Color=65535*
%FSLAX44Y44*%
%MOMM*%
G71*
G01*
G75*
%ADD10C,0.2540*%
%ADD11C,0.1000*%
%ADD12C,0.1800*%
%ADD13C,0.1778*%
%ADD14C,0.2200*%
%ADD15C,0.1500*%
%ADD16C,0.2032*%
%ADD17C,0.1524*%
G36*
X26918Y139029D02*
X26931Y138987D01*
X26959Y138904D01*
X26973Y138807D01*
X27015Y138682D01*
X27042Y138530D01*
X27084Y138363D01*
X27139Y138169D01*
X27181Y137947D01*
X27236Y137711D01*
X27292Y137462D01*
X27334Y137198D01*
X27389Y136907D01*
X27445Y136616D01*
X27542Y135978D01*
Y135964D01*
X27555Y135894D01*
X27569Y135811D01*
X27583Y135673D01*
X27597Y135520D01*
X27625Y135340D01*
X27639Y135132D01*
X27666Y134896D01*
X27694Y134646D01*
X27708Y134369D01*
X27736Y134092D01*
X27750Y133786D01*
X27777Y133176D01*
X27791Y132538D01*
Y132344D01*
X27777Y132219D01*
Y132039D01*
X27764Y131845D01*
X27750Y131623D01*
X27736Y131387D01*
X27708Y131124D01*
X27680Y130846D01*
X27611Y130278D01*
X27500Y129682D01*
X27361Y129099D01*
Y129085D01*
X27334Y129030D01*
X27320Y128960D01*
X27278Y128849D01*
X27223Y128725D01*
X27167Y128572D01*
X27098Y128406D01*
X27001Y128211D01*
X26793Y127809D01*
X26529Y127379D01*
X26391Y127157D01*
X26224Y126936D01*
X26044Y126728D01*
X25850Y126519D01*
X25836Y126506D01*
X25794Y126478D01*
X25739Y126422D01*
X25656Y126339D01*
X25545Y126256D01*
X25420Y126159D01*
X25267Y126034D01*
X25087Y125923D01*
X24893Y125785D01*
X24685Y125660D01*
X24449Y125521D01*
X24199Y125382D01*
X23922Y125258D01*
X23631Y125133D01*
X23326Y125008D01*
X22993Y124897D01*
X22965D01*
X22910Y124869D01*
X22812Y124841D01*
X22674Y124814D01*
X22494Y124772D01*
X22285Y124717D01*
X22036Y124675D01*
X21758Y124620D01*
X21453Y124564D01*
X21107Y124522D01*
X20746Y124467D01*
X20344Y124425D01*
X19928Y124398D01*
X19484Y124370D01*
X19013Y124342D01*
X18527D01*
X18513D01*
X18499D01*
X18416D01*
X18291D01*
X18111Y124356D01*
X17903D01*
X17653Y124370D01*
X17376Y124384D01*
X17071Y124411D01*
X16752Y124439D01*
X16405Y124481D01*
X15712Y124578D01*
X15005Y124717D01*
X14658Y124814D01*
X14325Y124911D01*
X14311Y124925D01*
X14242Y124938D01*
X14159Y124966D01*
X14034Y125022D01*
X13895Y125077D01*
X13715Y125147D01*
X13534Y125230D01*
X13326Y125327D01*
X12869Y125563D01*
X12411Y125854D01*
X11940Y126187D01*
X11718Y126367D01*
X11510Y126561D01*
X11496Y126575D01*
X11468Y126617D01*
X11413Y126672D01*
X11329Y126755D01*
X11246Y126866D01*
X11135Y126991D01*
X11024Y127130D01*
X10913Y127296D01*
X10775Y127490D01*
X10650Y127684D01*
X10525Y127906D01*
X10386Y128142D01*
X10262Y128392D01*
X10151Y128655D01*
X10040Y128933D01*
X9943Y129224D01*
Y129238D01*
X9915Y129293D01*
X9901Y129390D01*
X9859Y129501D01*
X9832Y129654D01*
X9790Y129834D01*
X9748Y130042D01*
X9693Y130264D01*
X9651Y130527D01*
X9610Y130805D01*
X9568Y131096D01*
X9527Y131415D01*
X9499Y131748D01*
X9471Y132095D01*
X9457Y132830D01*
Y133343D01*
X9471Y133579D01*
Y133856D01*
X9485Y134161D01*
X9499Y134466D01*
Y134549D01*
X9513Y134605D01*
Y134771D01*
X9527Y134979D01*
X9540Y135215D01*
X9568Y135478D01*
X9624Y136047D01*
Y136075D01*
X9638Y136116D01*
Y136172D01*
X9651Y136324D01*
X9679Y136505D01*
X9707Y136727D01*
X9735Y136962D01*
X9804Y137462D01*
Y137489D01*
X9818Y137573D01*
X9832Y137697D01*
X9859Y137850D01*
X9887Y138030D01*
X9915Y138210D01*
X9943Y138405D01*
X9970Y138585D01*
X12162Y138335D01*
Y138322D01*
X12148Y138294D01*
X12134Y138238D01*
X12120Y138155D01*
X12106Y138058D01*
X12078Y137947D01*
X12051Y137822D01*
X12023Y137670D01*
X11995Y137503D01*
X11967Y137323D01*
X11926Y137129D01*
X11898Y136921D01*
X11829Y136449D01*
X11759Y135950D01*
Y135936D01*
X11746Y135881D01*
Y135811D01*
X11732Y135700D01*
X11718Y135576D01*
X11704Y135423D01*
X11676Y135243D01*
X11662Y135035D01*
X11648Y134813D01*
X11621Y134577D01*
X11607Y134327D01*
X11593Y134050D01*
X11579Y133481D01*
X11565Y132857D01*
Y132622D01*
X11579Y132497D01*
Y132344D01*
X11593Y132178D01*
X11607Y132011D01*
X11662Y131609D01*
X11718Y131193D01*
X11815Y130777D01*
X11940Y130361D01*
Y130347D01*
X11954Y130319D01*
X11981Y130264D01*
X12009Y130181D01*
X12051Y130098D01*
X12106Y129987D01*
X12231Y129751D01*
X12397Y129473D01*
X12605Y129182D01*
X12869Y128891D01*
X13160Y128628D01*
X13174Y128614D01*
X13202Y128600D01*
X13243Y128558D01*
X13313Y128517D01*
X13396Y128461D01*
X13493Y128392D01*
X13618Y128322D01*
X13743Y128253D01*
X13895Y128170D01*
X14061Y128087D01*
X14242Y128003D01*
X14436Y127920D01*
X14866Y127754D01*
X15337Y127615D01*
X15351D01*
X15393Y127601D01*
X15476Y127587D01*
X15573Y127560D01*
X15698Y127532D01*
X15850Y127504D01*
X16031Y127476D01*
X16239Y127449D01*
X16461Y127421D01*
X16696Y127393D01*
X16960Y127366D01*
X17251Y127338D01*
X17556Y127310D01*
X17875Y127296D01*
X18208Y127282D01*
X18555D01*
X18583D01*
X18652D01*
X18749D01*
X18902D01*
X19082Y127296D01*
X19290D01*
X19512Y127310D01*
X19761Y127324D01*
X20039Y127338D01*
X20316Y127366D01*
X20899Y127421D01*
X21481Y127504D01*
X21758Y127560D01*
X22022Y127615D01*
X22036D01*
X22078Y127629D01*
X22147Y127657D01*
X22244Y127684D01*
X22369Y127712D01*
X22494Y127754D01*
X22646Y127809D01*
X22812Y127865D01*
X23159Y128003D01*
X23520Y128184D01*
X23880Y128378D01*
X24213Y128614D01*
X24227Y128628D01*
X24255Y128641D01*
X24283Y128683D01*
X24338Y128738D01*
X24491Y128877D01*
X24657Y129071D01*
X24837Y129307D01*
X25031Y129584D01*
X25212Y129889D01*
X25350Y130236D01*
Y130250D01*
X25364Y130278D01*
X25378Y130333D01*
X25406Y130403D01*
X25434Y130500D01*
X25461Y130611D01*
X25489Y130736D01*
X25517Y130874D01*
X25545Y131041D01*
X25572Y131207D01*
X25628Y131581D01*
X25669Y132011D01*
X25683Y132469D01*
Y133093D01*
X25669Y133273D01*
Y133565D01*
X25656Y133662D01*
X25642Y133800D01*
Y133953D01*
X25628Y134119D01*
X25586Y134494D01*
Y134522D01*
X25572Y134577D01*
X25558Y134674D01*
X25545Y134813D01*
X25531Y134951D01*
X25517Y135118D01*
X25475Y135451D01*
Y135465D01*
X25461Y135534D01*
X25447Y135617D01*
X25434Y135728D01*
X25420Y135839D01*
X25392Y135978D01*
X25336Y136241D01*
X19720D01*
Y132358D01*
X17556D01*
Y139043D01*
X26918D01*
Y139029D01*
D02*
G37*
G36*
X23242Y119336D02*
X27500D01*
Y116714D01*
X23242D01*
Y107353D01*
X21412D01*
X9735Y115660D01*
Y119336D01*
X21190D01*
Y121596D01*
X23242D01*
Y119336D01*
D02*
G37*
G36*
X26446Y104677D02*
X26612Y104649D01*
X26793Y104593D01*
X26973Y104510D01*
X27167Y104385D01*
X27334Y104233D01*
X27347Y104205D01*
X27389Y104150D01*
X27458Y104039D01*
X27528Y103900D01*
X27611Y103720D01*
X27666Y103498D01*
X27722Y103248D01*
X27736Y102957D01*
Y102832D01*
X27708Y102680D01*
X27680Y102513D01*
X27639Y102305D01*
X27569Y102097D01*
X27472Y101889D01*
X27334Y101695D01*
X27320Y101681D01*
X27250Y101626D01*
X27167Y101543D01*
X27029Y101459D01*
X26876Y101376D01*
X26682Y101293D01*
X26446Y101237D01*
X26196Y101223D01*
X26182D01*
X26169D01*
X26127D01*
X26072Y101237D01*
X25947Y101251D01*
X25780Y101279D01*
X25600Y101334D01*
X25406Y101418D01*
X25226Y101543D01*
X25059Y101695D01*
X25045Y101723D01*
X24990Y101778D01*
X24934Y101889D01*
X24851Y102042D01*
X24782Y102222D01*
X24712Y102430D01*
X24671Y102680D01*
X24657Y102957D01*
Y103096D01*
X24671Y103234D01*
X24712Y103415D01*
X24754Y103623D01*
X24823Y103831D01*
X24920Y104039D01*
X25059Y104233D01*
X25073Y104247D01*
X25129Y104302D01*
X25226Y104385D01*
X25350Y104469D01*
X25517Y104552D01*
X25711Y104635D01*
X25933Y104691D01*
X26196Y104705D01*
X26210D01*
X26224D01*
X26266D01*
X26321D01*
X26446Y104677D01*
D02*
G37*
G36*
X27500Y84692D02*
X25503D01*
X20080Y90101D01*
X20066Y90115D01*
X20053Y90129D01*
X20011Y90170D01*
X19956Y90226D01*
X19803Y90365D01*
X19623Y90559D01*
X19401Y90767D01*
X19151Y91003D01*
X18638Y91474D01*
X18624Y91488D01*
X18610Y91502D01*
X18569Y91530D01*
X18513Y91585D01*
X18375Y91696D01*
X18194Y91848D01*
X17986Y92015D01*
X17751Y92195D01*
X17501Y92375D01*
X17251Y92542D01*
X17237D01*
X17224Y92556D01*
X17182Y92584D01*
X17140Y92611D01*
X17002Y92695D01*
X16821Y92792D01*
X16613Y92902D01*
X16378Y93013D01*
X16128Y93124D01*
X15864Y93222D01*
X15850D01*
X15837Y93235D01*
X15795Y93249D01*
X15740Y93263D01*
X15601Y93305D01*
X15407Y93346D01*
X15185Y93388D01*
X14921Y93429D01*
X14644Y93457D01*
X14353Y93471D01*
X14339D01*
X14283D01*
X14214D01*
X14103Y93457D01*
X13992Y93443D01*
X13840Y93416D01*
X13687Y93388D01*
X13521Y93346D01*
X13354Y93291D01*
X13174Y93235D01*
X12994Y93152D01*
X12813Y93055D01*
X12647Y92944D01*
X12494Y92805D01*
X12342Y92667D01*
X12217Y92486D01*
X12203Y92473D01*
X12189Y92445D01*
X12162Y92389D01*
X12120Y92306D01*
X12064Y92209D01*
X12009Y92084D01*
X11954Y91946D01*
X11884Y91779D01*
X11829Y91599D01*
X11773Y91391D01*
X11718Y91169D01*
X11662Y90919D01*
X11621Y90656D01*
X11593Y90378D01*
X11565Y90073D01*
Y89435D01*
X11579Y89283D01*
X11593Y89089D01*
X11607Y88895D01*
X11621Y88673D01*
Y88645D01*
X11635Y88575D01*
X11648Y88451D01*
X11662Y88312D01*
X11676Y88132D01*
X11704Y87924D01*
X11732Y87702D01*
X11759Y87480D01*
Y87452D01*
X11773Y87383D01*
X11787Y87258D01*
X11815Y87119D01*
X11843Y86939D01*
X11870Y86745D01*
X11954Y86343D01*
Y86315D01*
X11967Y86259D01*
X11981Y86162D01*
X12009Y86038D01*
X12037Y85899D01*
X12064Y85746D01*
X12106Y85608D01*
X12134Y85469D01*
X9998Y85205D01*
Y85219D01*
X9984Y85247D01*
X9970Y85303D01*
X9956Y85372D01*
X9929Y85469D01*
X9901Y85580D01*
X9873Y85705D01*
X9832Y85843D01*
X9804Y86010D01*
X9762Y86176D01*
X9693Y86551D01*
X9638Y86981D01*
X9582Y87452D01*
Y87508D01*
X9568Y87577D01*
Y87674D01*
X9554Y87785D01*
X9540Y87924D01*
X9527Y88076D01*
X9513Y88257D01*
X9499Y88631D01*
X9471Y89047D01*
X9457Y89491D01*
Y90170D01*
X9471Y90281D01*
Y90434D01*
X9485Y90587D01*
Y90767D01*
X9527Y91155D01*
X9568Y91585D01*
X9638Y92029D01*
X9721Y92473D01*
Y92486D01*
X9735Y92528D01*
X9748Y92584D01*
X9762Y92667D01*
X9790Y92778D01*
X9832Y92889D01*
X9873Y93027D01*
X9915Y93166D01*
X10040Y93485D01*
X10178Y93832D01*
X10345Y94178D01*
X10553Y94511D01*
Y94525D01*
X10581Y94553D01*
X10608Y94594D01*
X10650Y94650D01*
X10789Y94816D01*
X10955Y95010D01*
X11177Y95232D01*
X11427Y95454D01*
X11732Y95676D01*
X12064Y95884D01*
X12078D01*
X12106Y95912D01*
X12162Y95926D01*
X12231Y95967D01*
X12314Y95995D01*
X12425Y96037D01*
X12550Y96092D01*
X12702Y96134D01*
X12855Y96175D01*
X13035Y96231D01*
X13216Y96272D01*
X13424Y96300D01*
X13867Y96356D01*
X14353Y96383D01*
X14367D01*
X14408D01*
X14464D01*
X14547D01*
X14644Y96370D01*
X14755D01*
X14894Y96356D01*
X15032Y96342D01*
X15351Y96300D01*
X15698Y96231D01*
X16059Y96148D01*
X16419Y96037D01*
X16433D01*
X16461Y96023D01*
X16516Y96009D01*
X16572Y95981D01*
X16655Y95940D01*
X16752Y95898D01*
X16988Y95801D01*
X17265Y95676D01*
X17556Y95510D01*
X17875Y95343D01*
X18194Y95135D01*
X18208D01*
X18236Y95108D01*
X18277Y95080D01*
X18333Y95038D01*
X18416Y94983D01*
X18499Y94913D01*
X18721Y94761D01*
X18971Y94567D01*
X19248Y94345D01*
X19540Y94095D01*
X19845Y93818D01*
X19858Y93804D01*
X19886Y93790D01*
X19928Y93749D01*
X19983Y93693D01*
X20053Y93624D01*
X20136Y93540D01*
X20344Y93332D01*
X20594Y93097D01*
X20871Y92819D01*
X21176Y92528D01*
X21495Y92209D01*
X25364Y88229D01*
Y96592D01*
X27500D01*
Y84692D01*
D02*
G37*
G36*
X23714Y74291D02*
X23839Y74277D01*
X23964Y74263D01*
X24116Y74250D01*
X24435Y74194D01*
X24782Y74125D01*
X25129Y74014D01*
X25461Y73861D01*
X25475D01*
X25503Y73847D01*
X25545Y73820D01*
X25600Y73778D01*
X25753Y73681D01*
X25947Y73542D01*
X26169Y73362D01*
X26391Y73154D01*
X26626Y72904D01*
X26834Y72613D01*
Y72599D01*
X26862Y72571D01*
X26876Y72530D01*
X26918Y72474D01*
X26959Y72391D01*
X27015Y72308D01*
X27056Y72197D01*
X27112Y72072D01*
X27236Y71795D01*
X27361Y71462D01*
X27472Y71101D01*
X27569Y70685D01*
Y70671D01*
X27583Y70630D01*
Y70574D01*
X27597Y70491D01*
X27625Y70380D01*
X27639Y70255D01*
X27652Y70103D01*
X27680Y69950D01*
X27694Y69770D01*
X27722Y69576D01*
X27750Y69160D01*
X27777Y68688D01*
X27791Y68189D01*
Y67912D01*
X27777Y67759D01*
Y67579D01*
X27764Y67385D01*
X27750Y67177D01*
X27736Y66941D01*
X27722Y66691D01*
X27666Y66164D01*
X27583Y65623D01*
X27486Y65083D01*
Y65069D01*
X27472Y65013D01*
X27458Y64944D01*
X27431Y64847D01*
X27403Y64722D01*
X27375Y64583D01*
X27334Y64417D01*
X27292Y64236D01*
X27195Y63862D01*
X27098Y63446D01*
X26987Y63044D01*
X26862Y62642D01*
X24782Y62988D01*
Y63002D01*
X24796Y63030D01*
X24810Y63085D01*
X24837Y63169D01*
X24865Y63266D01*
X24893Y63377D01*
X24920Y63515D01*
X24962Y63654D01*
X25004Y63820D01*
X25059Y64001D01*
X25156Y64403D01*
X25267Y64847D01*
X25378Y65318D01*
Y65332D01*
X25392Y65374D01*
X25406Y65457D01*
X25420Y65554D01*
X25447Y65665D01*
X25475Y65817D01*
X25503Y65984D01*
X25531Y66164D01*
X25558Y66372D01*
X25586Y66594D01*
X25614Y66830D01*
X25642Y67080D01*
X25669Y67607D01*
X25683Y68161D01*
Y68300D01*
X25669Y68397D01*
Y68522D01*
X25656Y68660D01*
X25642Y68813D01*
X25628Y68980D01*
X25586Y69354D01*
X25503Y69742D01*
X25406Y70131D01*
X25267Y70491D01*
Y70505D01*
X25239Y70533D01*
X25226Y70574D01*
X25184Y70644D01*
X25073Y70782D01*
X24907Y70963D01*
X24796Y71046D01*
X24685Y71129D01*
X24560Y71198D01*
X24407Y71282D01*
X24241Y71337D01*
X24061Y71379D01*
X23867Y71406D01*
X23658Y71420D01*
X23645D01*
X23617D01*
X23575D01*
X23520Y71406D01*
X23437D01*
X23353Y71393D01*
X23145Y71337D01*
X22910Y71254D01*
X22646Y71143D01*
X22355Y70977D01*
X22216Y70866D01*
X22078Y70755D01*
X22064Y70741D01*
X22050Y70727D01*
X22008Y70685D01*
X21953Y70644D01*
X21800Y70491D01*
X21606Y70311D01*
X21384Y70061D01*
X21134Y69784D01*
X20871Y69465D01*
X20607Y69104D01*
X20594Y69090D01*
X20580Y69063D01*
X20538Y69007D01*
X20483Y68924D01*
X20413Y68841D01*
X20344Y68730D01*
X20247Y68605D01*
X20150Y68466D01*
X19928Y68147D01*
X19678Y67773D01*
X19415Y67385D01*
X19137Y66955D01*
X19124Y66941D01*
X19110Y66899D01*
X19068Y66844D01*
X19013Y66761D01*
X18943Y66663D01*
X18860Y66539D01*
X18763Y66400D01*
X18666Y66261D01*
X18430Y65928D01*
X18167Y65568D01*
X17875Y65180D01*
X17570Y64805D01*
X17556Y64791D01*
X17529Y64763D01*
X17487Y64708D01*
X17431Y64639D01*
X17348Y64556D01*
X17251Y64458D01*
X17043Y64223D01*
X16780Y63959D01*
X16475Y63682D01*
X16156Y63418D01*
X15809Y63155D01*
X15795D01*
X15767Y63127D01*
X15712Y63099D01*
X15642Y63058D01*
X15559Y63002D01*
X15448Y62947D01*
X15323Y62891D01*
X15199Y62836D01*
X14880Y62711D01*
X14533Y62600D01*
X14131Y62531D01*
X13923Y62517D01*
X13715Y62503D01*
X13701D01*
X13659D01*
X13604D01*
X13507Y62517D01*
X13410D01*
X13285Y62531D01*
X13160Y62545D01*
X13008Y62572D01*
X12688Y62628D01*
X12356Y62725D01*
X12023Y62850D01*
X11704Y63016D01*
X11690D01*
X11662Y63044D01*
X11621Y63072D01*
X11565Y63113D01*
X11413Y63224D01*
X11232Y63390D01*
X11024Y63585D01*
X10802Y63834D01*
X10581Y64112D01*
X10386Y64417D01*
Y64431D01*
X10359Y64458D01*
X10345Y64514D01*
X10303Y64569D01*
X10262Y64653D01*
X10220Y64763D01*
X10165Y64874D01*
X10109Y65013D01*
X10053Y65152D01*
X9998Y65318D01*
X9873Y65665D01*
X9762Y66067D01*
X9679Y66497D01*
Y66511D01*
X9665Y66553D01*
X9651Y66622D01*
X9638Y66705D01*
X9624Y66816D01*
X9610Y66955D01*
X9582Y67107D01*
X9568Y67274D01*
X9540Y67454D01*
X9527Y67662D01*
X9485Y68092D01*
X9471Y68577D01*
X9457Y69077D01*
Y69451D01*
X9471Y69631D01*
Y69839D01*
X9485Y70061D01*
X9499Y70297D01*
Y70408D01*
X9513Y70533D01*
X9527Y70685D01*
X9540Y70880D01*
X9554Y71087D01*
X9596Y71531D01*
Y71559D01*
X9610Y71628D01*
X9624Y71753D01*
X9638Y71906D01*
X9651Y72072D01*
X9679Y72252D01*
X9735Y72641D01*
Y72668D01*
X9748Y72724D01*
X9762Y72821D01*
X9790Y72946D01*
X9804Y73085D01*
X9832Y73237D01*
X9887Y73528D01*
X12023Y73293D01*
Y73279D01*
X12009Y73223D01*
X11995Y73140D01*
X11967Y73029D01*
X11954Y72890D01*
X11926Y72724D01*
X11898Y72544D01*
X11870Y72350D01*
Y72322D01*
X11856Y72252D01*
X11843Y72155D01*
X11815Y72017D01*
X11801Y71850D01*
X11773Y71656D01*
X11746Y71462D01*
X11718Y71240D01*
Y71212D01*
X11704Y71143D01*
X11690Y71032D01*
X11676Y70880D01*
X11662Y70713D01*
X11635Y70519D01*
X11621Y70311D01*
X11607Y70089D01*
Y70061D01*
X11593Y69992D01*
Y69881D01*
X11579Y69756D01*
Y69590D01*
X11565Y69423D01*
Y68785D01*
X11579Y68591D01*
Y68355D01*
X11593Y68106D01*
X11635Y67593D01*
Y67565D01*
X11648Y67482D01*
X11662Y67357D01*
X11690Y67204D01*
X11732Y67024D01*
X11787Y66830D01*
X11843Y66636D01*
X11926Y66442D01*
X11940Y66428D01*
X11967Y66358D01*
X12009Y66275D01*
X12078Y66178D01*
X12162Y66053D01*
X12259Y65928D01*
X12383Y65817D01*
X12522Y65707D01*
X12536Y65693D01*
X12592Y65665D01*
X12675Y65623D01*
X12786Y65582D01*
X12938Y65526D01*
X13105Y65485D01*
X13299Y65457D01*
X13521Y65443D01*
X13534D01*
X13548D01*
X13590D01*
X13645Y65457D01*
X13784Y65485D01*
X13964Y65526D01*
X14173Y65609D01*
X14422Y65720D01*
X14672Y65887D01*
X14797Y65984D01*
X14921Y66095D01*
X14935Y66109D01*
X14949Y66123D01*
X14991Y66164D01*
X15032Y66206D01*
X15171Y66358D01*
X15337Y66539D01*
X15532Y66774D01*
X15767Y67066D01*
X16003Y67385D01*
X16253Y67731D01*
X16267Y67745D01*
X16280Y67773D01*
X16322Y67828D01*
X16364Y67898D01*
X16433Y67995D01*
X16502Y68106D01*
X16586Y68231D01*
X16683Y68369D01*
X16891Y68688D01*
X17126Y69049D01*
X17376Y69451D01*
X17653Y69867D01*
X17667Y69881D01*
X17681Y69922D01*
X17723Y69978D01*
X17778Y70061D01*
X17848Y70158D01*
X17931Y70283D01*
X18028Y70422D01*
X18125Y70560D01*
X18361Y70893D01*
X18638Y71254D01*
X18929Y71628D01*
X19248Y72003D01*
X19262Y72017D01*
X19290Y72044D01*
X19332Y72100D01*
X19401Y72169D01*
X19470Y72252D01*
X19567Y72350D01*
X19678Y72460D01*
X19803Y72571D01*
X20080Y72835D01*
X20399Y73112D01*
X20760Y73376D01*
X21134Y73639D01*
X21148Y73653D01*
X21176Y73667D01*
X21232Y73695D01*
X21315Y73750D01*
X21412Y73792D01*
X21523Y73847D01*
X21661Y73917D01*
X21800Y73972D01*
X21967Y74042D01*
X22147Y74097D01*
X22521Y74208D01*
X22951Y74277D01*
X23173Y74291D01*
X23409Y74305D01*
X23423D01*
X23464D01*
X23520D01*
X23617D01*
X23714Y74291D01*
D02*
G37*
G36*
X27500Y56859D02*
X23742Y55458D01*
X23728D01*
X23714Y55444D01*
X23631Y55416D01*
X23506Y55375D01*
X23353Y55305D01*
X23173Y55236D01*
X22979Y55139D01*
X22577Y54945D01*
X22549Y54931D01*
X22494Y54903D01*
X22383Y54848D01*
X22258Y54764D01*
X22119Y54667D01*
X21967Y54570D01*
X21814Y54445D01*
X21661Y54307D01*
X21648Y54293D01*
X21592Y54237D01*
X21523Y54154D01*
X21439Y54057D01*
X21342Y53918D01*
X21245Y53766D01*
X21148Y53586D01*
X21065Y53391D01*
X21051Y53364D01*
X21023Y53294D01*
X20996Y53183D01*
X20954Y53031D01*
X20912Y52850D01*
X20871Y52629D01*
X20857Y52379D01*
X20843Y52116D01*
Y51713D01*
X20829Y51519D01*
Y51048D01*
X20815Y50798D01*
Y50729D01*
X20802Y50687D01*
X20788Y50548D01*
X20774Y50368D01*
X20746Y50160D01*
X20718Y49924D01*
X20677Y49661D01*
X20635Y49397D01*
X27500D01*
Y46596D01*
X9735D01*
Y52615D01*
X9748Y52767D01*
Y52934D01*
X9762Y53128D01*
Y53336D01*
X9790Y53558D01*
X9804Y53794D01*
X9845Y54293D01*
X9915Y54792D01*
X10012Y55278D01*
Y55291D01*
X10026Y55333D01*
X10040Y55402D01*
X10067Y55486D01*
X10095Y55596D01*
X10123Y55721D01*
X10178Y55874D01*
X10220Y56026D01*
X10345Y56359D01*
X10497Y56720D01*
X10691Y57080D01*
X10913Y57413D01*
X10927Y57427D01*
X10941Y57455D01*
X10983Y57497D01*
X11024Y57552D01*
X11177Y57705D01*
X11371Y57899D01*
X11607Y58107D01*
X11898Y58315D01*
X12245Y58523D01*
X12619Y58703D01*
X12633D01*
X12661Y58717D01*
X12730Y58745D01*
X12813Y58772D01*
X12910Y58800D01*
X13035Y58842D01*
X13174Y58883D01*
X13340Y58925D01*
X13521Y58953D01*
X13729Y58994D01*
X13937Y59036D01*
X14173Y59064D01*
X14422Y59091D01*
X14672Y59119D01*
X15240Y59133D01*
X15254D01*
X15282D01*
X15337D01*
X15421D01*
X15518Y59119D01*
X15615D01*
X15878Y59105D01*
X16170Y59064D01*
X16475Y59022D01*
X16794Y58953D01*
X17099Y58856D01*
X17113D01*
X17126Y58842D01*
X17168Y58828D01*
X17237Y58814D01*
X17376Y58745D01*
X17570Y58661D01*
X17778Y58564D01*
X18000Y58439D01*
X18236Y58301D01*
X18458Y58134D01*
X18485Y58120D01*
X18555Y58051D01*
X18652Y57954D01*
X18777Y57829D01*
X18929Y57663D01*
X19082Y57483D01*
X19234Y57275D01*
X19387Y57053D01*
X19401Y57025D01*
X19442Y56942D01*
X19512Y56817D01*
X19609Y56651D01*
X19706Y56442D01*
X19803Y56207D01*
X19900Y55957D01*
X19997Y55680D01*
Y55694D01*
X20011Y55721D01*
X20039Y55777D01*
X20066Y55846D01*
X20108Y55929D01*
X20150Y56026D01*
X20275Y56234D01*
X20441Y56484D01*
X20635Y56734D01*
X20857Y56969D01*
X21121Y57191D01*
X21134D01*
X21148Y57219D01*
X21204Y57247D01*
X21259Y57288D01*
X21329Y57330D01*
X21426Y57386D01*
X21523Y57455D01*
X21648Y57524D01*
X21786Y57593D01*
X21939Y57677D01*
X22105Y57760D01*
X22272Y57843D01*
X22674Y58010D01*
X23118Y58190D01*
X27500Y59771D01*
Y56859D01*
D02*
G37*
G36*
Y32852D02*
X9735D01*
Y35654D01*
X25392D01*
Y43240D01*
X27500D01*
Y32852D01*
D02*
G37*
G36*
Y22506D02*
X27486Y22382D01*
Y22215D01*
X27472Y22021D01*
X27445Y21785D01*
X27417Y21522D01*
X27375Y21244D01*
X27320Y20953D01*
X27250Y20648D01*
X27181Y20329D01*
X27084Y20024D01*
X26959Y19705D01*
X26834Y19414D01*
X26682Y19123D01*
X26502Y18859D01*
X26488Y18845D01*
X26460Y18804D01*
X26391Y18734D01*
X26307Y18651D01*
X26196Y18540D01*
X26072Y18429D01*
X25905Y18304D01*
X25725Y18180D01*
X25517Y18055D01*
X25281Y17930D01*
X25018Y17819D01*
X24726Y17708D01*
X24407Y17625D01*
X24061Y17556D01*
X23686Y17514D01*
X23284Y17500D01*
X9735D01*
Y28151D01*
X11843D01*
Y20301D01*
X17348D01*
Y27374D01*
X19456D01*
Y20301D01*
X23312D01*
X23326D01*
X23367D01*
X23423D01*
X23506Y20315D01*
X23603D01*
X23714Y20343D01*
X23964Y20385D01*
X24227Y20468D01*
X24504Y20579D01*
X24740Y20745D01*
X24851Y20842D01*
X24948Y20953D01*
Y20967D01*
X24962Y20981D01*
X24990Y21023D01*
X25018Y21078D01*
X25045Y21133D01*
X25087Y21217D01*
X25170Y21425D01*
X25253Y21674D01*
X25323Y21979D01*
X25378Y22326D01*
X25392Y22728D01*
Y28498D01*
X27500D01*
Y22506D01*
D02*
G37*
%LPC*%
G36*
X21190Y116714D02*
X12092D01*
X21204Y110127D01*
X21190Y116714D01*
D02*
G37*
G36*
X15240Y56304D02*
X15227D01*
X15199D01*
X15143D01*
X15074D01*
X14991D01*
X14880Y56290D01*
X14658Y56276D01*
X14394Y56248D01*
X14117Y56207D01*
X13840Y56151D01*
X13576Y56068D01*
X13562D01*
X13548Y56054D01*
X13465Y56026D01*
X13354Y55971D01*
X13202Y55902D01*
X13035Y55805D01*
X12855Y55680D01*
X12688Y55527D01*
X12536Y55361D01*
X12522Y55333D01*
X12467Y55278D01*
X12411Y55167D01*
X12328Y55028D01*
X12231Y54848D01*
X12148Y54640D01*
X12064Y54390D01*
X11995Y54126D01*
Y54113D01*
X11981Y54099D01*
Y54057D01*
X11967Y53988D01*
X11954Y53918D01*
X11940Y53835D01*
X11912Y53627D01*
X11884Y53364D01*
X11870Y53059D01*
X11843Y52712D01*
Y49397D01*
X18527D01*
Y49425D01*
X18541Y49467D01*
X18555Y49522D01*
X18569Y49675D01*
X18597Y49869D01*
X18638Y50091D01*
X18666Y50340D01*
X18694Y50604D01*
X18721Y50867D01*
Y50992D01*
X18735Y51131D01*
Y51311D01*
X18749Y51519D01*
Y51741D01*
X18763Y52227D01*
Y52435D01*
X18749Y52587D01*
X18735Y52781D01*
X18721Y52989D01*
X18694Y53211D01*
X18652Y53461D01*
X18555Y53988D01*
X18485Y54251D01*
X18402Y54515D01*
X18305Y54750D01*
X18194Y54986D01*
X18069Y55208D01*
X17917Y55388D01*
X17903Y55402D01*
X17875Y55430D01*
X17820Y55472D01*
X17751Y55527D01*
X17667Y55596D01*
X17543Y55680D01*
X17418Y55763D01*
X17265Y55846D01*
X17085Y55929D01*
X16891Y56013D01*
X16669Y56096D01*
X16419Y56165D01*
X16156Y56221D01*
X15878Y56262D01*
X15573Y56290D01*
X15240Y56304D01*
D02*
G37*
%LPD*%
D10*
X128845Y19500D02*
G03*
X128845Y19500I-6350J0D01*
G01*
X60580Y92658D02*
G03*
X60580Y92658I-1524J0D01*
G01*
X107495Y29500D02*
X137495D01*
X107495Y9500D02*
X137495D01*
D11*
X140500Y116000D02*
G03*
X140500Y116000I-500J0D01*
G01*
D12*
X129000Y39500D02*
X130750Y37750D01*
X42500Y115750D02*
Y124750D01*
X61000D01*
X42500Y115750D02*
X61000D01*
Y124750D01*
X42500Y97750D02*
Y106750D01*
X61000D01*
X42500Y97750D02*
X61000D01*
Y106750D01*
X142367Y56500D02*
Y65500D01*
X123867Y56500D02*
X142367D01*
X123867Y65500D02*
X142367D01*
X123867Y56500D02*
Y65500D01*
X142250Y86500D02*
Y95500D01*
X123750Y86500D02*
X142250D01*
X123750Y95500D02*
X142250D01*
X123750Y86500D02*
Y95500D01*
X85250Y13000D02*
X94250D01*
X85250D02*
Y31500D01*
X94250Y13000D02*
Y31500D01*
X85250D02*
X94250D01*
X42500Y76750D02*
X51500D01*
X51500Y58250D01*
X42500D02*
Y76750D01*
Y58250D02*
X51500D01*
X42500Y76750D02*
X51500Y76750D01*
X42500Y76750D02*
Y95250D01*
X51500D02*
X51500Y76750D01*
X42500Y95250D02*
X51500D01*
X42500Y56000D02*
X51500D01*
Y37500D02*
Y56000D01*
X42500Y37500D02*
Y56000D01*
Y37500D02*
X51500D01*
X42500Y106750D02*
Y115750D01*
X61000D01*
X42500Y106750D02*
X61000D01*
Y115750D01*
Y124750D02*
Y133750D01*
X42500Y124750D02*
X61000D01*
X42500Y133750D02*
X61000D01*
X42500Y124750D02*
Y133750D01*
X65750Y104250D02*
Y113250D01*
X84250D01*
X65750Y104250D02*
X84250D01*
Y113250D01*
X129000Y36000D02*
X130750Y37750D01*
X129000Y36000D02*
Y39500D01*
X95644Y143220D02*
X104026D01*
Y134584D02*
Y142966D01*
X136000Y146250D02*
X136000Y146750D01*
X118000Y146250D02*
Y146750D01*
X136000Y116250D02*
X136000Y115750D01*
X118000Y115750D02*
Y116250D01*
Y115750D02*
X136000Y115750D01*
X118000Y146750D02*
X136000Y146750D01*
X142367Y74500D02*
Y83500D01*
X123867Y74500D02*
X142367D01*
X123867Y83500D02*
X142367D01*
X123867Y74500D02*
Y83500D01*
X142367Y65500D02*
Y74500D01*
X123867Y65500D02*
X142367D01*
X123867Y74500D02*
X142367D01*
X123867Y65500D02*
Y74500D01*
X46500Y13000D02*
X55500D01*
X46500D02*
Y31500D01*
X55500Y13000D02*
Y31500D01*
X46500D02*
X55500D01*
X55500D02*
X64500D01*
Y13000D02*
Y31500D01*
X55500Y13000D02*
Y31500D01*
Y13000D02*
X64500D01*
X71750Y31500D02*
X80750D01*
Y13000D02*
Y31500D01*
X71750Y13000D02*
Y31500D01*
Y13000D02*
X80750D01*
X104750Y104250D02*
Y113250D01*
X86250Y104250D02*
X104750D01*
X86250Y113250D02*
X104750D01*
X86250Y104250D02*
Y113250D01*
X61000Y143250D02*
X70000D01*
Y124750D02*
Y143250D01*
X61000Y124750D02*
Y143250D01*
Y124750D02*
X70000D01*
D13*
X65152Y92150D02*
X66930D01*
X61723Y88721D02*
X65152Y92150D01*
X61723Y86816D02*
Y88721D01*
X61596Y41350D02*
Y46430D01*
Y41350D02*
X61723Y41223D01*
X66930D01*
X107570Y41350D02*
X112650D01*
X112777Y41477D01*
Y46684D01*
X112904Y87070D02*
Y92150D01*
X112777Y92277D02*
X112904Y92150D01*
X107570Y92277D02*
X112777D01*
D14*
X117304Y43338D02*
X142196D01*
X117304Y32162D02*
Y43338D01*
X142196Y32162D02*
Y43338D01*
X117304Y32162D02*
X142196D01*
D15*
X102756Y116042D02*
Y142204D01*
X70244D02*
X102756D01*
X70244Y116042D02*
Y142204D01*
Y116042D02*
X102756D01*
D16*
X142249Y98249D02*
Y111249D01*
X116249Y98249D02*
Y111249D01*
X125440D01*
X116249Y98249D02*
X125440D01*
X133060Y111249D02*
X142249D01*
X133060Y98249D02*
X142249D01*
X147499Y118251D02*
X160499D01*
X147499Y144251D02*
X160499D01*
Y135060D02*
Y144251D01*
X147499Y135060D02*
Y144251D01*
X160499Y118251D02*
Y127440D01*
X147499Y118251D02*
Y127440D01*
D17*
X129250Y102464D02*
Y107036D01*
X128488Y104750D02*
X129250D01*
X130012D01*
X151714Y131250D02*
X156286D01*
X154000D02*
Y132012D01*
Y131250D02*
X154000Y130488D01*
M02*
