M48
;Layer_Color=9474304
;FILE_FORMAT=4:4
METRIC,LZ
;TYPE=PLATED
T1F00S00C0.3000
T2F00S00C0.4000
T3F00S00C0.5000
T4F00S00C0.6000
T5F00S00C0.7620
T6F00S00C1.5000
%
T01
X000675Y000375
Y00045
X0006
X000625Y000525
X0007Y00055
X00075Y0005
Y0004
Y0006
X0008Y00065
X000835Y0006975
X000995Y000655
Y0008575
X00095Y00098
X00075Y000975
X000725Y0009
X0008Y000875
X00075Y000825
X00065Y00085
X0006Y0009
Y000975
Y00105
X000675Y001025
Y00095
X00065Y0011
Y0012
X0006Y00115
Y00125
X0007
X00075Y001175
X000725Y001075
X00079938Y00108402
X0008Y00128
X00088Y00139
X00101Y00148
X00127Y00145
Y00133
Y00123
X00141Y00124
X0014175Y000915
X0013125
Y00081
X0012075
Y000705
Y0006
X0013125
Y000495
X0014175
X0015225
Y0006
X0016275
Y000705
Y00081
X0015225
Y000915
X0014175Y00081
Y000705
X0013125
X0014175Y0006
X0015225Y000705
X001525Y0002925
X00138Y00029
X00133Y000125
X00121Y00016
X00116Y00021
X0009Y0003
X0006Y000675
Y000775
X00065Y000725
X00182919Y00085081
X00182Y00095
X001765Y0010325
X00162258Y00110755
X00179Y00123
Y00133
Y00145
X001755Y001545
X00168Y00158
X00159
X00149
X00139
X001305Y001545
X00214Y00134
Y00124
X0022Y0007425
Y0006825
Y0003725
Y0003125
Y0002525
Y0001525
X00236
X00248
X00179562Y0002975
X00154Y00009
X00095Y0029
Y00315
Y0034
Y00365
Y00395
X00295Y00395
Y00365
X0031Y0038
Y0035
X00295Y00335
X0031Y0032
Y0029
X00295Y00275
Y00305
Y00245
X00325Y00255
Y0023
Y00205
X00305
X0031Y0041
X00295Y00425
X00325
X0031Y0044
Y0047
Y005
X00295Y00485
X00325
Y00455
X00295
Y00545
X00325
X0031Y0053
X00325Y00515
X00215
Y00545
X00185
X001675Y005425
Y0055
Y00555
Y00535
Y005275
Y0052
Y005125
Y00505
X0016
Y005125
X001525
Y00505
X00145
Y005125
X001375
Y00505
X0013
X001225
X00115
X001075
X001
Y005125
Y0052
X000925
X00085
Y005275
Y00535
Y005425
Y00555
X000925
X001
X00075Y00545
Y00515
X00085Y005125
Y00505
X000925
Y005125
X0013
X00125Y0052
X001525
Y005275
Y00535
X00145Y005425
Y0055
Y00555
X002Y0053
X00185Y00515
X00105Y00485
X00075
X0009Y0047
Y0044
X00075Y00455
X00105
Y00425
X00075
X000305Y0041
T02
X00098Y00037
X00097Y0007525
X00097928Y001045
X001235Y00113
X00142Y00112
X00183Y00109
X00186Y000695
Y0006125
Y00053
X00231Y00054
X00238
X00245
Y00102
Y00111
Y0012
Y00129
Y00147
Y00156
Y00165
Y00174
Y00183
X00293Y00179
X00299Y00171
Y00153
X00297Y00133
X0028Y00144
X00329Y00145
X00337Y00175
X00346
X00355
X00364
X00316Y00178
X00235Y001025
X00225
X0023Y000975
X00225Y000925
X00235
X0014525Y00028
X00095Y00189
X00064Y00203
Y00212
X00054
X00059Y00218
X00064Y00224
X00054
X000495Y00389
X00112Y00545
T03
X0004Y0045885
Y0047135
T04
X0019975Y000225
X0021225
T05
X00323Y0002165
Y0004705
Y0007245
Y0009785
Y0012325
T06
X00361Y0002165
Y0004705
Y0007245
Y0009785
Y0012325
M30
