G04*
G04 #@! TF.GenerationSoftware,Altium Limited,Altium Designer,20.0.1 (14)*
G04*
G04 Layer_Color=32896*
%FSLAX44Y44*%
%MOMM*%
G71*
G01*
G75*
%ADD10C,0.2540*%
%ADD67C,0.4000*%
%ADD95C,0.0102*%
D10*
X112735Y195157D02*
Y185000D01*
X97500D01*
Y195157D01*
X105118Y185000D02*
Y190078D01*
X97500Y200235D02*
Y205313D01*
Y202774D01*
X112735D01*
X110196Y200235D01*
X100039Y212931D02*
X97500Y215470D01*
Y220548D01*
X100039Y223088D01*
X110196D01*
X112735Y220548D01*
Y215470D01*
X110196Y212931D01*
X107657D01*
X105118Y215470D01*
Y223088D01*
X97500Y251019D02*
X112735D01*
X105118Y243401D01*
Y253558D01*
X110196Y258636D02*
X112735Y261175D01*
Y266254D01*
X110196Y268793D01*
X107657D01*
X105118Y266254D01*
Y263715D01*
Y266254D01*
X102578Y268793D01*
X100039D01*
X97500Y266254D01*
Y261175D01*
X100039Y258636D01*
X110196Y273871D02*
X112735Y276410D01*
Y281489D01*
X110196Y284028D01*
X107657D01*
X105118Y281489D01*
Y278950D01*
Y281489D01*
X102578Y284028D01*
X100039D01*
X97500Y281489D01*
Y276410D01*
X100039Y273871D01*
X97500Y289106D02*
X112735D01*
X107657Y294185D01*
X112735Y299263D01*
X97500D01*
Y304341D02*
X107657Y314498D01*
X100039Y319576D02*
X97500Y322116D01*
Y327194D01*
X100039Y329733D01*
X110196D01*
X112735Y327194D01*
Y322116D01*
X110196Y319576D01*
X107657D01*
X105118Y322116D01*
Y329733D01*
X97500Y334812D02*
Y339890D01*
Y337351D01*
X112735D01*
X110196Y334812D01*
X112735Y357664D02*
Y347507D01*
X105118D01*
X107657Y352586D01*
Y355125D01*
X105118Y357664D01*
X100039D01*
X97500Y355125D01*
Y350047D01*
X100039Y347507D01*
X97500Y362743D02*
X112735D01*
X107657Y367821D01*
X112735Y372899D01*
X97500D01*
X112735Y403369D02*
Y393213D01*
X105118D01*
X107657Y398291D01*
Y400830D01*
X105118Y403369D01*
X100039D01*
X97500Y400830D01*
Y395752D01*
X100039Y393213D01*
X110196Y408448D02*
X112735Y410987D01*
Y416065D01*
X110196Y418604D01*
X100039D01*
X97500Y416065D01*
Y410987D01*
X100039Y408448D01*
X110196D01*
Y423683D02*
X112735Y426222D01*
Y431300D01*
X110196Y433839D01*
X100039D01*
X97500Y431300D01*
Y426222D01*
X100039Y423683D01*
X110196D01*
X97500Y438918D02*
X107657D01*
Y441457D01*
X105118Y443996D01*
X97500D01*
X105118D01*
X107657Y446535D01*
X105118Y449075D01*
X97500D01*
X112735Y454153D02*
X97500D01*
X102578Y459231D01*
X97500Y464310D01*
X112735D01*
X307500Y390000D02*
X304168D01*
X305834D01*
Y399997D01*
X307500Y398331D01*
D67*
X153500Y526000D02*
X251100D01*
X327500Y410000D02*
Y557000D01*
Y157000D02*
Y175000D01*
X77500Y157000D02*
X327500D01*
X77500Y557000D02*
X117500D01*
X172100D02*
X232100D01*
X287500D02*
X327500D01*
X77500Y410000D02*
Y557000D01*
Y157000D02*
Y175000D01*
Y526000D02*
X96500D01*
X308500D02*
X327500D01*
D95*
X257814Y37445D02*
X261370D01*
X256392Y37546D02*
X262793D01*
X255478Y37648D02*
X263707D01*
X254665Y37750D02*
X264520D01*
X254055Y37851D02*
X265130D01*
X253446Y37953D02*
X265739D01*
X252938Y38054D02*
X266247D01*
X252430Y38156D02*
X266755D01*
X251922Y38258D02*
X267263D01*
X251515Y38359D02*
X267670D01*
X251109Y38461D02*
X268076D01*
X250702Y38562D02*
X268482D01*
X250398Y38664D02*
X268787D01*
X249991Y38766D02*
X269194D01*
X249686Y38867D02*
X269498D01*
X249280Y38969D02*
X269803D01*
X248975Y39070D02*
X270210D01*
X248670Y39172D02*
X270514D01*
X248366Y39274D02*
X270718D01*
X248162Y39375D02*
X271022D01*
X247858Y39477D02*
X271327D01*
X247553Y39578D02*
X271632D01*
X247248Y39680D02*
X271835D01*
X247045Y39782D02*
X272140D01*
X246740Y39883D02*
X272445D01*
X246537Y39985D02*
X272648D01*
X246232Y40086D02*
X272851D01*
X246029Y40188D02*
X273156D01*
X245826Y40290D02*
X273359D01*
X245622Y40391D02*
X273562D01*
X245318Y40493D02*
X273867D01*
X245114Y40594D02*
X274070D01*
X244911Y40696D02*
X274274D01*
X244708Y40798D02*
X274477D01*
X244505Y40899D02*
X274680D01*
X244302Y41001D02*
X274883D01*
X244098Y41102D02*
X275086D01*
X243895Y41204D02*
X275290D01*
X243692Y41306D02*
X257510D01*
X261574D02*
X275493D01*
X243489Y41407D02*
X256392D01*
X262793D02*
X275696D01*
X243286Y41509D02*
X255478D01*
X263707D02*
X275899D01*
X243082Y41610D02*
X254766D01*
X264418D02*
X276102D01*
X242981Y41712D02*
X254157D01*
X265028D02*
X276204D01*
X242778Y41814D02*
X253649D01*
X265536D02*
X276407D01*
X242574Y41915D02*
X253141D01*
X266044D02*
X276610D01*
X242371Y42017D02*
X252633D01*
X266450D02*
X276814D01*
X242270Y42118D02*
X252226D01*
X266857D02*
X276915D01*
X242066Y42220D02*
X251820D01*
X267263D02*
X277118D01*
X241863Y42322D02*
X251515D01*
X267670D02*
X277322D01*
X241660Y42423D02*
X251109D01*
X268076D02*
X277423D01*
X241558Y42525D02*
X250804D01*
X268381D02*
X277626D01*
X241355Y42626D02*
X250398D01*
X268686D02*
X277830D01*
X241254Y42728D02*
X250093D01*
X269092D02*
X277931D01*
X241050Y42830D02*
X249788D01*
X269397D02*
X278134D01*
X240949Y42931D02*
X249483D01*
X269702D02*
X278236D01*
X240847Y43033D02*
X249178D01*
X269905D02*
X278439D01*
X240949Y43134D02*
X248975D01*
X270210D02*
X278541D01*
X241050Y43236D02*
X248670D01*
X270514D02*
X278744D01*
X241152Y43338D02*
X248366D01*
X270718D02*
X278642D01*
X241152Y43439D02*
X248162D01*
X271022D02*
X278642D01*
X241254Y43541D02*
X247858D01*
X271226D02*
X278541D01*
X241355Y43642D02*
X247654D01*
X271530D02*
X278439D01*
X241355Y43744D02*
X247451D01*
X271734D02*
X278439D01*
X241457Y43846D02*
X247146D01*
X271937D02*
X278338D01*
X241558Y43947D02*
X246943D01*
X272242D02*
X278236D01*
X241558Y44049D02*
X246740D01*
X272445D02*
X278134D01*
X241660Y44150D02*
X246537D01*
X272648D02*
X278134D01*
X241762Y44252D02*
X246334D01*
X272851D02*
X278033D01*
X241863Y44354D02*
X246130D01*
X273054D02*
X277931D01*
X241863Y44455D02*
X245927D01*
X273258D02*
X277931D01*
X241965Y44557D02*
X245724D01*
X273461D02*
X277830D01*
X242066Y44658D02*
X245521D01*
X273664D02*
X277728D01*
X242066Y44760D02*
X245318D01*
X273867D02*
X277728D01*
X242168Y44862D02*
X245114D01*
X274070D02*
X277626D01*
X242270Y44963D02*
X244911D01*
X258018D02*
X261167D01*
X274274D02*
X277525D01*
X242270Y45065D02*
X244708D01*
X256798D02*
X262386D01*
X274375D02*
X277423D01*
X242371Y45166D02*
X244606D01*
X255986D02*
X263199D01*
X274578D02*
X277423D01*
X242473Y45268D02*
X244403D01*
X255274D02*
X263910D01*
X274782D02*
X277322D01*
X242574Y45370D02*
X244200D01*
X254665D02*
X264520D01*
X274985D02*
X277220D01*
X242574Y45471D02*
X243997D01*
X254157D02*
X265028D01*
X275086D02*
X277220D01*
X242676Y45573D02*
X243895D01*
X253649D02*
X265434D01*
X275290D02*
X277118D01*
X242778Y45674D02*
X243692D01*
X253242D02*
X265942D01*
X275493D02*
X277017D01*
X242778Y45776D02*
X243489D01*
X252836D02*
X266349D01*
X275594D02*
X276915D01*
X242879Y45878D02*
X243387D01*
X252531D02*
X266654D01*
X275798D02*
X276915D01*
X242981Y45979D02*
X243184D01*
X252125D02*
X267060D01*
X276001D02*
X276814D01*
X242981Y46081D02*
X243082D01*
X251820D02*
X267365D01*
X276102D02*
X276712D01*
X251515Y46182D02*
X267670D01*
X276306D02*
X276712D01*
X251109Y46284D02*
X268076D01*
X276407D02*
X276610D01*
X250804Y46386D02*
X268381D01*
X250601Y46487D02*
X268584D01*
X250296Y46589D02*
X268889D01*
X249991Y46690D02*
X269194D01*
X249788Y46792D02*
X269397D01*
X249483Y46894D02*
X269702D01*
X249280Y46995D02*
X269905D01*
X248975Y47097D02*
X270210D01*
X248772Y47198D02*
X270413D01*
X248569Y47300D02*
X270616D01*
X248366Y47402D02*
X270819D01*
X248162Y47503D02*
X271022D01*
X247959Y47605D02*
X271226D01*
X247654Y47706D02*
X271429D01*
X247451Y47808D02*
X271632D01*
X247248Y47910D02*
X271835D01*
X247146Y48011D02*
X258018D01*
X261066D02*
X272038D01*
X246943Y48113D02*
X256900D01*
X262285D02*
X272242D01*
X246740Y48214D02*
X256087D01*
X263098D02*
X272445D01*
X246537Y48316D02*
X255478D01*
X263707D02*
X272648D01*
X246334Y48418D02*
X254970D01*
X264215D02*
X272851D01*
X246232Y48519D02*
X254462D01*
X264723D02*
X272953D01*
X246029Y48621D02*
X253954D01*
X265130D02*
X273156D01*
X245826Y48722D02*
X253547D01*
X265536D02*
X273359D01*
X245622Y48824D02*
X253242D01*
X265942D02*
X273461D01*
X245521Y48926D02*
X252836D01*
X266349D02*
X273664D01*
X245318Y49027D02*
X252531D01*
X266654D02*
X273867D01*
X245216Y49129D02*
X252226D01*
X266958D02*
X273969D01*
X245216Y49230D02*
X251922D01*
X267263D02*
X274172D01*
X245318Y49332D02*
X251617D01*
X267568D02*
X274274D01*
X245318Y49434D02*
X251312D01*
X267873D02*
X274375D01*
X245419Y49535D02*
X251007D01*
X268076D02*
X274375D01*
X245521Y49637D02*
X250804D01*
X268381D02*
X274274D01*
X245622Y49738D02*
X250499D01*
X268584D02*
X274172D01*
X245622Y49840D02*
X250296D01*
X268889D02*
X274070D01*
X245724Y49942D02*
X250093D01*
X269092D02*
X274070D01*
X245826Y50043D02*
X249788D01*
X269295D02*
X273969D01*
X245826Y50145D02*
X249585D01*
X269600D02*
X273867D01*
X245927Y50246D02*
X249382D01*
X269803D02*
X273867D01*
X246029Y50348D02*
X249178D01*
X270006D02*
X273766D01*
X246029Y50450D02*
X248975D01*
X270210D02*
X273664D01*
X246130Y50551D02*
X248772D01*
X270413D02*
X273664D01*
X246232Y50653D02*
X248569D01*
X270616D02*
X273562D01*
X246334Y50754D02*
X248366D01*
X270819D02*
X273461D01*
X246334Y50856D02*
X248162D01*
X270921D02*
X273359D01*
X246435Y50958D02*
X248061D01*
X271124D02*
X273359D01*
X246537Y51059D02*
X247858D01*
X271327D02*
X273258D01*
X246537Y51161D02*
X247654D01*
X271530D02*
X273156D01*
X246638Y51262D02*
X247451D01*
X271632D02*
X273156D01*
X246740Y51364D02*
X247350D01*
X271835D02*
X273054D01*
X246740Y51466D02*
X247146D01*
X272038D02*
X272953D01*
X246842Y51567D02*
X246943D01*
X272140D02*
X272851D01*
X272343Y51669D02*
X272851D01*
X272445Y51770D02*
X272750D01*
X258424Y52278D02*
X260659D01*
X257306Y52380D02*
X261878D01*
X256595Y52482D02*
X262590D01*
X255986Y52583D02*
X263199D01*
X255478Y52685D02*
X263707D01*
X254970Y52786D02*
X264114D01*
X254563Y52888D02*
X264520D01*
X254258Y52990D02*
X264926D01*
X253852Y53091D02*
X265231D01*
X253547Y53193D02*
X265536D01*
X253242Y53294D02*
X265841D01*
X252938Y53396D02*
X266146D01*
X252734Y53498D02*
X266450D01*
X252430Y53599D02*
X266654D01*
X252226Y53701D02*
X266958D01*
X251922Y53802D02*
X267162D01*
X251718Y53904D02*
X267466D01*
X251515Y54006D02*
X267670D01*
X251210Y54107D02*
X267873D01*
X251007Y54209D02*
X268076D01*
X250804Y54310D02*
X268279D01*
X250601Y54412D02*
X268482D01*
X250398Y54514D02*
X259440D01*
X259643D02*
X268686D01*
X250296Y54615D02*
X257611D01*
X261472D02*
X268889D01*
X250093Y54717D02*
X256900D01*
X262285D02*
X269092D01*
X249890Y54818D02*
X256290D01*
X262894D02*
X269295D01*
X249686Y54920D02*
X255782D01*
X263402D02*
X269397D01*
X249585Y55022D02*
X255376D01*
X263809D02*
X269600D01*
X249382Y55123D02*
X254970D01*
X264215D02*
X269803D01*
X249382Y55225D02*
X254665D01*
X264520D02*
X269905D01*
X249483Y55326D02*
X254258D01*
X264825D02*
X270108D01*
X249585Y55428D02*
X253954D01*
X265130D02*
X270210D01*
X249585Y55530D02*
X253649D01*
X265434D02*
X270108D01*
X249686Y55631D02*
X253446D01*
X265739D02*
X270006D01*
X249788Y55733D02*
X253141D01*
X265942D02*
X270006D01*
X249788Y55834D02*
X252938D01*
X266247D02*
X269905D01*
X249890Y55936D02*
X252633D01*
X266450D02*
X269803D01*
X249991Y56038D02*
X252430D01*
X266755D02*
X269702D01*
X250093Y56139D02*
X252226D01*
X266958D02*
X269702D01*
X250093Y56241D02*
X252023D01*
X267162D02*
X269600D01*
X250194Y56342D02*
X251820D01*
X267365D02*
X269498D01*
X250296Y56444D02*
X251617D01*
X267568D02*
X269498D01*
X250296Y56546D02*
X251414D01*
X267771D02*
X269397D01*
X250398Y56647D02*
X251210D01*
X267974D02*
X269295D01*
X250499Y56749D02*
X251007D01*
X268076D02*
X269295D01*
X250499Y56850D02*
X250906D01*
X268279D02*
X269194D01*
X250601Y56952D02*
X250702D01*
X268482D02*
X269092D01*
X268584Y57054D02*
X268990D01*
X268787Y57155D02*
X268990D01*
X203357Y59390D02*
X205592D01*
X258526D02*
X261066D01*
X202646Y59492D02*
X206303D01*
X257510D02*
X262082D01*
X202138Y59594D02*
X206811D01*
X256900D02*
X262691D01*
X201731Y59695D02*
X207218D01*
X256392D02*
X263199D01*
X201426Y59797D02*
X207624D01*
X255884D02*
X263707D01*
X201122Y59898D02*
X207827D01*
X255579D02*
X264012D01*
X190454Y60000D02*
X196753D01*
X200817D02*
X208132D01*
X214736D02*
X223575D01*
X234751D02*
X242574D01*
X255173D02*
X264418D01*
X274782D02*
X295000D01*
X190454Y60102D02*
X196854D01*
X200512D02*
X208335D01*
X214838D02*
X223575D01*
X234751D02*
X242574D01*
X254868D02*
X264723D01*
X274782D02*
X295000D01*
X190454Y60203D02*
X196854D01*
X200309D02*
X208538D01*
X214838D02*
X223677D01*
X234751D02*
X242676D01*
X254563D02*
X265028D01*
X274782D02*
X295000D01*
X190555Y60305D02*
X196854D01*
X200106D02*
X208742D01*
X214939D02*
X223778D01*
X234751D02*
X242676D01*
X254360D02*
X265231D01*
X274782D02*
X295000D01*
X190555Y60406D02*
X196854D01*
X199801D02*
X208945D01*
X214939D02*
X223778D01*
X234751D02*
X242676D01*
X254055D02*
X265536D01*
X274782D02*
X295000D01*
X190555Y60508D02*
X196956D01*
X199598D02*
X209148D01*
X215041D02*
X223880D01*
X234751D02*
X242574D01*
X253852D02*
X265739D01*
X274782D02*
X295000D01*
X190555Y60610D02*
X196956D01*
X199394D02*
X209250D01*
X215041D02*
X223880D01*
X234751D02*
X242676D01*
X253649D02*
X265942D01*
X274782D02*
X295000D01*
X190657Y60711D02*
X196956D01*
X199191D02*
X209453D01*
X215142D02*
X223982D01*
X234751D02*
X242574D01*
X253446D02*
X266146D01*
X274782D02*
X295000D01*
X190657Y60813D02*
X196956D01*
X199090D02*
X209554D01*
X215244D02*
X223982D01*
X234751D02*
X242676D01*
X253242D02*
X266349D01*
X274782D02*
X295000D01*
X190657Y60914D02*
X197058D01*
X198886D02*
X209758D01*
X215244D02*
X224083D01*
X234751D02*
X242676D01*
X253039D02*
X266552D01*
X274782D02*
X295000D01*
X190657Y61016D02*
X197058D01*
X198683D02*
X209859D01*
X215346D02*
X224083D01*
X234751D02*
X242676D01*
X252836D02*
X266755D01*
X274782D02*
X295000D01*
X190758Y61118D02*
X197058D01*
X198582D02*
X209961D01*
X215346D02*
X224185D01*
X234751D02*
X242676D01*
X252734D02*
X266857D01*
X274782D02*
X295000D01*
X190758Y61219D02*
X197058D01*
X198378D02*
X210062D01*
X215447D02*
X224185D01*
X234751D02*
X242676D01*
X252531D02*
X267060D01*
X274782D02*
X295000D01*
X190758Y61321D02*
X197058D01*
X198277D02*
X210164D01*
X215447D02*
X224286D01*
X234751D02*
X242676D01*
X252328D02*
X267263D01*
X274782D02*
X295000D01*
X190758Y61422D02*
X197159D01*
X198175D02*
X210266D01*
X215549D02*
X224388D01*
X234751D02*
X242676D01*
X252226D02*
X267365D01*
X274782D02*
X295000D01*
X190758Y61524D02*
X197159D01*
X198074D02*
X210367D01*
X215650D02*
X224388D01*
X234751D02*
X242676D01*
X252023D02*
X267568D01*
X274782D02*
X295000D01*
X190758Y61626D02*
X197159D01*
X197972D02*
X210469D01*
X215650D02*
X224490D01*
X234751D02*
X242676D01*
X251922D02*
X267670D01*
X274782D02*
X295000D01*
X190860Y61727D02*
X197159D01*
X197870D02*
X210570D01*
X215752D02*
X224490D01*
X234751D02*
X242676D01*
X251820D02*
X267771D01*
X274782D02*
X295000D01*
X190860Y61829D02*
X197159D01*
X197769D02*
X210672D01*
X215752D02*
X224591D01*
X234751D02*
X242676D01*
X251617D02*
X267974D01*
X274782D02*
X295000D01*
X190860Y61930D02*
X197159D01*
X197667D02*
X210774D01*
X215854D02*
X224591D01*
X234751D02*
X242676D01*
X251515D02*
X268076D01*
X274782D02*
X295000D01*
X190860Y62032D02*
X197159D01*
X197566D02*
X210875D01*
X215854D02*
X224693D01*
X234751D02*
X242676D01*
X251414D02*
X268178D01*
X274782D02*
X295000D01*
X190860Y62134D02*
X197159D01*
X197464D02*
X210977D01*
X215955D02*
X224693D01*
X234751D02*
X242676D01*
X251312D02*
X268381D01*
X274782D02*
X295000D01*
X190860Y62235D02*
X197159D01*
X197362D02*
X211078D01*
X216057D02*
X224794D01*
X234751D02*
X242676D01*
X251109D02*
X268482D01*
X274782D02*
X295000D01*
X190860Y62337D02*
X197261D01*
X197362D02*
X211078D01*
X216057D02*
X224794D01*
X234751D02*
X242676D01*
X251007D02*
X268584D01*
X274782D02*
X295000D01*
X190860Y62438D02*
X211180D01*
X216158D02*
X224896D01*
X234751D02*
X242676D01*
X250906D02*
X268686D01*
X274782D02*
X295000D01*
X190962Y62540D02*
X211282D01*
X216158D02*
X224998D01*
X234751D02*
X242676D01*
X250804D02*
X268787D01*
X274782D02*
X295000D01*
X190962Y62642D02*
X211282D01*
X216260D02*
X224998D01*
X234751D02*
X242676D01*
X250702D02*
X268889D01*
X274782D02*
X295000D01*
X190962Y62743D02*
X211383D01*
X216260D02*
X225099D01*
X234751D02*
X242676D01*
X250601D02*
X268990D01*
X274782D02*
X295000D01*
X190962Y62845D02*
X211485D01*
X216362D02*
X225099D01*
X234751D02*
X242676D01*
X250499D02*
X269092D01*
X274782D02*
X295000D01*
X190962Y62946D02*
X211485D01*
X216463D02*
X225201D01*
X234751D02*
X242676D01*
X250398D02*
X269194D01*
X274782D02*
X295000D01*
X190962Y63048D02*
X211586D01*
X216463D02*
X225201D01*
X234751D02*
X242676D01*
X250296D02*
X269295D01*
X274782D02*
X295000D01*
X190962Y63150D02*
X211586D01*
X216565D02*
X225302D01*
X234751D02*
X242676D01*
X250194D02*
X269397D01*
X274782D02*
X295000D01*
X190962Y63251D02*
X211688D01*
X216565D02*
X225302D01*
X234751D02*
X242676D01*
X250093D02*
X269498D01*
X274782D02*
X295000D01*
X190962Y63353D02*
X211688D01*
X216666D02*
X225404D01*
X234751D02*
X242676D01*
X249991D02*
X269600D01*
X274782D02*
X295000D01*
X190962Y63454D02*
X211688D01*
X216666D02*
X225404D01*
X234751D02*
X242676D01*
X249890D02*
X269702D01*
X274782D02*
X295000D01*
X190962Y63556D02*
X211790D01*
X216768D02*
X225506D01*
X234751D02*
X242676D01*
X249890D02*
X269702D01*
X274782D02*
X295000D01*
X190962Y63658D02*
X211790D01*
X216870D02*
X225607D01*
X234751D02*
X242676D01*
X249788D02*
X269803D01*
X274782D02*
X295000D01*
X190962Y63759D02*
X211891D01*
X216870D02*
X225607D01*
X234751D02*
X242676D01*
X249686D02*
X269905D01*
X274782D02*
X295000D01*
X190962Y63861D02*
X211891D01*
X216971D02*
X225709D01*
X234751D02*
X242676D01*
X249585D02*
X270006D01*
X274782D02*
X295000D01*
X190962Y63962D02*
X211891D01*
X216971D02*
X225709D01*
X234751D02*
X242676D01*
X249483D02*
X270108D01*
X274782D02*
X295000D01*
X190962Y64064D02*
X211993D01*
X217073D02*
X225810D01*
X234751D02*
X242676D01*
X249483D02*
X270108D01*
X274782D02*
X295000D01*
X190962Y64166D02*
X211993D01*
X217073D02*
X225810D01*
X234751D02*
X242676D01*
X249382D02*
X270210D01*
X274782D02*
X295000D01*
X190962Y64267D02*
X211993D01*
X217174D02*
X225912D01*
X234751D02*
X242676D01*
X249280D02*
X270311D01*
X274782D02*
X295000D01*
X190962Y64369D02*
X212094D01*
X217276D02*
X225912D01*
X234751D02*
X242676D01*
X249280D02*
X270311D01*
X274782D02*
X295000D01*
X190962Y64470D02*
X201426D01*
X203357D02*
X212094D01*
X217276D02*
X226014D01*
X234751D02*
X242676D01*
X249178D02*
X270413D01*
X274782D02*
X295000D01*
X190962Y64572D02*
X201020D01*
X203865D02*
X212094D01*
X217378D02*
X226115D01*
X234751D02*
X242676D01*
X249077D02*
X270514D01*
X274782D02*
X295000D01*
X190962Y64674D02*
X200614D01*
X204170D02*
X212094D01*
X217378D02*
X226115D01*
X234751D02*
X242676D01*
X249077D02*
X258830D01*
X260761D02*
X270514D01*
X274782D02*
X295000D01*
X191063Y64775D02*
X200410D01*
X204373D02*
X212094D01*
X217479D02*
X226217D01*
X234751D02*
X242676D01*
X248975D02*
X258322D01*
X261269D02*
X270616D01*
X274782D02*
X295000D01*
X190962Y64877D02*
X200207D01*
X204576D02*
X212196D01*
X217479D02*
X226217D01*
X234751D02*
X242676D01*
X248874D02*
X257916D01*
X261675D02*
X270718D01*
X274782D02*
X295000D01*
X190962Y64978D02*
X200004D01*
X204678D02*
X212196D01*
X217581D02*
X226318D01*
X234751D02*
X242676D01*
X248874D02*
X257611D01*
X261980D02*
X270718D01*
X274782D02*
X295000D01*
X190962Y65080D02*
X199801D01*
X204881D02*
X212196D01*
X217682D02*
X226318D01*
X234751D02*
X242676D01*
X248772D02*
X257306D01*
X262183D02*
X270819D01*
X274782D02*
X295000D01*
X190962Y65182D02*
X199699D01*
X204982D02*
X212196D01*
X217682D02*
X226420D01*
X234751D02*
X242676D01*
X248772D02*
X257103D01*
X262386D02*
X270819D01*
X274782D02*
X295000D01*
X190962Y65283D02*
X199496D01*
X205084D02*
X212196D01*
X217784D02*
X226420D01*
X234751D02*
X242676D01*
X248670D02*
X256900D01*
X262590D02*
X270921D01*
X274782D02*
X295000D01*
X190962Y65385D02*
X199394D01*
X205084D02*
X212196D01*
X217784D02*
X226522D01*
X234751D02*
X242676D01*
X248670D02*
X256798D01*
X262793D02*
X270921D01*
X274782D02*
X295000D01*
X190962Y65486D02*
X199293D01*
X205186D02*
X212196D01*
X217886D02*
X226522D01*
X234751D02*
X242676D01*
X248569D02*
X256595D01*
X262894D02*
X271022D01*
X274782D02*
X295000D01*
X190962Y65588D02*
X199191D01*
X205287D02*
X212298D01*
X217886D02*
X226623D01*
X234751D02*
X242676D01*
X248569D02*
X256494D01*
X263098D02*
X271022D01*
X274782D02*
X295000D01*
X190962Y65690D02*
X199090D01*
X205287D02*
X212298D01*
X217987D02*
X226725D01*
X234751D02*
X242676D01*
X248467D02*
X256290D01*
X263199D02*
X271124D01*
X274782D02*
X295000D01*
X190962Y65791D02*
X198988D01*
X205389D02*
X212298D01*
X217987D02*
X226725D01*
X234751D02*
X242676D01*
X248467D02*
X256189D01*
X263301D02*
X271124D01*
X274782D02*
X295000D01*
X190962Y65893D02*
X198886D01*
X205389D02*
X212298D01*
X218089D02*
X226826D01*
X234751D02*
X242676D01*
X248366D02*
X256087D01*
X263402D02*
X271226D01*
X274782D02*
X295000D01*
X190962Y65994D02*
X198785D01*
X205490D02*
X212298D01*
X218190D02*
X226826D01*
X234751D02*
X242676D01*
X248366D02*
X255986D01*
X263504D02*
X271226D01*
X274782D02*
X295000D01*
X190962Y66096D02*
X198683D01*
X205490D02*
X212298D01*
X218190D02*
X226928D01*
X234751D02*
X242676D01*
X248264D02*
X255884D01*
X263606D02*
X271327D01*
X274782D02*
X295000D01*
X190962Y66198D02*
X198683D01*
X205490D02*
X212298D01*
X218292D02*
X226928D01*
X234751D02*
X242676D01*
X248264D02*
X255782D01*
X263707D02*
X271327D01*
X274782D02*
X295000D01*
X190962Y66299D02*
X198582D01*
X205490D02*
X212298D01*
X218292D02*
X227030D01*
X234751D02*
X242676D01*
X248264D02*
X255681D01*
X263809D02*
X271327D01*
X274782D02*
X295000D01*
X190962Y66401D02*
X198480D01*
X205592D02*
X212298D01*
X218394D02*
X227030D01*
X234751D02*
X242676D01*
X248162D02*
X255681D01*
X263910D02*
X271429D01*
X274782D02*
X295000D01*
X190962Y66502D02*
X198480D01*
X205592D02*
X212298D01*
X218394D02*
X227131D01*
X234751D02*
X242676D01*
X248162D02*
X255579D01*
X264012D02*
X271429D01*
X274782D02*
X295000D01*
X190962Y66604D02*
X198378D01*
X205592D02*
X212298D01*
X218495D02*
X227131D01*
X234751D02*
X242676D01*
X248061D02*
X255478D01*
X264012D02*
X271530D01*
X287075D02*
X295000D01*
X190962Y66706D02*
X198277D01*
X205592D02*
X212298D01*
X218597D02*
X227233D01*
X234751D02*
X242676D01*
X248061D02*
X255376D01*
X264114D02*
X271530D01*
X287075D02*
X295000D01*
X190962Y66807D02*
X198277D01*
X205592D02*
X212298D01*
X218597D02*
X227334D01*
X234751D02*
X242676D01*
X248061D02*
X255376D01*
X264215D02*
X271530D01*
X287177D02*
X295000D01*
X190962Y66909D02*
X198175D01*
X205592D02*
X212298D01*
X218698D02*
X227334D01*
X234751D02*
X242676D01*
X247959D02*
X255274D01*
X264215D02*
X271632D01*
X287075D02*
X295000D01*
X190962Y67010D02*
X198175D01*
X205592D02*
X212298D01*
X218698D02*
X227436D01*
X234751D02*
X242676D01*
X247959D02*
X255173D01*
X264317D02*
X271632D01*
X287177D02*
X295000D01*
X190962Y67112D02*
X198175D01*
X205592D02*
X212298D01*
X218800D02*
X227436D01*
X234751D02*
X242676D01*
X247959D02*
X255173D01*
X264418D02*
X271632D01*
X287075D02*
X295000D01*
X190962Y67214D02*
X198074D01*
X205592D02*
X212196D01*
X218800D02*
X227538D01*
X234751D02*
X242676D01*
X247858D02*
X255071D01*
X264418D02*
X271734D01*
X287075D02*
X295000D01*
X190962Y67315D02*
X198074D01*
X205592D02*
X212196D01*
X218902D02*
X227538D01*
X234751D02*
X242676D01*
X247858D02*
X255071D01*
X264520D02*
X271734D01*
X287075D02*
X295000D01*
X190962Y67417D02*
X197972D01*
X205592D02*
X212196D01*
X219003D02*
X227639D01*
X234751D02*
X242676D01*
X247858D02*
X254970D01*
X264520D02*
X271734D01*
X287075D02*
X295000D01*
X190962Y67518D02*
X197972D01*
X205592D02*
X212196D01*
X219003D02*
X227639D01*
X234751D02*
X242676D01*
X247858D02*
X254970D01*
X264622D02*
X271835D01*
X287075D02*
X295000D01*
X190962Y67620D02*
X197972D01*
X205592D02*
X212196D01*
X219105D02*
X227741D01*
X234751D02*
X242676D01*
X247756D02*
X254970D01*
X264622D02*
X271835D01*
X287075D02*
X295000D01*
X190962Y67722D02*
X197870D01*
X205490D02*
X212196D01*
X219105D02*
X227741D01*
X234751D02*
X242676D01*
X247756D02*
X254868D01*
X264723D02*
X271835D01*
X287075D02*
X295000D01*
X190962Y67823D02*
X197870D01*
X205490D02*
X212196D01*
X219206D02*
X227842D01*
X234751D02*
X242676D01*
X247756D02*
X254868D01*
X264723D02*
X271835D01*
X287075D02*
X295000D01*
X190962Y67925D02*
X197870D01*
X205490D02*
X212094D01*
X219308D02*
X227944D01*
X234751D02*
X242676D01*
X247654D02*
X254766D01*
X264723D02*
X271937D01*
X287075D02*
X295000D01*
X190962Y68026D02*
X197870D01*
X205389D02*
X212094D01*
X219308D02*
X227944D01*
X234751D02*
X242676D01*
X247654D02*
X254766D01*
X264825D02*
X271937D01*
X287075D02*
X295000D01*
X190962Y68128D02*
X197870D01*
X205389D02*
X212094D01*
X219410D02*
X228046D01*
X234751D02*
X242676D01*
X247654D02*
X254766D01*
X264825D02*
X271937D01*
X287075D02*
X295000D01*
X190962Y68230D02*
X197769D01*
X205287D02*
X212094D01*
X219410D02*
X228046D01*
X234751D02*
X242676D01*
X247654D02*
X254665D01*
X264926D02*
X271937D01*
X287075D02*
X295000D01*
X190962Y68331D02*
X197769D01*
X205287D02*
X212094D01*
X219511D02*
X228147D01*
X234751D02*
X242676D01*
X247553D02*
X254665D01*
X264926D02*
X272038D01*
X287075D02*
X295000D01*
X190962Y68433D02*
X197769D01*
X205186D02*
X211993D01*
X219511D02*
X228147D01*
X234751D02*
X242676D01*
X247553D02*
X254665D01*
X264926D02*
X272038D01*
X287075D02*
X295000D01*
X190962Y68534D02*
X197769D01*
X205084D02*
X211993D01*
X219613D02*
X228249D01*
X234751D02*
X242676D01*
X247553D02*
X254563D01*
X265028D02*
X272038D01*
X287075D02*
X295000D01*
X190962Y68636D02*
X197769D01*
X204982D02*
X211993D01*
X219613D02*
X228249D01*
X234751D02*
X242676D01*
X247553D02*
X254563D01*
X265028D02*
X272038D01*
X287075D02*
X295000D01*
X190962Y68738D02*
X197769D01*
X204881D02*
X211993D01*
X219714D02*
X228350D01*
X234751D02*
X242676D01*
X247553D02*
X254563D01*
X265028D02*
X272038D01*
X287075D02*
X295000D01*
X190962Y68839D02*
X197667D01*
X204779D02*
X211891D01*
X219816D02*
X228350D01*
X234751D02*
X242676D01*
X247553D02*
X254563D01*
X265028D02*
X272140D01*
X287075D02*
X295000D01*
X190962Y68941D02*
X197667D01*
X204678D02*
X211891D01*
X219816D02*
X228452D01*
X234751D02*
X242676D01*
X247451D02*
X254462D01*
X265130D02*
X272140D01*
X287075D02*
X295000D01*
X190962Y69042D02*
X197667D01*
X204576D02*
X211891D01*
X219918D02*
X228554D01*
X234751D02*
X242676D01*
X247451D02*
X254462D01*
X265130D02*
X272140D01*
X287075D02*
X295000D01*
X190962Y69144D02*
X197667D01*
X204474D02*
X211790D01*
X219918D02*
X228554D01*
X234751D02*
X242676D01*
X247451D02*
X254462D01*
X265130D02*
X272140D01*
X287075D02*
X295000D01*
X190962Y69246D02*
X197667D01*
X204271D02*
X211790D01*
X220019D02*
X228655D01*
X234751D02*
X242676D01*
X247451D02*
X254462D01*
X265130D02*
X272140D01*
X287075D02*
X295000D01*
X190962Y69347D02*
X197667D01*
X204170D02*
X211688D01*
X220019D02*
X228655D01*
X234751D02*
X242676D01*
X247451D02*
X254360D01*
X265231D02*
X272140D01*
X287075D02*
X295000D01*
X190962Y69449D02*
X197667D01*
X203966D02*
X211688D01*
X220121D02*
X228757D01*
X234751D02*
X242676D01*
X247451D02*
X254360D01*
X265231D02*
X272140D01*
X287075D02*
X295000D01*
X190962Y69550D02*
X197667D01*
X203763D02*
X211688D01*
X220222D02*
X228757D01*
X234751D02*
X242676D01*
X247350D02*
X254360D01*
X265231D02*
X272242D01*
X287075D02*
X295000D01*
X190962Y69652D02*
X197667D01*
X203560D02*
X211586D01*
X220222D02*
X228858D01*
X234751D02*
X242676D01*
X247350D02*
X254360D01*
X265231D02*
X272242D01*
X287075D02*
X295000D01*
X190962Y69754D02*
X197667D01*
X203357D02*
X211586D01*
X220324D02*
X228858D01*
X234751D02*
X242676D01*
X247350D02*
X254360D01*
X265231D02*
X272242D01*
X287075D02*
X295000D01*
X190962Y69855D02*
X197667D01*
X203052D02*
X211485D01*
X220324D02*
X228960D01*
X234751D02*
X242676D01*
X247350D02*
X254360D01*
X265333D02*
X272242D01*
X287075D02*
X295000D01*
X190962Y69957D02*
X197667D01*
X202747D02*
X211383D01*
X220426D02*
X229062D01*
X234751D02*
X242676D01*
X247350D02*
X254258D01*
X265333D02*
X272242D01*
X287075D02*
X295000D01*
X190962Y70058D02*
X197667D01*
X202442D02*
X211383D01*
X220426D02*
X229062D01*
X234751D02*
X242676D01*
X247350D02*
X254258D01*
X265333D02*
X272242D01*
X287075D02*
X295000D01*
X190962Y70160D02*
X197667D01*
X202138D02*
X211282D01*
X220527D02*
X229163D01*
X234751D02*
X242676D01*
X247350D02*
X254258D01*
X265333D02*
X272242D01*
X287075D02*
X295000D01*
X190962Y70262D02*
X197667D01*
X201731D02*
X211282D01*
X220629D02*
X229163D01*
X234751D02*
X242676D01*
X247350D02*
X254258D01*
X265333D02*
X272242D01*
X287075D02*
X295000D01*
X190962Y70363D02*
X197667D01*
X201426D02*
X211180D01*
X220629D02*
X229265D01*
X234751D02*
X242676D01*
X247350D02*
X254258D01*
X265333D02*
X272242D01*
X287075D02*
X295000D01*
X190962Y70465D02*
X197667D01*
X201020D02*
X211078D01*
X220730D02*
X229265D01*
X234751D02*
X242676D01*
X247350D02*
X254258D01*
X265333D02*
X272242D01*
X287075D02*
X295000D01*
X190962Y70566D02*
X197667D01*
X200715D02*
X211078D01*
X220730D02*
X229366D01*
X234751D02*
X242676D01*
X247350D02*
X254258D01*
X265333D02*
X272242D01*
X287075D02*
X295000D01*
X190962Y70668D02*
X197667D01*
X200309D02*
X210977D01*
X220832D02*
X229366D01*
X234751D02*
X242676D01*
X247350D02*
X254258D01*
X265333D02*
X272343D01*
X287075D02*
X295000D01*
X190962Y70770D02*
X197667D01*
X200004D02*
X210875D01*
X220832D02*
X229468D01*
X234751D02*
X242676D01*
X247248D02*
X254258D01*
X265434D02*
X272343D01*
X287075D02*
X295000D01*
X190962Y70871D02*
X197667D01*
X199598D02*
X210774D01*
X220934D02*
X229468D01*
X234751D02*
X242676D01*
X247248D02*
X254258D01*
X265434D02*
X272343D01*
X287075D02*
X295000D01*
X190962Y70973D02*
X197667D01*
X199293D02*
X210774D01*
X221035D02*
X229570D01*
X234751D02*
X242676D01*
X247248D02*
X254157D01*
X265434D02*
X272343D01*
X287075D02*
X295000D01*
X190962Y71074D02*
X197667D01*
X198886D02*
X210672D01*
X221035D02*
X229671D01*
X234751D02*
X242676D01*
X247248D02*
X254157D01*
X265434D02*
X272343D01*
X287075D02*
X295000D01*
X190962Y71176D02*
X197667D01*
X198582D02*
X210570D01*
X221137D02*
X229671D01*
X234751D02*
X242676D01*
X247248D02*
X254157D01*
X265434D02*
X272343D01*
X287075D02*
X295000D01*
X190962Y71278D02*
X197667D01*
X198175D02*
X210469D01*
X221137D02*
X229773D01*
X234751D02*
X242676D01*
X247248D02*
X254157D01*
X265434D02*
X272343D01*
X287075D02*
X295000D01*
X190962Y71379D02*
X197667D01*
X197769D02*
X210367D01*
X221238D02*
X242676D01*
X247248D02*
X254157D01*
X265434D02*
X272343D01*
X287075D02*
X295000D01*
X190962Y71481D02*
X210266D01*
X221238D02*
X242676D01*
X247248D02*
X254157D01*
X265434D02*
X272343D01*
X287075D02*
X295000D01*
X190962Y71582D02*
X210164D01*
X221340D02*
X242676D01*
X247248D02*
X254157D01*
X265434D02*
X272343D01*
X287075D02*
X295000D01*
X190962Y71684D02*
X210062D01*
X221442D02*
X242676D01*
X247248D02*
X254157D01*
X265434D02*
X272343D01*
X287075D02*
X295000D01*
X190962Y71786D02*
X209961D01*
X221442D02*
X242676D01*
X247248D02*
X254157D01*
X265434D02*
X272343D01*
X287075D02*
X295000D01*
X190962Y71887D02*
X209859D01*
X221543D02*
X242676D01*
X247248D02*
X254157D01*
X265434D02*
X272343D01*
X287075D02*
X295000D01*
X190962Y71989D02*
X209656D01*
X221543D02*
X242676D01*
X247248D02*
X254157D01*
X265434D02*
X272343D01*
X287075D02*
X295000D01*
X190962Y72090D02*
X209554D01*
X221645D02*
X242676D01*
X247248D02*
X254157D01*
X265434D02*
X272343D01*
X287075D02*
X295000D01*
X190962Y72192D02*
X209453D01*
X221645D02*
X242676D01*
X247248D02*
X254157D01*
X265434D02*
X272343D01*
X287075D02*
X295000D01*
X190962Y72294D02*
X209250D01*
X221746D02*
X242676D01*
X247248D02*
X254157D01*
X265434D02*
X272343D01*
X287075D02*
X295000D01*
X190962Y72395D02*
X209148D01*
X221848D02*
X242676D01*
X247248D02*
X254157D01*
X265434D02*
X272343D01*
X287075D02*
X295000D01*
X190962Y72497D02*
X208945D01*
X221848D02*
X242676D01*
X247248D02*
X254157D01*
X265434D02*
X272343D01*
X287075D02*
X295000D01*
X190962Y72598D02*
X208843D01*
X221950D02*
X242676D01*
X247248D02*
X254157D01*
X265434D02*
X272343D01*
X287075D02*
X295000D01*
X190962Y72700D02*
X208640D01*
X221645D02*
X242676D01*
X247248D02*
X254157D01*
X265434D02*
X272343D01*
X287075D02*
X295000D01*
X190962Y72802D02*
X208437D01*
X221442D02*
X242676D01*
X247350D02*
X254157D01*
X265333D02*
X272343D01*
X287075D02*
X295000D01*
X190962Y72903D02*
X208234D01*
X221137D02*
X242676D01*
X247350D02*
X254258D01*
X265333D02*
X272242D01*
X287075D02*
X295000D01*
X190962Y73005D02*
X208030D01*
X220832D02*
X242676D01*
X247350D02*
X254258D01*
X265333D02*
X272242D01*
X287075D02*
X295000D01*
X190962Y73106D02*
X207827D01*
X220629D02*
X242676D01*
X247350D02*
X254258D01*
X265333D02*
X272242D01*
X287075D02*
X295000D01*
X190962Y73208D02*
X207624D01*
X220426D02*
X242676D01*
X247350D02*
X254258D01*
X265333D02*
X272242D01*
X287075D02*
X295000D01*
X190962Y73310D02*
X207421D01*
X220222D02*
X242676D01*
X247350D02*
X254258D01*
X265333D02*
X272242D01*
X287075D02*
X295000D01*
X190962Y73411D02*
X207116D01*
X220019D02*
X242676D01*
X247350D02*
X254258D01*
X265333D02*
X272242D01*
X287075D02*
X295000D01*
X190962Y73513D02*
X206913D01*
X219816D02*
X242676D01*
X247350D02*
X254258D01*
X265333D02*
X272242D01*
X287075D02*
X295000D01*
X190962Y73614D02*
X206608D01*
X219613D02*
X242676D01*
X247350D02*
X254258D01*
X265333D02*
X272242D01*
X287075D02*
X295000D01*
X190962Y73716D02*
X206303D01*
X219511D02*
X242676D01*
X247350D02*
X254258D01*
X265231D02*
X272242D01*
X287075D02*
X295000D01*
X190962Y73818D02*
X205998D01*
X219308D02*
X242676D01*
X247350D02*
X254360D01*
X265231D02*
X272242D01*
X287075D02*
X295000D01*
X190962Y73919D02*
X205694D01*
X219206D02*
X242676D01*
X247350D02*
X254360D01*
X265231D02*
X272242D01*
X287075D02*
X295000D01*
X190962Y74021D02*
X205389D01*
X219003D02*
X242676D01*
X247451D02*
X254360D01*
X265231D02*
X272140D01*
X287075D02*
X295000D01*
X190962Y74122D02*
X204982D01*
X218902D02*
X242676D01*
X247451D02*
X254360D01*
X265231D02*
X272140D01*
X287075D02*
X295000D01*
X190962Y74224D02*
X204576D01*
X218800D02*
X242676D01*
X247451D02*
X254360D01*
X265130D02*
X272140D01*
X287075D02*
X295000D01*
X190962Y74326D02*
X204170D01*
X218597D02*
X242676D01*
X247451D02*
X254462D01*
X265130D02*
X272140D01*
X287075D02*
X295000D01*
X190962Y74427D02*
X203763D01*
X218495D02*
X242676D01*
X247451D02*
X254462D01*
X265130D02*
X272140D01*
X287075D02*
X295000D01*
X190962Y74529D02*
X203357D01*
X218394D02*
X242676D01*
X247451D02*
X254462D01*
X265130D02*
X272140D01*
X287075D02*
X295000D01*
X190962Y74630D02*
X202849D01*
X218292D02*
X242676D01*
X247553D02*
X254462D01*
X265130D02*
X272140D01*
X287075D02*
X295000D01*
X190962Y74732D02*
X202341D01*
X218190D02*
X242676D01*
X247553D02*
X254462D01*
X265028D02*
X272038D01*
X287075D02*
X295000D01*
X190962Y74834D02*
X201731D01*
X218089D02*
X242676D01*
X247553D02*
X254563D01*
X265028D02*
X272038D01*
X287075D02*
X295000D01*
X190962Y74935D02*
X201122D01*
X217987D02*
X242676D01*
X247553D02*
X254563D01*
X265028D02*
X272038D01*
X287075D02*
X295000D01*
X190962Y75037D02*
X200410D01*
X217886D02*
X242676D01*
X247553D02*
X254563D01*
X264926D02*
X272038D01*
X287075D02*
X295000D01*
X190962Y75138D02*
X199699D01*
X217784D02*
X242676D01*
X247553D02*
X254665D01*
X264926D02*
X272038D01*
X287075D02*
X295000D01*
X190962Y75240D02*
X198988D01*
X217682D02*
X242676D01*
X247654D02*
X254665D01*
X264926D02*
X271937D01*
X287075D02*
X295000D01*
X190962Y75342D02*
X198175D01*
X217581D02*
X242676D01*
X247654D02*
X254665D01*
X264825D02*
X271937D01*
X287075D02*
X295000D01*
X190962Y75443D02*
X197667D01*
X217479D02*
X242676D01*
X247654D02*
X254766D01*
X264825D02*
X271937D01*
X287075D02*
X295000D01*
X190962Y75545D02*
X197667D01*
X217378D02*
X242676D01*
X247654D02*
X254766D01*
X264825D02*
X271937D01*
X287075D02*
X295000D01*
X190962Y75646D02*
X197667D01*
X217378D02*
X242676D01*
X247756D02*
X254868D01*
X264723D02*
X271835D01*
X287075D02*
X295000D01*
X190962Y75748D02*
X197667D01*
X217276D02*
X242676D01*
X247756D02*
X254868D01*
X264723D02*
X271835D01*
X287075D02*
X295000D01*
X190962Y75850D02*
X197667D01*
X217174D02*
X242676D01*
X247756D02*
X254868D01*
X264622D02*
X271835D01*
X287075D02*
X295000D01*
X190962Y75951D02*
X197667D01*
X217073D02*
X242676D01*
X247756D02*
X254970D01*
X264622D02*
X271835D01*
X287075D02*
X295000D01*
X190962Y76053D02*
X197667D01*
X216971D02*
X242676D01*
X247858D02*
X254970D01*
X264520D02*
X271734D01*
X287075D02*
X295000D01*
X190962Y76154D02*
X197667D01*
X216971D02*
X242676D01*
X247858D02*
X255071D01*
X264520D02*
X271734D01*
X287075D02*
X295000D01*
X190962Y76256D02*
X197667D01*
X216870D02*
X242676D01*
X247858D02*
X255173D01*
X264418D02*
X271734D01*
X287075D02*
X295000D01*
X190962Y76358D02*
X197667D01*
X216768D02*
X242676D01*
X247959D02*
X255173D01*
X264418D02*
X271632D01*
X287075D02*
X295000D01*
X190962Y76459D02*
X197667D01*
X216768D02*
X242676D01*
X247959D02*
X255274D01*
X264317D02*
X271632D01*
X287075D02*
X295000D01*
X190962Y76561D02*
X197667D01*
X216666D02*
X242676D01*
X247959D02*
X255274D01*
X264215D02*
X271632D01*
X287075D02*
X295000D01*
X190962Y76662D02*
X197667D01*
X216666D02*
X242676D01*
X248061D02*
X255376D01*
X264215D02*
X271530D01*
X287075D02*
X295000D01*
X190962Y76764D02*
X197667D01*
X204576D02*
X211180D01*
X216565D02*
X242676D01*
X248061D02*
X255478D01*
X264114D02*
X271530D01*
X287075D02*
X295000D01*
X190962Y76866D02*
X197667D01*
X204576D02*
X211180D01*
X216463D02*
X242676D01*
X248061D02*
X255478D01*
X264012D02*
X271530D01*
X287075D02*
X295000D01*
X190962Y76967D02*
X197667D01*
X204576D02*
X211180D01*
X216463D02*
X242676D01*
X248162D02*
X255579D01*
X264012D02*
X271429D01*
X287075D02*
X295000D01*
X190962Y77069D02*
X197667D01*
X204474D02*
X211180D01*
X216362D02*
X242676D01*
X248162D02*
X255681D01*
X263910D02*
X271429D01*
X287075D02*
X295000D01*
X190962Y77170D02*
X197667D01*
X204474D02*
X211180D01*
X216362D02*
X226928D01*
X234751D02*
X242676D01*
X248264D02*
X255782D01*
X263809D02*
X271429D01*
X287075D02*
X295000D01*
X191063Y77272D02*
X197667D01*
X204474D02*
X211180D01*
X216260D02*
X226217D01*
X234751D02*
X242676D01*
X248264D02*
X255884D01*
X263707D02*
X271327D01*
X287075D02*
X295000D01*
X191063Y77374D02*
X197667D01*
X204474D02*
X211180D01*
X216260D02*
X225810D01*
X234751D02*
X242676D01*
X248264D02*
X255986D01*
X263606D02*
X271327D01*
X287075D02*
X295000D01*
X191063Y77475D02*
X197667D01*
X204373D02*
X211180D01*
X216158D02*
X225506D01*
X234751D02*
X242676D01*
X248366D02*
X256087D01*
X263504D02*
X271226D01*
X287075D02*
X295000D01*
X191063Y77577D02*
X197667D01*
X204373D02*
X211180D01*
X216158D02*
X225302D01*
X234751D02*
X242676D01*
X248366D02*
X256189D01*
X263402D02*
X271226D01*
X287075D02*
X295000D01*
X191063Y77678D02*
X197667D01*
X204373D02*
X211180D01*
X216057D02*
X225099D01*
X234751D02*
X242676D01*
X248467D02*
X256290D01*
X263301D02*
X271124D01*
X287075D02*
X295000D01*
X191063Y77780D02*
X197667D01*
X204271D02*
X211078D01*
X216057D02*
X224896D01*
X234751D02*
X242676D01*
X248467D02*
X256392D01*
X263199D02*
X271124D01*
X287075D02*
X295000D01*
X191063Y77882D02*
X197667D01*
X204271D02*
X211078D01*
X216057D02*
X224794D01*
X234751D02*
X242676D01*
X248569D02*
X256494D01*
X263098D02*
X271022D01*
X287075D02*
X295000D01*
X191063Y77983D02*
X197769D01*
X204271D02*
X211078D01*
X215955D02*
X224591D01*
X234751D02*
X242676D01*
X248569D02*
X256697D01*
X262894D02*
X271022D01*
X287075D02*
X295000D01*
X191063Y78085D02*
X197769D01*
X204170D02*
X211078D01*
X215955D02*
X224490D01*
X234751D02*
X242676D01*
X248670D02*
X256798D01*
X262793D02*
X270921D01*
X287075D02*
X295000D01*
X191063Y78186D02*
X197769D01*
X204170D02*
X211078D01*
X215955D02*
X224388D01*
X234751D02*
X242676D01*
X248670D02*
X257002D01*
X262590D02*
X270921D01*
X287075D02*
X295000D01*
X191063Y78288D02*
X197769D01*
X204068D02*
X211078D01*
X215854D02*
X224286D01*
X234751D02*
X242676D01*
X248772D02*
X257205D01*
X262386D02*
X270819D01*
X287075D02*
X295000D01*
X191063Y78390D02*
X197870D01*
X204068D02*
X211078D01*
X215854D02*
X224185D01*
X234751D02*
X242676D01*
X248772D02*
X257408D01*
X262183D02*
X270819D01*
X287075D02*
X295000D01*
X191063Y78491D02*
X197870D01*
X203966D02*
X210977D01*
X215854D02*
X224083D01*
X234751D02*
X242676D01*
X248874D02*
X257611D01*
X261980D02*
X270718D01*
X287075D02*
X295000D01*
X191063Y78593D02*
X197972D01*
X203966D02*
X210977D01*
X215752D02*
X224083D01*
X234751D02*
X242676D01*
X248874D02*
X257916D01*
X261675D02*
X270718D01*
X287075D02*
X295000D01*
X191165Y78694D02*
X197972D01*
X203865D02*
X210977D01*
X215752D02*
X223982D01*
X234751D02*
X242676D01*
X248975D02*
X258322D01*
X261269D02*
X270616D01*
X287075D02*
X295000D01*
X191165Y78796D02*
X198074D01*
X203763D02*
X210977D01*
X215752D02*
X223880D01*
X234751D02*
X242676D01*
X249077D02*
X258830D01*
X260761D02*
X270616D01*
X287075D02*
X295000D01*
X191165Y78898D02*
X198074D01*
X203763D02*
X210875D01*
X215752D02*
X223880D01*
X234751D02*
X242676D01*
X249077D02*
X270514D01*
X287075D02*
X295000D01*
X191165Y78999D02*
X198175D01*
X203662D02*
X210875D01*
X215650D02*
X223778D01*
X234751D02*
X242676D01*
X249178D02*
X270413D01*
X287075D02*
X295000D01*
X191165Y79101D02*
X198277D01*
X203560D02*
X210875D01*
X215650D02*
X223778D01*
X234751D02*
X242676D01*
X249178D02*
X270413D01*
X287075D02*
X295000D01*
X191266Y79202D02*
X198378D01*
X203357D02*
X210774D01*
X215650D02*
X223677D01*
X234751D02*
X242676D01*
X249280D02*
X270311D01*
X287075D02*
X295000D01*
X191266Y79304D02*
X198582D01*
X203255D02*
X210774D01*
X215650D02*
X223677D01*
X234751D02*
X242676D01*
X249382D02*
X270210D01*
X287075D02*
X295000D01*
X191266Y79406D02*
X198683D01*
X203154D02*
X210774D01*
X215549D02*
X223575D01*
X234751D02*
X242676D01*
X249483D02*
X270210D01*
X287075D02*
X295000D01*
X191266Y79507D02*
X198886D01*
X202950D02*
X210672D01*
X215549D02*
X223575D01*
X234751D02*
X242676D01*
X249483D02*
X270108D01*
X287075D02*
X295000D01*
X191368Y79609D02*
X199191D01*
X202646D02*
X210672D01*
X215549D02*
X223575D01*
X234751D02*
X242676D01*
X249585D02*
X270006D01*
X287075D02*
X295000D01*
X191368Y79710D02*
X199496D01*
X202341D02*
X210672D01*
X215549D02*
X223575D01*
X234751D02*
X242676D01*
X249686D02*
X269905D01*
X287075D02*
X295000D01*
X191368Y79812D02*
X199902D01*
X201934D02*
X210570D01*
X215549D02*
X223474D01*
X234751D02*
X242676D01*
X249788D02*
X269803D01*
X287075D02*
X295000D01*
X191470Y79914D02*
X210570D01*
X215549D02*
X223474D01*
X234751D02*
X242676D01*
X249788D02*
X269803D01*
X287075D02*
X295000D01*
X191470Y80015D02*
X210469D01*
X215549D02*
X223474D01*
X234751D02*
X242676D01*
X249890D02*
X269702D01*
X287075D02*
X295000D01*
X191470Y80117D02*
X210469D01*
X215447D02*
X223474D01*
X234751D02*
X242676D01*
X249991D02*
X269600D01*
X287075D02*
X295000D01*
X191571Y80218D02*
X210367D01*
X215447D02*
X223372D01*
X234751D02*
X242676D01*
X250093D02*
X269498D01*
X287075D02*
X295000D01*
X191571Y80320D02*
X210367D01*
X215447D02*
X223372D01*
X234751D02*
X242676D01*
X250194D02*
X269397D01*
X287075D02*
X295000D01*
X191673Y80422D02*
X210266D01*
X215447D02*
X223372D01*
X234751D02*
X242676D01*
X250296D02*
X269295D01*
X287075D02*
X295000D01*
X183443Y80523D02*
X183951D01*
X185170D02*
X185678D01*
X186999D02*
X187507D01*
X189438D02*
X190047D01*
X191673D02*
X210266D01*
X215447D02*
X223372D01*
X234751D02*
X242676D01*
X250398D02*
X269194D01*
X287075D02*
X295000D01*
X183443Y80625D02*
X183951D01*
X185170D02*
X185780D01*
X186999D02*
X187507D01*
X189438D02*
X190047D01*
X191774D02*
X210164D01*
X215447D02*
X223372D01*
X234751D02*
X242676D01*
X250499D02*
X269092D01*
X287075D02*
X295000D01*
X183443Y80726D02*
X183951D01*
X185069D02*
X185780D01*
X186999D02*
X187507D01*
X189438D02*
X190047D01*
X191774D02*
X210164D01*
X215447D02*
X223372D01*
X234751D02*
X242676D01*
X250601D02*
X268990D01*
X287075D02*
X295000D01*
X183443Y80828D02*
X183951D01*
X185069D02*
X185882D01*
X186999D02*
X187507D01*
X189438D02*
X190047D01*
X191876D02*
X210062D01*
X215447D02*
X223372D01*
X234751D02*
X242676D01*
X250702D02*
X268889D01*
X287075D02*
X295000D01*
X183443Y80930D02*
X183951D01*
X185069D02*
X185882D01*
X186999D02*
X187507D01*
X189438D02*
X190047D01*
X191978D02*
X209961D01*
X215447D02*
X223372D01*
X234751D02*
X242676D01*
X250804D02*
X268787D01*
X287075D02*
X295000D01*
X183443Y81031D02*
X183951D01*
X184967D02*
X185882D01*
X186999D02*
X187507D01*
X189438D02*
X190047D01*
X191978D02*
X209961D01*
X215447D02*
X223372D01*
X234751D02*
X242676D01*
X250906D02*
X268686D01*
X287075D02*
X295000D01*
X183443Y81133D02*
X183951D01*
X184967D02*
X185983D01*
X186999D02*
X187507D01*
X189438D02*
X190047D01*
X192079D02*
X209859D01*
X215447D02*
X223372D01*
X234751D02*
X242676D01*
X251007D02*
X268584D01*
X287075D02*
X295000D01*
X183443Y81234D02*
X183951D01*
X184967D02*
X185374D01*
X185475D02*
X185983D01*
X186999D02*
X187507D01*
X189438D02*
X190047D01*
X192181D02*
X209758D01*
X215447D02*
X223270D01*
X234751D02*
X242676D01*
X251109D02*
X268482D01*
X287075D02*
X295000D01*
X183443Y81336D02*
X183951D01*
X184866D02*
X185374D01*
X185577D02*
X186085D01*
X186999D02*
X187507D01*
X189438D02*
X190047D01*
X192181D02*
X209656D01*
X215447D02*
X223270D01*
X234751D02*
X242676D01*
X251210D02*
X268381D01*
X287075D02*
X295000D01*
X183443Y81438D02*
X183951D01*
X184866D02*
X185374D01*
X185577D02*
X186085D01*
X186999D02*
X187507D01*
X189438D02*
X190047D01*
X192282D02*
X209554D01*
X215447D02*
X223270D01*
X234751D02*
X242676D01*
X251312D02*
X268279D01*
X287075D02*
X295000D01*
X183443Y81539D02*
X183951D01*
X184764D02*
X185272D01*
X185678D02*
X186085D01*
X186999D02*
X187507D01*
X189438D02*
X190047D01*
X192384D02*
X209453D01*
X215447D02*
X223270D01*
X234751D02*
X242676D01*
X251515D02*
X268076D01*
X287075D02*
X295000D01*
X183443Y81641D02*
X183951D01*
X184764D02*
X185272D01*
X185678D02*
X186186D01*
X186999D02*
X187507D01*
X189438D02*
X190047D01*
X192486D02*
X209453D01*
X215447D02*
X223372D01*
X234751D02*
X242676D01*
X251617D02*
X267974D01*
X287075D02*
X295000D01*
X183443Y81742D02*
X183951D01*
X184764D02*
X185170D01*
X185678D02*
X186186D01*
X186999D02*
X187507D01*
X189438D02*
X190047D01*
X192587D02*
X209351D01*
X215447D02*
X223372D01*
X234751D02*
X242676D01*
X251718D02*
X267873D01*
X287075D02*
X295000D01*
X183443Y81844D02*
X183951D01*
X184662D02*
X185170D01*
X185780D02*
X186186D01*
X186999D02*
X187507D01*
X189438D02*
X190047D01*
X192689D02*
X209250D01*
X215447D02*
X223372D01*
X234751D02*
X242676D01*
X251922D02*
X267670D01*
X287075D02*
X295000D01*
X183443Y81946D02*
X183951D01*
X184662D02*
X185170D01*
X185780D02*
X186288D01*
X186999D02*
X187507D01*
X189438D02*
X190047D01*
X192790D02*
X209046D01*
X215447D02*
X223372D01*
X234751D02*
X242676D01*
X252023D02*
X267568D01*
X287075D02*
X295000D01*
X183443Y82047D02*
X183951D01*
X184662D02*
X185069D01*
X185780D02*
X186288D01*
X186999D02*
X187507D01*
X189438D02*
X190047D01*
X192892D02*
X208945D01*
X215447D02*
X223372D01*
X234751D02*
X242676D01*
X252226D02*
X267365D01*
X287075D02*
X295000D01*
X183443Y82149D02*
X183951D01*
X184561D02*
X185069D01*
X185882D02*
X186390D01*
X186999D02*
X187507D01*
X189438D02*
X190047D01*
X192994D02*
X208843D01*
X215447D02*
X223372D01*
X234751D02*
X242676D01*
X252328D02*
X267263D01*
X287075D02*
X295000D01*
X183443Y82250D02*
X183951D01*
X184561D02*
X185069D01*
X185882D02*
X186390D01*
X186999D02*
X187507D01*
X189438D02*
X190047D01*
X193095D02*
X208742D01*
X215447D02*
X223372D01*
X234751D02*
X242676D01*
X252531D02*
X267060D01*
X287075D02*
X295000D01*
X183443Y82352D02*
X183951D01*
X184459D02*
X184967D01*
X185882D02*
X186390D01*
X186999D02*
X187507D01*
X189438D02*
X190047D01*
X193298D02*
X208640D01*
X215447D02*
X223372D01*
X234751D02*
X242676D01*
X252633D02*
X266958D01*
X287075D02*
X295000D01*
X183443Y82454D02*
X183951D01*
X184459D02*
X184967D01*
X185983D02*
X186491D01*
X186999D02*
X187507D01*
X189438D02*
X190047D01*
X193400D02*
X208437D01*
X215447D02*
X223372D01*
X234751D02*
X242676D01*
X252836D02*
X266755D01*
X287075D02*
X295000D01*
X183443Y82555D02*
X183951D01*
X184459D02*
X184866D01*
X185983D02*
X186491D01*
X186999D02*
X187507D01*
X189438D02*
X190047D01*
X193603D02*
X208335D01*
X215549D02*
X223372D01*
X234751D02*
X242676D01*
X253039D02*
X266552D01*
X287075D02*
X295000D01*
X183443Y82657D02*
X183951D01*
X184358D02*
X184866D01*
X186085D02*
X186491D01*
X186999D02*
X187507D01*
X189438D02*
X190047D01*
X193705D02*
X208132D01*
X215549D02*
X223474D01*
X234751D02*
X242676D01*
X253242D02*
X266349D01*
X287075D02*
X295000D01*
X183443Y82758D02*
X183951D01*
X184358D02*
X184866D01*
X186085D02*
X186593D01*
X186999D02*
X187507D01*
X189438D02*
X190047D01*
X193908D02*
X207929D01*
X215549D02*
X223474D01*
X234751D02*
X242676D01*
X253446D02*
X266247D01*
X287075D02*
X295000D01*
X183443Y82860D02*
X183951D01*
X184358D02*
X184764D01*
X186085D02*
X186593D01*
X186999D02*
X187507D01*
X189438D02*
X190047D01*
X194111D02*
X207827D01*
X215549D02*
X223474D01*
X234751D02*
X242676D01*
X253649D02*
X266044D01*
X287075D02*
X295000D01*
X183443Y82962D02*
X183951D01*
X184256D02*
X184764D01*
X186186D02*
X186694D01*
X186999D02*
X187507D01*
X189438D02*
X190047D01*
X194314D02*
X207624D01*
X215549D02*
X223474D01*
X234751D02*
X242676D01*
X253852D02*
X265739D01*
X287075D02*
X295000D01*
X183443Y83063D02*
X183951D01*
X184256D02*
X184764D01*
X186186D02*
X186694D01*
X186999D02*
X187507D01*
X189438D02*
X190047D01*
X194518D02*
X207421D01*
X215549D02*
X223575D01*
X234751D02*
X242676D01*
X254055D02*
X265536D01*
X287075D02*
X295000D01*
X183443Y83165D02*
X183951D01*
X184154D02*
X184662D01*
X186186D02*
X186694D01*
X186999D02*
X187507D01*
X189438D02*
X190047D01*
X194721D02*
X207218D01*
X215549D02*
X223575D01*
X234751D02*
X242676D01*
X254258D02*
X265333D01*
X287075D02*
X295000D01*
X183443Y83266D02*
X183951D01*
X184154D02*
X184662D01*
X186288D02*
X186796D01*
X186999D02*
X187507D01*
X189438D02*
X190047D01*
X195026D02*
X206913D01*
X215549D02*
X223575D01*
X234751D02*
X242676D01*
X254563D02*
X265028D01*
X287075D02*
X295000D01*
X183443Y83368D02*
X183951D01*
X184154D02*
X184561D01*
X186288D02*
X186796D01*
X186999D02*
X187507D01*
X189438D02*
X190047D01*
X195330D02*
X206710D01*
X215549D02*
X223575D01*
X234751D02*
X242676D01*
X254868D02*
X264723D01*
X287075D02*
X295000D01*
X183443Y83470D02*
X183951D01*
X184053D02*
X184561D01*
X186390D02*
X186796D01*
X186999D02*
X187507D01*
X189438D02*
X190047D01*
X195635D02*
X206405D01*
X215650D02*
X223677D01*
X234751D02*
X242676D01*
X255173D02*
X264418D01*
X287075D02*
X295000D01*
X183443Y83571D02*
X183951D01*
X184053D02*
X184561D01*
X186390D02*
X186898D01*
X186999D02*
X187507D01*
X189438D02*
X190047D01*
X196042D02*
X206100D01*
X215650D02*
X223677D01*
X234751D02*
X242676D01*
X255478D02*
X264114D01*
X287075D02*
X295000D01*
X183443Y83673D02*
X183951D01*
X184053D02*
X184459D01*
X186390D02*
X186898D01*
X186999D02*
X187507D01*
X189438D02*
X190047D01*
X196448D02*
X205694D01*
X215650D02*
X223778D01*
X234751D02*
X242676D01*
X255884D02*
X263707D01*
X287075D02*
X295000D01*
X183443Y83774D02*
X184459D01*
X186491D02*
X187507D01*
X189438D02*
X190047D01*
X196956D02*
X205287D01*
X215650D02*
X223778D01*
X234751D02*
X242676D01*
X256290D02*
X263301D01*
X287075D02*
X295000D01*
X183443Y83876D02*
X184459D01*
X186491D02*
X187507D01*
X189438D02*
X190047D01*
X197464D02*
X204779D01*
X215650D02*
X223880D01*
X234751D02*
X242676D01*
X256798D02*
X262793D01*
X287075D02*
X295000D01*
X183443Y83978D02*
X184358D01*
X186491D02*
X187507D01*
X189438D02*
X190047D01*
X198277D02*
X204170D01*
X215650D02*
X223880D01*
X234751D02*
X242676D01*
X257408D02*
X262183D01*
X287075D02*
X295000D01*
X183443Y84079D02*
X184358D01*
X186593D02*
X187507D01*
X188117D02*
X191368D01*
X199496D02*
X203154D01*
X215752D02*
X223982D01*
X234751D02*
X242676D01*
X258322D02*
X261269D01*
X287075D02*
X295000D01*
X183443Y84181D02*
X184358D01*
X186593D02*
X187507D01*
X188117D02*
X191368D01*
X215752D02*
X224083D01*
X234751D02*
X242676D01*
X287075D02*
X295000D01*
X183443Y84282D02*
X184256D01*
X186694D02*
X187507D01*
X188117D02*
X191368D01*
X215752D02*
X224083D01*
X234751D02*
X242676D01*
X287075D02*
X295000D01*
X183443Y84384D02*
X184256D01*
X186694D02*
X187507D01*
X188117D02*
X191368D01*
X215752D02*
X224185D01*
X234751D02*
X242676D01*
X287075D02*
X295000D01*
X183443Y84486D02*
X184154D01*
X186694D02*
X187507D01*
X188117D02*
X191368D01*
X215854D02*
X224286D01*
X234751D02*
X242676D01*
X287075D02*
X295000D01*
X215854Y84587D02*
X224388D01*
X234751D02*
X242676D01*
X287075D02*
X295000D01*
X215854Y84689D02*
X224490D01*
X234751D02*
X242676D01*
X287075D02*
X295000D01*
X215854Y84790D02*
X224591D01*
X234751D02*
X242676D01*
X287075D02*
X295000D01*
X215955Y84892D02*
X224693D01*
X234751D02*
X242676D01*
X287075D02*
X295000D01*
X215955Y84994D02*
X224896D01*
X234751D02*
X242676D01*
X287075D02*
X295000D01*
X215955Y85095D02*
X225099D01*
X234751D02*
X242676D01*
X287075D02*
X295000D01*
X215955Y85197D02*
X225302D01*
X234751D02*
X242676D01*
X287075D02*
X295000D01*
X216057Y85298D02*
X225506D01*
X234751D02*
X242676D01*
X287075D02*
X295000D01*
X216057Y85400D02*
X225810D01*
X234751D02*
X242676D01*
X287075D02*
X295000D01*
X216057Y85502D02*
X226115D01*
X234751D02*
X242676D01*
X287075D02*
X295000D01*
X216158Y85603D02*
X226826D01*
X234751D02*
X242676D01*
X287075D02*
X295000D01*
X216158Y85705D02*
X242676D01*
X287075D02*
X295000D01*
X216260Y85806D02*
X242676D01*
X287075D02*
X295000D01*
X216260Y85908D02*
X242676D01*
X287075D02*
X295000D01*
X216260Y86010D02*
X242676D01*
X287075D02*
X295000D01*
X216362Y86111D02*
X242676D01*
X287075D02*
X295000D01*
X216362Y86213D02*
X242676D01*
X287075D02*
X295000D01*
X216463Y86314D02*
X242676D01*
X250601D02*
X250906D01*
X287075D02*
X295000D01*
X216463Y86416D02*
X242676D01*
X250499D02*
X251007D01*
X287075D02*
X295000D01*
X216565Y86518D02*
X242676D01*
X250499D02*
X251210D01*
X268787D02*
X268990D01*
X287075D02*
X295000D01*
X216565Y86619D02*
X242676D01*
X250398D02*
X251414D01*
X268584D02*
X269092D01*
X287075D02*
X295000D01*
X216666Y86721D02*
X242676D01*
X250296D02*
X251617D01*
X268482D02*
X269194D01*
X287075D02*
X295000D01*
X216666Y86822D02*
X242676D01*
X250194D02*
X251820D01*
X268279D02*
X269194D01*
X287075D02*
X295000D01*
X216768Y86924D02*
X242676D01*
X250194D02*
X251922D01*
X268076D02*
X269295D01*
X287075D02*
X295000D01*
X216768Y87026D02*
X242676D01*
X250093D02*
X252125D01*
X267873D02*
X269397D01*
X287075D02*
X295000D01*
X216870Y87127D02*
X242676D01*
X249991D02*
X252328D01*
X267670D02*
X269498D01*
X287075D02*
X295000D01*
X216870Y87229D02*
X242676D01*
X249991D02*
X252531D01*
X267466D02*
X269498D01*
X287075D02*
X295000D01*
X216971Y87330D02*
X242676D01*
X249890D02*
X252734D01*
X267263D02*
X269600D01*
X287075D02*
X295000D01*
X217073Y87432D02*
X242676D01*
X249788D02*
X253039D01*
X267060D02*
X269702D01*
X287075D02*
X295000D01*
X217073Y87534D02*
X242676D01*
X249686D02*
X253242D01*
X266755D02*
X269702D01*
X287075D02*
X295000D01*
X217174Y87635D02*
X242676D01*
X249686D02*
X253446D01*
X266552D02*
X269803D01*
X287075D02*
X295000D01*
X217276Y87737D02*
X242676D01*
X249585D02*
X253750D01*
X266247D02*
X269905D01*
X287075D02*
X295000D01*
X217276Y87838D02*
X242676D01*
X249483D02*
X254055D01*
X266044D02*
X269905D01*
X287075D02*
X295000D01*
X217378Y87940D02*
X242676D01*
X249483D02*
X254258D01*
X265739D02*
X270006D01*
X287075D02*
X295000D01*
X217479Y88042D02*
X242676D01*
X249483D02*
X254563D01*
X265434D02*
X270108D01*
X287075D02*
X295000D01*
X217581Y88143D02*
X242676D01*
X249585D02*
X254868D01*
X265130D02*
X270108D01*
X287075D02*
X295000D01*
X217682Y88245D02*
X242676D01*
X249788D02*
X255274D01*
X264825D02*
X270210D01*
X287075D02*
X295000D01*
X217784Y88346D02*
X242676D01*
X249890D02*
X255579D01*
X264418D02*
X270108D01*
X287075D02*
X295000D01*
X217784Y88448D02*
X242676D01*
X250093D02*
X256087D01*
X264012D02*
X269905D01*
X287075D02*
X295000D01*
X217886Y88550D02*
X242676D01*
X250296D02*
X256494D01*
X263504D02*
X269803D01*
X287075D02*
X295000D01*
X217987Y88651D02*
X242676D01*
X250398D02*
X257002D01*
X262996D02*
X269600D01*
X287075D02*
X295000D01*
X218089Y88753D02*
X242676D01*
X250601D02*
X257713D01*
X262386D02*
X269397D01*
X287075D02*
X295000D01*
X218190Y88854D02*
X242676D01*
X250804D02*
X258627D01*
X261370D02*
X269194D01*
X287075D02*
X295000D01*
X218394Y88956D02*
X242676D01*
X251007D02*
X268990D01*
X287075D02*
X295000D01*
X218495Y89058D02*
X242676D01*
X251210D02*
X268787D01*
X287075D02*
X295000D01*
X218597Y89159D02*
X242676D01*
X251414D02*
X268584D01*
X287075D02*
X295000D01*
X218698Y89261D02*
X242676D01*
X251617D02*
X268381D01*
X287075D02*
X295000D01*
X218800Y89362D02*
X242676D01*
X251820D02*
X268178D01*
X287075D02*
X295000D01*
X219003Y89464D02*
X242676D01*
X252023D02*
X267974D01*
X287075D02*
X295000D01*
X219105Y89566D02*
X242676D01*
X252328D02*
X267771D01*
X287075D02*
X295000D01*
X219308Y89667D02*
X242676D01*
X252531D02*
X267466D01*
X287075D02*
X295000D01*
X219410Y89769D02*
X242676D01*
X252734D02*
X267263D01*
X287075D02*
X295000D01*
X219613Y89870D02*
X242676D01*
X253039D02*
X266958D01*
X287075D02*
X295000D01*
X219816Y89972D02*
X242676D01*
X253344D02*
X266755D01*
X287075D02*
X295000D01*
X220019Y90074D02*
X242676D01*
X253547D02*
X266450D01*
X287075D02*
X295000D01*
X220121Y90175D02*
X242676D01*
X253852D02*
X266146D01*
X287075D02*
X295000D01*
X220324Y90277D02*
X242676D01*
X254157D02*
X265841D01*
X287075D02*
X295000D01*
X220629Y90378D02*
X242676D01*
X254563D02*
X265536D01*
X287075D02*
X295000D01*
X220832Y90480D02*
X242676D01*
X254868D02*
X265130D01*
X287075D02*
X295000D01*
X221137Y90582D02*
X242676D01*
X255274D02*
X264723D01*
X287075D02*
X295000D01*
X221340Y90683D02*
X242676D01*
X255681D02*
X264317D01*
X287075D02*
X295000D01*
X221645Y90785D02*
X242676D01*
X256189D02*
X263809D01*
X287075D02*
X295000D01*
X221950Y90886D02*
X242574D01*
X256798D02*
X263301D01*
X287075D02*
X295000D01*
X222356Y90988D02*
X242676D01*
X257408D02*
X262590D01*
X287075D02*
X295000D01*
X222762Y91090D02*
X242676D01*
X258322D02*
X261675D01*
X287075D02*
X295000D01*
X223270Y91191D02*
X242574D01*
X287075D02*
X295000D01*
X223880Y91293D02*
X242676D01*
X287177D02*
X295000D01*
X224693Y91394D02*
X242574D01*
X287075D02*
X295000D01*
X226725Y91496D02*
X242371D01*
X242473D02*
X242574D01*
X287278D02*
X287482D01*
X287583D02*
X294492D01*
X294898D02*
X295000D01*
X246842Y91598D02*
X247045D01*
X246842Y91699D02*
X247146D01*
X246740Y91801D02*
X247350D01*
X246638Y91902D02*
X247451D01*
X272546D02*
X272750D01*
X246638Y92004D02*
X247654D01*
X272343D02*
X272851D01*
X246537Y92106D02*
X247858D01*
X272242D02*
X272953D01*
X246435Y92207D02*
X248061D01*
X272038D02*
X272953D01*
X246334Y92309D02*
X248162D01*
X271835D02*
X273054D01*
X246334Y92410D02*
X248366D01*
X271632D02*
X273156D01*
X246232Y92512D02*
X248569D01*
X271530D02*
X273156D01*
X246130Y92614D02*
X248772D01*
X271327D02*
X273258D01*
X246130Y92715D02*
X248874D01*
X271124D02*
X273359D01*
X246029Y92817D02*
X249077D01*
X270921D02*
X273461D01*
X245927Y92918D02*
X249280D01*
X270718D02*
X273461D01*
X245826Y93020D02*
X249483D01*
X270514D02*
X273562D01*
X245826Y93122D02*
X249686D01*
X270311D02*
X273664D01*
X245724Y93223D02*
X249991D01*
X270108D02*
X273664D01*
X245622Y93325D02*
X250194D01*
X269905D02*
X273766D01*
X245622Y93426D02*
X250398D01*
X269600D02*
X273867D01*
X245521Y93528D02*
X250601D01*
X269397D02*
X273867D01*
X245419Y93630D02*
X250906D01*
X269194D02*
X273969D01*
X245419Y93731D02*
X251109D01*
X268889D02*
X274070D01*
X245318Y93833D02*
X251414D01*
X268686D02*
X274172D01*
X245216Y93934D02*
X251617D01*
X268381D02*
X274172D01*
X245216Y94036D02*
X251922D01*
X268076D02*
X274274D01*
X245419Y94138D02*
X252226D01*
X267873D02*
X274375D01*
X245521Y94239D02*
X252531D01*
X267568D02*
X274375D01*
X245724Y94341D02*
X252836D01*
X267263D02*
X274375D01*
X245826Y94442D02*
X253141D01*
X266857D02*
X274172D01*
X246029Y94544D02*
X253547D01*
X266552D02*
X273969D01*
X246232Y94646D02*
X253852D01*
X266146D02*
X273867D01*
X246334Y94747D02*
X254258D01*
X265739D02*
X273664D01*
X246537Y94849D02*
X254665D01*
X265333D02*
X273461D01*
X246740Y94950D02*
X255173D01*
X264926D02*
X273359D01*
X246943Y95052D02*
X255681D01*
X264418D02*
X273156D01*
X247045Y95154D02*
X256290D01*
X263809D02*
X272953D01*
X247248Y95255D02*
X257002D01*
X262996D02*
X272750D01*
X247451Y95357D02*
X257916D01*
X262082D02*
X272546D01*
X247654Y95458D02*
X272445D01*
X247858Y95560D02*
X272242D01*
X248061Y95662D02*
X272038D01*
X248264Y95763D02*
X271835D01*
X248467Y95865D02*
X271632D01*
X248670Y95966D02*
X271327D01*
X248874Y96068D02*
X271124D01*
X249077Y96170D02*
X270921D01*
X249382Y96271D02*
X270718D01*
X249585Y96373D02*
X270514D01*
X249788Y96474D02*
X270210D01*
X250093Y96576D02*
X270006D01*
X250296Y96678D02*
X269702D01*
X250601Y96779D02*
X269498D01*
X250906Y96881D02*
X269194D01*
X251109Y96982D02*
X268889D01*
X242981Y97084D02*
X243082D01*
X251414D02*
X268584D01*
X242981Y97186D02*
X243286D01*
X251718D02*
X268279D01*
X242879Y97287D02*
X243387D01*
X252125D02*
X267974D01*
X242778Y97389D02*
X243590D01*
X252430D02*
X267670D01*
X276509D02*
X276610D01*
X242778Y97490D02*
X243692D01*
X252734D02*
X267263D01*
X276306D02*
X276712D01*
X242676Y97592D02*
X243895D01*
X253141D02*
X266958D01*
X276102D02*
X276712D01*
X242574Y97694D02*
X244098D01*
X253547D02*
X266552D01*
X276001D02*
X276814D01*
X242473Y97795D02*
X244200D01*
X253954D02*
X266044D01*
X275798D02*
X276915D01*
X242473Y97897D02*
X244403D01*
X254462D02*
X265638D01*
X275696D02*
X276915D01*
X242371Y97998D02*
X244606D01*
X254868D02*
X265130D01*
X275493D02*
X277017D01*
X242270Y98100D02*
X244708D01*
X255478D02*
X264622D01*
X275290D02*
X277118D01*
X242270Y98202D02*
X244911D01*
X256087D02*
X264012D01*
X275086D02*
X277220D01*
X242168Y98303D02*
X245114D01*
X256798D02*
X263199D01*
X274985D02*
X277220D01*
X242066Y98405D02*
X245318D01*
X257814D02*
X262183D01*
X274782D02*
X277322D01*
X241965Y98506D02*
X245419D01*
X274578D02*
X277423D01*
X241965Y98608D02*
X245622D01*
X274375D02*
X277423D01*
X241863Y98710D02*
X245826D01*
X274172D02*
X277525D01*
X241762Y98811D02*
X246029D01*
X273969D02*
X277626D01*
X241762Y98913D02*
X246232D01*
X273766D02*
X277626D01*
X241660Y99014D02*
X246435D01*
X273562D02*
X277728D01*
X241558Y99116D02*
X246638D01*
X273359D02*
X277830D01*
X241558Y99218D02*
X246842D01*
X273156D02*
X277931D01*
X241457Y99319D02*
X247045D01*
X272953D02*
X277931D01*
X241355Y99421D02*
X247248D01*
X272750D02*
X278033D01*
X241254Y99522D02*
X247553D01*
X272546D02*
X278134D01*
X241254Y99624D02*
X247756D01*
X272242D02*
X278134D01*
X241152Y99726D02*
X247959D01*
X272038D02*
X278236D01*
X241050Y99827D02*
X248264D01*
X271835D02*
X278338D01*
X241050Y99929D02*
X248467D01*
X271530D02*
X278338D01*
X240949Y100030D02*
X248670D01*
X271327D02*
X278439D01*
X240847Y100132D02*
X248975D01*
X271022D02*
X278541D01*
X240949Y100234D02*
X249280D01*
X270819D02*
X278642D01*
X241152Y100335D02*
X249483D01*
X270514D02*
X278642D01*
X241254Y100437D02*
X249788D01*
X270210D02*
X278744D01*
X241457Y100538D02*
X250093D01*
X269905D02*
X278642D01*
X241558Y100640D02*
X250398D01*
X269600D02*
X278439D01*
X241762Y100742D02*
X250702D01*
X269295D02*
X278338D01*
X241863Y100843D02*
X251007D01*
X268990D02*
X278134D01*
X242066Y100945D02*
X251414D01*
X268686D02*
X277931D01*
X242270Y101046D02*
X251718D01*
X268279D02*
X277830D01*
X242371Y101148D02*
X252125D01*
X267974D02*
X277626D01*
X242574Y101250D02*
X252430D01*
X267568D02*
X277423D01*
X242778Y101351D02*
X252938D01*
X267162D02*
X277322D01*
X242879Y101453D02*
X253344D01*
X266654D02*
X277118D01*
X243082Y101554D02*
X253852D01*
X266247D02*
X276915D01*
X243286Y101656D02*
X254360D01*
X265739D02*
X276712D01*
X243489Y101758D02*
X254868D01*
X265130D02*
X276610D01*
X243692Y101859D02*
X255579D01*
X264520D02*
X276407D01*
X243794Y101961D02*
X256290D01*
X263707D02*
X276204D01*
X243997Y102062D02*
X257306D01*
X262793D02*
X276001D01*
X244200Y102164D02*
X258932D01*
X261066D02*
X275798D01*
X244403Y102266D02*
X275594D01*
X244606Y102367D02*
X275391D01*
X244810Y102469D02*
X275188D01*
X245013Y102570D02*
X274985D01*
X245216Y102672D02*
X274782D01*
X245419Y102774D02*
X274578D01*
X245724Y102875D02*
X274375D01*
X245927Y102977D02*
X274172D01*
X246130Y103078D02*
X273867D01*
X246334Y103180D02*
X273664D01*
X246638Y103282D02*
X273461D01*
X246842Y103383D02*
X273156D01*
X247045Y103485D02*
X272953D01*
X247350Y103586D02*
X272648D01*
X247553Y103688D02*
X272445D01*
X247858Y103790D02*
X272140D01*
X248162Y103891D02*
X271937D01*
X248366Y103993D02*
X271632D01*
X248670Y104094D02*
X271327D01*
X248975Y104196D02*
X271022D01*
X249280Y104298D02*
X270718D01*
X249585Y104399D02*
X270413D01*
X249890Y104501D02*
X270108D01*
X250296Y104602D02*
X269803D01*
X250601Y104704D02*
X269397D01*
X251007Y104806D02*
X268990D01*
X251414Y104907D02*
X268686D01*
X251820Y105009D02*
X268279D01*
X252226Y105110D02*
X267873D01*
X252633Y105212D02*
X267365D01*
X253141Y105314D02*
X266958D01*
X253649Y105415D02*
X266349D01*
X254157Y105517D02*
X265841D01*
X254868Y105618D02*
X265231D01*
X255579Y105720D02*
X264520D01*
X256392Y105822D02*
X263606D01*
X257611Y105923D02*
X262488D01*
M02*
