G04*
G04 #@! TF.GenerationSoftware,Altium Limited,Altium Designer,20.0.1 (14)*
G04*
G04 Layer_Physical_Order=2*
G04 Layer_Color=32768*
%FSLAX44Y44*%
%MOMM*%
G71*
G01*
G75*
%ADD10C,0.2540*%
%ADD82C,1.0160*%
%ADD83C,1.3000*%
%ADD84C,1.2000*%
%ADD85C,2.2000*%
%ADD86C,1.4620*%
%ADD87C,1.1000*%
%ADD88C,1.0000*%
G36*
X274500Y207270D02*
X130500D01*
Y491270D01*
X274500D01*
Y207270D01*
D02*
G37*
G36*
X57000Y1500D02*
X2500D01*
X2500Y192500D01*
X57000D01*
Y1500D01*
D02*
G37*
D10*
X110157Y590000D02*
X100000D01*
X110157Y600157D01*
Y602696D01*
X107618Y605235D01*
X102539D01*
X100000Y602696D01*
X125392D02*
X122853Y605235D01*
X117774D01*
X115235Y602696D01*
Y592539D01*
X117774Y590000D01*
X122853D01*
X125392Y592539D01*
Y597617D01*
X120313D01*
X130470Y590000D02*
Y605235D01*
X140627Y590000D01*
Y605235D01*
X145705D02*
Y590000D01*
X153323D01*
X155862Y592539D01*
Y602696D01*
X153323Y605235D01*
X145705D01*
D82*
X274500Y207270D02*
Y491270D01*
X130500Y207270D02*
X274500D01*
X130500D02*
Y491270D01*
X274500D01*
X353739Y561270D02*
X382696Y561270D01*
X353739Y543666D02*
Y561270D01*
X353645Y542230D02*
X353739Y543666D01*
X352902Y539457D02*
X353645Y542230D01*
X351466Y536970D02*
X352902Y539457D01*
X349435Y534939D02*
X351466Y536970D01*
X346949Y533503D02*
X349435Y534939D01*
X344175Y532760D02*
X346949Y533503D01*
X341303Y532760D02*
X344175D01*
X338529Y533503D02*
X341303Y532760D01*
X336043Y534939D02*
X338529Y533503D01*
X334012Y536970D02*
X336043Y534939D01*
X332576Y539457D02*
X334012Y536970D01*
X331833Y542230D02*
X332576Y539457D01*
X331739Y543666D02*
X331833Y542230D01*
X331739Y543666D02*
Y561270D01*
X22304D02*
X331739D01*
X21982Y559416D02*
X22304Y561270D01*
X20891Y555818D02*
X21982Y559416D01*
X19228Y552446D02*
X20891Y555818D01*
X17038Y549390D02*
X19228Y552446D01*
X14380Y546732D02*
X17038Y549390D01*
X11324Y544542D02*
X14380Y546732D01*
X7952Y542879D02*
X11324Y544542D01*
X4354Y541788D02*
X7952Y542879D01*
X2500Y541466D02*
X4354Y541788D01*
X2500Y380270D02*
Y541466D01*
Y380270D02*
X30500D01*
Y297270D02*
Y380270D01*
Y297270D02*
X51104D01*
X52540Y297176D01*
X55313Y296433D01*
X57800Y294997D01*
X59831Y292966D01*
X61267Y290480D01*
X62010Y287706D01*
Y284834D02*
Y287706D01*
X61267Y282061D02*
X62010Y284834D01*
X59831Y279574D02*
X61267Y282061D01*
X57800Y277543D02*
X59831Y279574D01*
X55313Y276107D02*
X57800Y277543D01*
X52540Y275364D02*
X55313Y276107D01*
X51104Y275270D02*
X52540Y275364D01*
X30500Y275270D02*
X51104D01*
X30500Y182270D02*
Y275270D01*
X2500Y182270D02*
X30500D01*
X2500Y21074D02*
Y182270D01*
Y21074D02*
X4354Y20752D01*
X7952Y19661D01*
X11324Y17998D01*
X14380Y15808D01*
X17038Y13150D01*
X19228Y10094D01*
X20891Y6722D01*
X21982Y3124D01*
X22304Y1270D01*
X51797D01*
Y18874D01*
X51892Y20310D01*
X52635Y23083D01*
X54071Y25570D01*
X56101Y27601D01*
X58588Y29037D01*
X61362Y29780D01*
X64233D01*
X67007Y29037D01*
X69494Y27601D01*
X71524Y25570D01*
X72960Y23083D01*
X73703Y20310D01*
X73797Y18874D01*
Y1270D02*
Y18874D01*
Y1270D02*
X382696D01*
X383018Y3124D01*
X384109Y6722D01*
X385772Y10094D01*
X387962Y13150D01*
X390620Y15808D01*
X393676Y17998D01*
X397048Y19661D01*
X400646Y20752D01*
X402500Y21074D01*
X402500Y182270D01*
X374500D02*
X402500D01*
X374500D02*
Y275270D01*
X353896D02*
X374500D01*
X352460Y275364D02*
X353896Y275270D01*
X349687Y276107D02*
X352460Y275364D01*
X347200Y277543D02*
X349687Y276107D01*
X345169Y279574D02*
X347200Y277543D01*
X343733Y282061D02*
X345169Y279574D01*
X342990Y284834D02*
X343733Y282061D01*
X342990Y284834D02*
Y287706D01*
X343733Y290480D01*
X345169Y292966D01*
X347200Y294997D01*
X349687Y296433D01*
X352460Y297176D01*
X353896Y297270D01*
X374500D01*
Y380270D01*
X402500D01*
Y541466D01*
X400646Y541788D02*
X402500Y541466D01*
X397048Y542879D02*
X400646Y541788D01*
X393676Y544542D02*
X397048Y542879D01*
X390620Y546732D02*
X393676Y544542D01*
X387962Y549390D02*
X390620Y546732D01*
X385772Y552446D02*
X387962Y549390D01*
X384109Y555818D02*
X385772Y552446D01*
X383018Y559416D02*
X384109Y555818D01*
X382696Y561270D02*
X383018Y559416D01*
D83*
X199750Y22500D02*
D03*
D84*
X40000Y458850D02*
D03*
Y471350D02*
D03*
D85*
X361000Y123250D02*
D03*
Y97850D02*
D03*
Y72450D02*
D03*
Y21650D02*
D03*
D86*
X323000Y123250D02*
D03*
Y97850D02*
D03*
Y72450D02*
D03*
Y21650D02*
D03*
D87*
X186000Y61250D02*
D03*
Y53000D02*
D03*
Y69500D02*
D03*
X97000Y75250D02*
D03*
X145250Y28000D02*
D03*
X98000Y37000D02*
D03*
X64000Y224000D02*
D03*
Y212000D02*
D03*
X59000Y218000D02*
D03*
X54000Y212000D02*
D03*
Y224000D02*
D03*
X112000Y545000D02*
D03*
X123500Y113000D02*
D03*
X245000Y54000D02*
D03*
X238000D02*
D03*
X231000D02*
D03*
X225000Y102500D02*
D03*
X235000D02*
D03*
X230000Y97500D02*
D03*
X225000Y92500D02*
D03*
X235000D02*
D03*
X183000Y109000D02*
D03*
X142000Y112000D02*
D03*
X97928Y104500D02*
D03*
D88*
X179562Y29750D02*
D03*
X162258Y110755D02*
D03*
X152500Y29250D02*
D03*
X138000Y29000D02*
D03*
X90000Y30000D02*
D03*
X133000Y12500D02*
D03*
X176500Y103250D02*
D03*
X88000Y139000D02*
D03*
X214000Y134000D02*
D03*
Y124000D02*
D03*
X30500Y410000D02*
D03*
X182000Y95000D02*
D03*
X116000Y21000D02*
D03*
X121000Y16000D02*
D03*
X182919Y85081D02*
D03*
M02*
