G04*
G04 #@! TF.GenerationSoftware,Altium Limited,Altium Designer,20.0.1 (14)*
G04*
G04 Layer_Color=65535*
%FSLAX44Y44*%
%MOMM*%
G71*
G01*
G75*
%ADD10C,0.2500*%
%ADD11C,0.2540*%
%ADD12C,0.2000*%
%ADD13C,0.1199*%
%ADD14C,0.0254*%
%ADD15C,0.1520*%
%ADD16C,0.1524*%
%ADD17C,0.1778*%
%ADD18C,0.1500*%
%ADD19C,0.1800*%
G36*
X206371Y166030D02*
X70250D01*
Y191286D01*
X206371D01*
Y166030D01*
D02*
G37*
G36*
X223446Y3895D02*
X192994D01*
Y15204D01*
X223446D01*
Y3895D01*
D02*
G37*
G36*
X83838Y496536D02*
X83919D01*
X84032Y496520D01*
X84178Y496488D01*
X84340Y496472D01*
X84534Y496439D01*
X84761Y496407D01*
X85003Y496358D01*
X85262Y496326D01*
X85553Y496278D01*
X85861Y496213D01*
X86201Y496164D01*
X86540Y496100D01*
X86913Y496035D01*
X87285Y495954D01*
X88094Y495808D01*
X88951Y495630D01*
X89841Y495436D01*
X90763Y495242D01*
X91702Y495015D01*
X92656Y494773D01*
X93611Y494514D01*
X94566Y494239D01*
X94582D01*
X94630Y494223D01*
X94695Y494207D01*
X94792Y494174D01*
X94905Y494126D01*
X95067Y494093D01*
X95229Y494029D01*
X95423Y493964D01*
X95650Y493899D01*
X95876Y493818D01*
X96135Y493737D01*
X96410Y493640D01*
X96701Y493543D01*
X97025Y493430D01*
X97348Y493317D01*
X97688Y493203D01*
X98416Y492944D01*
X99193Y492653D01*
X100018Y492330D01*
X100876Y491990D01*
X101749Y491634D01*
X102655Y491246D01*
X103578Y490841D01*
X104500Y490404D01*
Y487346D01*
X91297Y482703D01*
X104500Y477752D01*
Y474500D01*
X83774Y468804D01*
Y472137D01*
X100859Y476506D01*
X87802Y481246D01*
Y484288D01*
X100989Y488948D01*
X100973D01*
X100940Y488964D01*
X100892Y488980D01*
X100827Y489013D01*
X100746Y489045D01*
X100633Y489094D01*
X100520Y489142D01*
X100374Y489207D01*
X100229Y489272D01*
X100050Y489336D01*
X99662Y489498D01*
X99209Y489660D01*
X98724Y489854D01*
X98174Y490065D01*
X97575Y490275D01*
X96944Y490501D01*
X96264Y490728D01*
X95569Y490954D01*
X94841Y491181D01*
X94080Y491407D01*
X93304Y491634D01*
X93287D01*
X93255Y491650D01*
X93190Y491666D01*
X93109Y491683D01*
X93012Y491715D01*
X92883Y491747D01*
X92737Y491780D01*
X92559Y491828D01*
X92381Y491877D01*
X92171Y491925D01*
X91945Y491990D01*
X91702Y492038D01*
X91427Y492103D01*
X91152Y492168D01*
X90860Y492233D01*
X90537Y492313D01*
X89874Y492443D01*
X89129Y492605D01*
X88353Y492750D01*
X87511Y492912D01*
X86637Y493058D01*
X85715Y493203D01*
X84761Y493333D01*
X83774Y493462D01*
Y496553D01*
X83790D01*
X83838Y496536D01*
D02*
G37*
G36*
X104500Y462980D02*
X94582D01*
X94566D01*
X94549D01*
X94501D01*
X94436D01*
X94274Y462963D01*
X94064Y462947D01*
X93837Y462915D01*
X93579Y462866D01*
X93336Y462802D01*
X93109Y462721D01*
X93077Y462704D01*
X93012Y462672D01*
X92899Y462623D01*
X92770Y462543D01*
X92624Y462446D01*
X92478Y462332D01*
X92317Y462203D01*
X92187Y462057D01*
X92171Y462041D01*
X92139Y461976D01*
X92074Y461895D01*
X91993Y461766D01*
X91912Y461620D01*
X91831Y461442D01*
X91767Y461248D01*
X91702Y461038D01*
Y461006D01*
X91686Y460941D01*
X91653Y460811D01*
X91621Y460666D01*
X91605Y460472D01*
X91572Y460261D01*
X91556Y460035D01*
Y459614D01*
X91572Y459517D01*
Y459404D01*
X91588Y459129D01*
X91621Y458821D01*
X91686Y458481D01*
X91750Y458142D01*
X91847Y457802D01*
Y457786D01*
X91864Y457770D01*
X91880Y457721D01*
X91896Y457656D01*
X91945Y457495D01*
X92025Y457268D01*
X92106Y457025D01*
X92203Y456750D01*
X92430Y456200D01*
X92446D01*
X92462Y456216D01*
X92511Y456232D01*
X92576Y456249D01*
X92656Y456281D01*
X92770Y456297D01*
X93012Y456362D01*
X93304Y456427D01*
X93643Y456475D01*
X94048Y456508D01*
X94468Y456524D01*
X104500D01*
Y453369D01*
X94582D01*
X94566D01*
X94549D01*
X94501D01*
X94436D01*
X94274Y453353D01*
X94064Y453336D01*
X93837Y453304D01*
X93579Y453255D01*
X93336Y453191D01*
X93109Y453110D01*
X93077Y453094D01*
X93012Y453061D01*
X92899Y453013D01*
X92770Y452932D01*
X92624Y452835D01*
X92478Y452721D01*
X92317Y452592D01*
X92187Y452446D01*
X92171Y452430D01*
X92139Y452365D01*
X92074Y452285D01*
X91993Y452171D01*
X91912Y452010D01*
X91831Y451848D01*
X91767Y451654D01*
X91702Y451443D01*
Y451411D01*
X91686Y451346D01*
X91653Y451233D01*
X91621Y451071D01*
X91605Y450893D01*
X91572Y450667D01*
X91556Y450440D01*
Y449874D01*
X91572Y449664D01*
X91588Y449421D01*
X91621Y449130D01*
X91653Y448822D01*
X91702Y448499D01*
Y448466D01*
X91718Y448418D01*
X91734Y448353D01*
X91750Y448191D01*
X91799Y447981D01*
X91847Y447754D01*
X91896Y447495D01*
X91961Y447220D01*
X92025Y446962D01*
X104500D01*
Y443806D01*
X90326D01*
Y443823D01*
X90310Y443855D01*
X90294Y443936D01*
X90262Y444017D01*
X90229Y444146D01*
X90181Y444276D01*
X90148Y444437D01*
X90084Y444632D01*
X90035Y444826D01*
X89971Y445052D01*
X89922Y445295D01*
X89841Y445554D01*
X89712Y446120D01*
X89566Y446735D01*
Y446751D01*
X89550Y446816D01*
X89534Y446913D01*
X89501Y447026D01*
X89469Y447188D01*
X89437Y447366D01*
X89404Y447576D01*
X89356Y447819D01*
X89323Y448078D01*
X89291Y448353D01*
X89259Y448644D01*
X89226Y448935D01*
X89178Y449583D01*
X89162Y450246D01*
Y450472D01*
X89178Y450602D01*
Y450748D01*
X89194Y450909D01*
Y451071D01*
X89242Y451460D01*
X89291Y451896D01*
X89372Y452333D01*
X89485Y452770D01*
Y452786D01*
X89501Y452819D01*
X89517Y452883D01*
X89550Y452964D01*
X89582Y453061D01*
X89615Y453191D01*
X89728Y453466D01*
X89857Y453773D01*
X90035Y454113D01*
X90229Y454453D01*
X90472Y454776D01*
Y454793D01*
X90440Y454825D01*
X90424Y454890D01*
X90375Y454987D01*
X90326Y455084D01*
X90278Y455213D01*
X90213Y455359D01*
X90148Y455537D01*
X90084Y455715D01*
X90003Y455925D01*
X89857Y456362D01*
X89696Y456847D01*
X89550Y457381D01*
Y457397D01*
X89534Y457446D01*
X89517Y457527D01*
X89485Y457640D01*
X89453Y457770D01*
X89420Y457915D01*
X89388Y458093D01*
X89356Y458287D01*
X89323Y458514D01*
X89291Y458724D01*
X89226Y459226D01*
X89178Y459727D01*
X89162Y460261D01*
Y460585D01*
X89178Y460714D01*
Y460860D01*
X89194Y461022D01*
X89226Y461378D01*
X89275Y461766D01*
X89340Y462170D01*
X89437Y462575D01*
Y462591D01*
X89453Y462623D01*
X89469Y462688D01*
X89485Y462753D01*
X89517Y462850D01*
X89550Y462963D01*
X89647Y463222D01*
X89760Y463513D01*
X89922Y463821D01*
X90100Y464128D01*
X90326Y464436D01*
Y464452D01*
X90359Y464468D01*
X90440Y464565D01*
X90569Y464711D01*
X90763Y464889D01*
X90990Y465083D01*
X91281Y465293D01*
X91605Y465504D01*
X91961Y465681D01*
X91977D01*
X92009Y465698D01*
X92058Y465730D01*
X92139Y465746D01*
X92236Y465795D01*
X92365Y465827D01*
X92495Y465859D01*
X92656Y465908D01*
X92834Y465957D01*
X93012Y465989D01*
X93449Y466070D01*
X93935Y466118D01*
X94468Y466135D01*
X104500D01*
Y462980D01*
D02*
G37*
G36*
X94857Y439406D02*
X95148D01*
X95456Y439389D01*
X95811Y439357D01*
X96167Y439341D01*
X96556Y439308D01*
X97381Y439227D01*
X98190Y439114D01*
X98594Y439033D01*
X98983Y438952D01*
X98999D01*
X99064Y438936D01*
X99177Y438904D01*
X99323Y438872D01*
X99484Y438823D01*
X99695Y438758D01*
X99921Y438677D01*
X100164Y438596D01*
X100682Y438402D01*
X101248Y438160D01*
X101798Y437868D01*
X102057Y437707D01*
X102316Y437529D01*
X102332Y437513D01*
X102380Y437480D01*
X102445Y437432D01*
X102526Y437351D01*
X102639Y437270D01*
X102769Y437156D01*
X102898Y437011D01*
X103044Y436865D01*
X103206Y436703D01*
X103367Y436525D01*
X103675Y436105D01*
X103982Y435636D01*
X104112Y435393D01*
X104241Y435118D01*
Y435102D01*
X104274Y435053D01*
X104290Y434972D01*
X104338Y434859D01*
X104387Y434730D01*
X104435Y434552D01*
X104484Y434374D01*
X104532Y434147D01*
X104597Y433904D01*
X104646Y433646D01*
X104694Y433371D01*
X104743Y433063D01*
X104791Y432739D01*
X104807Y432400D01*
X104840Y431688D01*
Y431510D01*
X104824Y431413D01*
Y431316D01*
X104807Y431186D01*
Y431041D01*
X104759Y430701D01*
X104710Y430329D01*
X104629Y429908D01*
X104516Y429471D01*
X104387Y428986D01*
X104225Y428517D01*
X104015Y428015D01*
X103772Y427546D01*
X103481Y427076D01*
X103141Y426623D01*
X102753Y426203D01*
X102316Y425831D01*
X102283Y425815D01*
X102203Y425750D01*
X102041Y425653D01*
X101830Y425539D01*
X101555Y425394D01*
X101215Y425248D01*
X100827Y425070D01*
X100601Y424989D01*
X100358Y424908D01*
X100099Y424811D01*
X99824Y424730D01*
X99533Y424650D01*
X99225Y424552D01*
X98902Y424472D01*
X98562Y424407D01*
X98206Y424326D01*
X97834Y424261D01*
X97446Y424197D01*
X97025Y424148D01*
X96604Y424099D01*
X96167Y424051D01*
X95698Y424019D01*
X95213Y423986D01*
X94727Y423970D01*
X94210D01*
X94193D01*
X94177D01*
X94080D01*
X93935D01*
X93740D01*
X93498Y423986D01*
X93207Y424002D01*
X92883D01*
X92543Y424035D01*
X92171Y424051D01*
X91783Y424083D01*
X90957Y424164D01*
X90132Y424277D01*
X89728Y424342D01*
X89340Y424423D01*
X89323D01*
X89242Y424439D01*
X89145Y424472D01*
X89000Y424504D01*
X88822Y424569D01*
X88628Y424617D01*
X88401Y424698D01*
X88158Y424779D01*
X87625Y424973D01*
X87058Y425216D01*
X86508Y425507D01*
X86249Y425669D01*
X85990Y425847D01*
X85974Y425863D01*
X85926Y425895D01*
X85861Y425944D01*
X85780Y426025D01*
X85667Y426106D01*
X85537Y426219D01*
X85408Y426348D01*
X85262Y426510D01*
X85100Y426672D01*
X84939Y426850D01*
X84631Y427254D01*
X84324Y427724D01*
X84194Y427983D01*
X84065Y428242D01*
Y428258D01*
X84032Y428306D01*
X84000Y428387D01*
X83968Y428500D01*
X83919Y428646D01*
X83871Y428808D01*
X83822Y429002D01*
X83757Y429212D01*
X83693Y429455D01*
X83644Y429730D01*
X83596Y430005D01*
X83547Y430312D01*
X83499Y430636D01*
X83482Y430976D01*
X83450Y431688D01*
Y431882D01*
X83466Y432028D01*
Y432189D01*
X83482Y432400D01*
X83499Y432626D01*
X83531Y432869D01*
X83563Y433128D01*
X83596Y433403D01*
X83709Y433969D01*
X83855Y434552D01*
X84065Y435118D01*
Y435134D01*
X84097Y435183D01*
X84130Y435263D01*
X84178Y435361D01*
X84243Y435490D01*
X84324Y435636D01*
X84421Y435797D01*
X84534Y435959D01*
X84809Y436348D01*
X85133Y436752D01*
X85537Y437156D01*
X85748Y437351D01*
X85990Y437529D01*
X86006Y437545D01*
X86055Y437577D01*
X86120Y437626D01*
X86233Y437691D01*
X86362Y437771D01*
X86508Y437852D01*
X86686Y437949D01*
X86896Y438063D01*
X87123Y438176D01*
X87382Y438289D01*
X87657Y438419D01*
X87948Y438532D01*
X88272Y438645D01*
X88595Y438758D01*
X88951Y438855D01*
X89323Y438952D01*
X89340D01*
X89420Y438969D01*
X89534Y439001D01*
X89679Y439033D01*
X89874Y439066D01*
X90116Y439098D01*
X90375Y439147D01*
X90682Y439195D01*
X91022Y439227D01*
X91394Y439276D01*
X91783Y439308D01*
X92203Y439357D01*
X92656Y439373D01*
X93126Y439406D01*
X93627Y439422D01*
X94145D01*
X94177D01*
X94274D01*
X94420D01*
X94614D01*
X94857Y439406D01*
D02*
G37*
G36*
Y420540D02*
X95148D01*
X95456Y420524D01*
X95811Y420491D01*
X96167Y420475D01*
X96556Y420443D01*
X97381Y420362D01*
X98190Y420249D01*
X98594Y420168D01*
X98983Y420087D01*
X98999D01*
X99064Y420071D01*
X99177Y420038D01*
X99323Y420006D01*
X99484Y419957D01*
X99695Y419893D01*
X99921Y419812D01*
X100164Y419731D01*
X100682Y419537D01*
X101248Y419294D01*
X101798Y419003D01*
X102057Y418841D01*
X102316Y418663D01*
X102332Y418647D01*
X102380Y418615D01*
X102445Y418566D01*
X102526Y418485D01*
X102639Y418404D01*
X102769Y418291D01*
X102898Y418145D01*
X103044Y418000D01*
X103206Y417838D01*
X103367Y417660D01*
X103675Y417239D01*
X103982Y416770D01*
X104112Y416527D01*
X104241Y416252D01*
Y416236D01*
X104274Y416188D01*
X104290Y416107D01*
X104338Y415993D01*
X104387Y415864D01*
X104435Y415686D01*
X104484Y415508D01*
X104532Y415281D01*
X104597Y415039D01*
X104646Y414780D01*
X104694Y414505D01*
X104743Y414197D01*
X104791Y413874D01*
X104807Y413534D01*
X104840Y412822D01*
Y412644D01*
X104824Y412547D01*
Y412450D01*
X104807Y412321D01*
Y412175D01*
X104759Y411835D01*
X104710Y411463D01*
X104629Y411042D01*
X104516Y410606D01*
X104387Y410120D01*
X104225Y409651D01*
X104015Y409149D01*
X103772Y408680D01*
X103481Y408211D01*
X103141Y407758D01*
X102753Y407337D01*
X102316Y406965D01*
X102283Y406949D01*
X102203Y406884D01*
X102041Y406787D01*
X101830Y406674D01*
X101555Y406528D01*
X101215Y406383D01*
X100827Y406205D01*
X100601Y406124D01*
X100358Y406043D01*
X100099Y405946D01*
X99824Y405865D01*
X99533Y405784D01*
X99225Y405687D01*
X98902Y405606D01*
X98562Y405541D01*
X98206Y405460D01*
X97834Y405396D01*
X97446Y405331D01*
X97025Y405282D01*
X96604Y405234D01*
X96167Y405185D01*
X95698Y405153D01*
X95213Y405121D01*
X94727Y405104D01*
X94210D01*
X94193D01*
X94177D01*
X94080D01*
X93935D01*
X93740D01*
X93498Y405121D01*
X93207Y405137D01*
X92883D01*
X92543Y405169D01*
X92171Y405185D01*
X91783Y405218D01*
X90957Y405299D01*
X90132Y405412D01*
X89728Y405476D01*
X89340Y405557D01*
X89323D01*
X89242Y405574D01*
X89145Y405606D01*
X89000Y405638D01*
X88822Y405703D01*
X88628Y405751D01*
X88401Y405832D01*
X88158Y405913D01*
X87625Y406107D01*
X87058Y406350D01*
X86508Y406641D01*
X86249Y406803D01*
X85990Y406981D01*
X85974Y406997D01*
X85926Y407030D01*
X85861Y407078D01*
X85780Y407159D01*
X85667Y407240D01*
X85537Y407353D01*
X85408Y407483D01*
X85262Y407645D01*
X85100Y407806D01*
X84939Y407984D01*
X84631Y408389D01*
X84324Y408858D01*
X84194Y409117D01*
X84065Y409376D01*
Y409392D01*
X84032Y409440D01*
X84000Y409521D01*
X83968Y409635D01*
X83919Y409780D01*
X83871Y409942D01*
X83822Y410136D01*
X83757Y410347D01*
X83693Y410589D01*
X83644Y410864D01*
X83596Y411139D01*
X83547Y411447D01*
X83499Y411770D01*
X83482Y412110D01*
X83450Y412822D01*
Y413016D01*
X83466Y413162D01*
Y413324D01*
X83482Y413534D01*
X83499Y413760D01*
X83531Y414003D01*
X83563Y414262D01*
X83596Y414537D01*
X83709Y415103D01*
X83855Y415686D01*
X84065Y416252D01*
Y416268D01*
X84097Y416317D01*
X84130Y416398D01*
X84178Y416495D01*
X84243Y416624D01*
X84324Y416770D01*
X84421Y416932D01*
X84534Y417094D01*
X84809Y417482D01*
X85133Y417886D01*
X85537Y418291D01*
X85748Y418485D01*
X85990Y418663D01*
X86006Y418679D01*
X86055Y418712D01*
X86120Y418760D01*
X86233Y418825D01*
X86362Y418906D01*
X86508Y418987D01*
X86686Y419084D01*
X86896Y419197D01*
X87123Y419310D01*
X87382Y419423D01*
X87657Y419553D01*
X87948Y419666D01*
X88272Y419779D01*
X88595Y419893D01*
X88951Y419990D01*
X89323Y420087D01*
X89340D01*
X89420Y420103D01*
X89534Y420135D01*
X89679Y420168D01*
X89874Y420200D01*
X90116Y420233D01*
X90375Y420281D01*
X90682Y420330D01*
X91022Y420362D01*
X91394Y420410D01*
X91783Y420443D01*
X92203Y420491D01*
X92656Y420508D01*
X93126Y420540D01*
X93627Y420556D01*
X94145D01*
X94177D01*
X94274D01*
X94420D01*
X94614D01*
X94857Y420540D01*
D02*
G37*
G36*
X98416Y400590D02*
X98578D01*
X98772Y400574D01*
X98983Y400558D01*
X99209Y400542D01*
X99711Y400461D01*
X100245Y400364D01*
X100779Y400218D01*
X101280Y400024D01*
X101296D01*
X101345Y399991D01*
X101410Y399959D01*
X101491Y399911D01*
X101604Y399862D01*
X101733Y399781D01*
X102024Y399603D01*
X102364Y399377D01*
X102704Y399102D01*
X103044Y398778D01*
X103367Y398406D01*
X103384Y398390D01*
X103400Y398357D01*
X103448Y398309D01*
X103497Y398228D01*
X103562Y398131D01*
X103643Y398001D01*
X103723Y397872D01*
X103804Y397710D01*
X103901Y397548D01*
X103998Y397354D01*
X104176Y396934D01*
X104354Y396464D01*
X104500Y395947D01*
Y395930D01*
X104516Y395882D01*
X104532Y395801D01*
X104549Y395704D01*
X104581Y395558D01*
X104613Y395396D01*
X104646Y395219D01*
X104662Y395024D01*
X104694Y394798D01*
X104726Y394555D01*
X104759Y394280D01*
X104791Y394005D01*
X104824Y393406D01*
X104840Y392775D01*
Y392355D01*
X104824Y392193D01*
Y391805D01*
X104791Y391352D01*
X104759Y390850D01*
X104726Y390332D01*
X104662Y389831D01*
Y389814D01*
X104646Y389766D01*
Y389701D01*
X104629Y389604D01*
X104613Y389475D01*
X104597Y389345D01*
X104565Y389183D01*
X104532Y389005D01*
X104468Y388601D01*
X104387Y388148D01*
X104274Y387663D01*
X104160Y387161D01*
X101701Y387452D01*
Y387468D01*
X101717Y387517D01*
X101733Y387582D01*
X101749Y387679D01*
X101782Y387792D01*
X101814Y387938D01*
X101847Y388083D01*
X101879Y388261D01*
X101960Y388649D01*
X102041Y389086D01*
X102122Y389539D01*
X102203Y390009D01*
Y390073D01*
X102219Y390138D01*
X102235Y390219D01*
X102251Y390332D01*
Y390478D01*
X102267Y390623D01*
X102283Y390801D01*
X102316Y391190D01*
X102348Y391627D01*
X102364Y392096D01*
X102380Y392597D01*
Y392856D01*
X102364Y392970D01*
Y393212D01*
X102348Y393503D01*
X102316Y393827D01*
X102219Y394490D01*
Y394507D01*
X102203Y394523D01*
Y394571D01*
X102186Y394636D01*
X102138Y394798D01*
X102073Y395008D01*
X101976Y395235D01*
X101863Y395494D01*
X101733Y395736D01*
X101572Y395979D01*
X101555Y396011D01*
X101491Y396076D01*
X101377Y396189D01*
X101232Y396335D01*
X101054Y396497D01*
X100827Y396659D01*
X100584Y396804D01*
X100293Y396950D01*
X100277D01*
X100261Y396966D01*
X100212Y396982D01*
X100148Y396998D01*
X100067Y397031D01*
X99970Y397063D01*
X99727Y397128D01*
X99436Y397192D01*
X99064Y397257D01*
X98659Y397290D01*
X98206Y397306D01*
X98190D01*
X98158D01*
X98093D01*
X98012D01*
X97915Y397290D01*
X97785D01*
X97510Y397257D01*
X97203Y397225D01*
X96879Y397160D01*
X96556Y397063D01*
X96248Y396950D01*
X96232D01*
X96216Y396934D01*
X96119Y396885D01*
X95973Y396804D01*
X95795Y396707D01*
X95601Y396561D01*
X95407Y396400D01*
X95197Y396205D01*
X95019Y395995D01*
X95002Y395963D01*
X94938Y395882D01*
X94857Y395769D01*
X94760Y395591D01*
X94663Y395380D01*
X94549Y395121D01*
X94452Y394846D01*
X94371Y394539D01*
Y394523D01*
X94355Y394507D01*
Y394458D01*
X94339Y394393D01*
X94307Y394215D01*
X94274Y393989D01*
X94242Y393698D01*
X94210Y393374D01*
X94177Y393018D01*
Y392274D01*
X94193Y392144D01*
Y391999D01*
X94210Y391675D01*
X94242Y391303D01*
X94274Y390882D01*
X94323Y390429D01*
Y390381D01*
X94339Y390316D01*
X94355Y390219D01*
Y390122D01*
X94371Y389992D01*
X94420Y389701D01*
X94452Y389361D01*
X94501Y388989D01*
X94566Y388601D01*
X94614Y388229D01*
X93805Y387452D01*
X83774Y388342D01*
Y399975D01*
X86362D01*
Y390931D01*
X91912Y390445D01*
Y390462D01*
X91896Y390526D01*
X91880Y390623D01*
X91864Y390769D01*
X91847Y390947D01*
X91831Y391141D01*
X91799Y391384D01*
X91783Y391659D01*
Y391691D01*
X91767Y391788D01*
Y391934D01*
X91750Y392128D01*
X91734Y392355D01*
Y392597D01*
X91718Y393115D01*
Y393406D01*
X91734Y393552D01*
Y393714D01*
X91750Y393908D01*
Y394134D01*
X91799Y394604D01*
X91847Y395121D01*
X91928Y395655D01*
X92042Y396173D01*
Y396189D01*
X92058Y396238D01*
X92074Y396302D01*
X92106Y396400D01*
X92139Y396529D01*
X92171Y396659D01*
X92236Y396820D01*
X92284Y396982D01*
X92430Y397354D01*
X92608Y397743D01*
X92834Y398147D01*
X93093Y398519D01*
Y398535D01*
X93126Y398568D01*
X93174Y398616D01*
X93223Y398681D01*
X93385Y398859D01*
X93611Y399086D01*
X93886Y399328D01*
X94226Y399587D01*
X94614Y399830D01*
X95051Y400056D01*
X95067D01*
X95099Y400072D01*
X95180Y400105D01*
X95278Y400137D01*
X95391Y400186D01*
X95536Y400234D01*
X95698Y400283D01*
X95892Y400331D01*
X96103Y400380D01*
X96345Y400428D01*
X96588Y400477D01*
X96863Y400526D01*
X97154Y400558D01*
X97446Y400590D01*
X98109Y400606D01*
X98125D01*
X98190D01*
X98287D01*
X98416Y400590D01*
D02*
G37*
G36*
X104500Y372081D02*
X96410Y366774D01*
X104500Y361354D01*
Y357892D01*
X93999Y365059D01*
X83774Y358296D01*
Y362066D01*
X91475Y367082D01*
X83774Y372324D01*
Y375819D01*
X93918Y368797D01*
X104500Y375916D01*
Y372081D01*
D02*
G37*
G36*
X86233Y350352D02*
X104500D01*
Y347084D01*
X86233D01*
Y340272D01*
X83774D01*
Y357147D01*
X86233D01*
Y350352D01*
D02*
G37*
G36*
X98416Y336923D02*
X98578D01*
X98772Y336907D01*
X98983Y336890D01*
X99209Y336874D01*
X99711Y336793D01*
X100245Y336696D01*
X100779Y336550D01*
X101280Y336356D01*
X101296D01*
X101345Y336324D01*
X101410Y336292D01*
X101491Y336243D01*
X101604Y336195D01*
X101733Y336114D01*
X102024Y335936D01*
X102364Y335709D01*
X102704Y335434D01*
X103044Y335111D01*
X103367Y334738D01*
X103384Y334722D01*
X103400Y334690D01*
X103448Y334641D01*
X103497Y334560D01*
X103562Y334463D01*
X103643Y334334D01*
X103723Y334204D01*
X103804Y334043D01*
X103901Y333881D01*
X103998Y333687D01*
X104176Y333266D01*
X104354Y332797D01*
X104500Y332279D01*
Y332263D01*
X104516Y332214D01*
X104532Y332133D01*
X104549Y332036D01*
X104581Y331891D01*
X104613Y331729D01*
X104646Y331551D01*
X104662Y331357D01*
X104694Y331130D01*
X104726Y330888D01*
X104759Y330612D01*
X104791Y330337D01*
X104824Y329739D01*
X104840Y329108D01*
Y328687D01*
X104824Y328525D01*
Y328137D01*
X104791Y327684D01*
X104759Y327182D01*
X104726Y326665D01*
X104662Y326163D01*
Y326147D01*
X104646Y326098D01*
Y326034D01*
X104629Y325937D01*
X104613Y325807D01*
X104597Y325678D01*
X104565Y325516D01*
X104532Y325338D01*
X104468Y324933D01*
X104387Y324480D01*
X104274Y323995D01*
X104160Y323493D01*
X101701Y323785D01*
Y323801D01*
X101717Y323849D01*
X101733Y323914D01*
X101749Y324011D01*
X101782Y324124D01*
X101814Y324270D01*
X101847Y324416D01*
X101879Y324594D01*
X101960Y324982D01*
X102041Y325419D01*
X102122Y325872D01*
X102203Y326341D01*
Y326406D01*
X102219Y326470D01*
X102235Y326551D01*
X102251Y326665D01*
Y326810D01*
X102267Y326956D01*
X102283Y327134D01*
X102316Y327522D01*
X102348Y327959D01*
X102364Y328428D01*
X102380Y328930D01*
Y329189D01*
X102364Y329302D01*
Y329545D01*
X102348Y329836D01*
X102316Y330159D01*
X102219Y330823D01*
Y330839D01*
X102203Y330855D01*
Y330904D01*
X102186Y330969D01*
X102138Y331130D01*
X102073Y331341D01*
X101976Y331567D01*
X101863Y331826D01*
X101733Y332069D01*
X101572Y332311D01*
X101555Y332344D01*
X101491Y332408D01*
X101377Y332522D01*
X101232Y332667D01*
X101054Y332829D01*
X100827Y332991D01*
X100584Y333137D01*
X100293Y333282D01*
X100277D01*
X100261Y333298D01*
X100212Y333315D01*
X100148Y333331D01*
X100067Y333363D01*
X99970Y333396D01*
X99727Y333460D01*
X99436Y333525D01*
X99064Y333590D01*
X98659Y333622D01*
X98206Y333638D01*
X98190D01*
X98158D01*
X98093D01*
X98012D01*
X97915Y333622D01*
X97785D01*
X97510Y333590D01*
X97203Y333557D01*
X96879Y333493D01*
X96556Y333396D01*
X96248Y333282D01*
X96232D01*
X96216Y333266D01*
X96119Y333218D01*
X95973Y333137D01*
X95795Y333040D01*
X95601Y332894D01*
X95407Y332732D01*
X95197Y332538D01*
X95019Y332328D01*
X95002Y332295D01*
X94938Y332214D01*
X94857Y332101D01*
X94760Y331923D01*
X94663Y331713D01*
X94549Y331454D01*
X94452Y331179D01*
X94371Y330871D01*
Y330855D01*
X94355Y330839D01*
Y330790D01*
X94339Y330726D01*
X94307Y330548D01*
X94274Y330321D01*
X94242Y330030D01*
X94210Y329706D01*
X94177Y329351D01*
Y328606D01*
X94193Y328477D01*
Y328331D01*
X94210Y328008D01*
X94242Y327635D01*
X94274Y327215D01*
X94323Y326762D01*
Y326713D01*
X94339Y326648D01*
X94355Y326551D01*
Y326454D01*
X94371Y326325D01*
X94420Y326034D01*
X94452Y325694D01*
X94501Y325322D01*
X94566Y324933D01*
X94614Y324561D01*
X93805Y323785D01*
X83774Y324675D01*
Y336308D01*
X86362D01*
Y327263D01*
X91912Y326778D01*
Y326794D01*
X91896Y326859D01*
X91880Y326956D01*
X91864Y327102D01*
X91847Y327280D01*
X91831Y327474D01*
X91799Y327716D01*
X91783Y327991D01*
Y328024D01*
X91767Y328121D01*
Y328266D01*
X91750Y328461D01*
X91734Y328687D01*
Y328930D01*
X91718Y329448D01*
Y329739D01*
X91734Y329884D01*
Y330046D01*
X91750Y330240D01*
Y330467D01*
X91799Y330936D01*
X91847Y331454D01*
X91928Y331988D01*
X92042Y332506D01*
Y332522D01*
X92058Y332570D01*
X92074Y332635D01*
X92106Y332732D01*
X92139Y332862D01*
X92171Y332991D01*
X92236Y333153D01*
X92284Y333315D01*
X92430Y333687D01*
X92608Y334075D01*
X92834Y334479D01*
X93093Y334852D01*
Y334868D01*
X93126Y334900D01*
X93174Y334949D01*
X93223Y335014D01*
X93385Y335191D01*
X93611Y335418D01*
X93886Y335661D01*
X94226Y335919D01*
X94614Y336162D01*
X95051Y336389D01*
X95067D01*
X95099Y336405D01*
X95180Y336437D01*
X95278Y336470D01*
X95391Y336518D01*
X95536Y336567D01*
X95698Y336615D01*
X95892Y336664D01*
X96103Y336712D01*
X96345Y336761D01*
X96588Y336809D01*
X96863Y336858D01*
X97154Y336890D01*
X97446Y336923D01*
X98109Y336939D01*
X98125D01*
X98190D01*
X98287D01*
X98416Y336923D01*
D02*
G37*
G36*
X104500Y310711D02*
X86589D01*
X87802Y305971D01*
X85181D01*
X83774Y311294D01*
Y313867D01*
X104500D01*
Y310711D01*
D02*
G37*
G36*
X94517Y299822D02*
X94776D01*
X95083Y299806D01*
X95423Y299790D01*
X95811Y299758D01*
X96200Y299725D01*
X96620Y299693D01*
X97494Y299580D01*
X98352Y299418D01*
X98772Y299321D01*
X99177Y299208D01*
X99193D01*
X99274Y299175D01*
X99371Y299143D01*
X99517Y299094D01*
X99695Y299030D01*
X99905Y298949D01*
X100131Y298852D01*
X100374Y298755D01*
X100908Y298496D01*
X101474Y298188D01*
X102024Y297832D01*
X102283Y297622D01*
X102526Y297412D01*
X102542Y297395D01*
X102575Y297363D01*
X102639Y297298D01*
X102736Y297201D01*
X102833Y297088D01*
X102947Y296959D01*
X103076Y296797D01*
X103222Y296619D01*
X103367Y296425D01*
X103513Y296198D01*
X103675Y295972D01*
X103820Y295713D01*
X104095Y295163D01*
X104209Y294871D01*
X104322Y294564D01*
Y294548D01*
X104338Y294483D01*
X104371Y294402D01*
X104403Y294273D01*
X104435Y294111D01*
X104484Y293917D01*
X104532Y293706D01*
X104581Y293464D01*
X104629Y293189D01*
X104678Y292897D01*
X104726Y292590D01*
X104759Y292266D01*
X104791Y291910D01*
X104824Y291555D01*
X104840Y290794D01*
Y290487D01*
X104824Y290357D01*
Y290050D01*
X104807Y289678D01*
X104775Y289257D01*
X104726Y288804D01*
X104678Y288319D01*
Y288254D01*
X104662Y288189D01*
X104646Y288092D01*
X104629Y287979D01*
X104613Y287849D01*
X104597Y287704D01*
X104565Y287542D01*
X104516Y287170D01*
X104452Y286765D01*
X104371Y286345D01*
X104290Y285924D01*
X101798Y286280D01*
Y286296D01*
X101814Y286328D01*
Y286393D01*
X101830Y286458D01*
X101863Y286555D01*
X101879Y286684D01*
X101911Y286814D01*
X101944Y286959D01*
X102008Y287299D01*
X102073Y287671D01*
X102154Y288092D01*
X102219Y288529D01*
Y288577D01*
X102235Y288642D01*
X102251Y288739D01*
Y288836D01*
X102267Y288966D01*
X102283Y289111D01*
X102299Y289273D01*
X102332Y289613D01*
X102348Y290001D01*
X102380Y290406D01*
Y291053D01*
X102364Y291166D01*
Y291312D01*
X102348Y291457D01*
X102332Y291635D01*
X102299Y292008D01*
X102251Y292396D01*
X102170Y292817D01*
X102057Y293221D01*
Y293237D01*
X102041Y293270D01*
X102024Y293318D01*
X101992Y293399D01*
X101960Y293496D01*
X101911Y293593D01*
X101798Y293852D01*
X101652Y294127D01*
X101458Y294435D01*
X101232Y294726D01*
X100957Y295017D01*
X100940Y295033D01*
X100924Y295049D01*
X100876Y295082D01*
X100811Y295130D01*
X100730Y295195D01*
X100649Y295276D01*
X100407Y295438D01*
X100099Y295616D01*
X99743Y295794D01*
X99339Y295972D01*
X98869Y296133D01*
X98853D01*
X98805Y296150D01*
X98740Y296166D01*
X98627Y296198D01*
X98513Y296231D01*
X98352Y296263D01*
X98174Y296295D01*
X97963Y296344D01*
X97753Y296376D01*
X97494Y296408D01*
X97235Y296441D01*
X96944Y296473D01*
X96637Y296506D01*
X96313Y296522D01*
X95973Y296538D01*
X95617D01*
Y296522D01*
X95633Y296489D01*
X95650Y296441D01*
X95666Y296360D01*
X95698Y296263D01*
X95730Y296150D01*
X95763Y296036D01*
X95811Y295891D01*
X95892Y295551D01*
X95973Y295179D01*
X96070Y294758D01*
X96151Y294321D01*
Y294305D01*
X96167Y294273D01*
Y294208D01*
X96184Y294111D01*
X96200Y293998D01*
X96216Y293868D01*
X96232Y293723D01*
X96248Y293561D01*
X96297Y293189D01*
X96329Y292768D01*
X96345Y292315D01*
X96362Y291846D01*
Y291700D01*
X96345Y291538D01*
Y291312D01*
X96313Y291037D01*
X96281Y290729D01*
X96248Y290373D01*
X96184Y290001D01*
X96103Y289597D01*
X96022Y289192D01*
X95908Y288772D01*
X95763Y288351D01*
X95601Y287930D01*
X95423Y287526D01*
X95197Y287137D01*
X94954Y286782D01*
X94938Y286765D01*
X94889Y286701D01*
X94808Y286620D01*
X94679Y286506D01*
X94517Y286361D01*
X94339Y286215D01*
X94096Y286037D01*
X93837Y285875D01*
X93530Y285714D01*
X93190Y285536D01*
X92802Y285390D01*
X92381Y285261D01*
X91928Y285131D01*
X91427Y285050D01*
X90877Y284986D01*
X90294Y284969D01*
X90278D01*
X90262D01*
X90213D01*
X90148D01*
X89987Y284986D01*
X89776Y285002D01*
X89501Y285034D01*
X89194Y285066D01*
X88854Y285131D01*
X88482Y285212D01*
X88094Y285309D01*
X87689Y285422D01*
X87268Y285584D01*
X86848Y285762D01*
X86443Y285972D01*
X86039Y286231D01*
X85651Y286523D01*
X85295Y286846D01*
X85278Y286862D01*
X85214Y286927D01*
X85117Y287040D01*
X85003Y287202D01*
X84874Y287396D01*
X84712Y287623D01*
X84550Y287898D01*
X84372Y288221D01*
X84194Y288577D01*
X84032Y288982D01*
X83871Y289419D01*
X83741Y289888D01*
X83612Y290406D01*
X83531Y290956D01*
X83466Y291538D01*
X83450Y292169D01*
Y292347D01*
X83466Y292493D01*
Y292655D01*
X83482Y292849D01*
X83499Y293059D01*
X83515Y293302D01*
X83547Y293545D01*
X83596Y293804D01*
X83693Y294370D01*
X83838Y294936D01*
X84032Y295486D01*
Y295502D01*
X84065Y295551D01*
X84097Y295632D01*
X84146Y295729D01*
X84211Y295858D01*
X84275Y295988D01*
X84372Y296150D01*
X84486Y296328D01*
X84745Y296716D01*
X85052Y297104D01*
X85440Y297509D01*
X85877Y297897D01*
X85893Y297913D01*
X85942Y297945D01*
X86006Y297994D01*
X86104Y298059D01*
X86233Y298140D01*
X86379Y298237D01*
X86557Y298334D01*
X86751Y298447D01*
X86977Y298560D01*
X87236Y298674D01*
X87495Y298803D01*
X87786Y298916D01*
X88094Y299046D01*
X88434Y299159D01*
X88773Y299256D01*
X89145Y299353D01*
X89162D01*
X89242Y299369D01*
X89340Y299402D01*
X89501Y299434D01*
X89696Y299466D01*
X89922Y299515D01*
X90197Y299547D01*
X90505Y299596D01*
X90828Y299644D01*
X91200Y299693D01*
X91605Y299725D01*
X92025Y299758D01*
X92495Y299790D01*
X92964Y299822D01*
X93465Y299839D01*
X93999D01*
X94016D01*
X94032D01*
X94080D01*
X94129D01*
X94291D01*
X94517Y299822D01*
D02*
G37*
G36*
X106150Y271589D02*
Y268903D01*
X81735Y280002D01*
Y282720D01*
X106150Y271589D01*
D02*
G37*
G36*
X98481Y265327D02*
X98643D01*
X98837Y265311D01*
X99047Y265295D01*
X99274Y265262D01*
X99775Y265198D01*
X100293Y265084D01*
X100827Y264939D01*
X101329Y264745D01*
X101345D01*
X101377Y264712D01*
X101458Y264680D01*
X101539Y264631D01*
X101652Y264567D01*
X101766Y264502D01*
X102057Y264308D01*
X102380Y264081D01*
X102720Y263790D01*
X103060Y263450D01*
X103367Y263078D01*
X103384Y263062D01*
X103400Y263029D01*
X103432Y262965D01*
X103497Y262884D01*
X103562Y262787D01*
X103626Y262674D01*
X103707Y262528D01*
X103788Y262366D01*
X103885Y262188D01*
X103966Y261994D01*
X104144Y261557D01*
X104322Y261072D01*
X104468Y260538D01*
Y260522D01*
X104484Y260473D01*
X104500Y260392D01*
X104516Y260279D01*
X104549Y260149D01*
X104581Y259988D01*
X104613Y259794D01*
X104629Y259583D01*
X104662Y259357D01*
X104694Y259098D01*
X104726Y258839D01*
X104759Y258564D01*
X104791Y257965D01*
X104807Y257318D01*
Y256897D01*
X104791Y256719D01*
Y256525D01*
X104775Y256315D01*
Y256088D01*
X104759Y255846D01*
X104726Y255312D01*
X104678Y254746D01*
X104613Y254179D01*
Y254163D01*
X104597Y254114D01*
Y254034D01*
X104581Y253920D01*
X104565Y253791D01*
X104532Y253629D01*
X104516Y253467D01*
X104484Y253273D01*
X104419Y252836D01*
X104338Y252367D01*
X104241Y251882D01*
X104128Y251396D01*
X101669Y251688D01*
Y251704D01*
X101685Y251736D01*
X101701Y251801D01*
X101717Y251898D01*
X101749Y252011D01*
X101782Y252141D01*
X101814Y252286D01*
X101847Y252448D01*
X101895Y252642D01*
X101927Y252836D01*
X102008Y253273D01*
X102105Y253759D01*
X102186Y254260D01*
Y254325D01*
X102203Y254406D01*
X102219Y254503D01*
X102235Y254632D01*
X102251Y254778D01*
X102267Y254956D01*
X102283Y255150D01*
X102299Y255344D01*
X102316Y255571D01*
X102348Y256056D01*
X102364Y256574D01*
X102380Y257108D01*
Y257399D01*
X102364Y257512D01*
X102348Y257787D01*
X102332Y258095D01*
X102299Y258435D01*
X102251Y258790D01*
X102186Y259130D01*
Y259146D01*
X102170Y259179D01*
Y259211D01*
X102138Y259276D01*
X102089Y259454D01*
X102024Y259664D01*
X101927Y259907D01*
X101814Y260166D01*
X101685Y260425D01*
X101523Y260667D01*
X101507Y260700D01*
X101442Y260781D01*
X101329Y260894D01*
X101183Y261039D01*
X101005Y261201D01*
X100795Y261363D01*
X100552Y261509D01*
X100277Y261654D01*
X100261D01*
X100245Y261670D01*
X100196Y261687D01*
X100131Y261703D01*
X100050Y261735D01*
X99970Y261768D01*
X99727Y261832D01*
X99452Y261897D01*
X99112Y261962D01*
X98724Y261994D01*
X98303Y262010D01*
X98287D01*
X98222D01*
X98125D01*
X97979Y261994D01*
X97818Y261978D01*
X97640Y261945D01*
X97446Y261897D01*
X97219Y261848D01*
X96993Y261784D01*
X96766Y261703D01*
X96523Y261606D01*
X96297Y261476D01*
X96070Y261331D01*
X95860Y261169D01*
X95666Y260975D01*
X95488Y260748D01*
X95472Y260732D01*
X95456Y260683D01*
X95407Y260619D01*
X95358Y260522D01*
X95278Y260392D01*
X95213Y260247D01*
X95132Y260052D01*
X95051Y259858D01*
X94970Y259616D01*
X94889Y259357D01*
X94808Y259082D01*
X94744Y258774D01*
X94695Y258451D01*
X94647Y258095D01*
X94630Y257722D01*
X94614Y257318D01*
Y254956D01*
X92511D01*
X86265Y260748D01*
Y251558D01*
X83774D01*
Y264745D01*
X85958D01*
X92365Y258596D01*
Y258823D01*
X92381Y258936D01*
Y259065D01*
X92397Y259211D01*
Y259357D01*
X92446Y259713D01*
X92495Y260117D01*
X92576Y260554D01*
X92689Y260991D01*
Y261007D01*
X92705Y261039D01*
X92721Y261104D01*
X92753Y261201D01*
X92786Y261298D01*
X92818Y261428D01*
X92931Y261703D01*
X93077Y262043D01*
X93255Y262398D01*
X93465Y262771D01*
X93708Y263143D01*
Y263159D01*
X93740Y263191D01*
X93773Y263240D01*
X93837Y263305D01*
X93983Y263483D01*
X94193Y263709D01*
X94452Y263952D01*
X94760Y264227D01*
X95116Y264486D01*
X95504Y264728D01*
X95520D01*
X95553Y264761D01*
X95617Y264793D01*
X95698Y264825D01*
X95795Y264874D01*
X95925Y264923D01*
X96070Y264971D01*
X96248Y265036D01*
X96426Y265100D01*
X96637Y265149D01*
X96847Y265198D01*
X97090Y265246D01*
X97607Y265311D01*
X98174Y265343D01*
X98190D01*
X98255D01*
X98352D01*
X98481Y265327D01*
D02*
G37*
G36*
Y246461D02*
X98643D01*
X98837Y246445D01*
X99047Y246429D01*
X99274Y246397D01*
X99775Y246332D01*
X100293Y246219D01*
X100827Y246073D01*
X101329Y245879D01*
X101345D01*
X101377Y245847D01*
X101458Y245814D01*
X101539Y245766D01*
X101652Y245701D01*
X101766Y245636D01*
X102057Y245442D01*
X102380Y245216D01*
X102720Y244924D01*
X103060Y244585D01*
X103367Y244212D01*
X103384Y244196D01*
X103400Y244164D01*
X103432Y244099D01*
X103497Y244018D01*
X103562Y243921D01*
X103626Y243808D01*
X103707Y243662D01*
X103788Y243500D01*
X103885Y243323D01*
X103966Y243128D01*
X104144Y242691D01*
X104322Y242206D01*
X104468Y241672D01*
Y241656D01*
X104484Y241607D01*
X104500Y241527D01*
X104516Y241413D01*
X104549Y241284D01*
X104581Y241122D01*
X104613Y240928D01*
X104629Y240718D01*
X104662Y240491D01*
X104694Y240232D01*
X104726Y239973D01*
X104759Y239698D01*
X104791Y239100D01*
X104807Y238452D01*
Y238032D01*
X104791Y237854D01*
Y237660D01*
X104775Y237449D01*
Y237223D01*
X104759Y236980D01*
X104726Y236446D01*
X104678Y235880D01*
X104613Y235313D01*
Y235297D01*
X104597Y235249D01*
Y235168D01*
X104581Y235055D01*
X104565Y234925D01*
X104532Y234763D01*
X104516Y234602D01*
X104484Y234408D01*
X104419Y233971D01*
X104338Y233501D01*
X104241Y233016D01*
X104128Y232531D01*
X101669Y232822D01*
Y232838D01*
X101685Y232870D01*
X101701Y232935D01*
X101717Y233032D01*
X101749Y233145D01*
X101782Y233275D01*
X101814Y233421D01*
X101847Y233582D01*
X101895Y233776D01*
X101927Y233971D01*
X102008Y234408D01*
X102105Y234893D01*
X102186Y235394D01*
Y235459D01*
X102203Y235540D01*
X102219Y235637D01*
X102235Y235767D01*
X102251Y235912D01*
X102267Y236090D01*
X102283Y236284D01*
X102299Y236479D01*
X102316Y236705D01*
X102348Y237190D01*
X102364Y237708D01*
X102380Y238242D01*
Y238533D01*
X102364Y238647D01*
X102348Y238922D01*
X102332Y239229D01*
X102299Y239569D01*
X102251Y239925D01*
X102186Y240264D01*
Y240281D01*
X102170Y240313D01*
Y240345D01*
X102138Y240410D01*
X102089Y240588D01*
X102024Y240798D01*
X101927Y241041D01*
X101814Y241300D01*
X101685Y241559D01*
X101523Y241802D01*
X101507Y241834D01*
X101442Y241915D01*
X101329Y242028D01*
X101183Y242174D01*
X101005Y242336D01*
X100795Y242497D01*
X100552Y242643D01*
X100277Y242789D01*
X100261D01*
X100245Y242805D01*
X100196Y242821D01*
X100131Y242837D01*
X100050Y242869D01*
X99970Y242902D01*
X99727Y242967D01*
X99452Y243031D01*
X99112Y243096D01*
X98724Y243128D01*
X98303Y243144D01*
X98287D01*
X98222D01*
X98125D01*
X97979Y243128D01*
X97818Y243112D01*
X97640Y243080D01*
X97446Y243031D01*
X97219Y242983D01*
X96993Y242918D01*
X96766Y242837D01*
X96523Y242740D01*
X96297Y242611D01*
X96070Y242465D01*
X95860Y242303D01*
X95666Y242109D01*
X95488Y241882D01*
X95472Y241866D01*
X95456Y241818D01*
X95407Y241753D01*
X95358Y241656D01*
X95278Y241527D01*
X95213Y241381D01*
X95132Y241187D01*
X95051Y240993D01*
X94970Y240750D01*
X94889Y240491D01*
X94808Y240216D01*
X94744Y239909D01*
X94695Y239585D01*
X94647Y239229D01*
X94630Y238857D01*
X94614Y238452D01*
Y236090D01*
X92511D01*
X86265Y241882D01*
Y232692D01*
X83774D01*
Y245879D01*
X85958D01*
X92365Y239731D01*
Y239957D01*
X92381Y240070D01*
Y240200D01*
X92397Y240345D01*
Y240491D01*
X92446Y240847D01*
X92495Y241252D01*
X92576Y241688D01*
X92689Y242125D01*
Y242141D01*
X92705Y242174D01*
X92721Y242239D01*
X92753Y242336D01*
X92786Y242433D01*
X92818Y242562D01*
X92931Y242837D01*
X93077Y243177D01*
X93255Y243533D01*
X93465Y243905D01*
X93708Y244277D01*
Y244293D01*
X93740Y244326D01*
X93773Y244374D01*
X93837Y244439D01*
X93983Y244617D01*
X94193Y244843D01*
X94452Y245086D01*
X94760Y245361D01*
X95116Y245620D01*
X95504Y245863D01*
X95520D01*
X95553Y245895D01*
X95617Y245928D01*
X95698Y245960D01*
X95795Y246008D01*
X95925Y246057D01*
X96070Y246105D01*
X96248Y246170D01*
X96426Y246235D01*
X96637Y246283D01*
X96847Y246332D01*
X97090Y246381D01*
X97607Y246445D01*
X98174Y246478D01*
X98190D01*
X98255D01*
X98352D01*
X98481Y246461D01*
D02*
G37*
G36*
X99533Y226463D02*
X104500D01*
Y223405D01*
X99533D01*
Y212484D01*
X97397D01*
X83774Y222176D01*
Y226463D01*
X97138D01*
Y229100D01*
X99533D01*
Y226463D01*
D02*
G37*
G36*
X331262Y422512D02*
X331239D01*
X331147D01*
X331008D01*
X330823Y422535D01*
X330799D01*
X330776D01*
X330707Y422558D01*
X330614D01*
X330476Y422581D01*
X330314Y422628D01*
X330105Y422674D01*
X329851Y422720D01*
X329828D01*
X329735Y422743D01*
X329596Y422790D01*
X329434Y422836D01*
X329249Y422906D01*
X329041Y422975D01*
X328624Y423160D01*
X328601Y423183D01*
X328532Y423206D01*
X328439Y423276D01*
X328324Y423368D01*
X328185Y423507D01*
X328023Y423646D01*
X327861Y423854D01*
X327699Y424062D01*
X327676Y424086D01*
X327629Y424178D01*
X327560Y424294D01*
X327491Y424479D01*
X327421Y424687D01*
X327352Y424942D01*
X327305Y425219D01*
X327282Y425520D01*
Y436882D01*
X319831D01*
Y428042D01*
X319855Y427672D01*
X319878Y427256D01*
X319901Y426816D01*
X319947Y426376D01*
X319993Y425937D01*
Y425890D01*
X320017Y425752D01*
X320063Y425566D01*
X320086Y425335D01*
X320155Y425081D01*
X320202Y424849D01*
X320248Y424641D01*
X320317Y424479D01*
X320479Y424109D01*
X320456D01*
X320433D01*
X320364D01*
X320271D01*
X320063Y424132D01*
X319762Y424178D01*
X319415Y424224D01*
X319021Y424317D01*
X318605Y424433D01*
X318165Y424595D01*
X317726Y424803D01*
X317309Y425034D01*
X316916Y425358D01*
X316569Y425728D01*
X316268Y426168D01*
X316060Y426677D01*
X315967Y426978D01*
X315898Y427279D01*
X315875Y427603D01*
X315851Y427950D01*
Y436882D01*
X306480D01*
Y422512D01*
X306457D01*
X306434D01*
X306364D01*
X306272D01*
X306017Y422558D01*
X305693Y422605D01*
X305670D01*
X305601Y422628D01*
X305508D01*
X305369Y422674D01*
X305184Y422720D01*
X304953Y422767D01*
X304698Y422836D01*
X304397Y422929D01*
X304351D01*
X304259Y422975D01*
X304097Y423044D01*
X303911Y423137D01*
X303703Y423252D01*
X303472Y423414D01*
X303241Y423623D01*
X303032Y423854D01*
X303009Y423877D01*
X302940Y423970D01*
X302870Y424109D01*
X302778Y424317D01*
X302662Y424548D01*
X302593Y424849D01*
X302523Y425173D01*
X302500Y425520D01*
Y438409D01*
X302523Y438478D01*
Y438594D01*
X302546Y438733D01*
X302569Y438918D01*
X302616Y439149D01*
X302662Y439404D01*
Y439427D01*
X302685Y439543D01*
X302708Y439682D01*
X302754Y439867D01*
X302824Y440075D01*
X302870Y440283D01*
X303032Y440746D01*
X303055Y440769D01*
X303078Y440839D01*
X303148Y440954D01*
X303217Y441093D01*
X303333Y441255D01*
X303472Y441417D01*
X303634Y441602D01*
X303819Y441787D01*
X303842Y441810D01*
X303911Y441857D01*
X304027Y441949D01*
X304189Y442019D01*
X304374Y442111D01*
X304606Y442204D01*
X304837Y442250D01*
X305115Y442273D01*
X331262D01*
Y422512D01*
D02*
G37*
G36*
X323163Y421054D02*
X323187Y421008D01*
Y420915D01*
X323210Y420777D01*
X323233Y420638D01*
X323256Y420453D01*
X323326Y420059D01*
X323395Y419643D01*
X323441Y419203D01*
X323464Y418787D01*
X323487Y418439D01*
Y418231D01*
X323464Y418023D01*
X323418Y417722D01*
X323349Y417375D01*
X323256Y416982D01*
X323140Y416542D01*
X322955Y416102D01*
Y416079D01*
X322932Y416056D01*
X322909Y415987D01*
X322863Y415894D01*
X322724Y415686D01*
X322562Y415408D01*
X322331Y415107D01*
X322030Y414784D01*
X321683Y414460D01*
X321289Y414159D01*
X316060Y411058D01*
X321289Y407980D01*
X321312D01*
X321335Y407934D01*
X321474Y407842D01*
X321683Y407680D01*
X321937Y407448D01*
X322215Y407171D01*
X322492Y406847D01*
X322747Y406477D01*
X322955Y406037D01*
Y406014D01*
X322978Y405991D01*
X323002Y405921D01*
X323048Y405829D01*
X323117Y405597D01*
X323233Y405296D01*
X323326Y404926D01*
X323395Y404533D01*
X323464Y404116D01*
X323487Y403700D01*
X323163Y401039D01*
X323140D01*
X323117Y401085D01*
X323048Y401131D01*
X322932Y401201D01*
X322816Y401293D01*
X322678Y401409D01*
X322331Y401664D01*
X321914Y401941D01*
X321451Y402265D01*
X320919Y402612D01*
X320364Y402936D01*
X315157Y405991D01*
X315134D01*
X315088Y406037D01*
X314995Y406106D01*
X314856Y406176D01*
X314718Y406291D01*
X314533Y406430D01*
X314324Y406569D01*
X314116Y406754D01*
X314093Y406777D01*
X314023Y406847D01*
X313908Y406939D01*
X313769Y407055D01*
X313445Y407333D01*
X313121Y407657D01*
X312751Y408004D01*
Y407980D01*
X312728Y407957D01*
X312635Y407819D01*
X312496Y407633D01*
X312265Y407356D01*
X311964Y407055D01*
X311571Y406708D01*
X311362Y406546D01*
X311108Y406361D01*
X310830Y406176D01*
X310529Y405991D01*
X305786Y403214D01*
X305763Y403191D01*
X305693Y403167D01*
X305601Y403098D01*
X305462Y403006D01*
X305277Y402913D01*
X305092Y402797D01*
X304629Y402496D01*
X304097Y402173D01*
X303564Y401802D01*
X303032Y401432D01*
X302523Y401039D01*
Y401062D01*
X302500Y401108D01*
Y401201D01*
X302477Y401339D01*
X302454Y401478D01*
X302431Y401664D01*
X302384Y402057D01*
X302315Y402496D01*
X302269Y402936D01*
X302246Y403353D01*
X302222Y403538D01*
Y403908D01*
X302246Y404139D01*
X302292Y404440D01*
X302338Y404810D01*
X302431Y405227D01*
X302546Y405667D01*
X302708Y406129D01*
Y406152D01*
X302731Y406176D01*
X302754Y406245D01*
X302801Y406338D01*
X302940Y406546D01*
X303125Y406824D01*
X303356Y407147D01*
X303657Y407448D01*
X304004Y407772D01*
X304421Y408050D01*
X309743Y411058D01*
X304421Y414089D01*
X304397D01*
X304374Y414113D01*
X304235Y414205D01*
X304004Y414367D01*
X303750Y414575D01*
X303472Y414853D01*
X303194Y415177D01*
X302940Y415570D01*
X302708Y416010D01*
Y416033D01*
X302685Y416056D01*
X302662Y416126D01*
X302639Y416218D01*
X302546Y416473D01*
X302477Y416773D01*
X302384Y417144D01*
X302292Y417560D01*
X302246Y418000D01*
X302222Y418439D01*
X302523Y421077D01*
X302546Y421054D01*
X302593Y421031D01*
X302662Y420985D01*
X302754Y420892D01*
X302870Y420800D01*
X303032Y420707D01*
X303194Y420568D01*
X303402Y420429D01*
X303634Y420291D01*
X303865Y420106D01*
X304421Y419758D01*
X305068Y419342D01*
X305786Y418926D01*
X310529Y416149D01*
X310553Y416126D01*
X310645Y416079D01*
X310784Y415987D01*
X310969Y415848D01*
X311177Y415709D01*
X311385Y415547D01*
X311825Y415200D01*
X311848Y415177D01*
X311918Y415107D01*
X312010Y415015D01*
X312126Y414899D01*
X312357Y414645D01*
X312473Y414529D01*
X312542Y414413D01*
X312751Y414136D01*
X312774Y414159D01*
X312820Y414205D01*
X312890Y414274D01*
X313005Y414367D01*
X313260Y414622D01*
X313607Y414922D01*
X313977Y415246D01*
X314370Y415593D01*
X314787Y415894D01*
X315157Y416149D01*
X320364Y419203D01*
X320387D01*
X320433Y419249D01*
X320503Y419296D01*
X320618Y419365D01*
X320757Y419435D01*
X320919Y419527D01*
X321289Y419758D01*
X321729Y420036D01*
X322192Y420360D01*
X322678Y420707D01*
X323163Y421077D01*
Y421054D01*
D02*
G37*
G36*
X323696Y398609D02*
X323673Y398563D01*
X323626Y398470D01*
X323580Y398378D01*
X323511Y398216D01*
X323464Y398054D01*
X323395Y397869D01*
X323326Y397660D01*
X323163Y397174D01*
X323048Y396619D01*
X322955Y396041D01*
X322932Y395416D01*
Y395208D01*
X322955Y395092D01*
Y394791D01*
X322978Y394606D01*
X323025Y394166D01*
X323094Y393634D01*
X323187Y393009D01*
X323302Y392315D01*
Y392292D01*
X323326Y392223D01*
X323349Y392130D01*
X323372Y391991D01*
X323395Y391829D01*
X323418Y391644D01*
X323511Y391228D01*
X323580Y390765D01*
X323626Y390302D01*
X323673Y389885D01*
X323696Y389700D01*
Y389122D01*
X323673Y388821D01*
X323649Y388474D01*
X323603Y388058D01*
X323534Y387595D01*
X323464Y387086D01*
X323372Y386553D01*
X323256Y386021D01*
X323094Y385466D01*
X322932Y384911D01*
X322724Y384355D01*
X322469Y383846D01*
X322192Y383337D01*
X321868Y382874D01*
X321844Y382851D01*
X321775Y382782D01*
X321683Y382643D01*
X321521Y382504D01*
X321335Y382319D01*
X321104Y382111D01*
X320849Y381902D01*
X320526Y381671D01*
X320178Y381463D01*
X319808Y381255D01*
X319369Y381046D01*
X318906Y380861D01*
X318420Y380699D01*
X317865Y380583D01*
X317286Y380514D01*
X316684Y380491D01*
X308956D01*
X308910D01*
X308817D01*
X308655Y380514D01*
X308447Y380537D01*
X308169Y380560D01*
X307868Y380607D01*
X307521Y380699D01*
X307151Y380792D01*
X306758Y380907D01*
X306364Y381069D01*
X305948Y381255D01*
X305531Y381486D01*
X305115Y381764D01*
X304698Y382064D01*
X304305Y382435D01*
X303935Y382851D01*
X303911Y382874D01*
X303865Y382967D01*
X303750Y383083D01*
X303634Y383268D01*
X303495Y383499D01*
X303333Y383777D01*
X303171Y384077D01*
X302986Y384448D01*
X302801Y384841D01*
X302639Y385258D01*
X302477Y385744D01*
X302338Y386230D01*
X302222Y386762D01*
X302130Y387340D01*
X302060Y387919D01*
X302037Y388543D01*
Y388798D01*
X302060Y388937D01*
Y389076D01*
X302083Y389446D01*
X302130Y389862D01*
X302199Y390348D01*
X302292Y390834D01*
X302407Y391320D01*
Y391343D01*
X302431Y391367D01*
X302454Y391436D01*
X302477Y391528D01*
X302546Y391760D01*
X302639Y392038D01*
X302754Y392338D01*
X302893Y392639D01*
X303032Y392917D01*
X303171Y393171D01*
X303564Y393727D01*
X303541D01*
X303518Y393703D01*
X303449D01*
X303356Y393680D01*
X303102Y393634D01*
X302801Y393565D01*
X302431Y393495D01*
X302060Y393449D01*
X301667Y393426D01*
X301274Y393403D01*
X292573D01*
Y393703D01*
X292596Y393866D01*
Y394051D01*
X292643Y394444D01*
Y394467D01*
X292666Y394537D01*
Y394675D01*
X292689Y394860D01*
X292735Y395092D01*
X292782Y395370D01*
X292851Y395717D01*
X292920Y396110D01*
Y396156D01*
X292967Y396295D01*
X293036Y396503D01*
X293105Y396758D01*
X293244Y397036D01*
X293406Y397360D01*
X293591Y397660D01*
X293846Y397938D01*
X293869Y397961D01*
X293962Y398054D01*
X294123Y398146D01*
X294332Y398285D01*
X294586Y398401D01*
X294864Y398517D01*
X295211Y398609D01*
X295581Y398632D01*
X323696D01*
Y398609D01*
D02*
G37*
G36*
X323649Y376025D02*
X323626Y375979D01*
X323580Y375886D01*
X323534Y375770D01*
X323464Y375632D01*
X323395Y375470D01*
X323256Y375053D01*
X323094Y374590D01*
X322978Y374058D01*
X322886Y373503D01*
X322840Y372948D01*
Y372785D01*
X322863Y372600D01*
X322886Y372300D01*
X322909Y372114D01*
X322932Y371929D01*
X322978Y371698D01*
X323025Y371443D01*
X323071Y371189D01*
X323117Y370888D01*
X323187Y370564D01*
X323256Y370217D01*
Y370194D01*
X323279Y370125D01*
X323302Y370032D01*
X323326Y369893D01*
X323349Y369731D01*
X323395Y369546D01*
X323487Y369106D01*
X323557Y368597D01*
X323626Y368065D01*
X323673Y367533D01*
X323696Y367047D01*
Y366815D01*
X323673Y366654D01*
Y366445D01*
X323649Y366214D01*
X323626Y365959D01*
X323580Y365682D01*
X323464Y365080D01*
X323302Y364409D01*
X323071Y363761D01*
X322770Y363159D01*
Y363136D01*
X322724Y363090D01*
X322678Y363021D01*
X322585Y362905D01*
X322377Y362674D01*
X322076Y362373D01*
X321659Y362095D01*
X321428Y361979D01*
X321174Y361841D01*
X320896Y361748D01*
X320572Y361679D01*
X320248Y361632D01*
X319901Y361609D01*
X319878D01*
X319785D01*
X319646Y361632D01*
X319484D01*
X319276Y361679D01*
X319021Y361725D01*
X318790Y361771D01*
X318512Y361864D01*
X318489D01*
X318397Y361910D01*
X318281Y361956D01*
X318119Y362026D01*
X317749Y362188D01*
X317564Y362303D01*
X317402Y362396D01*
X317379D01*
X317332Y362442D01*
X317240Y362489D01*
X317124Y362581D01*
X316846Y362766D01*
X316499Y363044D01*
X316476Y363067D01*
X316430Y363090D01*
X316337Y363159D01*
X316245Y363229D01*
X316060Y363368D01*
X316013Y363437D01*
X315967Y363460D01*
X315990D01*
X316037D01*
X316129D01*
X316268Y363484D01*
X316407Y363507D01*
X316592Y363530D01*
X316985Y363622D01*
X317425Y363761D01*
X317888Y363969D01*
X318096Y364108D01*
X318304Y364270D01*
X318512Y364478D01*
X318698Y364687D01*
Y364710D01*
X318744Y364733D01*
X318790Y364802D01*
X318836Y364918D01*
X318906Y365034D01*
X318998Y365173D01*
X319068Y365335D01*
X319160Y365543D01*
X319322Y365983D01*
X319484Y366515D01*
X319577Y367140D01*
X319623Y367811D01*
Y367949D01*
X319600Y368019D01*
Y368134D01*
X319577Y368250D01*
Y368412D01*
X319554Y368597D01*
X319508Y368806D01*
X319484Y369060D01*
X319438Y369338D01*
X319392Y369639D01*
X319322Y370009D01*
X319253Y370379D01*
X319184Y370819D01*
X302222D01*
Y371143D01*
X302246Y371397D01*
Y371467D01*
X302269Y371559D01*
Y371675D01*
X302292Y371860D01*
X302315Y372068D01*
X302361Y372323D01*
X302407Y372647D01*
Y372693D01*
X302431Y372809D01*
X302454Y372971D01*
X302500Y373179D01*
X302546Y373433D01*
X302593Y373711D01*
X302754Y374243D01*
X302778Y374266D01*
X302801Y374359D01*
X302870Y374475D01*
X302940Y374660D01*
X303055Y374845D01*
X303194Y375053D01*
X303356Y375261D01*
X303541Y375493D01*
X303564Y375516D01*
X303634Y375585D01*
X303750Y375678D01*
X303911Y375770D01*
X304097Y375863D01*
X304305Y375956D01*
X304559Y376025D01*
X304814Y376048D01*
X323649D01*
Y376025D01*
D02*
G37*
G36*
X316939Y359619D02*
X317170Y359596D01*
X317448Y359573D01*
X317772Y359527D01*
X318119Y359457D01*
X318512Y359342D01*
X318929Y359226D01*
X319345Y359087D01*
X319785Y358879D01*
X320225Y358671D01*
X320641Y358393D01*
X321058Y358092D01*
X321451Y357745D01*
X321821Y357328D01*
X321844Y357305D01*
X321914Y357213D01*
X322006Y357097D01*
X322122Y356889D01*
X322261Y356657D01*
X322423Y356380D01*
X322585Y356033D01*
X322770Y355639D01*
X322932Y355200D01*
X323094Y354691D01*
X323256Y354158D01*
X323395Y353580D01*
X323534Y352932D01*
X323626Y352238D01*
X323673Y351520D01*
X323696Y350734D01*
Y350340D01*
X323673Y350039D01*
X323649Y349692D01*
X323603Y349299D01*
X323534Y348859D01*
X323464Y348373D01*
X323372Y347864D01*
X323256Y347355D01*
X323117Y346823D01*
X322932Y346291D01*
X322724Y345782D01*
X322492Y345273D01*
X322215Y344810D01*
X321891Y344394D01*
X321868Y344370D01*
X321798Y344301D01*
X321706Y344185D01*
X321567Y344046D01*
X321382Y343884D01*
X321174Y343722D01*
X320896Y343514D01*
X320618Y343306D01*
X320294Y343121D01*
X319924Y342912D01*
X319508Y342751D01*
X319091Y342565D01*
X318605Y342450D01*
X318119Y342334D01*
X317564Y342265D01*
X317008Y342242D01*
X316985D01*
X316893D01*
X316731Y342265D01*
X316523D01*
X316291Y342311D01*
X315990Y342357D01*
X315666Y342403D01*
X315342Y342496D01*
X314972Y342589D01*
X314579Y342727D01*
X314185Y342889D01*
X313792Y343074D01*
X313399Y343306D01*
X313005Y343584D01*
X312635Y343884D01*
X312265Y344231D01*
X312242Y344255D01*
X312195Y344324D01*
X312103Y344440D01*
X311987Y344602D01*
X311825Y344833D01*
X311686Y345088D01*
X311501Y345412D01*
X311339Y345759D01*
X311177Y346175D01*
X310992Y346661D01*
X310853Y347170D01*
X310714Y347749D01*
X310576Y348397D01*
X310483Y349068D01*
X310437Y349808D01*
X310414Y350618D01*
Y350803D01*
X310437Y350942D01*
Y351127D01*
X310460Y351335D01*
X310483Y351567D01*
X310506Y351821D01*
X310599Y352400D01*
X310714Y353048D01*
X310900Y353719D01*
X311131Y354390D01*
X309696D01*
X309650D01*
X309534D01*
X309349Y354367D01*
X309118Y354320D01*
X308840Y354251D01*
X308539Y354158D01*
X308215Y354020D01*
X307868Y353834D01*
X307521Y353603D01*
X307197Y353302D01*
X306896Y352932D01*
X306619Y352515D01*
X306387Y351983D01*
X306202Y351405D01*
X306133Y351058D01*
X306087Y350710D01*
X306040Y350340D01*
Y349646D01*
X306063Y349438D01*
X306087Y349183D01*
X306110Y348882D01*
X306133Y348559D01*
X306179Y348212D01*
X306318Y347448D01*
X306526Y346638D01*
X306642Y346245D01*
X306804Y345851D01*
X306966Y345458D01*
X307174Y345111D01*
X307197Y345088D01*
X307220Y345041D01*
X307290Y344949D01*
X307382Y344810D01*
X307498Y344671D01*
X307637Y344532D01*
X307984Y344185D01*
X308401Y343838D01*
X308910Y343537D01*
X309187Y343399D01*
X309488Y343306D01*
X309812Y343237D01*
X310136Y343213D01*
X310113Y343190D01*
X310067Y343167D01*
X309951Y343098D01*
X309835Y343028D01*
X309673Y342912D01*
X309488Y342820D01*
X309280Y342704D01*
X309049Y342589D01*
X308539Y342357D01*
X307984Y342149D01*
X307406Y342010D01*
X307128Y341987D01*
X306827Y341964D01*
X306804D01*
X306735D01*
X306619Y341987D01*
X306457D01*
X306272Y342033D01*
X306063Y342080D01*
X305832Y342149D01*
X305578Y342242D01*
X305300Y342357D01*
X305022Y342519D01*
X304721Y342681D01*
X304444Y342912D01*
X304143Y343167D01*
X303865Y343468D01*
X303588Y343815D01*
X303333Y344208D01*
X303310Y344231D01*
X303287Y344301D01*
X303217Y344440D01*
X303125Y344602D01*
X303032Y344833D01*
X302917Y345088D01*
X302801Y345412D01*
X302685Y345759D01*
X302569Y346152D01*
X302454Y346569D01*
X302338Y347054D01*
X302246Y347564D01*
X302153Y348096D01*
X302083Y348674D01*
X302060Y349276D01*
X302037Y349924D01*
Y350132D01*
X302060Y350363D01*
Y350687D01*
X302083Y351081D01*
X302130Y351520D01*
X302199Y352006D01*
X302269Y352538D01*
X302361Y353117D01*
X302500Y353695D01*
X302639Y354297D01*
X302824Y354899D01*
X303032Y355477D01*
X303287Y356056D01*
X303564Y356588D01*
X303888Y357097D01*
X303911Y357120D01*
X303981Y357213D01*
X304074Y357328D01*
X304235Y357490D01*
X304421Y357676D01*
X304652Y357907D01*
X304930Y358138D01*
X305231Y358370D01*
X305578Y358601D01*
X305971Y358833D01*
X306411Y359041D01*
X306873Y359249D01*
X307359Y359411D01*
X307915Y359527D01*
X308493Y359619D01*
X309095Y359642D01*
X316615D01*
X316661D01*
X316754D01*
X316939Y359619D01*
D02*
G37*
G36*
X317332Y339118D02*
X317564Y339095D01*
X317818Y339071D01*
X318142Y339025D01*
X318489Y338956D01*
X318883Y338863D01*
X319276Y338747D01*
X319693Y338586D01*
X320109Y338400D01*
X320503Y338192D01*
X320919Y337914D01*
X321312Y337614D01*
X321683Y337267D01*
X322006Y336873D01*
X322030Y336850D01*
X322076Y336758D01*
X322169Y336642D01*
X322261Y336457D01*
X322400Y336225D01*
X322539Y335924D01*
X322701Y335577D01*
X322863Y335184D01*
X323002Y334744D01*
X323163Y334258D01*
X323302Y333726D01*
X323441Y333125D01*
X323534Y332477D01*
X323626Y331782D01*
X323673Y331042D01*
X323696Y330255D01*
Y329885D01*
X323673Y329631D01*
Y329307D01*
X323649Y328960D01*
X323603Y328543D01*
X323557Y328103D01*
X323511Y327640D01*
X323441Y327155D01*
X323256Y326160D01*
X323002Y325188D01*
X322840Y324748D01*
X322654Y324309D01*
Y324285D01*
X322608Y324216D01*
X322539Y324100D01*
X322469Y323961D01*
X322354Y323799D01*
X322215Y323614D01*
X322076Y323406D01*
X321891Y323198D01*
X321683Y322990D01*
X321451Y322781D01*
X321220Y322596D01*
X320942Y322434D01*
X320641Y322295D01*
X320317Y322180D01*
X319993Y322110D01*
X319623Y322087D01*
X319600D01*
X319554D01*
X319461D01*
X319322Y322110D01*
X319184Y322133D01*
X318998Y322156D01*
X318767Y322203D01*
X318536Y322272D01*
X318003Y322457D01*
X317703Y322573D01*
X317379Y322735D01*
X317055Y322897D01*
X316731Y323105D01*
X316360Y323337D01*
X316013Y323614D01*
X316037D01*
X316083D01*
X316175D01*
X316314Y323637D01*
X316453Y323661D01*
X316615Y323707D01*
X317008Y323846D01*
X317240Y323938D01*
X317448Y324054D01*
X317680Y324193D01*
X317911Y324355D01*
X318142Y324563D01*
X318351Y324818D01*
X318559Y325072D01*
X318744Y325396D01*
X318767Y325419D01*
X318790Y325465D01*
X318836Y325581D01*
X318906Y325720D01*
X318975Y325882D01*
X319045Y326090D01*
X319137Y326345D01*
X319230Y326622D01*
X319322Y326923D01*
X319415Y327247D01*
X319484Y327617D01*
X319554Y328011D01*
X319623Y328450D01*
X319669Y328890D01*
X319716Y329376D01*
Y330047D01*
X319693Y330232D01*
X319669Y330510D01*
X319646Y330811D01*
X319577Y331181D01*
X319508Y331551D01*
X319415Y331921D01*
X319276Y332315D01*
X319114Y332685D01*
X318929Y333032D01*
X318674Y333356D01*
X318397Y333610D01*
X318073Y333819D01*
X317703Y333958D01*
X317494Y333981D01*
X317263Y334004D01*
X317217D01*
X317124Y333981D01*
X316962Y333958D01*
X316754Y333888D01*
X316523Y333773D01*
X316314Y333587D01*
X316083Y333356D01*
X315898Y333032D01*
X315875Y332986D01*
X315828Y332847D01*
X315759Y332639D01*
X315666Y332361D01*
X315574Y332014D01*
X315481Y331597D01*
X315412Y331135D01*
X315366Y330625D01*
Y330371D01*
X315342Y330232D01*
Y330070D01*
X315319Y329885D01*
X315296Y329677D01*
X315250Y329214D01*
X315180Y328682D01*
X315111Y328103D01*
X314995Y327502D01*
Y327479D01*
X314972Y327432D01*
Y327340D01*
X314926Y327224D01*
X314903Y327062D01*
X314856Y326900D01*
X314764Y326484D01*
X314648Y326021D01*
X314509Y325489D01*
X314139Y324401D01*
Y324378D01*
X314116Y324332D01*
X314093Y324262D01*
X314047Y324146D01*
X313908Y323892D01*
X313699Y323545D01*
X313445Y323175D01*
X313098Y322758D01*
X312681Y322365D01*
X312172Y321971D01*
X312149Y321948D01*
X312103Y321925D01*
X312033Y321879D01*
X311918Y321809D01*
X311779Y321740D01*
X311594Y321671D01*
X311409Y321578D01*
X311177Y321485D01*
X310923Y321393D01*
X310645Y321300D01*
X310344Y321231D01*
X310020Y321161D01*
X309303Y321046D01*
X308493Y320999D01*
X308470D01*
X308354D01*
X308192Y321023D01*
X307984Y321046D01*
X307729Y321069D01*
X307429Y321115D01*
X307105Y321208D01*
X306735Y321300D01*
X306364Y321416D01*
X305971Y321578D01*
X305578Y321763D01*
X305184Y321995D01*
X304791Y322272D01*
X304421Y322573D01*
X304050Y322943D01*
X303726Y323360D01*
X303703Y323383D01*
X303657Y323475D01*
X303564Y323614D01*
X303472Y323799D01*
X303333Y324031D01*
X303194Y324332D01*
X303032Y324702D01*
X302893Y325095D01*
X302731Y325558D01*
X302569Y326067D01*
X302431Y326646D01*
X302292Y327247D01*
X302199Y327918D01*
X302107Y328659D01*
X302060Y329422D01*
X302037Y330255D01*
Y330625D01*
X302060Y330903D01*
Y331227D01*
X302107Y331620D01*
X302130Y332037D01*
X302176Y332500D01*
X302246Y332986D01*
X302315Y333495D01*
X302500Y334536D01*
X302778Y335554D01*
X302963Y336040D01*
X303148Y336503D01*
X303171Y336526D01*
X303194Y336595D01*
X303264Y336711D01*
X303356Y336873D01*
X303472Y337035D01*
X303611Y337243D01*
X303773Y337452D01*
X303958Y337660D01*
X304166Y337868D01*
X304421Y338076D01*
X304675Y338285D01*
X304953Y338447D01*
X305254Y338609D01*
X305601Y338724D01*
X305948Y338794D01*
X306318Y338817D01*
X306341D01*
X306387D01*
X306503Y338794D01*
X306619D01*
X306781Y338747D01*
X306989Y338724D01*
X307197Y338655D01*
X307452Y338586D01*
X307729Y338493D01*
X308007Y338354D01*
X308331Y338215D01*
X308655Y338030D01*
X309002Y337822D01*
X309349Y337567D01*
X309720Y337267D01*
X310090Y336943D01*
X310067D01*
X310020D01*
X309928Y336919D01*
X309835D01*
X309696Y336896D01*
X309534Y336873D01*
X309164Y336781D01*
X308748Y336642D01*
X308331Y336433D01*
X307892Y336179D01*
X307683Y335994D01*
X307498Y335809D01*
Y335786D01*
X307452Y335762D01*
X307336Y335624D01*
X307174Y335392D01*
X306966Y335091D01*
X306735Y334721D01*
X306526Y334305D01*
X306341Y333842D01*
X306202Y333356D01*
Y333333D01*
X306179Y333287D01*
Y333217D01*
X306156Y333125D01*
X306133Y332986D01*
X306110Y332824D01*
X306087Y332662D01*
X306063Y332453D01*
X305994Y331991D01*
X305948Y331482D01*
X305925Y330880D01*
X305902Y330255D01*
Y329978D01*
X305925Y329862D01*
X305948Y329700D01*
X305994Y329307D01*
X306063Y328867D01*
X306179Y328381D01*
X306341Y327895D01*
X306572Y327409D01*
Y327386D01*
X306596Y327363D01*
X306711Y327201D01*
X306850Y326993D01*
X307082Y326761D01*
X307382Y326530D01*
X307753Y326322D01*
X308169Y326160D01*
X308424Y326137D01*
X308678Y326113D01*
X308701D01*
X308724D01*
X308863Y326137D01*
X309049Y326160D01*
X309280Y326229D01*
X309534Y326345D01*
X309812Y326530D01*
X310043Y326761D01*
X310275Y327085D01*
X310298Y327132D01*
X310367Y327247D01*
X310460Y327455D01*
X310553Y327733D01*
X310668Y328080D01*
X310761Y328497D01*
X310853Y328960D01*
X310900Y329492D01*
Y329561D01*
X310923Y329631D01*
Y329746D01*
X310946Y329885D01*
Y330047D01*
X310969Y330232D01*
X310992Y330440D01*
X311038Y330903D01*
X311108Y331435D01*
X311177Y332014D01*
X311270Y332639D01*
Y332662D01*
X311293Y332708D01*
Y332801D01*
X311316Y332916D01*
X311339Y333078D01*
X311385Y333240D01*
X311455Y333657D01*
X311571Y334143D01*
X311686Y334675D01*
X311825Y335230D01*
X311964Y335786D01*
Y335809D01*
X311987Y335855D01*
X312010Y335924D01*
X312057Y336017D01*
X312172Y336295D01*
X312334Y336619D01*
X312566Y337012D01*
X312866Y337405D01*
X313237Y337799D01*
X313676Y338192D01*
X313699D01*
X313746Y338238D01*
X313815Y338285D01*
X313908Y338331D01*
X314047Y338400D01*
X314185Y338493D01*
X314370Y338586D01*
X314579Y338655D01*
X314810Y338747D01*
X315065Y338840D01*
X315620Y339002D01*
X316291Y339095D01*
X317008Y339141D01*
X317055D01*
X317147D01*
X317332Y339118D01*
D02*
G37*
G36*
Y318547D02*
X317564Y318524D01*
X317818Y318500D01*
X318142Y318454D01*
X318489Y318385D01*
X318883Y318292D01*
X319276Y318176D01*
X319693Y318015D01*
X320109Y317829D01*
X320503Y317621D01*
X320919Y317344D01*
X321312Y317043D01*
X321683Y316696D01*
X322006Y316302D01*
X322030Y316279D01*
X322076Y316187D01*
X322169Y316071D01*
X322261Y315886D01*
X322400Y315654D01*
X322539Y315354D01*
X322701Y315006D01*
X322863Y314613D01*
X323002Y314173D01*
X323163Y313687D01*
X323302Y313155D01*
X323441Y312554D01*
X323534Y311906D01*
X323626Y311212D01*
X323673Y310471D01*
X323696Y309684D01*
Y309314D01*
X323673Y309060D01*
Y308736D01*
X323649Y308389D01*
X323603Y307972D01*
X323557Y307532D01*
X323511Y307070D01*
X323441Y306584D01*
X323256Y305589D01*
X323002Y304617D01*
X322840Y304177D01*
X322654Y303738D01*
Y303714D01*
X322608Y303645D01*
X322539Y303529D01*
X322469Y303391D01*
X322354Y303228D01*
X322215Y303043D01*
X322076Y302835D01*
X321891Y302627D01*
X321683Y302419D01*
X321451Y302210D01*
X321220Y302025D01*
X320942Y301863D01*
X320641Y301724D01*
X320317Y301609D01*
X319993Y301539D01*
X319623Y301516D01*
X319600D01*
X319554D01*
X319461D01*
X319322Y301539D01*
X319184Y301562D01*
X318998Y301586D01*
X318767Y301632D01*
X318536Y301701D01*
X318003Y301886D01*
X317703Y302002D01*
X317379Y302164D01*
X317055Y302326D01*
X316731Y302534D01*
X316360Y302766D01*
X316013Y303043D01*
X316037D01*
X316083D01*
X316175D01*
X316314Y303067D01*
X316453Y303090D01*
X316615Y303136D01*
X317008Y303275D01*
X317240Y303367D01*
X317448Y303483D01*
X317680Y303622D01*
X317911Y303784D01*
X318142Y303992D01*
X318351Y304247D01*
X318559Y304501D01*
X318744Y304825D01*
X318767Y304848D01*
X318790Y304895D01*
X318836Y305010D01*
X318906Y305149D01*
X318975Y305311D01*
X319045Y305519D01*
X319137Y305774D01*
X319230Y306052D01*
X319322Y306352D01*
X319415Y306676D01*
X319484Y307047D01*
X319554Y307440D01*
X319623Y307880D01*
X319669Y308319D01*
X319716Y308805D01*
Y309476D01*
X319693Y309661D01*
X319669Y309939D01*
X319646Y310240D01*
X319577Y310610D01*
X319508Y310980D01*
X319415Y311350D01*
X319276Y311744D01*
X319114Y312114D01*
X318929Y312461D01*
X318674Y312785D01*
X318397Y313040D01*
X318073Y313248D01*
X317703Y313387D01*
X317494Y313410D01*
X317263Y313433D01*
X317217D01*
X317124Y313410D01*
X316962Y313387D01*
X316754Y313317D01*
X316523Y313202D01*
X316314Y313016D01*
X316083Y312785D01*
X315898Y312461D01*
X315875Y312415D01*
X315828Y312276D01*
X315759Y312068D01*
X315666Y311790D01*
X315574Y311443D01*
X315481Y311026D01*
X315412Y310564D01*
X315366Y310055D01*
Y309800D01*
X315342Y309661D01*
Y309499D01*
X315319Y309314D01*
X315296Y309106D01*
X315250Y308643D01*
X315180Y308111D01*
X315111Y307532D01*
X314995Y306931D01*
Y306908D01*
X314972Y306861D01*
Y306769D01*
X314926Y306653D01*
X314903Y306491D01*
X314856Y306329D01*
X314764Y305913D01*
X314648Y305450D01*
X314509Y304918D01*
X314139Y303830D01*
Y303807D01*
X314116Y303761D01*
X314093Y303691D01*
X314047Y303576D01*
X313908Y303321D01*
X313699Y302974D01*
X313445Y302604D01*
X313098Y302187D01*
X312681Y301794D01*
X312172Y301401D01*
X312149Y301377D01*
X312103Y301354D01*
X312033Y301308D01*
X311918Y301238D01*
X311779Y301169D01*
X311594Y301100D01*
X311409Y301007D01*
X311177Y300914D01*
X310923Y300822D01*
X310645Y300729D01*
X310344Y300660D01*
X310020Y300591D01*
X309303Y300475D01*
X308493Y300429D01*
X308470D01*
X308354D01*
X308192Y300452D01*
X307984Y300475D01*
X307729Y300498D01*
X307429Y300544D01*
X307105Y300637D01*
X306735Y300729D01*
X306364Y300845D01*
X305971Y301007D01*
X305578Y301192D01*
X305184Y301424D01*
X304791Y301701D01*
X304421Y302002D01*
X304050Y302372D01*
X303726Y302789D01*
X303703Y302812D01*
X303657Y302904D01*
X303564Y303043D01*
X303472Y303228D01*
X303333Y303460D01*
X303194Y303761D01*
X303032Y304131D01*
X302893Y304524D01*
X302731Y304987D01*
X302569Y305496D01*
X302431Y306075D01*
X302292Y306676D01*
X302199Y307347D01*
X302107Y308088D01*
X302060Y308851D01*
X302037Y309684D01*
Y310055D01*
X302060Y310332D01*
Y310656D01*
X302107Y311050D01*
X302130Y311466D01*
X302176Y311929D01*
X302246Y312415D01*
X302315Y312924D01*
X302500Y313965D01*
X302778Y314983D01*
X302963Y315469D01*
X303148Y315932D01*
X303171Y315955D01*
X303194Y316025D01*
X303264Y316140D01*
X303356Y316302D01*
X303472Y316464D01*
X303611Y316672D01*
X303773Y316881D01*
X303958Y317089D01*
X304166Y317297D01*
X304421Y317505D01*
X304675Y317714D01*
X304953Y317876D01*
X305254Y318038D01*
X305601Y318153D01*
X305948Y318223D01*
X306318Y318246D01*
X306341D01*
X306387D01*
X306503Y318223D01*
X306619D01*
X306781Y318176D01*
X306989Y318153D01*
X307197Y318084D01*
X307452Y318015D01*
X307729Y317922D01*
X308007Y317783D01*
X308331Y317644D01*
X308655Y317459D01*
X309002Y317251D01*
X309349Y316996D01*
X309720Y316696D01*
X310090Y316372D01*
X310067D01*
X310020D01*
X309928Y316348D01*
X309835D01*
X309696Y316325D01*
X309534Y316302D01*
X309164Y316210D01*
X308748Y316071D01*
X308331Y315863D01*
X307892Y315608D01*
X307683Y315423D01*
X307498Y315238D01*
Y315215D01*
X307452Y315191D01*
X307336Y315053D01*
X307174Y314821D01*
X306966Y314520D01*
X306735Y314150D01*
X306526Y313734D01*
X306341Y313271D01*
X306202Y312785D01*
Y312762D01*
X306179Y312716D01*
Y312646D01*
X306156Y312554D01*
X306133Y312415D01*
X306110Y312253D01*
X306087Y312091D01*
X306063Y311883D01*
X305994Y311420D01*
X305948Y310911D01*
X305925Y310309D01*
X305902Y309684D01*
Y309407D01*
X305925Y309291D01*
X305948Y309129D01*
X305994Y308736D01*
X306063Y308296D01*
X306179Y307810D01*
X306341Y307324D01*
X306572Y306838D01*
Y306815D01*
X306596Y306792D01*
X306711Y306630D01*
X306850Y306422D01*
X307082Y306190D01*
X307382Y305959D01*
X307753Y305751D01*
X308169Y305589D01*
X308424Y305566D01*
X308678Y305542D01*
X308701D01*
X308724D01*
X308863Y305566D01*
X309049Y305589D01*
X309280Y305658D01*
X309534Y305774D01*
X309812Y305959D01*
X310043Y306190D01*
X310275Y306514D01*
X310298Y306561D01*
X310367Y306676D01*
X310460Y306884D01*
X310553Y307162D01*
X310668Y307509D01*
X310761Y307926D01*
X310853Y308389D01*
X310900Y308921D01*
Y308990D01*
X310923Y309060D01*
Y309175D01*
X310946Y309314D01*
Y309476D01*
X310969Y309661D01*
X310992Y309869D01*
X311038Y310332D01*
X311108Y310865D01*
X311177Y311443D01*
X311270Y312068D01*
Y312091D01*
X311293Y312137D01*
Y312230D01*
X311316Y312345D01*
X311339Y312507D01*
X311385Y312669D01*
X311455Y313086D01*
X311571Y313572D01*
X311686Y314104D01*
X311825Y314659D01*
X311964Y315215D01*
Y315238D01*
X311987Y315284D01*
X312010Y315354D01*
X312057Y315446D01*
X312172Y315724D01*
X312334Y316048D01*
X312566Y316441D01*
X312866Y316834D01*
X313237Y317228D01*
X313676Y317621D01*
X313699D01*
X313746Y317668D01*
X313815Y317714D01*
X313908Y317760D01*
X314047Y317829D01*
X314185Y317922D01*
X314370Y318015D01*
X314579Y318084D01*
X314810Y318176D01*
X315065Y318269D01*
X315620Y318431D01*
X316291Y318524D01*
X317008Y318570D01*
X317055D01*
X317147D01*
X317332Y318547D01*
D02*
G37*
G36*
X331656Y296078D02*
X331632Y295824D01*
Y295639D01*
X331609Y295500D01*
X331586Y295338D01*
X331563Y295107D01*
X331517Y294829D01*
X331470Y294505D01*
Y294459D01*
X331447Y294343D01*
X331424Y294181D01*
X331378Y293950D01*
X331309Y293695D01*
X331262Y293440D01*
X331100Y292885D01*
Y292862D01*
X331054Y292770D01*
X331008Y292631D01*
X330915Y292446D01*
X330799Y292260D01*
X330661Y292029D01*
X330499Y291821D01*
X330314Y291589D01*
X330290Y291566D01*
X330221Y291497D01*
X330105Y291404D01*
X329967Y291289D01*
X329758Y291196D01*
X329550Y291103D01*
X329319Y291034D01*
X329041Y291011D01*
X306480D01*
Y281501D01*
X306503Y281130D01*
X306526Y280714D01*
X306549Y280274D01*
X306596Y279834D01*
X306642Y279395D01*
Y279349D01*
X306665Y279210D01*
X306711Y279025D01*
X306735Y278793D01*
X306804Y278539D01*
X306850Y278307D01*
X306896Y278099D01*
X306966Y277937D01*
X307105Y277567D01*
X307082D01*
X307059D01*
X306989D01*
X306896D01*
X306688Y277590D01*
X306387Y277613D01*
X306040Y277659D01*
X305647Y277729D01*
X305231Y277821D01*
X304814Y277937D01*
X304374Y278099D01*
X303958Y278307D01*
X303564Y278539D01*
X303217Y278839D01*
X302917Y279187D01*
X302708Y279580D01*
X302616Y279811D01*
X302546Y280043D01*
X302523Y280297D01*
X302500Y280575D01*
Y292538D01*
X302523Y292607D01*
Y292723D01*
X302546Y292862D01*
X302569Y293047D01*
X302616Y293279D01*
X302662Y293533D01*
Y293556D01*
X302685Y293672D01*
X302708Y293811D01*
X302754Y293996D01*
X302824Y294204D01*
X302870Y294412D01*
X303032Y294875D01*
X303055Y294898D01*
X303078Y294968D01*
X303148Y295083D01*
X303217Y295222D01*
X303333Y295384D01*
X303472Y295546D01*
X303634Y295731D01*
X303819Y295916D01*
X303842Y295940D01*
X303911Y295986D01*
X304027Y296078D01*
X304189Y296148D01*
X304374Y296240D01*
X304606Y296333D01*
X304837Y296379D01*
X305115Y296402D01*
X331656D01*
Y296078D01*
D02*
G37*
G36*
X331262Y264956D02*
X331239Y264748D01*
Y264516D01*
X331216Y264239D01*
X331193Y263915D01*
X331147Y263568D01*
X331100Y263174D01*
X331031Y262781D01*
X330869Y261878D01*
X330661Y260930D01*
X330360Y259958D01*
X330175Y259472D01*
X329967Y258986D01*
X329735Y258500D01*
X329481Y258037D01*
X329203Y257574D01*
X328902Y257135D01*
X328555Y256741D01*
X328185Y256348D01*
X327791Y256001D01*
X327352Y255677D01*
X326889Y255399D01*
X326380Y255145D01*
X325848Y254960D01*
X325246Y254821D01*
X324644Y254728D01*
X323973Y254705D01*
X322770D01*
X322724D01*
X322631D01*
X322446Y254728D01*
X322238D01*
X321960Y254775D01*
X321636Y254821D01*
X321266Y254867D01*
X320873Y254960D01*
X320456Y255075D01*
X320040Y255191D01*
X319577Y255376D01*
X319137Y255561D01*
X318698Y255793D01*
X318258Y256070D01*
X317818Y256371D01*
X317425Y256741D01*
X317402Y256765D01*
X317332Y256834D01*
X317240Y256950D01*
X317101Y257112D01*
X316939Y257320D01*
X316777Y257551D01*
X316592Y257829D01*
X316407Y258153D01*
X316199Y258523D01*
X316013Y258916D01*
X315851Y259356D01*
X315690Y259819D01*
X315551Y260305D01*
X315458Y260837D01*
X315389Y261416D01*
X315366Y261994D01*
Y261971D01*
X315319Y261925D01*
X315273Y261832D01*
X315180Y261716D01*
X315088Y261554D01*
X314949Y261392D01*
X314648Y260976D01*
X314255Y260490D01*
X313792Y259958D01*
X313260Y259403D01*
X312635Y258847D01*
X312612Y258824D01*
X312566Y258778D01*
X312473Y258708D01*
X312334Y258593D01*
X312195Y258477D01*
X312010Y258338D01*
X311802Y258176D01*
X311571Y257991D01*
X311062Y257621D01*
X310506Y257250D01*
X309928Y256880D01*
X309326Y256533D01*
X309303D01*
X309257Y256487D01*
X309164Y256441D01*
X309049Y256371D01*
X308910Y256302D01*
X308724Y256209D01*
X308516Y256094D01*
X308285Y255978D01*
X308030Y255839D01*
X307753Y255677D01*
X307128Y255353D01*
X306434Y254983D01*
X305670Y254590D01*
X305647Y254566D01*
X305578Y254543D01*
X305485Y254474D01*
X305323Y254404D01*
X305161Y254312D01*
X304953Y254196D01*
X304513Y253965D01*
X304004Y253664D01*
X303495Y253363D01*
X303009Y253062D01*
X302778Y252923D01*
X302569Y252785D01*
Y252808D01*
X302546Y252854D01*
Y252947D01*
X302523Y253039D01*
X302477Y253178D01*
X302454Y253340D01*
X302384Y253687D01*
X302315Y254080D01*
X302269Y254497D01*
X302222Y254890D01*
X302199Y255237D01*
Y255376D01*
X302222Y255561D01*
X302246Y255793D01*
X302269Y256070D01*
X302338Y256394D01*
X302407Y256741D01*
X302523Y257112D01*
X302662Y257505D01*
X302824Y257922D01*
X303032Y258315D01*
X303287Y258708D01*
X303588Y259079D01*
X303935Y259426D01*
X304328Y259750D01*
X304791Y260027D01*
X304814D01*
X304860Y260074D01*
X304953Y260120D01*
X305115Y260189D01*
X305323Y260305D01*
X305624Y260467D01*
X305809Y260559D01*
X305994Y260652D01*
X306225Y260768D01*
X306480Y260907D01*
X306503D01*
X306549Y260930D01*
X306619Y260976D01*
X306711Y261022D01*
X306943Y261138D01*
X307244Y261300D01*
X307568Y261462D01*
X307868Y261624D01*
X308146Y261786D01*
X308354Y261901D01*
X308377Y261925D01*
X308447Y261948D01*
X308563Y262017D01*
X308724Y262110D01*
X308956Y262249D01*
X309234Y262411D01*
X309557Y262619D01*
X309951Y262873D01*
X309974D01*
X309997Y262896D01*
X310136Y262989D01*
X310344Y263128D01*
X310599Y263290D01*
X310877Y263475D01*
X311154Y263683D01*
X311409Y263892D01*
X311617Y264100D01*
X311640Y264123D01*
X311709Y264192D01*
X311825Y264308D01*
X311987Y264447D01*
X312172Y264655D01*
X312381Y264863D01*
X312635Y265118D01*
X312913Y265419D01*
X312936Y265465D01*
X313052Y265557D01*
X313190Y265720D01*
X313352Y265928D01*
X313538Y266205D01*
X313746Y266483D01*
X313954Y266807D01*
X314139Y267154D01*
X314162Y267200D01*
X314209Y267316D01*
X314301Y267501D01*
X314417Y267756D01*
X314533Y268033D01*
X314648Y268381D01*
X314764Y268728D01*
X314880Y269121D01*
X302107D01*
Y269445D01*
X302130Y269699D01*
Y269769D01*
X302153Y269862D01*
Y270000D01*
X302176Y270185D01*
X302222Y270394D01*
X302269Y270671D01*
X302315Y270995D01*
Y271042D01*
X302338Y271157D01*
X302384Y271319D01*
X302431Y271551D01*
X302477Y271805D01*
X302546Y272083D01*
X302708Y272638D01*
X302731Y272661D01*
X302754Y272754D01*
X302801Y272893D01*
X302893Y273055D01*
X302986Y273263D01*
X303125Y273471D01*
X303264Y273703D01*
X303449Y273934D01*
X303472Y273957D01*
X303541Y274027D01*
X303657Y274119D01*
X303796Y274212D01*
X303981Y274327D01*
X304212Y274420D01*
X304444Y274489D01*
X304698Y274513D01*
X331262D01*
Y264956D01*
D02*
G37*
G36*
X323580Y251142D02*
X323765Y251119D01*
X323997Y251095D01*
X324251Y251049D01*
X324552Y250980D01*
X324853Y250910D01*
X325200Y250818D01*
X325547Y250702D01*
X325917Y250563D01*
X326287Y250401D01*
X326681Y250193D01*
X327074Y249985D01*
X327491Y249730D01*
X327884Y249429D01*
X328277Y249105D01*
X328671Y248758D01*
X329041Y248342D01*
X329411Y247902D01*
X329758Y247416D01*
X330105Y246884D01*
X330406Y246282D01*
X330707Y245658D01*
X330961Y244963D01*
X331193Y244223D01*
X331378Y243436D01*
X331540Y242580D01*
X331656Y241654D01*
X331725Y240660D01*
X331748Y239618D01*
Y239156D01*
X331725Y238924D01*
Y238646D01*
X331702Y238323D01*
X331679Y237952D01*
X331632Y237582D01*
X331586Y237166D01*
X331540Y236726D01*
X331494Y236263D01*
X331332Y235314D01*
X331123Y234319D01*
X330869Y233324D01*
X330522Y232376D01*
X330337Y231913D01*
X330128Y231473D01*
X329897Y231057D01*
X329642Y230686D01*
X329365Y230316D01*
X329064Y229992D01*
X328740Y229715D01*
X328393Y229483D01*
X328023Y229275D01*
X327629Y229136D01*
X327213Y229044D01*
X326750Y229020D01*
X326727D01*
X326681D01*
X326588D01*
X326449Y229044D01*
X326287Y229067D01*
X326102Y229090D01*
X325871Y229136D01*
X325616Y229182D01*
X325339Y229252D01*
X325038Y229344D01*
X324691Y229460D01*
X324344Y229576D01*
X323950Y229738D01*
X323557Y229923D01*
X323117Y230131D01*
X322678Y230362D01*
X322701D01*
X322724D01*
X322793D01*
X322886Y230386D01*
X323140Y230432D01*
X323441Y230501D01*
X323811Y230640D01*
X324228Y230848D01*
X324436Y230987D01*
X324668Y231126D01*
X324899Y231311D01*
X325130Y231520D01*
X325339Y231751D01*
X325570Y232005D01*
X325801Y232283D01*
X326010Y232607D01*
X326218Y232954D01*
X326426Y233347D01*
X326611Y233787D01*
X326796Y234250D01*
X326958Y234759D01*
X327120Y235291D01*
X327236Y235893D01*
X327352Y236541D01*
X327444Y237212D01*
X327514Y237952D01*
X327537Y238739D01*
X327560Y239572D01*
Y239827D01*
X327537Y239965D01*
Y240127D01*
X327514Y240521D01*
X327444Y240984D01*
X327352Y241493D01*
X327236Y242025D01*
X327097Y242580D01*
X326889Y243159D01*
X326634Y243691D01*
X326334Y244200D01*
X325987Y244663D01*
X325547Y245056D01*
X325316Y245218D01*
X325061Y245357D01*
X324760Y245473D01*
X324482Y245542D01*
X324159Y245588D01*
X323811Y245611D01*
X323788D01*
X323765D01*
X323626Y245588D01*
X323395Y245565D01*
X323140Y245519D01*
X322840Y245426D01*
X322516Y245287D01*
X322192Y245125D01*
X321891Y244871D01*
X321868Y244825D01*
X321775Y244732D01*
X321636Y244570D01*
X321474Y244339D01*
X321289Y244061D01*
X321104Y243714D01*
X320942Y243321D01*
X320803Y242881D01*
Y242858D01*
X320780Y242835D01*
Y242765D01*
X320757Y242649D01*
X320711Y242534D01*
X320688Y242395D01*
X320595Y242048D01*
X320503Y241631D01*
X320410Y241169D01*
X320294Y240636D01*
X320178Y240058D01*
Y240035D01*
X320155Y239988D01*
Y239896D01*
X320132Y239780D01*
X320109Y239641D01*
X320063Y239479D01*
X320040Y239271D01*
X319993Y239063D01*
X319924Y238577D01*
X319831Y238045D01*
X319762Y237443D01*
X319669Y236842D01*
Y236772D01*
X319646Y236680D01*
X319623Y236564D01*
X319600Y236402D01*
X319577Y236240D01*
X319531Y236032D01*
X319484Y235823D01*
X319392Y235338D01*
X319230Y234782D01*
X319068Y234204D01*
X318860Y233625D01*
Y233602D01*
X318836Y233556D01*
X318790Y233463D01*
X318744Y233347D01*
X318698Y233232D01*
X318628Y233070D01*
X318443Y232676D01*
X318235Y232237D01*
X317980Y231774D01*
X317703Y231288D01*
X317379Y230802D01*
Y230779D01*
X317332Y230756D01*
X317286Y230686D01*
X317217Y230594D01*
X317031Y230362D01*
X316754Y230085D01*
X316384Y229761D01*
X315967Y229437D01*
X315458Y229113D01*
X314880Y228812D01*
X314856D01*
X314810Y228789D01*
X314718Y228743D01*
X314579Y228696D01*
X314440Y228650D01*
X314232Y228581D01*
X314023Y228511D01*
X313769Y228442D01*
X313491Y228372D01*
X313190Y228303D01*
X312866Y228234D01*
X312519Y228187D01*
X311779Y228095D01*
X310946Y228072D01*
X310923D01*
X310900D01*
X310761D01*
X310529Y228095D01*
X310229Y228118D01*
X309881Y228164D01*
X309465Y228234D01*
X309002Y228349D01*
X308516Y228465D01*
X307984Y228650D01*
X307452Y228858D01*
X306896Y229113D01*
X306341Y229437D01*
X305809Y229807D01*
X305300Y230247D01*
X304814Y230733D01*
X304351Y231311D01*
X304328Y231357D01*
X304259Y231450D01*
X304143Y231635D01*
X304004Y231890D01*
X303819Y232214D01*
X303634Y232607D01*
X303426Y233070D01*
X303217Y233602D01*
X302986Y234181D01*
X302778Y234828D01*
X302593Y235546D01*
X302431Y236309D01*
X302269Y237119D01*
X302153Y237999D01*
X302083Y238924D01*
X302060Y239896D01*
Y240428D01*
X302083Y240636D01*
Y241122D01*
X302130Y241701D01*
X302176Y242349D01*
X302222Y243020D01*
X302315Y243714D01*
Y243737D01*
X302338Y243783D01*
Y243899D01*
X302361Y244015D01*
X302384Y244177D01*
X302431Y244362D01*
X302477Y244570D01*
X302523Y244802D01*
X302616Y245311D01*
X302754Y245889D01*
X302940Y246491D01*
X303125Y247092D01*
Y247115D01*
X303148Y247162D01*
X303194Y247254D01*
X303241Y247347D01*
X303287Y247486D01*
X303356Y247648D01*
X303541Y247995D01*
X303773Y248388D01*
X304027Y248805D01*
X304351Y249221D01*
X304698Y249591D01*
X304721D01*
X304744Y249638D01*
X304883Y249730D01*
X305092Y249892D01*
X305369Y250054D01*
X305739Y250216D01*
X306133Y250378D01*
X306596Y250471D01*
X307082Y250517D01*
X307105D01*
X307151D01*
X307244D01*
X307382Y250494D01*
X307521Y250471D01*
X307706Y250448D01*
X307915Y250401D01*
X308169Y250332D01*
X308424Y250262D01*
X308724Y250170D01*
X309025Y250054D01*
X309349Y249915D01*
X309696Y249753D01*
X310043Y249545D01*
X310414Y249337D01*
X310807Y249082D01*
X310784D01*
X310761D01*
X310691D01*
X310599Y249059D01*
X310390Y249013D01*
X310090Y248943D01*
X309743Y248805D01*
X309349Y248596D01*
X309141Y248458D01*
X308933Y248319D01*
X308701Y248134D01*
X308493Y247925D01*
X308285Y247694D01*
X308053Y247439D01*
X307845Y247162D01*
X307637Y246838D01*
X307452Y246491D01*
X307244Y246097D01*
X307082Y245681D01*
X306896Y245195D01*
X306758Y244709D01*
X306596Y244154D01*
X306480Y243575D01*
X306387Y242927D01*
X306295Y242233D01*
X306225Y241516D01*
X306202Y240729D01*
X306179Y239896D01*
Y239595D01*
X306202Y239387D01*
X306225Y239132D01*
X306249Y238832D01*
X306272Y238508D01*
X306318Y238137D01*
X306457Y237397D01*
X306665Y236610D01*
X306804Y236240D01*
X306966Y235870D01*
X307128Y235523D01*
X307336Y235222D01*
X307359Y235199D01*
X307382Y235152D01*
X307452Y235083D01*
X307544Y234967D01*
X307660Y234851D01*
X307822Y234713D01*
X307984Y234574D01*
X308169Y234435D01*
X308401Y234296D01*
X308632Y234134D01*
X308910Y234018D01*
X309187Y233903D01*
X309511Y233787D01*
X309835Y233718D01*
X310205Y233671D01*
X310576Y233648D01*
X310599D01*
X310645D01*
X310714D01*
X310830Y233671D01*
X311085Y233695D01*
X311432Y233764D01*
X311825Y233880D01*
X312219Y234065D01*
X312612Y234296D01*
X312982Y234620D01*
X313028Y234666D01*
X313144Y234805D01*
X313306Y235014D01*
X313491Y235291D01*
X313723Y235661D01*
X313931Y236101D01*
X314139Y236587D01*
X314301Y237142D01*
Y237166D01*
X314324Y237212D01*
X314347Y237304D01*
X314370Y237420D01*
X314417Y237559D01*
X314440Y237721D01*
X314486Y237929D01*
X314556Y238137D01*
X314648Y238646D01*
X314764Y239225D01*
X314880Y239873D01*
X314995Y240544D01*
Y240567D01*
X315018Y240636D01*
Y240729D01*
X315042Y240868D01*
X315088Y241030D01*
X315111Y241238D01*
X315157Y241446D01*
X315203Y241701D01*
X315319Y242256D01*
X315435Y242904D01*
X315574Y243575D01*
X315736Y244269D01*
Y244292D01*
X315759Y244362D01*
X315782Y244454D01*
X315828Y244593D01*
X315851Y244755D01*
X315921Y244940D01*
X315967Y245172D01*
X316060Y245403D01*
X316222Y245935D01*
X316430Y246514D01*
X316661Y247092D01*
X316916Y247694D01*
Y247717D01*
X316962Y247763D01*
X316985Y247833D01*
X317055Y247948D01*
X317147Y248087D01*
X317240Y248226D01*
X317494Y248573D01*
X317818Y248967D01*
X318212Y249383D01*
X318698Y249800D01*
X319253Y250193D01*
X319276D01*
X319322Y250239D01*
X319415Y250285D01*
X319554Y250355D01*
X319693Y250424D01*
X319901Y250494D01*
X320109Y250586D01*
X320364Y250679D01*
X320641Y250772D01*
X320942Y250864D01*
X321266Y250933D01*
X321613Y251003D01*
X322377Y251119D01*
X323210Y251165D01*
X323233D01*
X323302D01*
X323418D01*
X323580Y251142D01*
D02*
G37*
G36*
X62119Y493000D02*
X25491D01*
Y509029D01*
X62119D01*
Y493000D01*
D02*
G37*
%LPC*%
G36*
X88887Y175306D02*
Y175306D01*
D01*
Y175306D01*
D02*
G37*
G36*
Y174948D02*
Y174879D01*
D01*
Y174948D01*
D02*
G37*
G36*
X171994Y186054D02*
X162710D01*
X169763D01*
X169497Y185361D01*
X169243Y184679D01*
X168977Y184021D01*
X168711Y183385D01*
X168457Y182784D01*
X168203Y182218D01*
X167972Y181686D01*
X167741Y181189D01*
X167637Y180958D01*
X167533Y180750D01*
X167440Y180542D01*
X167348Y180345D01*
X167255Y180161D01*
X167174Y179999D01*
X167105Y179848D01*
X167036Y179698D01*
X166978Y179583D01*
X166920Y179467D01*
X166874Y179375D01*
X166828Y179294D01*
X166805Y179236D01*
X166781Y179190D01*
X166758Y179167D01*
Y179155D01*
X166458Y178577D01*
X166146Y178022D01*
X165857Y177479D01*
X165568Y176959D01*
X165279Y176474D01*
X165013Y176012D01*
X164759Y175572D01*
X164528Y175179D01*
X164308Y174810D01*
X164112Y174498D01*
X163938Y174209D01*
X163857Y174093D01*
X163788Y173978D01*
X163730Y173874D01*
X163673Y173793D01*
X163626Y173712D01*
X163580Y173654D01*
X163557Y173608D01*
X163534Y173573D01*
X163511Y173550D01*
Y173538D01*
X161639Y186054D01*
X159501D01*
X161789Y171250D01*
X164181D01*
X164632Y171897D01*
X165071Y172544D01*
X165499Y173180D01*
X165903Y173804D01*
X166285Y174417D01*
X166643Y174995D01*
X166978Y175549D01*
X167290Y176069D01*
X167567Y176543D01*
X167706Y176763D01*
X167822Y176982D01*
X167937Y177179D01*
X168041Y177364D01*
X168134Y177526D01*
X168226Y177687D01*
X168295Y177826D01*
X168365Y177941D01*
X168423Y178046D01*
X168469Y178138D01*
X168515Y178207D01*
X168538Y178254D01*
X168561Y178288D01*
Y178300D01*
X168920Y178982D01*
X169266Y179664D01*
X169601Y180357D01*
X169913Y181039D01*
X170214Y181698D01*
X170503Y182333D01*
X170769Y182957D01*
X171011Y183535D01*
X171115Y183801D01*
X171219Y184067D01*
X171323Y184321D01*
X171416Y184552D01*
X171508Y184772D01*
X171589Y184980D01*
X171658Y185176D01*
X171728Y185350D01*
X171786Y185511D01*
X171843Y185650D01*
X171890Y185766D01*
X171924Y185870D01*
X171959Y185951D01*
X171982Y186008D01*
X171994Y186043D01*
Y173619D01*
Y186054D01*
D02*
G37*
G36*
X88887Y173145D02*
Y173145D01*
D01*
Y173145D01*
D02*
G37*
G36*
X138502Y186286D02*
X127303D01*
X134422D01*
X133936Y186262D01*
X133486Y186205D01*
X133047Y186112D01*
X132642Y185997D01*
X132261Y185858D01*
X131902Y185708D01*
X131579Y185546D01*
X131278Y185373D01*
X131012Y185199D01*
X130781Y185037D01*
X130585Y184887D01*
X130412Y184749D01*
X130284Y184633D01*
X130192Y184541D01*
X130134Y184483D01*
X130111Y184460D01*
X129961Y184286D01*
X129811Y184090D01*
X129522Y183685D01*
X129267Y183246D01*
X129025Y182784D01*
X128794Y182299D01*
X128597Y181813D01*
X128412Y181328D01*
X128250Y180854D01*
X128112Y180403D01*
X127985Y179975D01*
X127938Y179779D01*
X127881Y179594D01*
X127834Y179421D01*
X127800Y179259D01*
X127765Y179120D01*
X127730Y178982D01*
X127707Y178878D01*
X127684Y178774D01*
X127673Y178704D01*
X127661Y178647D01*
X127649Y178612D01*
Y178600D01*
X127592Y178253D01*
X127534Y177930D01*
X127488Y177641D01*
X127453Y177387D01*
X127441Y177271D01*
X127418Y177167D01*
X127407Y177086D01*
Y177005D01*
X127395Y176948D01*
X127384Y176901D01*
Y176878D01*
Y176867D01*
X127360Y176578D01*
X127337Y176312D01*
X127326Y176058D01*
X127314Y175850D01*
X127303Y175665D01*
Y175410D01*
X127314Y174995D01*
X127349Y174613D01*
X127395Y174255D01*
X127465Y173920D01*
X127534Y173619D01*
X127626Y173353D01*
X127707Y173099D01*
X127811Y172880D01*
X127904Y172695D01*
X127996Y172521D01*
X128077Y172383D01*
X128146Y172267D01*
X128216Y172186D01*
X128262Y172117D01*
X128297Y172082D01*
X128308Y172071D01*
X128516Y171886D01*
X128736Y171724D01*
X128979Y171585D01*
X129221Y171470D01*
X129475Y171366D01*
X129741Y171285D01*
X129995Y171215D01*
X130250Y171157D01*
X130481Y171123D01*
X130701Y171088D01*
X130897Y171065D01*
X131070Y171042D01*
X131221D01*
X131325Y171030D01*
X127303D01*
X131417D01*
X131902Y171054D01*
X132353Y171100D01*
X132561Y171134D01*
X132758Y171169D01*
X132942Y171204D01*
X133116Y171250D01*
X133278Y171285D01*
X133416Y171319D01*
X133532Y171354D01*
X133636Y171389D01*
X133717Y171423D01*
X133775Y171435D01*
X133809Y171458D01*
X133821D01*
X134214Y171643D01*
X134572Y171863D01*
X134907Y172082D01*
X135046Y172198D01*
X135185Y172302D01*
X135300Y172406D01*
X135416Y172510D01*
X135508Y172591D01*
X135577Y172672D01*
X135647Y172729D01*
X135693Y172787D01*
X135716Y172810D01*
X135728Y172822D01*
X135878Y173007D01*
X136028Y173192D01*
X136306Y173584D01*
X136548Y173978D01*
X136756Y174359D01*
X136849Y174521D01*
X136930Y174682D01*
X136999Y174833D01*
X137057Y174948D01*
X137103Y175052D01*
X137138Y175133D01*
X137149Y175179D01*
X137161Y175191D01*
X137276Y175468D01*
X137380Y175757D01*
X137565Y176335D01*
X137739Y176924D01*
X137808Y177202D01*
X137877Y177456D01*
X137935Y177710D01*
X137993Y177930D01*
X138039Y178138D01*
X138074Y178311D01*
X138109Y178450D01*
X138132Y178554D01*
X138143Y178623D01*
Y178647D01*
X138201Y178982D01*
X138259Y179305D01*
X138305Y179594D01*
X138340Y179860D01*
X138363Y179964D01*
X138374Y180068D01*
X138386Y180160D01*
X138397Y180230D01*
Y180288D01*
X138409Y180334D01*
Y180357D01*
Y180368D01*
X138444Y180669D01*
X138467Y180946D01*
X138478Y181201D01*
X138490Y181420D01*
X138502Y181605D01*
Y172071D01*
Y182171D01*
Y181871D01*
X138490Y182287D01*
X138455Y182680D01*
X138409Y183038D01*
X138351Y183373D01*
X138270Y183674D01*
X138189Y183951D01*
X138097Y184194D01*
X138005Y184425D01*
X137912Y184610D01*
X137820Y184783D01*
X137739Y184922D01*
X137658Y185037D01*
X137600Y185118D01*
X137554Y185188D01*
X137519Y185222D01*
X137507Y185234D01*
X137311Y185419D01*
X137092Y185581D01*
X136849Y185719D01*
X136606Y185847D01*
X136352Y185939D01*
X136098Y186031D01*
X135843Y186101D01*
X135589Y186159D01*
X135358Y186193D01*
X135138Y186228D01*
X134942Y186251D01*
X134768Y186274D01*
X134618D01*
X134514Y186286D01*
X138502D01*
D02*
G37*
G36*
X201371Y186286D02*
X190173D01*
X197292D01*
X196807Y186263D01*
X196356Y186205D01*
X195917Y186112D01*
X195512Y185997D01*
X195131Y185858D01*
X194772Y185708D01*
X194449Y185546D01*
X194148Y185373D01*
X193883Y185199D01*
X193652Y185037D01*
X193455Y184887D01*
X193282Y184749D01*
X193155Y184633D01*
X193062Y184541D01*
X193004Y184483D01*
X192981Y184460D01*
X192831Y184286D01*
X192681Y184090D01*
X192392Y183685D01*
X192138Y183246D01*
X191895Y182784D01*
X191664Y182299D01*
X191467Y181813D01*
X191282Y181328D01*
X191120Y180854D01*
X190982Y180403D01*
X190855Y179976D01*
X190808Y179779D01*
X190751Y179594D01*
X190704Y179421D01*
X190670Y179259D01*
X190635Y179120D01*
X190600Y178982D01*
X190577Y178878D01*
X190554Y178774D01*
X190543Y178704D01*
X190531Y178647D01*
X190520Y178612D01*
Y178600D01*
X190462Y178254D01*
X190404Y177930D01*
X190358Y177641D01*
X190323Y177387D01*
X190312Y177271D01*
X190288Y177167D01*
X190277Y177086D01*
Y177005D01*
X190265Y176948D01*
X190254Y176901D01*
Y176878D01*
Y176867D01*
X190231Y176578D01*
X190208Y176312D01*
X190196Y176058D01*
X190184Y175850D01*
X190173Y175665D01*
Y175410D01*
X190184Y174995D01*
X190219Y174613D01*
X190265Y174255D01*
X190335Y173920D01*
X190404Y173619D01*
X190496Y173353D01*
X190577Y173099D01*
X190681Y172880D01*
X190774Y172695D01*
X190866Y172521D01*
X190947Y172383D01*
X191017Y172267D01*
X191086Y172186D01*
X191132Y172117D01*
X191167Y172082D01*
X191178Y172071D01*
X191386Y171886D01*
X191606Y171724D01*
X191849Y171585D01*
X192091Y171470D01*
X192346Y171366D01*
X192611Y171285D01*
X192866Y171215D01*
X193120Y171158D01*
X193351Y171123D01*
X193571Y171088D01*
X193767Y171065D01*
X193940Y171042D01*
X194091D01*
X194195Y171030D01*
X190173D01*
X194287D01*
X194772Y171054D01*
X195223Y171100D01*
X195431Y171134D01*
X195628Y171169D01*
X195813Y171204D01*
X195986Y171250D01*
X196148Y171285D01*
X196287Y171319D01*
X196402Y171354D01*
X196506Y171389D01*
X196587Y171423D01*
X196645Y171435D01*
X196679Y171458D01*
X196691D01*
X197084Y171643D01*
X197442Y171863D01*
X197777Y172082D01*
X197916Y172198D01*
X198055Y172302D01*
X198170Y172406D01*
X198286Y172510D01*
X198378Y172591D01*
X198448Y172672D01*
X198517Y172729D01*
X198563Y172787D01*
X198586Y172810D01*
X198598Y172822D01*
X198748Y173007D01*
X198898Y173192D01*
X199176Y173584D01*
X199418Y173978D01*
X199626Y174359D01*
X199719Y174521D01*
X199800Y174683D01*
X199869Y174833D01*
X199927Y174948D01*
X199973Y175052D01*
X200008Y175133D01*
X200019Y175179D01*
X200031Y175191D01*
X200147Y175468D01*
X200250Y175757D01*
X200435Y176335D01*
X200609Y176924D01*
X200678Y177202D01*
X200748Y177456D01*
X200805Y177710D01*
X200863Y177930D01*
X200909Y178138D01*
X200944Y178311D01*
X200979Y178450D01*
X201002Y178554D01*
X201013Y178623D01*
Y178647D01*
X201071Y178982D01*
X201129Y179305D01*
X201175Y179594D01*
X201210Y179860D01*
X201233Y179964D01*
X201244Y180068D01*
X201256Y180161D01*
X201268Y180230D01*
Y180288D01*
X201279Y180334D01*
Y180357D01*
Y180368D01*
X201314Y180669D01*
X201337Y180946D01*
X201348Y181201D01*
X201360Y181420D01*
X201371Y181605D01*
Y171470D01*
Y181940D01*
Y181871D01*
X201360Y182287D01*
X201325Y182680D01*
X201279Y183038D01*
X201221Y183373D01*
X201140Y183674D01*
X201059Y183951D01*
X200967Y184194D01*
X200875Y184425D01*
X200782Y184610D01*
X200690Y184783D01*
X200609Y184922D01*
X200528Y185037D01*
X200470Y185118D01*
X200424Y185188D01*
X200389Y185222D01*
X200378Y185234D01*
X200181Y185419D01*
X199962Y185581D01*
X199719Y185719D01*
X199476Y185847D01*
X199222Y185939D01*
X198968Y186031D01*
X198713Y186101D01*
X198459Y186159D01*
X198228Y186193D01*
X198008Y186228D01*
X197812Y186251D01*
X197639Y186274D01*
X197488D01*
X197384Y186286D01*
X201371D01*
D02*
G37*
G36*
X180349Y186054D02*
X178616D01*
X174756Y185049D01*
X174363Y183177D01*
X177784Y184044D01*
X175068Y171250D01*
X174363D01*
D01*
X180349D01*
D01*
X177206D01*
X180349Y186054D01*
D02*
G37*
G36*
X151330D02*
X140212Y186054D01*
X142026D01*
X141622Y184228D01*
X148810Y184228D01*
X140212Y171250D01*
X142847D01*
X151330Y184517D01*
Y186031D01*
X142026Y186054D01*
X151330Y186054D01*
D02*
G37*
G36*
X123292Y186054D02*
X117306D01*
X121559D01*
X117699Y185049D01*
X117306Y183177D01*
X120727Y184044D01*
X118011Y171250D01*
X120149D01*
X123292Y186054D01*
D02*
G37*
G36*
X107875Y186286D02*
X100860D01*
X107355D01*
X106997Y186262D01*
X106673Y186251D01*
X106373Y186228D01*
X106246Y186216D01*
X106119Y186205D01*
X106015Y186193D01*
X105922Y186182D01*
X105853Y186170D01*
X105795D01*
X105760Y186159D01*
X105749D01*
X105379Y186112D01*
X105044Y186054D01*
X104743Y185997D01*
X104605Y185962D01*
X104489Y185939D01*
X104374Y185916D01*
X104270Y185893D01*
X104189Y185870D01*
X104119Y185847D01*
X104062Y185835D01*
X104015Y185823D01*
X103992Y185812D01*
X103981D01*
X103819Y183963D01*
X104108Y184032D01*
X104408Y184101D01*
X104697Y184171D01*
X104975Y184228D01*
X105090Y184252D01*
X105206Y184275D01*
X105310Y184298D01*
X105391Y184309D01*
X105460Y184321D01*
X105506Y184333D01*
X105541Y184344D01*
X105552D01*
X105911Y184402D01*
X106246Y184448D01*
X106546Y184483D01*
X106801Y184506D01*
X106916Y184517D01*
X107020D01*
X107113Y184529D01*
X107321D01*
X107714Y184517D01*
X108060Y184471D01*
X108222Y184436D01*
X108372Y184402D01*
X108511Y184367D01*
X108627Y184333D01*
X108742Y184298D01*
X108835Y184263D01*
X108927Y184228D01*
X108996Y184194D01*
X109054Y184171D01*
X109089Y184148D01*
X109112Y184136D01*
X109124D01*
X109251Y184055D01*
X109355Y183963D01*
X109459Y183870D01*
X109540Y183766D01*
X109609Y183651D01*
X109667Y183547D01*
X109748Y183327D01*
X109805Y183119D01*
X109817Y183038D01*
X109829Y182957D01*
X109840Y182899D01*
Y182853D01*
Y182819D01*
Y182807D01*
X109829Y182530D01*
X109794Y182275D01*
X109748Y182033D01*
X109690Y181825D01*
X109632Y181640D01*
X109609Y181570D01*
X109586Y181501D01*
X109563Y181455D01*
X109551Y181420D01*
X109540Y181397D01*
Y181385D01*
X109424Y181131D01*
X109297Y180900D01*
X109170Y180669D01*
X109043Y180473D01*
X108927Y180311D01*
X108835Y180184D01*
X108800Y180137D01*
X108777Y180103D01*
X108765Y180079D01*
X108754Y180068D01*
X108557Y179825D01*
X108361Y179594D01*
X108164Y179375D01*
X107979Y179178D01*
X107829Y179016D01*
X107702Y178889D01*
X107656Y178843D01*
X107621Y178808D01*
X107598Y178785D01*
X107586Y178774D01*
X107332Y178531D01*
X107078Y178300D01*
X106835Y178069D01*
X106616Y177872D01*
X106419Y177699D01*
X106338Y177630D01*
X106269Y177572D01*
X106223Y177526D01*
X106177Y177491D01*
X106153Y177468D01*
X106142Y177456D01*
X100860Y172914D01*
Y171250D01*
X109932D01*
X110302Y173030D01*
X103830D01*
X107748Y176254D01*
X108083Y176532D01*
X108396Y176809D01*
X108696Y177063D01*
X108950Y177283D01*
X109054Y177375D01*
X109158Y177468D01*
X109251Y177549D01*
X109320Y177606D01*
X109378Y177664D01*
X109424Y177699D01*
X109447Y177722D01*
X109459Y177733D01*
X109748Y178011D01*
X110013Y178277D01*
X110245Y178531D01*
X110453Y178762D01*
X110614Y178958D01*
X110684Y179039D01*
X110742Y179109D01*
X110788Y179155D01*
X110822Y179201D01*
X110834Y179224D01*
X110845Y179236D01*
X111054Y179536D01*
X111250Y179825D01*
X111412Y180103D01*
X111539Y180368D01*
X111597Y180473D01*
X111643Y180576D01*
X111689Y180669D01*
X111724Y180750D01*
X111747Y180819D01*
X111770Y180865D01*
X111782Y180889D01*
Y180900D01*
X111897Y181235D01*
X111978Y181582D01*
X112036Y181917D01*
X112071Y182218D01*
X112094Y182356D01*
X112105Y182483D01*
Y182599D01*
X112117Y182691D01*
Y182876D01*
X112105Y183188D01*
X112071Y183477D01*
X112013Y183732D01*
X111955Y183963D01*
X111897Y184136D01*
X111874Y184217D01*
X111840Y184275D01*
X111828Y184321D01*
X111805Y184356D01*
X111793Y184379D01*
Y184390D01*
X111666Y184621D01*
X111527Y184830D01*
X111377Y185014D01*
X111227Y185165D01*
X111100Y185292D01*
X110996Y185384D01*
X110926Y185430D01*
X110915Y185454D01*
X110903D01*
X110672Y185604D01*
X110441Y185731D01*
X110210Y185835D01*
X109990Y185927D01*
X109794Y185997D01*
X109713Y186020D01*
X109644Y186043D01*
X109586Y186054D01*
X109540Y186066D01*
X109516Y186078D01*
X109505D01*
X109193Y186147D01*
X108881Y186193D01*
X108580Y186239D01*
X108303Y186262D01*
X108176Y186274D01*
X107956D01*
X107875Y186286D01*
D02*
G37*
G36*
X82265D02*
X75250D01*
X81745D01*
X81387Y186262D01*
X81063Y186251D01*
X80763Y186228D01*
X80636Y186216D01*
X80508Y186205D01*
X80404Y186193D01*
X80312Y186182D01*
X80243Y186170D01*
X80185D01*
X80150Y186159D01*
X80139D01*
X79769Y186112D01*
X79434Y186054D01*
X79133Y185997D01*
X78994Y185962D01*
X78879Y185939D01*
X78763Y185916D01*
X78659Y185893D01*
X78578Y185870D01*
X78509Y185847D01*
X78451Y185835D01*
X78405Y185823D01*
X78382Y185812D01*
X78370D01*
X78209Y183963D01*
X78498Y184032D01*
X78798Y184101D01*
X79087Y184171D01*
X79364Y184228D01*
X79480Y184252D01*
X79595Y184275D01*
X79699Y184298D01*
X79780Y184309D01*
X79850Y184321D01*
X79896Y184333D01*
X79931Y184344D01*
X79942D01*
X80300Y184402D01*
X80636Y184448D01*
X80936Y184483D01*
X81190Y184506D01*
X81306Y184517D01*
X81410D01*
X81502Y184529D01*
X81710D01*
X82103Y184517D01*
X82450Y184471D01*
X82612Y184436D01*
X82762Y184402D01*
X82901Y184367D01*
X83016Y184333D01*
X83132Y184298D01*
X83224Y184263D01*
X83317Y184228D01*
X83386Y184194D01*
X83444Y184171D01*
X83479Y184148D01*
X83502Y184136D01*
X83513D01*
X83640Y184055D01*
X83744Y183963D01*
X83848Y183870D01*
X83929Y183766D01*
X83999Y183651D01*
X84056Y183547D01*
X84137Y183327D01*
X84195Y183119D01*
X84207Y183038D01*
X84218Y182957D01*
X84230Y182899D01*
Y182853D01*
Y182819D01*
Y182807D01*
X84218Y182530D01*
X84184Y182275D01*
X84137Y182033D01*
X84080Y181825D01*
X84022Y181640D01*
X83999Y181570D01*
X83975Y181501D01*
X83952Y181455D01*
X83941Y181420D01*
X83929Y181397D01*
Y181385D01*
X83814Y181131D01*
X83687Y180900D01*
X83560Y180669D01*
X83432Y180473D01*
X83317Y180311D01*
X83224Y180184D01*
X83190Y180137D01*
X83167Y180103D01*
X83155Y180079D01*
X83143Y180068D01*
X82947Y179825D01*
X82751Y179594D01*
X82554Y179375D01*
X82369Y179178D01*
X82219Y179016D01*
X82092Y178889D01*
X82045Y178843D01*
X82011Y178808D01*
X81988Y178785D01*
X81976Y178774D01*
X81722Y178531D01*
X81468Y178300D01*
X81225Y178069D01*
X81005Y177872D01*
X80809Y177699D01*
X80728Y177630D01*
X80659Y177572D01*
X80612Y177526D01*
X80566Y177491D01*
X80543Y177468D01*
X80532Y177456D01*
X75250Y172914D01*
Y171250D01*
X84322D01*
X84692Y173030D01*
X78220D01*
X82138Y176254D01*
X82473Y176532D01*
X82785Y176809D01*
X83086Y177063D01*
X83340Y177283D01*
X83444Y177375D01*
X83548Y177468D01*
X83640Y177549D01*
X83710Y177606D01*
X83767Y177664D01*
X83814Y177699D01*
X83837Y177722D01*
X83848Y177733D01*
X84137Y178011D01*
X84403Y178277D01*
X84634Y178531D01*
X84842Y178762D01*
X85004Y178958D01*
X85073Y179039D01*
X85131Y179109D01*
X85177Y179155D01*
X85212Y179201D01*
X85224Y179224D01*
X85235Y179236D01*
X85443Y179536D01*
X85640Y179825D01*
X85801Y180103D01*
X85929Y180368D01*
X85986Y180473D01*
X86033Y180576D01*
X86079Y180669D01*
X86114Y180750D01*
X86137Y180819D01*
X86160Y180865D01*
X86171Y180889D01*
Y180900D01*
X86287Y181235D01*
X86368Y181582D01*
X86426Y181917D01*
X86460Y182218D01*
X86483Y182356D01*
X86495Y182483D01*
Y182599D01*
X86507Y182691D01*
Y182876D01*
X86495Y183188D01*
X86460Y183477D01*
X86403Y183732D01*
X86345Y183963D01*
X86287Y184136D01*
X86264Y184217D01*
X86229Y184275D01*
X86218Y184321D01*
X86194Y184356D01*
X86183Y184379D01*
Y184390D01*
X86056Y184621D01*
X85917Y184830D01*
X85767Y185014D01*
X85617Y185165D01*
X85490Y185292D01*
X85386Y185384D01*
X85316Y185430D01*
X85305Y185454D01*
X85293D01*
X85062Y185604D01*
X84831Y185731D01*
X84600Y185835D01*
X84380Y185927D01*
X84184Y185997D01*
X84103Y186020D01*
X84033Y186043D01*
X83975Y186054D01*
X83929Y186066D01*
X83906Y186078D01*
X83895D01*
X83583Y186147D01*
X83271Y186193D01*
X82970Y186239D01*
X82693Y186262D01*
X82566Y186274D01*
X82346D01*
X82265Y186286D01*
D02*
G37*
G36*
X185492Y173619D02*
X185400D01*
X185157Y173596D01*
X184937Y173550D01*
X184729Y173480D01*
X184556Y173411D01*
X184417Y173330D01*
X184313Y173261D01*
X184244Y173215D01*
X184233Y173192D01*
X184221D01*
X184128Y173111D01*
X184059Y173018D01*
X183932Y172822D01*
X183840Y172625D01*
X183782Y172440D01*
X183736Y172279D01*
X183724Y172140D01*
X183712Y172082D01*
Y172013D01*
X183724Y171851D01*
X183759Y171712D01*
X183816Y171597D01*
X183874Y171493D01*
X183920Y171412D01*
X183978Y171354D01*
X184013Y171319D01*
X184025Y171308D01*
X184152Y171227D01*
X184290Y171158D01*
X184429Y171111D01*
X184568Y171088D01*
X184683Y171065D01*
X184776Y171054D01*
X183712D01*
D01*
X186567D01*
X184868D01*
X185122Y171077D01*
X185342Y171123D01*
X185550Y171192D01*
X185723Y171273D01*
X185862Y171343D01*
X185966Y171412D01*
X186035Y171458D01*
X186059Y171481D01*
X186151Y171562D01*
X186232Y171654D01*
X186347Y171851D01*
X186440Y172048D01*
X186509Y172244D01*
X186544Y172406D01*
X186556Y172544D01*
X186567Y172602D01*
Y172672D01*
X186556Y172833D01*
X186521Y172972D01*
X186463Y173088D01*
X186405Y173192D01*
X186347Y173261D01*
X186290Y173319D01*
X186255Y173353D01*
X186243Y173365D01*
X186116Y173446D01*
X185978Y173515D01*
X185839Y173561D01*
X185700Y173584D01*
X185585Y173608D01*
X185492Y173619D01*
D02*
G37*
G36*
X100086Y186286D02*
X88887D01*
X96006D01*
X95521Y186262D01*
X95070Y186205D01*
X94631Y186112D01*
X94227Y185997D01*
X93845Y185858D01*
X93487Y185708D01*
X93163Y185546D01*
X92863Y185373D01*
X92597Y185199D01*
X92366Y185037D01*
X92169Y184887D01*
X91996Y184749D01*
X91869Y184633D01*
X91777Y184541D01*
X91719Y184483D01*
X91696Y184460D01*
X91545Y184286D01*
X91395Y184090D01*
X91106Y183685D01*
X90852Y183246D01*
X90609Y182784D01*
X90378Y182299D01*
X90182Y181813D01*
X89997Y181328D01*
X89835Y180854D01*
X89696Y180403D01*
X89569Y179975D01*
X89523Y179779D01*
X89465Y179594D01*
X89419Y179421D01*
X89384Y179259D01*
X89349Y179120D01*
X89315Y178982D01*
X89292Y178878D01*
X89269Y178774D01*
X89257Y178704D01*
X89246Y178647D01*
X89234Y178612D01*
Y178600D01*
X89176Y178253D01*
X89118Y177930D01*
X89072Y177641D01*
X89038Y177387D01*
X89026Y177271D01*
X89003Y177167D01*
X88991Y177086D01*
Y177005D01*
X88980Y176948D01*
X88968Y176901D01*
Y176878D01*
Y176867D01*
X88945Y176578D01*
X88922Y176312D01*
X88910Y176058D01*
X88899Y175850D01*
X88887Y175665D01*
Y175410D01*
X88899Y174995D01*
X88933Y174613D01*
X88980Y174255D01*
X89049Y173920D01*
X89118Y173619D01*
X89211Y173353D01*
X89292Y173099D01*
X89396Y172880D01*
X89488Y172695D01*
X89581Y172521D01*
X89662Y172383D01*
X89731Y172267D01*
X89800Y172186D01*
X89846Y172117D01*
X89881Y172082D01*
X89893Y172071D01*
X90101Y171886D01*
X90320Y171724D01*
X90563Y171585D01*
X90806Y171470D01*
X91060Y171366D01*
X91326Y171285D01*
X91580Y171215D01*
X91834Y171157D01*
X92065Y171123D01*
X92285Y171088D01*
X92481Y171065D01*
X92655Y171042D01*
X92805D01*
X92909Y171030D01*
X88887D01*
X93001D01*
X93487Y171054D01*
X93938Y171100D01*
X94146Y171134D01*
X94342Y171169D01*
X94527Y171204D01*
X94700Y171250D01*
X94862Y171285D01*
X95001Y171319D01*
X95117Y171354D01*
X95220Y171389D01*
X95301Y171423D01*
X95359Y171435D01*
X95394Y171458D01*
X95405D01*
X95798Y171643D01*
X96157Y171863D01*
X96492Y172082D01*
X96630Y172198D01*
X96769Y172302D01*
X96885Y172406D01*
X97000Y172510D01*
X97093Y172591D01*
X97162Y172672D01*
X97231Y172729D01*
X97278Y172787D01*
X97301Y172810D01*
X97312Y172822D01*
X97463Y173007D01*
X97613Y173192D01*
X97890Y173584D01*
X98133Y173978D01*
X98341Y174359D01*
X98433Y174521D01*
X98514Y174682D01*
X98584Y174833D01*
X98641Y174948D01*
X98688Y175052D01*
X98722Y175133D01*
X98734Y175179D01*
X98745Y175191D01*
X98861Y175468D01*
X98965Y175757D01*
X99150Y176335D01*
X99323Y176924D01*
X99393Y177202D01*
X99462Y177456D01*
X99520Y177710D01*
X99578Y177930D01*
X99624Y178138D01*
X99658Y178311D01*
X99693Y178450D01*
X99716Y178554D01*
X99728Y178623D01*
Y178647D01*
X99785Y178982D01*
X99843Y179305D01*
X99889Y179594D01*
X99924Y179860D01*
X99947Y179964D01*
X99959Y180068D01*
X99970Y180160D01*
X99982Y180230D01*
Y180288D01*
X99993Y180334D01*
Y180357D01*
Y180368D01*
X100028Y180669D01*
X100051Y180946D01*
X100063Y181201D01*
X100074Y181420D01*
X100086Y181605D01*
Y181871D01*
X100074Y182287D01*
X100040Y182680D01*
X99993Y183038D01*
X99936Y183373D01*
X99855Y183674D01*
X99774Y183951D01*
X99682Y184194D01*
X99589Y184425D01*
X99497Y184610D01*
X99404Y184783D01*
X99323Y184922D01*
X99242Y185037D01*
X99185Y185118D01*
X99138Y185188D01*
X99104Y185222D01*
X99092Y185234D01*
X98896Y185419D01*
X98676Y185581D01*
X98433Y185719D01*
X98191Y185847D01*
X97936Y185939D01*
X97682Y186031D01*
X97428Y186101D01*
X97174Y186159D01*
X96943Y186193D01*
X96723Y186228D01*
X96526Y186251D01*
X96353Y186274D01*
X96203D01*
X96099Y186286D01*
X100086D01*
D02*
G37*
%LPD*%
G36*
X134387Y184517D02*
X134572Y184506D01*
X134757Y184471D01*
X134919Y184436D01*
X135069Y184390D01*
X135208Y184344D01*
X135335Y184286D01*
X135439Y184240D01*
X135543Y184182D01*
X135624Y184125D01*
X135693Y184078D01*
X135751Y184032D01*
X135797Y183997D01*
X135832Y183963D01*
X135843Y183951D01*
X135855Y183940D01*
X135947Y183824D01*
X136040Y183685D01*
X136109Y183535D01*
X136179Y183385D01*
X136271Y183050D01*
X136340Y182726D01*
X136363Y182564D01*
X136386Y182426D01*
X136398Y182287D01*
Y182171D01*
X136410Y182079D01*
Y181998D01*
Y181952D01*
Y181940D01*
Y181698D01*
X136386Y181443D01*
X136363Y181178D01*
X136340Y180900D01*
X136271Y180357D01*
X136225Y180079D01*
X136190Y179825D01*
X136144Y179583D01*
X136098Y179352D01*
X136063Y179143D01*
X136028Y178970D01*
X136005Y178820D01*
X135982Y178716D01*
X135959Y178647D01*
Y178635D01*
Y178623D01*
X135890Y178323D01*
X135820Y178034D01*
X135751Y177768D01*
X135693Y177502D01*
X135624Y177260D01*
X135566Y177040D01*
X135497Y176832D01*
X135439Y176636D01*
X135393Y176462D01*
X135346Y176312D01*
X135300Y176185D01*
X135266Y176069D01*
X135231Y175988D01*
X135219Y175919D01*
X135196Y175884D01*
Y175873D01*
X135046Y175480D01*
X134884Y175122D01*
X134803Y174960D01*
X134734Y174810D01*
X134653Y174682D01*
X134584Y174555D01*
X134526Y174440D01*
X134457Y174347D01*
X134410Y174266D01*
X134364Y174197D01*
X134329Y174139D01*
X134295Y174105D01*
X134283Y174081D01*
X134272Y174070D01*
X134075Y173827D01*
X133867Y173631D01*
X133682Y173457D01*
X133497Y173319D01*
X133347Y173215D01*
X133220Y173145D01*
X133174Y173122D01*
X133139Y173099D01*
X133127Y173088D01*
X133116D01*
X132873Y172984D01*
X132619Y172914D01*
X132376Y172856D01*
X132145Y172822D01*
X131949Y172799D01*
X131868D01*
X131798Y172787D01*
X131660D01*
X131452Y172799D01*
X131267Y172810D01*
X131082Y172845D01*
X130920Y172880D01*
X130770Y172926D01*
X130631Y172972D01*
X130504Y173018D01*
X130388Y173076D01*
X130296Y173134D01*
X130204Y173180D01*
X130134Y173226D01*
X130076Y173272D01*
X130030Y173307D01*
X129995Y173342D01*
X129984Y173353D01*
X129972Y173365D01*
X129880Y173480D01*
X129788Y173619D01*
X129718Y173769D01*
X129649Y173920D01*
X129556Y174255D01*
X129487Y174578D01*
X129464Y174740D01*
X129452Y174879D01*
X129429Y175018D01*
Y175133D01*
X129418Y175226D01*
Y175306D01*
Y175353D01*
Y175364D01*
Y175595D01*
X129441Y175850D01*
X129487Y176381D01*
X129556Y176924D01*
X129591Y177190D01*
X129637Y177445D01*
X129684Y177687D01*
X129718Y177907D01*
X129753Y178115D01*
X129788Y178288D01*
X129822Y178427D01*
X129834Y178531D01*
X129857Y178600D01*
Y178623D01*
X129926Y178924D01*
X129995Y179213D01*
X130065Y179490D01*
X130123Y179744D01*
X130192Y179987D01*
X130261Y180218D01*
X130319Y180426D01*
X130377Y180623D01*
X130423Y180796D01*
X130469Y180946D01*
X130516Y181073D01*
X130550Y181189D01*
X130585Y181270D01*
X130597Y181339D01*
X130620Y181374D01*
Y181385D01*
X130781Y181790D01*
X130862Y181975D01*
X130943Y182148D01*
X131024Y182310D01*
X131093Y182460D01*
X131174Y182599D01*
X131244Y182726D01*
X131301Y182830D01*
X131359Y182934D01*
X131417Y183015D01*
X131463Y183084D01*
X131498Y183142D01*
X131521Y183177D01*
X131544Y183200D01*
Y183211D01*
X131741Y183454D01*
X131949Y183662D01*
X132145Y183836D01*
X132318Y183974D01*
X132480Y184090D01*
X132607Y184159D01*
X132654Y184182D01*
X132688Y184205D01*
X132700Y184217D01*
X132711D01*
X132966Y184321D01*
X133220Y184402D01*
X133463Y184448D01*
X133694Y184494D01*
X133890Y184517D01*
X133971D01*
X134040Y184529D01*
X134179D01*
X134387Y184517D01*
D02*
G37*
G36*
X197257Y184517D02*
X197442Y184506D01*
X197627Y184471D01*
X197789Y184437D01*
X197939Y184390D01*
X198078Y184344D01*
X198205Y184286D01*
X198309Y184240D01*
X198413Y184182D01*
X198494Y184125D01*
X198563Y184078D01*
X198621Y184032D01*
X198667Y183997D01*
X198702Y183963D01*
X198713Y183951D01*
X198725Y183940D01*
X198817Y183824D01*
X198910Y183685D01*
X198979Y183535D01*
X199049Y183385D01*
X199141Y183050D01*
X199210Y182726D01*
X199233Y182564D01*
X199257Y182426D01*
X199268Y182287D01*
Y182171D01*
X199280Y182079D01*
Y181998D01*
Y181952D01*
Y181940D01*
Y181698D01*
X199257Y181443D01*
X199233Y181178D01*
X199210Y180900D01*
X199141Y180357D01*
X199095Y180080D01*
X199060Y179825D01*
X199014Y179583D01*
X198968Y179352D01*
X198933Y179144D01*
X198898Y178970D01*
X198875Y178820D01*
X198852Y178716D01*
X198829Y178647D01*
Y178635D01*
Y178623D01*
X198760Y178323D01*
X198690Y178034D01*
X198621Y177768D01*
X198563Y177502D01*
X198494Y177260D01*
X198436Y177040D01*
X198367Y176832D01*
X198309Y176636D01*
X198263Y176462D01*
X198216Y176312D01*
X198170Y176185D01*
X198136Y176069D01*
X198101Y175988D01*
X198089Y175919D01*
X198066Y175884D01*
Y175873D01*
X197916Y175480D01*
X197754Y175122D01*
X197673Y174960D01*
X197604Y174810D01*
X197523Y174683D01*
X197454Y174555D01*
X197396Y174440D01*
X197327Y174347D01*
X197280Y174266D01*
X197234Y174197D01*
X197199Y174139D01*
X197165Y174105D01*
X197153Y174081D01*
X197142Y174070D01*
X196945Y173827D01*
X196737Y173631D01*
X196552Y173457D01*
X196367Y173319D01*
X196217Y173215D01*
X196090Y173145D01*
X196044Y173122D01*
X196009Y173099D01*
X195998Y173088D01*
X195986D01*
X195743Y172984D01*
X195489Y172914D01*
X195246Y172856D01*
X195015Y172822D01*
X194819Y172799D01*
X194738D01*
X194669Y172787D01*
X194530D01*
X194322Y172799D01*
X194137Y172810D01*
X193952Y172845D01*
X193790Y172880D01*
X193640Y172926D01*
X193501Y172972D01*
X193374Y173018D01*
X193258Y173076D01*
X193166Y173134D01*
X193074Y173180D01*
X193004Y173226D01*
X192946Y173272D01*
X192900Y173307D01*
X192866Y173342D01*
X192854Y173353D01*
X192843Y173365D01*
X192750Y173480D01*
X192658Y173619D01*
X192588Y173769D01*
X192519Y173920D01*
X192426Y174255D01*
X192357Y174578D01*
X192334Y174740D01*
X192322Y174879D01*
X192299Y175018D01*
Y175133D01*
X192288Y175226D01*
Y175306D01*
Y175353D01*
Y175364D01*
Y175595D01*
X192311Y175850D01*
X192357Y176381D01*
X192426Y176924D01*
X192461Y177190D01*
X192507Y177445D01*
X192554Y177687D01*
X192588Y177907D01*
X192623Y178115D01*
X192658Y178288D01*
X192692Y178427D01*
X192704Y178531D01*
X192727Y178600D01*
Y178623D01*
X192796Y178924D01*
X192866Y179213D01*
X192935Y179490D01*
X192993Y179744D01*
X193062Y179987D01*
X193131Y180218D01*
X193189Y180426D01*
X193247Y180623D01*
X193293Y180796D01*
X193339Y180946D01*
X193386Y181073D01*
X193420Y181189D01*
X193455Y181270D01*
X193466Y181339D01*
X193490Y181374D01*
Y181385D01*
X193652Y181790D01*
X193732Y181975D01*
X193813Y182148D01*
X193894Y182310D01*
X193964Y182460D01*
X194044Y182599D01*
X194114Y182726D01*
X194172Y182830D01*
X194229Y182934D01*
X194287Y183015D01*
X194333Y183084D01*
X194368Y183142D01*
X194391Y183177D01*
X194414Y183200D01*
Y183211D01*
X194611Y183454D01*
X194819Y183662D01*
X195015Y183836D01*
X195189Y183974D01*
X195350Y184090D01*
X195478Y184159D01*
X195524Y184182D01*
X195558Y184205D01*
X195570Y184217D01*
X195581D01*
X195836Y184321D01*
X196090Y184402D01*
X196333Y184448D01*
X196564Y184494D01*
X196760Y184517D01*
X196841D01*
X196910Y184529D01*
X197049D01*
X197257Y184517D01*
D02*
G37*
G36*
X95972Y184517D02*
X96157Y184506D01*
X96341Y184471D01*
X96503Y184436D01*
X96654Y184390D01*
X96792Y184344D01*
X96919Y184286D01*
X97023Y184240D01*
X97127Y184182D01*
X97208Y184125D01*
X97278Y184078D01*
X97335Y184032D01*
X97382Y183997D01*
X97416Y183963D01*
X97428Y183951D01*
X97439Y183940D01*
X97532Y183824D01*
X97624Y183685D01*
X97694Y183535D01*
X97763Y183385D01*
X97856Y183050D01*
X97925Y182726D01*
X97948Y182564D01*
X97971Y182426D01*
X97983Y182287D01*
Y182171D01*
X97994Y182079D01*
Y181998D01*
Y181952D01*
Y181940D01*
Y181698D01*
X97971Y181443D01*
X97948Y181178D01*
X97925Y180900D01*
X97856Y180357D01*
X97809Y180079D01*
X97775Y179825D01*
X97728Y179583D01*
X97682Y179352D01*
X97647Y179143D01*
X97613Y178970D01*
X97590Y178820D01*
X97567Y178716D01*
X97543Y178647D01*
Y178635D01*
Y178623D01*
X97474Y178323D01*
X97405Y178034D01*
X97335Y177768D01*
X97278Y177502D01*
X97208Y177260D01*
X97150Y177040D01*
X97081Y176832D01*
X97023Y176636D01*
X96977Y176462D01*
X96931Y176312D01*
X96885Y176185D01*
X96850Y176069D01*
X96815Y175988D01*
X96804Y175919D01*
X96781Y175884D01*
Y175873D01*
X96630Y175480D01*
X96469Y175122D01*
X96388Y174960D01*
X96318Y174810D01*
X96237Y174682D01*
X96168Y174555D01*
X96110Y174440D01*
X96041Y174347D01*
X95995Y174266D01*
X95949Y174197D01*
X95914Y174139D01*
X95879Y174105D01*
X95868Y174081D01*
X95856Y174070D01*
X95660Y173827D01*
X95452Y173631D01*
X95267Y173457D01*
X95082Y173319D01*
X94932Y173215D01*
X94804Y173145D01*
X94758Y173122D01*
X94724Y173099D01*
X94712Y173088D01*
X94700D01*
X94458Y172984D01*
X94204Y172914D01*
X93961Y172856D01*
X93730Y172822D01*
X93533Y172799D01*
X93452D01*
X93383Y172787D01*
X93244D01*
X93036Y172799D01*
X92851Y172810D01*
X92666Y172845D01*
X92505Y172880D01*
X92354Y172926D01*
X92216Y172972D01*
X92088Y173018D01*
X91973Y173076D01*
X91881Y173134D01*
X91788Y173180D01*
X91719Y173226D01*
X91661Y173272D01*
X91615Y173307D01*
X91580Y173342D01*
X91568Y173353D01*
X91557Y173365D01*
X91465Y173480D01*
X91372Y173619D01*
X91303Y173769D01*
X91233Y173920D01*
X91141Y174255D01*
X91072Y174578D01*
X91048Y174740D01*
X91037Y174879D01*
X91014Y175018D01*
Y175133D01*
X91002Y175226D01*
Y175306D01*
Y175353D01*
Y175364D01*
Y175595D01*
X91025Y175850D01*
X91072Y176381D01*
X91141Y176924D01*
X91175Y177190D01*
X91222Y177445D01*
X91268Y177687D01*
X91303Y177907D01*
X91337Y178115D01*
X91372Y178288D01*
X91407Y178427D01*
X91418Y178531D01*
X91441Y178600D01*
Y178623D01*
X91511Y178924D01*
X91580Y179213D01*
X91649Y179490D01*
X91707Y179744D01*
X91777Y179987D01*
X91846Y180218D01*
X91904Y180426D01*
X91961Y180623D01*
X92008Y180796D01*
X92054Y180946D01*
X92100Y181073D01*
X92135Y181189D01*
X92169Y181270D01*
X92181Y181339D01*
X92204Y181374D01*
Y181385D01*
X92366Y181790D01*
X92447Y181975D01*
X92528Y182148D01*
X92609Y182310D01*
X92678Y182460D01*
X92759Y182599D01*
X92828Y182726D01*
X92886Y182830D01*
X92944Y182934D01*
X93001Y183015D01*
X93048Y183084D01*
X93082Y183142D01*
X93106Y183177D01*
X93129Y183200D01*
Y183211D01*
X93325Y183454D01*
X93533Y183662D01*
X93730Y183836D01*
X93903Y183974D01*
X94065Y184090D01*
X94192Y184159D01*
X94238Y184182D01*
X94273Y184205D01*
X94284Y184217D01*
X94296D01*
X94550Y184321D01*
X94804Y184402D01*
X95047Y184448D01*
X95278Y184494D01*
X95475Y184517D01*
X95556D01*
X95625Y184529D01*
X95764D01*
X95972Y184517D01*
D02*
G37*
%LPC*%
G36*
X214591Y13204D02*
X208516D01*
X212226D01*
X211971Y13193D01*
X211850Y13187D01*
X211728Y13171D01*
X211617Y13154D01*
X211512Y13137D01*
X211412Y13121D01*
X211324Y13104D01*
X211241Y13082D01*
X211169Y13066D01*
X211102Y13049D01*
X211047Y13032D01*
X211003Y13016D01*
X210975Y13010D01*
X210953Y12999D01*
X210947D01*
X210842Y12960D01*
X210737Y12910D01*
X210543Y12811D01*
X210454Y12755D01*
X210371Y12706D01*
X210294Y12650D01*
X210222Y12600D01*
X210155Y12550D01*
X210094Y12501D01*
X210045Y12462D01*
X210000Y12423D01*
X209967Y12395D01*
X209945Y12373D01*
X209928Y12357D01*
X209923Y12351D01*
X209840Y12268D01*
X209762Y12174D01*
X209613Y11986D01*
X209485Y11797D01*
X209375Y11620D01*
X209325Y11537D01*
X209280Y11460D01*
X209247Y11388D01*
X209214Y11332D01*
X209192Y11283D01*
X209175Y11249D01*
X209164Y11222D01*
X209159Y11216D01*
X209103Y11083D01*
X209048Y10945D01*
X208948Y10662D01*
X208860Y10386D01*
X208821Y10247D01*
X208788Y10120D01*
X208760Y9998D01*
X208732Y9893D01*
X208710Y9793D01*
X208688Y9710D01*
X208677Y9638D01*
X208666Y9588D01*
X208655Y9555D01*
Y9549D01*
Y9544D01*
X208610Y9278D01*
X208588Y9151D01*
X208577Y9029D01*
X208561Y8918D01*
X208549Y8807D01*
X208538Y8702D01*
X208533Y8608D01*
X208527Y8525D01*
X208522Y8447D01*
Y8381D01*
X208516Y8326D01*
Y5895D01*
Y8220D01*
X208522Y7999D01*
X208544Y7789D01*
X208572Y7595D01*
X208610Y7418D01*
X208660Y7257D01*
X208710Y7113D01*
X208766Y6980D01*
X208821Y6864D01*
X208876Y6764D01*
X208932Y6676D01*
X208987Y6604D01*
X209031Y6543D01*
X209070Y6498D01*
X209098Y6465D01*
X209120Y6443D01*
X209125Y6437D01*
X209247Y6343D01*
X209380Y6260D01*
X209519Y6188D01*
X209662Y6122D01*
X209806Y6072D01*
X209950Y6028D01*
X210094Y5989D01*
X210238Y5961D01*
X210371Y5939D01*
X210493Y5922D01*
X210604Y5911D01*
X210698Y5906D01*
X210776Y5900D01*
X210836Y5895D01*
X210886D01*
X211141Y5906D01*
X211268Y5911D01*
X211385Y5928D01*
X211495Y5939D01*
X211600Y5956D01*
X211700Y5978D01*
X211789Y5994D01*
X211872Y6011D01*
X211944Y6033D01*
X212010Y6050D01*
X212066Y6061D01*
X212110Y6077D01*
X212138Y6083D01*
X212160Y6094D01*
X212165D01*
X212376Y6183D01*
X212570Y6282D01*
X212658Y6332D01*
X212741Y6388D01*
X212819Y6443D01*
X212891Y6493D01*
X212957Y6543D01*
X213013Y6587D01*
X213062Y6631D01*
X213107Y6665D01*
X213140Y6692D01*
X213162Y6720D01*
X213179Y6731D01*
X213184Y6736D01*
X213267Y6819D01*
X213345Y6908D01*
X213489Y7096D01*
X213622Y7285D01*
X213732Y7467D01*
X213777Y7550D01*
X213821Y7622D01*
X213854Y7694D01*
X213887Y7750D01*
X213909Y7800D01*
X213926Y7838D01*
X213937Y7861D01*
X213943Y7866D01*
X213998Y7999D01*
X214053Y8137D01*
X214153Y8420D01*
X214242Y8702D01*
X214280Y8835D01*
X214314Y8962D01*
X214341Y9084D01*
X214369Y9195D01*
X214391Y9295D01*
X214413Y9378D01*
X214430Y9450D01*
X214436Y9499D01*
X214447Y9533D01*
Y9544D01*
X214496Y9810D01*
X214513Y9937D01*
X214530Y10059D01*
X214546Y10175D01*
X214557Y10286D01*
X214563Y10386D01*
X214574Y10480D01*
X214580Y10568D01*
X214585Y10646D01*
Y10712D01*
X214591Y10768D01*
Y6077D01*
Y10895D01*
Y10873D01*
X214585Y11100D01*
X214563Y11305D01*
X214535Y11498D01*
X214496Y11676D01*
X214452Y11836D01*
X214397Y11980D01*
X214341Y12113D01*
X214286Y12229D01*
X214231Y12329D01*
X214175Y12418D01*
X214125Y12490D01*
X214076Y12550D01*
X214037Y12600D01*
X214009Y12628D01*
X213987Y12650D01*
X213981Y12656D01*
X213860Y12750D01*
X213732Y12838D01*
X213594Y12910D01*
X213450Y12971D01*
X213306Y13027D01*
X213157Y13071D01*
X213013Y13104D01*
X212874Y13137D01*
X212741Y13160D01*
X212619Y13176D01*
X212509Y13187D01*
X212414Y13193D01*
X212337Y13198D01*
X212276Y13204D01*
X214591D01*
D02*
G37*
G36*
X221446Y13093D02*
X215958D01*
X215776Y12251D01*
X217985D01*
X216661Y6000D01*
X215776D01*
X221446D01*
X217730D01*
X219054Y12251D01*
X221263D01*
X221446Y13093D01*
D02*
G37*
G36*
X205310Y13204D02*
X205260D01*
X205006Y13193D01*
X204884Y13187D01*
X204762Y13171D01*
X204651Y13154D01*
X204546Y13137D01*
X204447Y13121D01*
X204358Y13104D01*
X204275Y13082D01*
X204203Y13066D01*
X204136Y13049D01*
X204081Y13032D01*
X204037Y13016D01*
X204009Y13010D01*
X203987Y12999D01*
X203981D01*
X203876Y12960D01*
X203771Y12910D01*
X203577Y12811D01*
X203489Y12755D01*
X203405Y12706D01*
X203328Y12650D01*
X203256Y12600D01*
X203190Y12550D01*
X203129Y12501D01*
X203079Y12462D01*
X203034Y12423D01*
X203001Y12395D01*
X202979Y12373D01*
X202962Y12357D01*
X202957Y12351D01*
X202874Y12268D01*
X202796Y12174D01*
X202647Y11986D01*
X202519Y11797D01*
X202409Y11620D01*
X202359Y11537D01*
X202315Y11460D01*
X202281Y11388D01*
X202248Y11332D01*
X202226Y11283D01*
X202209Y11249D01*
X202198Y11222D01*
X202193Y11216D01*
X202137Y11083D01*
X202082Y10945D01*
X201982Y10662D01*
X201894Y10386D01*
X201855Y10247D01*
X201822Y10120D01*
X201794Y9998D01*
X201766Y9893D01*
X201744Y9793D01*
X201722Y9710D01*
X201711Y9638D01*
X201700Y9588D01*
X201689Y9555D01*
Y9549D01*
Y9544D01*
X201645Y9278D01*
X201623Y9151D01*
X201611Y9029D01*
X201595Y8918D01*
X201584Y8807D01*
X201573Y8702D01*
X201567Y8608D01*
X201562Y8525D01*
X201556Y8447D01*
Y8381D01*
X201551Y8326D01*
Y5895D01*
X207625D01*
X203920D01*
X204175Y5906D01*
X204303Y5911D01*
X204419Y5928D01*
X204529Y5939D01*
X204635Y5956D01*
X204734Y5978D01*
X204823Y5994D01*
X204906Y6011D01*
X204978Y6033D01*
X205044Y6050D01*
X205100Y6061D01*
X205144Y6077D01*
X205172Y6083D01*
X205194Y6094D01*
X205200D01*
X205410Y6183D01*
X205604Y6282D01*
X205692Y6332D01*
X205775Y6388D01*
X205853Y6443D01*
X205925Y6493D01*
X205991Y6543D01*
X206047Y6587D01*
X206096Y6631D01*
X206141Y6665D01*
X206174Y6692D01*
X206196Y6720D01*
X206213Y6731D01*
X206218Y6736D01*
X206301Y6819D01*
X206379Y6908D01*
X206523Y7096D01*
X206656Y7285D01*
X206766Y7467D01*
X206811Y7550D01*
X206855Y7622D01*
X206888Y7694D01*
X206922Y7750D01*
X206944Y7800D01*
X206960Y7838D01*
X206971Y7861D01*
X206977Y7866D01*
X207032Y7999D01*
X207088Y8137D01*
X207187Y8420D01*
X207276Y8702D01*
X207315Y8835D01*
X207348Y8962D01*
X207376Y9084D01*
X207403Y9195D01*
X207425Y9295D01*
X207448Y9378D01*
X207464Y9450D01*
X207470Y9499D01*
X207481Y9533D01*
Y9544D01*
X207531Y9810D01*
X207547Y9937D01*
X207564Y10059D01*
X207581Y10175D01*
X207592Y10286D01*
X207597Y10386D01*
X207608Y10480D01*
X207614Y10568D01*
X207619Y10646D01*
Y10712D01*
X207625Y10768D01*
Y10873D01*
X207619Y11100D01*
X207597Y11305D01*
X207569Y11498D01*
X207531Y11676D01*
X207486Y11836D01*
X207431Y11980D01*
X207376Y12113D01*
X207320Y12229D01*
X207265Y12329D01*
X207209Y12418D01*
X207160Y12490D01*
X207110Y12550D01*
X207071Y12600D01*
X207043Y12628D01*
X207021Y12650D01*
X207016Y12656D01*
X206894Y12750D01*
X206766Y12838D01*
X206628Y12910D01*
X206484Y12971D01*
X206340Y13027D01*
X206191Y13071D01*
X206047Y13104D01*
X205908Y13137D01*
X205775Y13160D01*
X205654Y13176D01*
X205543Y13187D01*
X205449Y13193D01*
X205371Y13198D01*
X205310Y13204D01*
D02*
G37*
G36*
X200725Y13093D02*
X196467D01*
X194995Y6161D01*
X195205Y6116D01*
X195415Y6077D01*
X195609Y6044D01*
X195698Y6028D01*
X195786Y6017D01*
X195864Y6005D01*
X195936Y5994D01*
X195997Y5989D01*
X196052Y5978D01*
X196091Y5972D01*
X196124D01*
X196146Y5967D01*
X196152D01*
X196368Y5945D01*
X196562Y5928D01*
X196650Y5917D01*
X196733Y5911D01*
X196811Y5906D01*
X196883D01*
X196949Y5900D01*
X197005D01*
X197054Y5895D01*
X194995D01*
X200725D01*
Y11665D01*
Y11587D01*
X200720Y11720D01*
X200703Y11847D01*
X200676Y11964D01*
X200642Y12074D01*
X200604Y12174D01*
X200554Y12263D01*
X200509Y12346D01*
X200460Y12423D01*
X200404Y12490D01*
X200360Y12545D01*
X200316Y12595D01*
X200271Y12634D01*
X200238Y12667D01*
X200210Y12689D01*
X200194Y12700D01*
X200188Y12706D01*
X200083Y12772D01*
X199972Y12833D01*
X199851Y12883D01*
X199723Y12933D01*
X199596Y12966D01*
X199468Y12999D01*
X199341Y13027D01*
X199225Y13043D01*
X199109Y13060D01*
X198998Y13071D01*
X198904Y13082D01*
X198821Y13088D01*
X198749Y13093D01*
X200725D01*
D02*
G37*
%LPD*%
G36*
X212271Y12357D02*
X212381Y12346D01*
X212486Y12329D01*
X212586Y12312D01*
X212675Y12285D01*
X212752Y12257D01*
X212830Y12229D01*
X212896Y12196D01*
X212957Y12163D01*
X213007Y12135D01*
X213051Y12107D01*
X213085Y12080D01*
X213112Y12063D01*
X213134Y12047D01*
X213145Y12035D01*
X213151Y12030D01*
X213212Y11964D01*
X213267Y11886D01*
X213312Y11803D01*
X213350Y11709D01*
X213389Y11615D01*
X213417Y11521D01*
X213456Y11332D01*
X213472Y11244D01*
X213483Y11161D01*
X213489Y11083D01*
X213494Y11017D01*
X213500Y10961D01*
Y10917D01*
Y10895D01*
Y10884D01*
X213494Y10662D01*
X213472Y10435D01*
X213444Y10214D01*
X213428Y10103D01*
X213417Y10003D01*
X213400Y9909D01*
X213384Y9821D01*
X213367Y9743D01*
X213356Y9677D01*
X213345Y9621D01*
X213334Y9577D01*
X213328Y9555D01*
Y9544D01*
X213295Y9400D01*
X213262Y9261D01*
X213228Y9129D01*
X213195Y9001D01*
X213162Y8885D01*
X213129Y8774D01*
X213096Y8674D01*
X213062Y8580D01*
X213035Y8497D01*
X213013Y8425D01*
X212985Y8359D01*
X212968Y8309D01*
X212952Y8265D01*
X212941Y8237D01*
X212929Y8215D01*
Y8209D01*
X212846Y8015D01*
X212802Y7933D01*
X212758Y7849D01*
X212714Y7772D01*
X212669Y7700D01*
X212630Y7634D01*
X212592Y7573D01*
X212553Y7523D01*
X212520Y7473D01*
X212492Y7434D01*
X212464Y7401D01*
X212442Y7373D01*
X212426Y7357D01*
X212420Y7345D01*
X212414Y7340D01*
X212304Y7224D01*
X212188Y7130D01*
X212077Y7052D01*
X211977Y6986D01*
X211889Y6936D01*
X211850Y6919D01*
X211817Y6903D01*
X211789Y6891D01*
X211772Y6880D01*
X211761Y6875D01*
X211756D01*
X211617Y6831D01*
X211479Y6797D01*
X211346Y6770D01*
X211224Y6753D01*
X211169Y6747D01*
X211113Y6742D01*
X211069D01*
X211030Y6736D01*
X210958D01*
X210836Y6742D01*
X210726Y6753D01*
X210620Y6764D01*
X210521Y6786D01*
X210432Y6808D01*
X210349Y6836D01*
X210277Y6869D01*
X210205Y6897D01*
X210150Y6925D01*
X210094Y6958D01*
X210050Y6986D01*
X210017Y7008D01*
X209989Y7030D01*
X209967Y7046D01*
X209956Y7052D01*
X209950Y7058D01*
X209890Y7124D01*
X209840Y7202D01*
X209790Y7285D01*
X209751Y7373D01*
X209718Y7467D01*
X209690Y7562D01*
X209651Y7750D01*
X209635Y7838D01*
X209624Y7921D01*
X209618Y7999D01*
X209613Y8065D01*
X209607Y8121D01*
Y8165D01*
Y8187D01*
Y8198D01*
X209613Y8420D01*
X209635Y8647D01*
X209662Y8874D01*
X209674Y8979D01*
X209690Y9084D01*
X209707Y9178D01*
X209723Y9267D01*
X209734Y9344D01*
X209746Y9411D01*
X209757Y9466D01*
X209768Y9511D01*
X209773Y9533D01*
Y9544D01*
X209806Y9688D01*
X209840Y9826D01*
X209873Y9959D01*
X209906Y10081D01*
X209939Y10197D01*
X209973Y10308D01*
X210006Y10408D01*
X210033Y10502D01*
X210061Y10585D01*
X210089Y10657D01*
X210111Y10718D01*
X210128Y10773D01*
X210144Y10812D01*
X210155Y10845D01*
X210166Y10862D01*
Y10867D01*
X210255Y11061D01*
X210299Y11150D01*
X210344Y11233D01*
X210388Y11310D01*
X210432Y11382D01*
X210476Y11449D01*
X210515Y11504D01*
X210554Y11559D01*
X210587Y11604D01*
X210615Y11642D01*
X210643Y11676D01*
X210665Y11703D01*
X210681Y11720D01*
X210687Y11731D01*
X210692Y11737D01*
X210809Y11853D01*
X210919Y11953D01*
X211030Y12035D01*
X211135Y12102D01*
X211224Y12152D01*
X211257Y12168D01*
X211290Y12185D01*
X211318Y12196D01*
X211335Y12207D01*
X211346Y12213D01*
X211351D01*
X211490Y12263D01*
X211634Y12301D01*
X211767Y12323D01*
X211889Y12346D01*
X211944Y12351D01*
X211999Y12357D01*
X212043D01*
X212082Y12362D01*
X212154D01*
X212271Y12357D01*
D02*
G37*
G36*
X205305D02*
X205415Y12346D01*
X205521Y12329D01*
X205620Y12312D01*
X205709Y12285D01*
X205786Y12257D01*
X205864Y12229D01*
X205930Y12196D01*
X205991Y12163D01*
X206041Y12135D01*
X206085Y12107D01*
X206119Y12080D01*
X206146Y12063D01*
X206168Y12047D01*
X206180Y12035D01*
X206185Y12030D01*
X206246Y11964D01*
X206301Y11886D01*
X206346Y11803D01*
X206385Y11709D01*
X206423Y11615D01*
X206451Y11521D01*
X206490Y11332D01*
X206506Y11244D01*
X206517Y11161D01*
X206523Y11083D01*
X206528Y11017D01*
X206534Y10961D01*
Y10917D01*
Y10895D01*
Y10884D01*
X206528Y10662D01*
X206506Y10435D01*
X206479Y10214D01*
X206462Y10103D01*
X206451Y10003D01*
X206434Y9909D01*
X206418Y9821D01*
X206401Y9743D01*
X206390Y9677D01*
X206379Y9621D01*
X206368Y9577D01*
X206362Y9555D01*
Y9544D01*
X206329Y9400D01*
X206296Y9261D01*
X206263Y9129D01*
X206229Y9001D01*
X206196Y8885D01*
X206163Y8774D01*
X206130Y8674D01*
X206096Y8580D01*
X206069Y8497D01*
X206047Y8425D01*
X206019Y8359D01*
X206002Y8309D01*
X205986Y8265D01*
X205975Y8237D01*
X205964Y8215D01*
Y8209D01*
X205881Y8015D01*
X205836Y7933D01*
X205792Y7849D01*
X205748Y7772D01*
X205703Y7700D01*
X205665Y7634D01*
X205626Y7573D01*
X205587Y7523D01*
X205554Y7473D01*
X205526Y7434D01*
X205499Y7401D01*
X205476Y7373D01*
X205460Y7357D01*
X205454Y7345D01*
X205449Y7340D01*
X205338Y7224D01*
X205222Y7130D01*
X205111Y7052D01*
X205011Y6986D01*
X204923Y6936D01*
X204884Y6919D01*
X204851Y6903D01*
X204823Y6891D01*
X204806Y6880D01*
X204795Y6875D01*
X204790D01*
X204651Y6831D01*
X204513Y6797D01*
X204380Y6770D01*
X204258Y6753D01*
X204203Y6747D01*
X204147Y6742D01*
X204103D01*
X204064Y6736D01*
X203992D01*
X203871Y6742D01*
X203760Y6753D01*
X203655Y6764D01*
X203555Y6786D01*
X203466Y6808D01*
X203383Y6836D01*
X203311Y6869D01*
X203239Y6897D01*
X203184Y6925D01*
X203129Y6958D01*
X203084Y6986D01*
X203051Y7008D01*
X203023Y7030D01*
X203001Y7046D01*
X202990Y7052D01*
X202985Y7058D01*
X202924Y7124D01*
X202874Y7202D01*
X202824Y7285D01*
X202785Y7373D01*
X202752Y7467D01*
X202724Y7562D01*
X202686Y7750D01*
X202669Y7838D01*
X202658Y7921D01*
X202652Y7999D01*
X202647Y8065D01*
X202641Y8121D01*
Y8165D01*
Y8187D01*
Y8198D01*
X202647Y8420D01*
X202669Y8647D01*
X202697Y8874D01*
X202708Y8979D01*
X202724Y9084D01*
X202741Y9178D01*
X202758Y9267D01*
X202769Y9344D01*
X202780Y9411D01*
X202791Y9466D01*
X202802Y9511D01*
X202807Y9533D01*
Y9544D01*
X202841Y9688D01*
X202874Y9826D01*
X202907Y9959D01*
X202940Y10081D01*
X202974Y10197D01*
X203007Y10308D01*
X203040Y10408D01*
X203068Y10502D01*
X203095Y10585D01*
X203123Y10657D01*
X203145Y10718D01*
X203162Y10773D01*
X203178Y10812D01*
X203190Y10845D01*
X203201Y10862D01*
Y10867D01*
X203289Y11061D01*
X203333Y11150D01*
X203378Y11233D01*
X203422Y11310D01*
X203466Y11382D01*
X203511Y11449D01*
X203549Y11504D01*
X203588Y11559D01*
X203621Y11604D01*
X203649Y11642D01*
X203677Y11676D01*
X203699Y11703D01*
X203715Y11720D01*
X203721Y11731D01*
X203727Y11737D01*
X203843Y11853D01*
X203954Y11953D01*
X204064Y12035D01*
X204170Y12102D01*
X204258Y12152D01*
X204291Y12168D01*
X204325Y12185D01*
X204352Y12196D01*
X204369Y12207D01*
X204380Y12213D01*
X204386D01*
X204524Y12263D01*
X204668Y12301D01*
X204801Y12323D01*
X204923Y12346D01*
X204978Y12351D01*
X205033Y12357D01*
X205078D01*
X205117Y12362D01*
X205188D01*
X205305Y12357D01*
D02*
G37*
G36*
X201556Y7999D02*
X201578Y7789D01*
X201606Y7595D01*
X201645Y7418D01*
X201695Y7257D01*
X201744Y7113D01*
X201800Y6980D01*
X201855Y6864D01*
X201910Y6764D01*
X201966Y6676D01*
X202021Y6604D01*
X202066Y6543D01*
X202104Y6498D01*
X202132Y6465D01*
X202154Y6443D01*
X202160Y6437D01*
X202281Y6343D01*
X202414Y6260D01*
X202553Y6188D01*
X202697Y6122D01*
X202841Y6072D01*
X202985Y6028D01*
X203129Y5989D01*
X203273Y5961D01*
X203405Y5939D01*
X203527Y5922D01*
X203638Y5911D01*
X203732Y5906D01*
X203810Y5900D01*
X203871Y5895D01*
X201551D01*
Y8220D01*
X201556Y7999D01*
D02*
G37*
G36*
X198704Y12268D02*
X198793Y12257D01*
X198876Y12246D01*
X198948Y12235D01*
X199020Y12218D01*
X199081Y12202D01*
X199136Y12191D01*
X199186Y12174D01*
X199225Y12157D01*
X199264Y12141D01*
X199291Y12130D01*
X199314Y12119D01*
X199330Y12107D01*
X199336Y12102D01*
X199341D01*
X199391Y12069D01*
X199435Y12030D01*
X199468Y11986D01*
X199502Y11941D01*
X199552Y11847D01*
X199585Y11748D01*
X199601Y11665D01*
X199613Y11626D01*
Y11593D01*
X199618Y11565D01*
Y11543D01*
Y11532D01*
Y11526D01*
X199613Y11388D01*
X199596Y11255D01*
X199579Y11144D01*
X199557Y11044D01*
X199529Y10961D01*
X199518Y10928D01*
X199513Y10900D01*
X199502Y10878D01*
X199496Y10862D01*
X199491Y10856D01*
Y10851D01*
X199441Y10745D01*
X199386Y10657D01*
X199330Y10574D01*
X199275Y10502D01*
X199230Y10446D01*
X199186Y10402D01*
X199164Y10380D01*
X199153Y10369D01*
X199070Y10302D01*
X198987Y10247D01*
X198904Y10197D01*
X198826Y10158D01*
X198760Y10125D01*
X198710Y10103D01*
X198688Y10098D01*
X198671Y10092D01*
X198666Y10086D01*
X198660D01*
X198555Y10053D01*
X198444Y10031D01*
X198344Y10014D01*
X198250Y10003D01*
X198173Y9998D01*
X198112Y9992D01*
X196872D01*
X197353Y12274D01*
X198610D01*
X198704Y12268D01*
D02*
G37*
G36*
X198117Y9151D02*
X198223Y9145D01*
X198311Y9129D01*
X198400Y9112D01*
X198472Y9095D01*
X198544Y9079D01*
X198605Y9057D01*
X198654Y9034D01*
X198699Y9018D01*
X198738Y9001D01*
X198771Y8985D01*
X198793Y8974D01*
X198810Y8962D01*
X198815Y8951D01*
X198821D01*
X198871Y8913D01*
X198915Y8863D01*
X198948Y8818D01*
X198981Y8769D01*
X199031Y8663D01*
X199064Y8564D01*
X199081Y8475D01*
X199092Y8436D01*
Y8403D01*
X199097Y8375D01*
Y8353D01*
Y8342D01*
Y8337D01*
X199092Y8198D01*
X199081Y8071D01*
X199059Y7949D01*
X199031Y7838D01*
X199003Y7733D01*
X198965Y7639D01*
X198931Y7550D01*
X198893Y7467D01*
X198854Y7401D01*
X198815Y7340D01*
X198776Y7285D01*
X198749Y7240D01*
X198721Y7207D01*
X198699Y7185D01*
X198688Y7168D01*
X198682Y7163D01*
X198599Y7085D01*
X198505Y7024D01*
X198405Y6963D01*
X198300Y6919D01*
X198189Y6875D01*
X198079Y6842D01*
X197962Y6814D01*
X197857Y6792D01*
X197752Y6770D01*
X197652Y6759D01*
X197564Y6747D01*
X197492Y6742D01*
X197425D01*
X197375Y6736D01*
X197248D01*
X197154Y6742D01*
X197054D01*
X196966Y6747D01*
X196888D01*
X196822Y6753D01*
X196766D01*
X196644Y6764D01*
X196534Y6775D01*
X196440Y6786D01*
X196357Y6803D01*
X196290Y6814D01*
X196240Y6819D01*
X196213Y6831D01*
X196202D01*
X196694Y9162D01*
X198012D01*
X198117Y9151D01*
D02*
G37*
G36*
X200725Y5895D02*
X197171D01*
X197425Y5900D01*
X197547Y5911D01*
X197663Y5917D01*
X197774Y5933D01*
X197879Y5945D01*
X197973Y5956D01*
X198062Y5972D01*
X198145Y5989D01*
X198217Y6000D01*
X198284Y6017D01*
X198333Y6028D01*
X198378Y6033D01*
X198405Y6044D01*
X198428Y6050D01*
X198433D01*
X198638Y6116D01*
X198821Y6194D01*
X198904Y6233D01*
X198987Y6271D01*
X199059Y6310D01*
X199125Y6349D01*
X199186Y6382D01*
X199236Y6415D01*
X199280Y6449D01*
X199319Y6476D01*
X199352Y6498D01*
X199374Y6515D01*
X199386Y6521D01*
X199391Y6526D01*
X199529Y6648D01*
X199651Y6781D01*
X199756Y6908D01*
X199845Y7030D01*
X199911Y7135D01*
X199939Y7179D01*
X199961Y7218D01*
X199978Y7251D01*
X199989Y7273D01*
X200000Y7290D01*
Y7296D01*
X200072Y7473D01*
X200127Y7650D01*
X200166Y7827D01*
X200188Y7988D01*
X200199Y8060D01*
X200205Y8126D01*
X200210Y8187D01*
Y8237D01*
X200216Y8281D01*
Y8309D01*
Y8331D01*
Y8337D01*
X200210Y8442D01*
X200205Y8536D01*
X200194Y8619D01*
X200183Y8691D01*
X200166Y8752D01*
X200155Y8791D01*
X200150Y8818D01*
X200144Y8830D01*
X200116Y8907D01*
X200083Y8974D01*
X200050Y9034D01*
X200017Y9090D01*
X199989Y9129D01*
X199967Y9162D01*
X199950Y9184D01*
X199945Y9189D01*
X199895Y9245D01*
X199845Y9289D01*
X199795Y9333D01*
X199745Y9367D01*
X199707Y9394D01*
X199673Y9416D01*
X199651Y9427D01*
X199646Y9433D01*
X199518Y9499D01*
X199457Y9522D01*
X199396Y9544D01*
X199347Y9560D01*
X199308Y9571D01*
X199286Y9583D01*
X199275D01*
X199380Y9616D01*
X199480Y9649D01*
X199574Y9688D01*
X199657Y9721D01*
X199723Y9754D01*
X199779Y9782D01*
X199812Y9798D01*
X199817Y9804D01*
X199823D01*
X199917Y9859D01*
X200006Y9926D01*
X200083Y9987D01*
X200150Y10048D01*
X200199Y10103D01*
X200244Y10147D01*
X200266Y10175D01*
X200277Y10186D01*
X200349Y10280D01*
X200410Y10380D01*
X200465Y10474D01*
X200515Y10568D01*
X200548Y10651D01*
X200576Y10718D01*
X200587Y10740D01*
X200593Y10756D01*
X200598Y10768D01*
Y10773D01*
X200642Y10906D01*
X200670Y11050D01*
X200692Y11183D01*
X200709Y11310D01*
X200714Y11371D01*
X200720Y11421D01*
Y11471D01*
X200725Y11509D01*
Y5895D01*
D02*
G37*
%LPC*%
G36*
X94598Y436186D02*
X94177D01*
X94145D01*
X94080D01*
X93951D01*
X93789D01*
X93595D01*
X93368Y436170D01*
X93109D01*
X92834Y436153D01*
X92527Y436137D01*
X92219Y436121D01*
X91572Y436073D01*
X90925Y436008D01*
X90618Y435975D01*
X90310Y435927D01*
X90294D01*
X90246Y435911D01*
X90165Y435895D01*
X90051Y435878D01*
X89906Y435862D01*
X89760Y435814D01*
X89582Y435781D01*
X89388Y435733D01*
X88984Y435619D01*
X88563Y435490D01*
X88142Y435328D01*
X87754Y435134D01*
X87738D01*
X87705Y435102D01*
X87657Y435085D01*
X87592Y435037D01*
X87414Y434924D01*
X87204Y434762D01*
X86977Y434552D01*
X86751Y434309D01*
X86524Y434050D01*
X86346Y433743D01*
Y433726D01*
X86330Y433710D01*
X86298Y433662D01*
X86281Y433597D01*
X86249Y433516D01*
X86201Y433419D01*
X86120Y433176D01*
X86055Y432869D01*
X85974Y432529D01*
X85926Y432125D01*
X85909Y431688D01*
Y431494D01*
X85926Y431380D01*
Y431267D01*
X85958Y430976D01*
X86023Y430652D01*
X86087Y430312D01*
X86201Y429957D01*
X86346Y429633D01*
Y429617D01*
X86362Y429601D01*
X86395Y429552D01*
X86427Y429487D01*
X86524Y429342D01*
X86686Y429147D01*
X86880Y428921D01*
X87123Y428694D01*
X87414Y428452D01*
X87754Y428242D01*
X87770D01*
X87802Y428225D01*
X87851Y428193D01*
X87932Y428144D01*
X88029Y428112D01*
X88142Y428047D01*
X88288Y427999D01*
X88434Y427934D01*
X88611Y427869D01*
X88806Y427805D01*
X89016Y427740D01*
X89242Y427675D01*
X89485Y427610D01*
X89744Y427546D01*
X90310Y427449D01*
X90326D01*
X90375Y427433D01*
X90472D01*
X90585Y427416D01*
X90747Y427400D01*
X90925Y427368D01*
X91136Y427352D01*
X91378Y427335D01*
X91653Y427303D01*
X91945Y427287D01*
X92268Y427271D01*
X92608Y427238D01*
X92964Y427222D01*
X93352D01*
X93757Y427206D01*
X94177D01*
X94210D01*
X94274D01*
X94404D01*
X94566D01*
X94760D01*
X94986Y427222D01*
X95245D01*
X95520Y427238D01*
X95811Y427254D01*
X96119Y427271D01*
X96766Y427303D01*
X97429Y427368D01*
X97737Y427400D01*
X98044Y427449D01*
X98060D01*
X98109Y427465D01*
X98190Y427481D01*
X98303Y427497D01*
X98433Y427529D01*
X98594Y427562D01*
X98756Y427594D01*
X98950Y427643D01*
X99355Y427756D01*
X99775Y427886D01*
X100196Y428047D01*
X100584Y428242D01*
X100601D01*
X100633Y428274D01*
X100682Y428306D01*
X100746Y428339D01*
X100908Y428468D01*
X101118Y428630D01*
X101345Y428824D01*
X101572Y429067D01*
X101782Y429325D01*
X101960Y429633D01*
Y429649D01*
X101976Y429665D01*
X101992Y429714D01*
X102024Y429779D01*
X102057Y429859D01*
X102089Y429957D01*
X102170Y430199D01*
X102251Y430507D01*
X102316Y430863D01*
X102364Y431251D01*
X102380Y431688D01*
Y431898D01*
X102364Y431995D01*
Y432125D01*
X102332Y432400D01*
X102283Y432723D01*
X102203Y433063D01*
X102105Y433419D01*
X101960Y433743D01*
Y433759D01*
X101944Y433775D01*
X101911Y433824D01*
X101879Y433888D01*
X101782Y434034D01*
X101636Y434228D01*
X101442Y434454D01*
X101199Y434681D01*
X100924Y434924D01*
X100584Y435134D01*
X100568D01*
X100536Y435166D01*
X100487Y435183D01*
X100407Y435231D01*
X100309Y435263D01*
X100196Y435328D01*
X100050Y435377D01*
X99905Y435442D01*
X99727Y435506D01*
X99533Y435571D01*
X99323Y435636D01*
X99096Y435700D01*
X98853Y435765D01*
X98610Y435830D01*
X98044Y435927D01*
X98028D01*
X97963Y435943D01*
X97882Y435959D01*
X97753Y435975D01*
X97607Y435992D01*
X97429Y436008D01*
X97203Y436040D01*
X96960Y436056D01*
X96701Y436089D01*
X96410Y436105D01*
X96087Y436121D01*
X95747Y436153D01*
X95375Y436170D01*
X95002D01*
X94598Y436186D01*
D02*
G37*
G36*
Y417320D02*
X94177D01*
X94145D01*
X94080D01*
X93951D01*
X93789D01*
X93595D01*
X93368Y417304D01*
X93109D01*
X92834Y417288D01*
X92527Y417272D01*
X92219Y417255D01*
X91572Y417207D01*
X90925Y417142D01*
X90618Y417110D01*
X90310Y417061D01*
X90294D01*
X90246Y417045D01*
X90165Y417029D01*
X90051Y417013D01*
X89906Y416996D01*
X89760Y416948D01*
X89582Y416916D01*
X89388Y416867D01*
X88984Y416754D01*
X88563Y416624D01*
X88142Y416463D01*
X87754Y416268D01*
X87738D01*
X87705Y416236D01*
X87657Y416220D01*
X87592Y416171D01*
X87414Y416058D01*
X87204Y415896D01*
X86977Y415686D01*
X86751Y415443D01*
X86524Y415184D01*
X86346Y414877D01*
Y414861D01*
X86330Y414845D01*
X86298Y414796D01*
X86281Y414731D01*
X86249Y414650D01*
X86201Y414553D01*
X86120Y414311D01*
X86055Y414003D01*
X85974Y413663D01*
X85926Y413259D01*
X85909Y412822D01*
Y412628D01*
X85926Y412515D01*
Y412401D01*
X85958Y412110D01*
X86023Y411787D01*
X86087Y411447D01*
X86201Y411091D01*
X86346Y410767D01*
Y410751D01*
X86362Y410735D01*
X86395Y410686D01*
X86427Y410622D01*
X86524Y410476D01*
X86686Y410282D01*
X86880Y410055D01*
X87123Y409829D01*
X87414Y409586D01*
X87754Y409376D01*
X87770D01*
X87802Y409360D01*
X87851Y409327D01*
X87932Y409279D01*
X88029Y409246D01*
X88142Y409182D01*
X88288Y409133D01*
X88434Y409068D01*
X88611Y409004D01*
X88806Y408939D01*
X89016Y408874D01*
X89242Y408810D01*
X89485Y408745D01*
X89744Y408680D01*
X90310Y408583D01*
X90326D01*
X90375Y408567D01*
X90472D01*
X90585Y408551D01*
X90747Y408535D01*
X90925Y408502D01*
X91136Y408486D01*
X91378Y408470D01*
X91653Y408437D01*
X91945Y408421D01*
X92268Y408405D01*
X92608Y408373D01*
X92964Y408357D01*
X93352D01*
X93757Y408340D01*
X94177D01*
X94210D01*
X94274D01*
X94404D01*
X94566D01*
X94760D01*
X94986Y408357D01*
X95245D01*
X95520Y408373D01*
X95811Y408389D01*
X96119Y408405D01*
X96766Y408437D01*
X97429Y408502D01*
X97737Y408535D01*
X98044Y408583D01*
X98060D01*
X98109Y408599D01*
X98190Y408615D01*
X98303Y408632D01*
X98433Y408664D01*
X98594Y408696D01*
X98756Y408729D01*
X98950Y408777D01*
X99355Y408890D01*
X99775Y409020D01*
X100196Y409182D01*
X100584Y409376D01*
X100601D01*
X100633Y409408D01*
X100682Y409440D01*
X100746Y409473D01*
X100908Y409602D01*
X101118Y409764D01*
X101345Y409958D01*
X101572Y410201D01*
X101782Y410460D01*
X101960Y410767D01*
Y410784D01*
X101976Y410800D01*
X101992Y410848D01*
X102024Y410913D01*
X102057Y410994D01*
X102089Y411091D01*
X102170Y411334D01*
X102251Y411641D01*
X102316Y411997D01*
X102364Y412385D01*
X102380Y412822D01*
Y413032D01*
X102364Y413130D01*
Y413259D01*
X102332Y413534D01*
X102283Y413858D01*
X102203Y414197D01*
X102105Y414553D01*
X101960Y414877D01*
Y414893D01*
X101944Y414909D01*
X101911Y414958D01*
X101879Y415023D01*
X101782Y415168D01*
X101636Y415362D01*
X101442Y415589D01*
X101199Y415815D01*
X100924Y416058D01*
X100584Y416268D01*
X100568D01*
X100536Y416301D01*
X100487Y416317D01*
X100407Y416366D01*
X100309Y416398D01*
X100196Y416463D01*
X100050Y416511D01*
X99905Y416576D01*
X99727Y416641D01*
X99533Y416705D01*
X99323Y416770D01*
X99096Y416835D01*
X98853Y416899D01*
X98610Y416964D01*
X98044Y417061D01*
X98028D01*
X97963Y417077D01*
X97882Y417094D01*
X97753Y417110D01*
X97607Y417126D01*
X97429Y417142D01*
X97203Y417174D01*
X96960Y417191D01*
X96701Y417223D01*
X96410Y417239D01*
X96087Y417255D01*
X95747Y417288D01*
X95375Y417304D01*
X95002D01*
X94598Y417320D01*
D02*
G37*
G36*
X93061Y296538D02*
X93045D01*
X92996D01*
X92931D01*
X92834D01*
X92721D01*
X92576D01*
X92414Y296522D01*
X92252D01*
X91847Y296506D01*
X91411Y296489D01*
X90957Y296457D01*
X90472Y296408D01*
X90456D01*
X90407D01*
X90343Y296392D01*
X90262Y296376D01*
X90148Y296360D01*
X90019Y296344D01*
X89874Y296311D01*
X89712Y296295D01*
X89356Y296214D01*
X88967Y296101D01*
X88579Y295988D01*
X88191Y295826D01*
X88175D01*
X88142Y295810D01*
X88094Y295777D01*
X88029Y295745D01*
X87835Y295632D01*
X87608Y295486D01*
X87333Y295308D01*
X87058Y295082D01*
X86799Y294807D01*
X86540Y294499D01*
Y294483D01*
X86508Y294467D01*
X86476Y294402D01*
X86443Y294337D01*
X86395Y294256D01*
X86346Y294143D01*
X86281Y294014D01*
X86217Y293884D01*
X86168Y293723D01*
X86104Y293545D01*
X86055Y293351D01*
X86006Y293140D01*
X85942Y292671D01*
X85909Y292153D01*
Y291975D01*
X85926Y291862D01*
X85942Y291700D01*
X85974Y291522D01*
X86006Y291328D01*
X86055Y291118D01*
X86120Y290891D01*
X86201Y290665D01*
X86281Y290422D01*
X86395Y290179D01*
X86540Y289937D01*
X86686Y289710D01*
X86864Y289484D01*
X87074Y289273D01*
X87091Y289257D01*
X87123Y289225D01*
X87188Y289176D01*
X87285Y289111D01*
X87398Y289030D01*
X87544Y288933D01*
X87705Y288836D01*
X87900Y288739D01*
X88110Y288642D01*
X88336Y288545D01*
X88595Y288448D01*
X88870Y288367D01*
X89178Y288302D01*
X89501Y288254D01*
X89841Y288221D01*
X90197Y288205D01*
X90213D01*
X90294D01*
X90391D01*
X90537Y288221D01*
X90699Y288238D01*
X90893Y288254D01*
X91103Y288286D01*
X91330Y288319D01*
X91799Y288432D01*
X92042Y288513D01*
X92268Y288610D01*
X92495Y288707D01*
X92705Y288836D01*
X92899Y288982D01*
X93061Y289144D01*
X93077Y289160D01*
X93093Y289192D01*
X93142Y289241D01*
X93190Y289322D01*
X93255Y289435D01*
X93320Y289548D01*
X93385Y289710D01*
X93465Y289872D01*
X93546Y290066D01*
X93611Y290292D01*
X93676Y290535D01*
X93740Y290810D01*
X93789Y291101D01*
X93837Y291425D01*
X93854Y291765D01*
X93870Y292137D01*
Y292412D01*
X93854Y292525D01*
Y292655D01*
X93837Y292800D01*
X93821Y293124D01*
X93773Y293496D01*
X93724Y293901D01*
X93659Y294321D01*
Y294337D01*
X93643Y294370D01*
Y294435D01*
X93611Y294515D01*
X93595Y294629D01*
X93562Y294758D01*
X93498Y295049D01*
X93417Y295389D01*
X93304Y295761D01*
X93190Y296150D01*
X93061Y296538D01*
D02*
G37*
G36*
X97138Y223405D02*
X86524D01*
X97154Y215720D01*
X97138Y223405D01*
D02*
G37*
G36*
X319392Y393403D02*
X309164D01*
X309141D01*
X309095D01*
X309025D01*
X308933Y393380D01*
X308655Y393333D01*
X308331Y393241D01*
X307961Y393079D01*
X307753Y392963D01*
X307544Y392847D01*
X307359Y392685D01*
X307151Y392523D01*
X306966Y392315D01*
X306781Y392084D01*
Y392061D01*
X306735Y392014D01*
X306688Y391945D01*
X306642Y391852D01*
X306572Y391713D01*
X306480Y391575D01*
X306318Y391204D01*
X306133Y390742D01*
X305971Y390233D01*
X305878Y389677D01*
X305832Y389053D01*
Y388914D01*
X305855Y388798D01*
Y388659D01*
X305878Y388520D01*
X305948Y388173D01*
X306063Y387780D01*
X306225Y387387D01*
X306457Y386993D01*
X306758Y386623D01*
X306804Y386577D01*
X306943Y386484D01*
X307151Y386345D01*
X307452Y386160D01*
X307845Y385998D01*
X308331Y385859D01*
X308910Y385767D01*
X309581Y385720D01*
X316083D01*
X316106D01*
X316175D01*
X316268D01*
X316407Y385744D01*
X316569D01*
X316754Y385767D01*
X317194Y385836D01*
X317656Y385952D01*
X318142Y386114D01*
X318582Y386345D01*
X318790Y386507D01*
X318975Y386669D01*
X319021Y386715D01*
X319068Y386762D01*
X319114Y386854D01*
X319184Y386970D01*
X319253Y387086D01*
X319345Y387248D01*
X319438Y387433D01*
X319508Y387664D01*
X319600Y387896D01*
X319669Y388173D01*
X319739Y388474D01*
X319785Y388821D01*
X319831Y389191D01*
X319878Y389585D01*
Y390325D01*
X319855Y390533D01*
Y390788D01*
X319831Y391066D01*
X319739Y391690D01*
Y391737D01*
X319716Y391829D01*
X319693Y391968D01*
X319669Y392153D01*
X319600Y392570D01*
X319554Y392778D01*
X319508Y392963D01*
X319392Y393403D01*
D02*
G37*
G36*
X316360Y354390D02*
X316013D01*
X314833D01*
Y354367D01*
X314810Y354320D01*
Y354205D01*
X314787Y354089D01*
X314764Y353927D01*
X314718Y353765D01*
X314671Y353325D01*
X314602Y352863D01*
X314533Y352353D01*
X314509Y351844D01*
X314486Y351382D01*
Y351220D01*
X314509Y351011D01*
X314533Y350780D01*
X314556Y350479D01*
X314625Y350132D01*
X314694Y349785D01*
X314810Y349415D01*
X314926Y349068D01*
X315111Y348697D01*
X315296Y348373D01*
X315551Y348073D01*
X315828Y347841D01*
X316175Y347633D01*
X316569Y347517D01*
X317008Y347471D01*
X317031D01*
X317124D01*
X317263Y347494D01*
X317448Y347517D01*
X317680Y347564D01*
X317911Y347656D01*
X318165Y347749D01*
X318443Y347887D01*
X318721Y348073D01*
X318975Y348304D01*
X319207Y348582D01*
X319438Y348906D01*
X319623Y349299D01*
X319762Y349762D01*
X319855Y350294D01*
X319878Y350896D01*
Y351081D01*
X319855Y351220D01*
Y351382D01*
X319831Y351567D01*
X319762Y351983D01*
X319646Y352423D01*
X319484Y352886D01*
X319253Y353279D01*
X319091Y353464D01*
X318929Y353626D01*
X318883Y353649D01*
X318744Y353742D01*
X318536Y353857D01*
X318212Y353996D01*
X318027Y354089D01*
X317795Y354158D01*
X317564Y354205D01*
X317309Y354274D01*
X317008Y354320D01*
X316708Y354367D01*
X316360Y354390D01*
D02*
G37*
G36*
X327282Y269121D02*
X318952D01*
Y264632D01*
X318975Y264470D01*
Y264262D01*
X319021Y264007D01*
X319045Y263753D01*
X319091Y263452D01*
X319230Y262850D01*
X319415Y262249D01*
X319693Y261693D01*
X319855Y261439D01*
X320040Y261207D01*
X320063Y261184D01*
X320086Y261161D01*
X320155Y261115D01*
X320248Y261022D01*
X320364Y260953D01*
X320503Y260860D01*
X320664Y260744D01*
X320873Y260652D01*
X321081Y260536D01*
X321335Y260444D01*
X321613Y260351D01*
X321914Y260259D01*
X322238Y260189D01*
X322585Y260143D01*
X322955Y260120D01*
X323372Y260097D01*
X323395D01*
X323464D01*
X323580D01*
X323719Y260120D01*
X323904Y260143D01*
X324112Y260166D01*
X324575Y260259D01*
X325061Y260397D01*
X325570Y260606D01*
X325801Y260744D01*
X326033Y260907D01*
X326218Y261115D01*
X326403Y261323D01*
Y261346D01*
X326449Y261369D01*
X326496Y261462D01*
X326542Y261554D01*
X326611Y261693D01*
X326681Y261855D01*
X326750Y262040D01*
X326843Y262249D01*
X326935Y262503D01*
X327005Y262804D01*
X327074Y263128D01*
X327144Y263475D01*
X327213Y263845D01*
X327236Y264262D01*
X327282Y264725D01*
Y269121D01*
D02*
G37*
G36*
X36847Y506844D02*
X36644D01*
D01*
X27491D01*
X30006D01*
X27491Y495000D01*
X29275D01*
X30366Y500150D01*
X34776D01*
X35081Y501555D01*
X30662D01*
X31485Y505438D01*
X36542D01*
X36847Y506844D01*
D02*
G37*
G36*
X60118D02*
X58390D01*
X56873Y499789D01*
X52260Y506844D01*
X50836D01*
X48321Y495000D01*
D01*
X60118D01*
X57604D01*
X60118Y506844D01*
D02*
G37*
G36*
X46999Y507029D02*
X36644D01*
D01*
X43236D01*
X42829Y507019D01*
X42635Y507001D01*
X42450Y506982D01*
X42274Y506955D01*
X42108Y506927D01*
X41960Y506899D01*
X41821Y506871D01*
X41692Y506844D01*
X41581Y506816D01*
X41489Y506788D01*
X41405Y506760D01*
X41341Y506742D01*
X41294Y506723D01*
X41267Y506714D01*
X41257D01*
X40952Y506585D01*
X40675Y506446D01*
X40425Y506289D01*
X40314Y506215D01*
X40213Y506150D01*
X40120Y506086D01*
X40046Y506021D01*
X39972Y505965D01*
X39917Y505910D01*
X39871Y505873D01*
X39834Y505845D01*
X39815Y505827D01*
X39806Y505817D01*
X39593Y505596D01*
X39399Y505364D01*
X39233Y505133D01*
X39094Y504921D01*
X39029Y504819D01*
X38974Y504736D01*
X38937Y504652D01*
X38891Y504578D01*
X38863Y504523D01*
X38844Y504486D01*
X38835Y504458D01*
X38826Y504449D01*
X38696Y504144D01*
X38586Y503839D01*
X38484Y503543D01*
X38447Y503404D01*
X38410Y503275D01*
X38373Y503155D01*
X38345Y503034D01*
X38317Y502942D01*
X38299Y502859D01*
X38280Y502785D01*
X38271Y502739D01*
X38262Y502702D01*
Y502692D01*
X36644Y495000D01*
X38391D01*
X39316Y499382D01*
X44373D01*
X43449Y495000D01*
X45233D01*
X46851Y502692D01*
X46879Y502822D01*
X46897Y502933D01*
X46916Y503044D01*
X46934Y503136D01*
X46943Y503219D01*
X46953Y503275D01*
X46962Y503321D01*
Y503330D01*
X46981Y503552D01*
X46990Y503654D01*
X46999Y503746D01*
Y503941D01*
X46990Y504199D01*
X46962Y504440D01*
X46916Y504671D01*
X46851Y504883D01*
X46786Y505087D01*
X46703Y505272D01*
X46620Y505438D01*
X46537Y505596D01*
X46444Y505725D01*
X46361Y505845D01*
X46278Y505947D01*
X46213Y506030D01*
X46148Y506104D01*
X46102Y506150D01*
X46074Y506178D01*
X46065Y506187D01*
X45880Y506335D01*
X45677Y506465D01*
X45464Y506576D01*
X45233Y506677D01*
X45002Y506751D01*
X44762Y506825D01*
X44530Y506881D01*
X44309Y506927D01*
X44087Y506955D01*
X43883Y506982D01*
X43707Y507001D01*
X43550Y507019D01*
X43421D01*
X43319Y507029D01*
X46999D01*
D01*
D02*
G37*
%LPD*%
G36*
X56448Y497755D02*
X55875Y495000D01*
X50031D01*
X52029Y504366D01*
X56448Y497755D01*
D02*
G37*
G36*
X43384Y505614D02*
X43569Y505605D01*
X43745Y505577D01*
X43902Y505540D01*
X44040Y505503D01*
X44170Y505466D01*
X44281Y505420D01*
X44383Y505374D01*
X44475Y505318D01*
X44549Y505272D01*
X44614Y505235D01*
X44660Y505198D01*
X44706Y505161D01*
X44734Y505133D01*
X44743Y505124D01*
X44752Y505115D01*
X44836Y505022D01*
X44910Y504911D01*
X44965Y504810D01*
X45020Y504699D01*
X45104Y504477D01*
X45159Y504273D01*
X45187Y504088D01*
X45205Y504005D01*
Y503941D01*
X45215Y503885D01*
Y503839D01*
Y503811D01*
Y503802D01*
X45205Y503617D01*
Y503534D01*
X45196Y503451D01*
X45187Y503386D01*
Y503340D01*
X45178Y503302D01*
Y503293D01*
X45150Y503099D01*
X45131Y503007D01*
X45122Y502924D01*
X45104Y502850D01*
X45094Y502794D01*
X45085Y502757D01*
Y502748D01*
X44678Y500788D01*
X39612D01*
X40028Y502748D01*
X40074Y502979D01*
X40139Y503192D01*
X40194Y503386D01*
X40250Y503552D01*
X40305Y503691D01*
X40333Y503756D01*
X40351Y503802D01*
X40370Y503839D01*
X40379Y503867D01*
X40388Y503885D01*
Y503894D01*
X40481Y504088D01*
X40582Y504255D01*
X40684Y504412D01*
X40786Y504542D01*
X40869Y504652D01*
X40934Y504736D01*
X40980Y504782D01*
X40999Y504800D01*
X41146Y504939D01*
X41304Y505059D01*
X41452Y505161D01*
X41599Y505244D01*
X41729Y505318D01*
X41821Y505364D01*
X41858Y505383D01*
X41886Y505392D01*
X41905Y505401D01*
X41914D01*
X42126Y505475D01*
X42339Y505531D01*
X42552Y505568D01*
X42746Y505596D01*
X42922Y505614D01*
X42996D01*
X43060Y505623D01*
X43180D01*
X43384Y505614D01*
D02*
G37*
D10*
X25250Y395760D02*
G03*
X25250Y395760I-1250J0D01*
G01*
X284740Y176510D02*
G03*
X284740Y176510I-1250J0D01*
G01*
D11*
X248507Y50455D02*
G03*
X233634Y50588I-7516J-8871D01*
G01*
X233493Y22273D02*
G03*
X248366Y22140I7516J8871D01*
G01*
X246446Y84758D02*
G03*
X246446Y84758I-254J0D01*
G01*
X230712Y90600D02*
G03*
X230712Y90600I-762J0D01*
G01*
X248540Y159920D02*
G03*
X248540Y149760I0J-5080D01*
G01*
Y180240D02*
G03*
X248540Y170080I0J-5080D01*
G01*
D02*
G03*
X248540Y159920I0J-5080D01*
G01*
X248493Y22273D02*
G03*
X263366Y22140I7516J8871D01*
G01*
X263508Y50455D02*
G03*
X248634Y50588I-7516J-8871D01*
G01*
X188799Y91508D02*
G03*
X188666Y76634I8871J-7516D01*
G01*
X216981Y76493D02*
G03*
X217114Y91366I-8871J7516D01*
G01*
X188799Y76508D02*
G03*
X188666Y61634I8871J-7516D01*
G01*
X216981Y61492D02*
G03*
X217114Y76366I-8871J7516D01*
G01*
X188799Y61508D02*
G03*
X188666Y46634I8871J-7516D01*
G01*
X216981Y46493D02*
G03*
X217114Y61366I-8871J7516D01*
G01*
X248620Y31792D02*
X248620Y22394D01*
X233380Y31792D02*
X233380Y22394D01*
X233380Y40682D02*
X233380Y50334D01*
X248620Y50080D02*
X248620Y40682D01*
X218060Y139600D02*
X233300D01*
X218060D02*
Y190400D01*
X233300D01*
X258700D02*
X273940D01*
Y139600D02*
Y190400D01*
X258700Y139600D02*
X273940D01*
X248540Y144680D02*
Y149760D01*
Y180240D02*
Y185320D01*
X240920Y190400D02*
X251080D01*
X240920Y139600D02*
X251080D01*
X218060Y103999D02*
Y136003D01*
X269060Y103999D02*
Y136003D01*
X249910D02*
X269060D01*
X218060D02*
X237210D01*
X218060Y103997D02*
X237210D01*
X249910D02*
X269060D01*
X338997Y148302D02*
X371001D01*
X338997Y199302D02*
X371001D01*
X338997Y180152D02*
Y199302D01*
Y148302D02*
Y167452D01*
X371003Y148302D02*
Y167452D01*
Y180152D02*
Y199302D01*
X291000Y7451D02*
X375000D01*
Y137449D01*
X291000D02*
X375000D01*
X290900Y13850D02*
X291000Y7451D01*
X290900Y13850D02*
X311792Y13852D01*
Y129854D01*
X291000Y129850D02*
X311792Y129854D01*
X291000Y129850D02*
Y137449D01*
X263620Y40682D02*
Y50080D01*
X248380Y40682D02*
Y50334D01*
X248380Y31792D02*
X248380Y22394D01*
X263620D02*
X263620Y31792D01*
X207208Y76380D02*
X216606Y76380D01*
X207208Y91620D02*
X216860Y91620D01*
X188920D02*
X198318Y91620D01*
X188920Y76380D02*
X198318Y76380D01*
X207208Y61380D02*
X216606D01*
X207208Y76620D02*
X216860D01*
X188920D02*
X198318D01*
X188920Y61380D02*
X198318Y61380D01*
X207208Y46380D02*
X216606Y46380D01*
X207208Y61620D02*
X216860Y61620D01*
X188920D02*
X198318D01*
X188920Y46380D02*
X198318D01*
D12*
X47000Y418000D02*
X55000D01*
Y408000D02*
Y418000D01*
X25000D02*
X33000D01*
X25000Y408000D02*
Y418000D01*
X27300Y442610D02*
X61590D01*
Y487390D01*
X27300D02*
X61590D01*
X27300Y442610D02*
Y487390D01*
X80027Y37891D02*
X86391Y31527D01*
X80027Y37891D02*
X93109Y50973D01*
X86391Y31527D02*
X99473Y44609D01*
X93109Y50973D02*
X99473Y44609D01*
X93109Y64223D02*
X99473Y57859D01*
X86391Y44777D02*
X99473Y57859D01*
X80027Y51141D02*
X93109Y64223D01*
X80027Y51141D02*
X86391Y44777D01*
X80678Y113856D02*
X89060D01*
X80678D02*
Y132144D01*
X89060Y113856D02*
Y132144D01*
X80678Y132144D02*
X89060Y132144D01*
X305080Y144500D02*
Y175500D01*
X294920Y144500D02*
Y175500D01*
Y144500D02*
X305080D01*
X294920Y175500D02*
X305080D01*
X87272Y89410D02*
X93199Y83483D01*
X80267Y70551D02*
X93199Y83483D01*
X74340Y76478D02*
X87272Y89410D01*
X74340Y76478D02*
X80267Y70551D01*
X74272Y64590D02*
X80199Y70517D01*
X61340Y77522D02*
X74272Y64590D01*
X67267Y83449D02*
X80199Y70517D01*
X61340Y77522D02*
X67267Y83449D01*
X93272Y83590D02*
X99199Y89517D01*
X80340Y96522D02*
X93272Y83590D01*
X86267Y102449D02*
X99199Y89517D01*
X80340Y96522D02*
X86267Y102449D01*
X93483Y77449D02*
X99410Y71522D01*
X86478Y58590D02*
X99410Y71522D01*
X80551Y64517D02*
X93483Y77449D01*
X80551Y64517D02*
X86478Y58590D01*
X104144Y18190D02*
Y26572D01*
X85856Y18190D02*
X104144D01*
X85856Y26572D02*
X104144D01*
X85856Y18190D02*
Y26572D01*
X268856D02*
X268856Y18190D01*
X268856Y26572D02*
X287144D01*
X268856Y18190D02*
X287144D01*
X287144Y26572D01*
X165356D02*
X165356Y18190D01*
X165356Y26572D02*
X183644D01*
X165356Y18190D02*
X183644D01*
X183644Y26572D01*
X187856Y137572D02*
X187856Y129190D01*
X187856Y137572D02*
X206144D01*
X187856Y129190D02*
X206144D01*
X206144Y137572D01*
X187856Y120190D02*
X187856Y128572D01*
X206144D01*
X187856Y120190D02*
X206144D01*
X206144Y128572D01*
X168428Y142144D02*
X176810Y142144D01*
Y123856D02*
Y142144D01*
X168428Y123856D02*
Y142144D01*
Y123856D02*
X176810Y123856D01*
X129190D02*
X137572Y123856D01*
X129190Y123856D02*
Y142144D01*
X137572Y123856D02*
X137572Y142144D01*
X129190Y142144D02*
X137572Y142144D01*
X158334Y120923D02*
X166716D01*
X166970D02*
Y129305D01*
X187856Y104428D02*
X187856Y112810D01*
X206144D01*
X187856Y104428D02*
X206144D01*
X206144Y112810D02*
X206144Y104428D01*
X158144Y18190D02*
X158144Y26572D01*
X139856Y18190D02*
X158144D01*
X139856Y26572D02*
X158144D01*
X139856D02*
X139856Y18190D01*
X108428Y132144D02*
X116810D01*
Y113856D02*
Y132144D01*
X108428Y113856D02*
Y132144D01*
Y113856D02*
X116810D01*
X116928Y132144D02*
X125310D01*
X125310Y113856D02*
X125310Y132144D01*
X116928Y113856D02*
X116928Y132144D01*
X116928Y113856D02*
X125310D01*
X98894Y104690D02*
X98894Y113072D01*
X80606Y104690D02*
X98894D01*
X80606Y113072D02*
X98894D01*
X80606D02*
X80606Y104690D01*
X97678Y113856D02*
X106060Y113856D01*
X97678Y113856D02*
Y132144D01*
X106060Y113856D02*
Y132144D01*
X97678Y132144D02*
X106060Y132144D01*
X89190Y113856D02*
X97572Y113856D01*
X89190Y113856D02*
Y132144D01*
X97572Y132144D02*
X97572Y113856D01*
X89190Y132144D02*
X97572Y132144D01*
X206144Y41310D02*
X206144Y32928D01*
X187856D02*
X206144D01*
X187856Y41310D02*
X206144D01*
X187856Y32928D02*
X187856Y41310D01*
X272856Y117856D02*
X281238Y117856D01*
X272856Y117856D02*
Y136144D01*
X281238Y117856D02*
Y136144D01*
X272856Y136144D02*
X281238Y136144D01*
X325190Y178144D02*
X333572Y178144D01*
Y159856D02*
Y178144D01*
X325190Y159856D02*
Y178144D01*
Y159856D02*
X333572Y159856D01*
X301856Y199572D02*
X301856Y191190D01*
X301856Y199572D02*
X320144D01*
X301856Y191190D02*
X320144D01*
X320144Y199572D01*
Y182428D02*
Y190810D01*
X301856Y182428D02*
X320144D01*
X301856Y190810D02*
X320144D01*
X301856Y182428D02*
Y190810D01*
X297144D02*
X297144Y182428D01*
X278856D02*
X297144D01*
X278856Y190810D02*
X297144D01*
X278856Y182428D02*
X278856Y190810D01*
X325190Y199572D02*
X333572Y199572D01*
Y181284D02*
Y199572D01*
X325190Y181284D02*
Y199572D01*
Y181284D02*
X333572Y181284D01*
X272856Y112572D02*
X272856Y104190D01*
X272856Y112572D02*
X291144D01*
X272856Y104190D02*
X291144D01*
X291144Y112572D01*
D13*
X177851Y101849D02*
Y106601D01*
X105649Y34399D02*
Y39151D01*
Y34399D02*
X110401D01*
X177851D02*
Y39151D01*
X173099Y34399D02*
X177851D01*
X105649Y106601D02*
X110401D01*
X173099D02*
X177851D01*
D14*
X356042Y497608D02*
Y517928D01*
X335722Y471192D02*
Y514372D01*
X368996Y501418D02*
Y521484D01*
X370520Y503196D02*
Y516404D01*
X370266Y516912D02*
X370266Y502942D01*
X370012Y517420D02*
X370012Y502688D01*
X369758Y502434D02*
Y518182D01*
X369504Y501926D02*
Y519452D01*
X369250Y501672D02*
Y520468D01*
X368742Y501418D02*
Y539518D01*
X368488Y501164D02*
Y538502D01*
X368234Y500910D02*
Y536724D01*
X367980Y500656D02*
Y535454D01*
X367726Y500656D02*
Y534692D01*
X367472Y500402D02*
Y533422D01*
X367218Y500402D02*
Y531390D01*
X366964Y500402D02*
Y530120D01*
X366710Y500148D02*
Y529358D01*
X366456Y500148D02*
Y527834D01*
X366202Y499894D02*
Y526056D01*
X365948Y499894D02*
Y525294D01*
X365694Y499640D02*
Y524532D01*
X365440Y499640D02*
Y523516D01*
X365186Y499640D02*
Y523008D01*
X364932Y499386D02*
Y522500D01*
X364678Y499386D02*
Y522246D01*
X364424Y499386D02*
Y521738D01*
X364170Y499386D02*
Y521484D01*
X363916Y499386D02*
Y521230D01*
X363662Y499132D02*
Y520976D01*
X363408Y499132D02*
X363408Y520722D01*
X363154Y499132D02*
X363154Y520722D01*
X362900Y499132D02*
Y520468D01*
X362646Y498878D02*
Y520214D01*
X362392Y498878D02*
Y519960D01*
X362138Y498878D02*
Y519960D01*
X361884Y498878D02*
Y519706D01*
X361630Y498624D02*
Y519706D01*
X361376Y498624D02*
Y519452D01*
X361122Y498624D02*
Y519452D01*
X360868Y519198D02*
X360868Y498624D01*
X360614D02*
Y519198D01*
X360360Y498624D02*
Y518944D01*
X360106Y498370D02*
Y518944D01*
X359852D02*
X359852Y498370D01*
X359598Y518690D02*
X359598Y498370D01*
X359344Y498370D02*
Y518690D01*
X359090Y498370D02*
X359090Y518690D01*
X358836Y498370D02*
X358836Y518690D01*
X358582Y498370D02*
Y518436D01*
X358328Y498116D02*
Y518436D01*
X358074Y498116D02*
Y518182D01*
X357820Y498116D02*
Y518182D01*
X357566Y497862D02*
Y518182D01*
X357312Y497862D02*
Y518182D01*
X357058Y497862D02*
Y517928D01*
X356804Y497862D02*
Y517928D01*
X356550Y497608D02*
Y517928D01*
X356296Y497608D02*
Y517928D01*
X371282Y504466D02*
Y514626D01*
X371028Y504212D02*
Y515134D01*
X370774Y503704D02*
Y515642D01*
X348676Y448586D02*
Y516658D01*
X351216Y443760D02*
Y516912D01*
X350962Y444522D02*
Y516912D01*
X350708Y444776D02*
Y516912D01*
X350454Y445284D02*
Y516912D01*
X350200Y445792D02*
Y516912D01*
X349946Y446300D02*
Y516912D01*
X349692Y446808D02*
Y516912D01*
X349438Y447316D02*
X349438Y516912D01*
X349184Y447824D02*
Y516912D01*
X348930Y448078D02*
Y516912D01*
X348422Y449094D02*
Y516658D01*
X348168D02*
X348168Y449602D01*
X347914Y449856D02*
Y516658D01*
X347660Y516658D02*
X347660Y450364D01*
X347406Y450872D02*
Y516658D01*
X347152Y451380D02*
Y516404D01*
X346898Y451634D02*
Y516404D01*
X346644Y452142D02*
Y516404D01*
X346390Y452650D02*
Y516404D01*
X346136Y452904D02*
Y516404D01*
X345882Y453158D02*
Y516404D01*
X345628Y453666D02*
Y516150D01*
X345374Y454174D02*
Y516150D01*
X345120Y454428D02*
Y516150D01*
X344866Y454936D02*
Y516150D01*
X344612Y455190D02*
Y516150D01*
X344358Y455698D02*
Y516150D01*
X344104Y455952D02*
Y515896D01*
X343850Y456460D02*
Y515896D01*
X343596Y456968D02*
Y515896D01*
X343342Y457222D02*
Y515896D01*
X343088Y457476D02*
Y515896D01*
X342834Y457984D02*
Y515896D01*
X342580Y458492D02*
Y515896D01*
X342326Y458746D02*
Y515896D01*
X342072Y459000D02*
X342072Y515896D01*
X341818Y459508D02*
Y515896D01*
X341564Y459762D02*
Y515642D01*
X341310Y460270D02*
Y515642D01*
X341056D02*
X341056Y460524D01*
X340802Y515642D02*
X340802Y461032D01*
X340548Y461286D02*
Y515388D01*
X340294Y461794D02*
Y515388D01*
X340040Y462048D02*
Y515388D01*
X339786Y462556D02*
Y515388D01*
X339532Y462810D02*
Y515134D01*
X339278Y463318D02*
Y515134D01*
X339024Y463572D02*
X339024Y515134D01*
X338770Y464334D02*
X338770Y515134D01*
X338516D02*
X338516Y464588D01*
X338262Y515134D02*
X338262Y465096D01*
X338008Y465604D02*
Y514880D01*
X355788Y497608D02*
Y517674D01*
X355534Y497354D02*
Y517674D01*
X355280Y497354D02*
Y517674D01*
X355026Y497354D02*
Y517674D01*
X354772Y497100D02*
Y517674D01*
X354518Y497100D02*
Y517674D01*
X354264Y496846D02*
Y517420D01*
X354010Y496846D02*
Y517420D01*
X353756Y496592D02*
Y517420D01*
X353502Y496592D02*
X353502Y517420D01*
X353248Y496338D02*
X353248Y517166D01*
X352994Y496084D02*
Y517166D01*
X352740Y495830D02*
Y517166D01*
X352486Y495576D02*
Y517166D01*
X352232Y495322D02*
X352232Y517166D01*
X351978Y495068D02*
X351978Y517166D01*
X351724Y494560D02*
X351724Y517166D01*
X351470Y516912D02*
X351470Y493544D01*
X337754Y466112D02*
Y514880D01*
X337500Y466620D02*
Y514880D01*
X337246Y467128D02*
Y514880D01*
X336992Y467636D02*
Y514880D01*
X336738Y468398D02*
X336738Y514626D01*
X336484Y468906D02*
Y514626D01*
X336230Y469414D02*
Y514626D01*
X335976Y470430D02*
Y514372D01*
X328356Y479574D02*
Y511832D01*
X330388Y480082D02*
Y512848D01*
X335468Y471700D02*
Y514372D01*
X335214Y472462D02*
Y514118D01*
X334960Y473732D02*
Y514118D01*
X334706Y474748D02*
Y514118D01*
X334452Y475256D02*
Y514118D01*
X334198Y476780D02*
Y514118D01*
X333944Y477796D02*
Y513864D01*
X333690Y478812D02*
Y513864D01*
X333436D02*
X333436Y479828D01*
X333182Y480082D02*
Y513610D01*
X332928Y480336D02*
Y513610D01*
X332674Y513610D02*
X332674Y480590D01*
X332420D02*
Y513356D01*
X332166Y480590D02*
Y513356D01*
X331912Y480590D02*
Y513356D01*
X331658Y480336D02*
Y513102D01*
X331404Y480336D02*
Y513102D01*
X331150Y480336D02*
Y513102D01*
X330896Y480336D02*
Y513102D01*
X330642Y480082D02*
Y512848D01*
X330134Y480082D02*
Y512594D01*
X329880D02*
X329880Y480082D01*
X329626Y512340D02*
X329626Y479828D01*
X329372Y479828D02*
Y512340D01*
X329118Y479828D02*
Y512086D01*
X328864Y479574D02*
X328864Y512086D01*
X328610Y479574D02*
Y512086D01*
X328102Y479574D02*
Y511832D01*
X327848Y479574D02*
Y511832D01*
X327594Y479320D02*
Y511578D01*
X327340Y511324D02*
X327340Y479320D01*
X327086Y511324D02*
X327086Y479320D01*
X326832D02*
Y511070D01*
X326578Y479066D02*
Y511070D01*
X326324Y479066D02*
Y511070D01*
X326070Y478812D02*
Y510816D01*
X325816Y478812D02*
Y510562D01*
X325562Y478558D02*
Y510562D01*
X325308Y478558D02*
Y510308D01*
X325054Y478558D02*
Y510308D01*
X324800Y478558D02*
Y510054D01*
X324546Y478304D02*
Y510054D01*
X324292Y478304D02*
Y509800D01*
X324038Y478050D02*
Y509546D01*
X323784Y477796D02*
Y509546D01*
X323530Y477796D02*
X323530Y509292D01*
X323276Y477796D02*
X323276Y509292D01*
X323022Y477542D02*
Y509038D01*
X322768Y477542D02*
Y508784D01*
X322514Y477288D02*
Y508784D01*
X322260Y477288D02*
Y508530D01*
X322006Y477034D02*
Y508276D01*
X321752Y476780D02*
Y508276D01*
X321498Y476780D02*
Y508022D01*
X321244Y476780D02*
Y507768D01*
X320990Y476526D02*
Y507514D01*
X320736Y476526D02*
Y507260D01*
X320482Y476272D02*
X320482Y507260D01*
X320228Y476018D02*
Y507006D01*
X319974Y476018D02*
Y506752D01*
X319720Y475764D02*
Y506498D01*
X319466Y475764D02*
Y506498D01*
X319212Y475510D02*
Y506244D01*
X318958Y475256D02*
Y505990D01*
X318704Y475256D02*
Y505736D01*
X318450Y475002D02*
X318450Y505482D01*
X318196Y474748D02*
Y505228D01*
X317942Y474748D02*
Y504974D01*
X317688Y474494D02*
Y504466D01*
X317434Y474494D02*
Y504466D01*
X356042Y433854D02*
Y471192D01*
X315402Y472970D02*
Y501672D01*
X368996Y524786D02*
Y540534D01*
X369758Y533676D02*
Y543582D01*
X369504Y528596D02*
Y543074D01*
X369250Y526564D02*
Y542058D01*
X357312Y466366D02*
X357312Y430806D01*
X357058Y431314D02*
Y467636D01*
X356804Y432076D02*
Y468144D01*
X356550Y432584D02*
Y468906D01*
X356296Y433092D02*
Y470176D01*
X361122Y433092D02*
Y448586D01*
X360868Y432076D02*
Y450618D01*
X360614Y431568D02*
Y451888D01*
X360360Y431060D02*
Y452904D01*
X360106Y430298D02*
Y454682D01*
X359852Y429790D02*
Y455952D01*
X359598Y429536D02*
X359598Y456968D01*
X359344Y429282D02*
Y457984D01*
X359090Y428774D02*
Y459508D01*
X358836Y460524D02*
X358836Y428520D01*
X358582Y428012D02*
Y461032D01*
X358328Y428520D02*
Y462302D01*
X358074Y428774D02*
Y463572D01*
X357820Y429790D02*
Y464334D01*
X357566Y430298D02*
Y465096D01*
X355788Y434362D02*
X355788Y471954D01*
X355534Y434870D02*
Y472970D01*
X355280Y435378D02*
Y474240D01*
X355026Y436140D02*
Y475256D01*
X354772Y436648D02*
Y476018D01*
X354518Y437156D02*
Y477288D01*
X354264Y437664D02*
Y478558D01*
X354010Y438172D02*
Y479320D01*
X353756Y438934D02*
Y479828D01*
X353502Y439188D02*
Y481098D01*
X353248Y439696D02*
Y482114D01*
X352994Y440458D02*
Y482876D01*
X352740Y440966D02*
Y483638D01*
X352486Y441220D02*
Y484908D01*
X352232Y485924D02*
X352232Y441982D01*
X351978Y442490D02*
Y486686D01*
X351724Y442744D02*
Y487956D01*
X351470Y443252D02*
Y489988D01*
X348676Y428520D02*
Y441728D01*
X350962Y432838D02*
Y436648D01*
X350708Y431568D02*
Y437664D01*
X350454Y430552D02*
Y438172D01*
X350200Y430298D02*
Y438680D01*
X349946Y429790D02*
Y438934D01*
X349692Y429282D02*
Y439696D01*
X349438Y428774D02*
Y440204D01*
X349184Y428520D02*
Y440712D01*
X348930Y428012D02*
Y441220D01*
X348422Y429282D02*
Y442490D01*
X348168Y430044D02*
Y442744D01*
X347914Y430552D02*
Y443252D01*
X347660Y431060D02*
X347660Y443760D01*
X347406Y431822D02*
Y444268D01*
X347152Y432330D02*
Y444776D01*
X346898Y432838D02*
Y445284D01*
X346644Y433346D02*
Y445792D01*
X341056Y445030D02*
Y455444D01*
X340802Y445538D02*
Y455952D01*
X340548Y446046D02*
Y455952D01*
X340294Y446554D02*
Y456460D01*
X340040Y456968D02*
X340040Y446808D01*
X339786Y447570D02*
Y457222D01*
X339532Y448078D02*
Y457730D01*
X339278Y448332D02*
Y457984D01*
X339024Y448840D02*
Y458492D01*
X338770Y449348D02*
Y458746D01*
X338516Y459000D02*
X338516Y449602D01*
X338262Y450110D02*
Y459762D01*
X338008Y450618D02*
Y460016D01*
X337754Y451126D02*
Y460270D01*
X337500Y451380D02*
Y460778D01*
X337246Y451888D02*
Y461286D01*
X336992Y452396D02*
Y461540D01*
X336738Y452904D02*
Y462048D01*
X336484Y453158D02*
X336484Y462556D01*
X336230Y453412D02*
Y463064D01*
X342072Y442998D02*
Y453920D01*
X341818Y443760D02*
Y454174D01*
X341564Y444268D02*
Y454428D01*
X341310Y444522D02*
Y454936D01*
X331404Y460778D02*
Y476526D01*
X331150Y461286D02*
Y476780D01*
X330896Y461540D02*
Y476780D01*
X330642Y461794D02*
Y476780D01*
X330388Y462302D02*
Y476780D01*
X330134Y462810D02*
Y476780D01*
X329880Y463064D02*
Y476780D01*
X329626Y463572D02*
Y476526D01*
X329372Y464080D02*
Y476526D01*
X329118Y464588D02*
X329118Y476526D01*
X328864Y464842D02*
Y476272D01*
X328610Y465350D02*
Y476272D01*
X328356Y465858D02*
Y476272D01*
X328102Y466366D02*
Y476272D01*
X327848Y476018D02*
X327848Y466620D01*
X327594Y467382D02*
Y476018D01*
X327340Y468144D02*
Y476018D01*
X327086Y468652D02*
Y476018D01*
X326832Y469160D02*
Y476018D01*
X326578Y469922D02*
Y476018D01*
X326324Y470938D02*
Y475764D01*
X326070Y471446D02*
X326070Y475764D01*
X317180Y474240D02*
Y503958D01*
X316926Y473986D02*
Y503704D01*
X316672Y503450D02*
X316672Y473986D01*
X316418Y473732D02*
Y503196D01*
X316164Y473478D02*
Y502688D01*
X315910Y473478D02*
Y502434D01*
X315656Y473224D02*
Y501926D01*
X331912Y460016D02*
Y474240D01*
X331658Y460270D02*
Y475510D01*
X325816Y475510D02*
X325816Y471954D01*
X325562Y473224D02*
Y475510D01*
X308036Y467636D02*
Y479320D01*
X315148Y472970D02*
Y501164D01*
X314894Y472716D02*
Y500656D01*
X314640Y472462D02*
Y500402D01*
X314386Y472208D02*
Y499894D01*
X314132Y472208D02*
X314132Y499132D01*
X313878Y471954D02*
Y498624D01*
X313624Y471954D02*
Y498116D01*
X313370Y471700D02*
Y497354D01*
X313116Y471446D02*
Y496084D01*
X312862Y471192D02*
Y495322D01*
X312608Y470938D02*
Y494306D01*
X312354Y470938D02*
Y491258D01*
X312100Y470684D02*
Y487194D01*
X311846Y470430D02*
Y486686D01*
X311592Y470176D02*
Y485924D01*
X311338Y470176D02*
Y485162D01*
X311084Y469922D02*
Y484654D01*
X310830Y469922D02*
Y484400D01*
X310576Y469414D02*
Y483638D01*
X310322Y483130D02*
X310322Y469414D01*
X310068Y469160D02*
Y482622D01*
X309814Y468906D02*
Y482368D01*
X309560Y468906D02*
Y481860D01*
X309306Y468652D02*
Y481352D01*
X309052Y468398D02*
Y480844D01*
X308798Y468144D02*
Y480590D01*
X308544Y467890D02*
Y480082D01*
X308290Y467890D02*
Y479574D01*
X307782Y467382D02*
Y478812D01*
X307528Y467128D02*
Y478558D01*
X307274Y467128D02*
Y478050D01*
X307020Y466874D02*
Y477796D01*
X306766Y466620D02*
Y477288D01*
X306512Y466366D02*
Y476780D01*
X306258Y466366D02*
Y476526D01*
X306004Y466112D02*
Y476272D01*
X305750Y465858D02*
Y475764D01*
X305496Y465604D02*
Y475510D01*
X305242Y465350D02*
Y475002D01*
X304988Y465350D02*
Y474748D01*
X304734Y465096D02*
Y474240D01*
X304480Y473986D02*
X304480Y464842D01*
X335722Y454428D02*
Y463826D01*
X295082Y457984D02*
Y461794D01*
X370266Y541804D02*
Y544598D01*
X370012Y537740D02*
Y544090D01*
X372044Y507260D02*
Y511832D01*
X371790Y506498D02*
Y512848D01*
X371536Y505482D02*
Y513864D01*
X325308Y474240D02*
Y475256D01*
X325054Y474494D02*
Y475002D01*
X335976Y453920D02*
Y463318D01*
X335468Y454682D02*
Y464334D01*
X335214Y465096D02*
X335214Y455190D01*
X334960Y455444D02*
Y465350D01*
X334706Y455952D02*
Y465858D01*
X334452Y466620D02*
X334452Y456206D01*
X334198Y456714D02*
Y467382D01*
X333944Y456968D02*
Y467890D01*
X333690Y457476D02*
Y468398D01*
X333436Y457730D02*
Y469414D01*
X333182Y458238D02*
Y470176D01*
X332928Y458492D02*
Y470684D01*
X332674Y471700D02*
X332674Y458746D01*
X332420Y459254D02*
Y472970D01*
X332166Y459762D02*
Y473478D01*
X304226Y464588D02*
Y473732D01*
X303972Y464334D02*
Y473224D01*
X303718Y464334D02*
Y472970D01*
X303464Y464080D02*
Y472716D01*
X303210Y463826D02*
Y472208D01*
X302956Y471954D02*
X302956Y463572D01*
X302702Y471700D02*
X302702Y463318D01*
X302448D02*
Y471192D01*
X302194Y463064D02*
Y471192D01*
X301940Y462810D02*
Y470684D01*
X301686Y462556D02*
Y470430D01*
X301432Y462556D02*
Y470176D01*
X301178Y462302D02*
Y469668D01*
X300924Y462048D02*
Y469414D01*
X300670Y461794D02*
Y469160D01*
X300416Y461540D02*
Y468906D01*
X300162Y461286D02*
Y468398D01*
X299908Y461286D02*
Y468144D01*
X299654Y467890D02*
X299654Y461032D01*
X299400Y460778D02*
Y467636D01*
X299146Y460524D02*
Y467382D01*
X298892Y460524D02*
X298892Y466874D01*
X298638Y460270D02*
Y466620D01*
X298384Y460016D02*
Y466366D01*
X298130Y459762D02*
Y465858D01*
X297876Y459762D02*
Y465604D01*
X297622Y459508D02*
Y465350D01*
X297368Y459254D02*
Y465096D01*
X297114Y459000D02*
X297114Y464588D01*
X296860Y459000D02*
Y464334D01*
X296606Y458746D02*
Y464080D01*
X296352Y458746D02*
Y463572D01*
X296098Y458492D02*
Y463318D01*
X295844Y458492D02*
Y462810D01*
X295590Y458238D02*
Y462556D01*
X295336Y458238D02*
Y462302D01*
X294828Y457984D02*
Y461540D01*
X294574Y457984D02*
Y461032D01*
X294320Y458238D02*
Y460524D01*
X294066Y458238D02*
Y459762D01*
X293812Y458492D02*
Y459508D01*
X361376Y434616D02*
Y446300D01*
X361884Y437918D02*
Y441728D01*
X361630Y435632D02*
Y444522D01*
X346390Y434108D02*
Y446300D01*
X346136Y434616D02*
Y446554D01*
X345882Y435124D02*
Y447316D01*
X345628Y435632D02*
Y447824D01*
X345374Y436394D02*
Y448078D01*
X345120Y436902D02*
Y448586D01*
X344866Y437156D02*
X344866Y449094D01*
X344612Y437918D02*
X344612Y449602D01*
X344358Y438680D02*
Y449856D01*
X344104Y438934D02*
Y450364D01*
X343850Y439442D02*
Y450872D01*
X343596Y439950D02*
Y451380D01*
X343342Y440712D02*
Y451634D01*
X343088Y440966D02*
Y452142D01*
X342834Y441728D02*
Y452650D01*
X342580Y442236D02*
Y452904D01*
X342326Y442744D02*
Y453158D01*
D15*
X116150Y139210D02*
X118690D01*
X116150Y156990D02*
X118690D01*
D16*
X116150D02*
X116150Y139210D01*
X105990Y156990D02*
X116150D01*
X118690Y139210D02*
Y156990D01*
X80080D02*
X90750D01*
X80080Y139210D02*
Y156990D01*
X105990Y139210D02*
X116150D01*
X80590D02*
X90750D01*
X244830Y113650D02*
Y126350D01*
X242290Y113650D02*
Y126350D01*
X238480Y120000D02*
X242290D01*
X244830D02*
X248640D01*
X348650Y175072D02*
X361350D01*
X348650Y172532D02*
X361350D01*
X355000Y168722D02*
Y172532D01*
Y175072D02*
Y178882D01*
X127748Y518855D02*
Y524189D01*
X118858Y518855D02*
X127748D01*
X94728D02*
X94728Y523935D01*
X94728Y518855D02*
X105142D01*
X94728Y555177D02*
X103110D01*
X94728Y549843D02*
Y555177D01*
X127748Y550097D02*
Y555177D01*
X120636D02*
X127748D01*
D17*
X243398Y89750D02*
X254574Y89750D01*
X243398Y59750D02*
X254574Y59750D01*
Y89750D01*
X243398Y59750D02*
Y89750D01*
D18*
X139792Y122193D02*
X139792Y154705D01*
X165954D01*
X165954Y122193D02*
X165954Y154705D01*
X139792Y122193D02*
X165954D01*
D19*
X304664Y26331D02*
X302998Y27997D01*
X299666D01*
X298000Y26331D01*
Y24664D01*
X299666Y22998D01*
X302998D01*
X304664Y21332D01*
Y19666D01*
X302998Y18000D01*
X299666D01*
X298000Y19666D01*
X304664Y50581D02*
X302998Y52247D01*
X299666D01*
X298000Y50581D01*
Y43916D01*
X299666Y42250D01*
X302998D01*
X304664Y43916D01*
Y47248D01*
X301332D01*
X298000Y76497D02*
Y69832D01*
X301332Y66500D01*
X304664Y69832D01*
Y76497D01*
X298000Y100747D02*
X304664D01*
X301332D01*
Y90750D01*
X298000Y115000D02*
Y124997D01*
X302998D01*
X304664Y123331D01*
Y119998D01*
X302998Y118332D01*
X298000D01*
X301332D02*
X304664Y115000D01*
M02*
