M48
;Layer_Color=9474304
;FILE_FORMAT=4:4
METRIC,LZ
;TYPE=PLATED
T1F00S00C0.3000
T2F00S00C0.4000
T3F00S00C0.5000
%
T01
X0000675Y0000725
X00007Y00014
X0001275Y0001525
X0002
X0001325Y000235
X0001575Y0003175
X00023Y00032
X0003Y00031
X00035Y00035
X00041Y00034
X00038Y00041
X00035Y0005675
Y0007
Y00085
Y00099
Y00117
Y00131
Y0014475
X0004825Y001445
X00065Y00114
X00088Y0011475
X0010225Y0011025
X00101Y00102
X00108Y00104
X00111Y000885
X0011625Y000755
X00095Y000785
Y00068
Y000575
X0008225
X000825Y00068
Y000785
X0007
Y00068
Y000575
X000665Y00033
X0005975Y0003725
X0008025Y0003325
X000895
X00091Y0002425
X000795Y000215
X000495Y0002
X00007Y00033
Y0004
X00118Y000455
X00153Y00031
Y00008
X00154Y00133
X00143
X00151Y00144
X00117Y00131
X00111
X00105
X0010025Y0013375
T02
X00075Y0002725
X000495Y0007175
X0004975Y0009675
X0007475Y001025
X0012625
Y00096
X0014225Y0011375
X0014925
X0015225Y00045
X0014575
X00123Y00055
T03
X00021Y000235
X00149Y0001985
Y0007065
Y0009605
M30
