G04*
G04 #@! TF.GenerationSoftware,Altium Limited,Altium Designer,20.0.1 (14)*
G04*
G04 Layer_Physical_Order=1*
G04 Layer_Color=255*
%FSLAX44Y44*%
%MOMM*%
G71*
G01*
G75*
%ADD12C,0.1800*%
%ADD18R,0.5080X0.5080*%
%ADD19R,0.5080X0.5080*%
%ADD20C,0.5000*%
%ADD21R,0.8000X1.5240*%
%ADD22R,0.8000X0.3302*%
%ADD23R,0.3302X0.8000*%
%ADD24R,3.8000X3.8000*%
%ADD25R,1.7000X0.8000*%
%ADD26R,0.7000X0.7000*%
%ADD27R,0.7000X0.5800*%
%ADD28R,1.6000X1.6000*%
%ADD29R,1.2000X1.0000*%
%ADD30R,1.4500X0.5500*%
%ADD31R,1.4500X0.5500*%
%ADD32R,0.7620X0.7620*%
%ADD33R,0.7620X0.7620*%
%ADD34C,0.5000*%
%ADD35C,0.3300*%
%ADD36C,0.1600*%
%ADD37C,0.3000*%
%ADD38C,0.4000*%
%ADD39C,0.2000*%
%ADD40R,1.4500X1.3750*%
%ADD41C,0.6000*%
G36*
X128609Y138061D02*
X126770Y137606D01*
X125106Y138770D01*
X125561Y140609D01*
X128609Y138061D01*
D02*
G37*
G36*
X96309Y131573D02*
X95178Y130441D01*
X93707Y130780D01*
X95969Y133043D01*
X96309Y131573D01*
D02*
G37*
G36*
X54599Y126532D02*
X52468Y126401D01*
X50997Y126741D01*
X54260D01*
X54599Y126532D01*
D02*
G37*
G36*
X63489Y127550D02*
Y125950D01*
X63010Y126490D01*
Y128350D01*
X63489Y127550D01*
D02*
G37*
G36*
X67061Y125150D02*
X66550Y125950D01*
Y127550D01*
X67031Y127719D01*
X67061Y125150D01*
D02*
G37*
G36*
X128609Y124439D02*
X125561Y121891D01*
X125106Y123730D01*
X126770Y124894D01*
X128609Y124439D01*
D02*
G37*
G36*
X49246Y118244D02*
X48859Y119131D01*
X49271Y120786D01*
X49246Y118244D01*
D02*
G37*
G36*
X54260Y117740D02*
X53756Y117746D01*
X54641Y118131D01*
X54260Y117740D01*
D02*
G37*
G36*
X77428Y117441D02*
X75957Y117781D01*
X78969D01*
X79309Y117822D01*
X77428Y117441D01*
D02*
G37*
G36*
X53756Y117746D02*
X52869Y117359D01*
X51214Y117771D01*
X53756Y117746D01*
D02*
G37*
G36*
X49631Y117359D02*
X49240Y117740D01*
X49246Y118244D01*
X49631Y117359D01*
D02*
G37*
G36*
X66534Y115991D02*
X68500Y115500D01*
Y112500D01*
X67128Y112157D01*
X67509Y111259D01*
X62491D01*
X63000Y112459D01*
X66501D01*
Y115950D01*
X62685Y114944D01*
X62500Y117791D01*
X65500Y117949D01*
X66534Y115991D01*
D02*
G37*
G36*
X98010Y111259D02*
X94247Y111229D01*
X95718Y111599D01*
X97980D01*
X98010Y111259D01*
D02*
G37*
G36*
X44260Y113759D02*
X44254Y113256D01*
X44641Y112369D01*
X44229Y110714D01*
X44254Y113256D01*
X43869Y114141D01*
X44260Y113759D01*
D02*
G37*
G36*
X157497Y105850D02*
X139200D01*
Y91028D01*
X138956Y90044D01*
X132508Y83595D01*
X131401Y83340D01*
X128777D01*
Y74660D01*
X128777D01*
Y74340D01*
X128777D01*
Y65660D01*
X137457D01*
Y67145D01*
X139200D01*
Y60850D01*
X157497D01*
Y55050D01*
X139200D01*
Y35450D01*
X157497D01*
Y4023D01*
X2753D01*
Y18200D01*
X10939D01*
Y28800D01*
X2753D01*
Y43250D01*
X32750D01*
Y44046D01*
X34000Y44094D01*
Y44094D01*
X37211Y44517D01*
X40203Y45756D01*
X41518Y46765D01*
X41751Y46915D01*
X41754Y46920D01*
X41759Y46923D01*
X41798Y46980D01*
X42359Y47410D01*
X46340D01*
Y54236D01*
X46345Y54260D01*
X46340Y54282D01*
X46344Y54305D01*
X46340Y54475D01*
Y55998D01*
X46406Y56500D01*
X46384D01*
Y62500D01*
X46340Y62723D01*
Y66561D01*
X47381Y67393D01*
X47627Y67228D01*
X48618Y67031D01*
X48634Y67022D01*
X50148Y66518D01*
X50669Y66171D01*
Y60798D01*
X50669D01*
Y57698D01*
X50669D01*
Y56734D01*
X50476Y56696D01*
X49616Y56121D01*
X49616Y56121D01*
X48594Y55100D01*
X48020Y54240D01*
X47818Y53225D01*
X47818Y53225D01*
Y29781D01*
X47818Y29781D01*
X48020Y28767D01*
X48368Y28246D01*
X48660Y24608D01*
Y24217D01*
X47822Y24051D01*
X46400Y23100D01*
X45450Y21678D01*
X45116Y20000D01*
X45450Y18322D01*
X46400Y16900D01*
X47822Y15949D01*
X48660Y15783D01*
Y12910D01*
X57340D01*
Y12910D01*
X57660D01*
Y12910D01*
X62122D01*
X62749Y12752D01*
X68176Y7326D01*
X68176Y7326D01*
X69036Y6751D01*
X70050Y6549D01*
X70050Y6549D01*
X105200D01*
X105200Y6549D01*
X106215Y6751D01*
X107074Y7326D01*
X110124Y10375D01*
X110125Y10375D01*
X110699Y11236D01*
X110901Y12250D01*
Y31652D01*
X112215Y32966D01*
X113450Y33050D01*
X113450Y33050D01*
X113450Y33050D01*
X115236D01*
X115258Y33045D01*
X115283Y33050D01*
X124050D01*
Y42450D01*
X122481D01*
X121882Y43570D01*
X122051Y43822D01*
X122384Y45500D01*
X122051Y47178D01*
X121100Y48600D01*
X120579Y48948D01*
X120374Y50578D01*
X120395Y50612D01*
X120530Y50757D01*
X120806Y50693D01*
X121127Y50479D01*
X123000Y50106D01*
X124873Y50479D01*
X126461Y51539D01*
X127521Y53127D01*
X127894Y55000D01*
X127521Y56873D01*
X127457Y56970D01*
Y58379D01*
X127459Y58385D01*
X127457Y58398D01*
Y58467D01*
X127462Y58491D01*
X127457Y58514D01*
Y65340D01*
X127457D01*
Y65660D01*
X127457D01*
Y74340D01*
X127457Y74340D01*
Y74660D01*
X127457D01*
X127457Y75610D01*
Y83340D01*
X123383D01*
X122456Y83554D01*
X120620Y85390D01*
X121146Y86660D01*
X127340D01*
Y87232D01*
X127702Y87304D01*
X128298Y87702D01*
X129298Y88702D01*
X129696Y89298D01*
X129835Y90000D01*
Y92726D01*
X130239Y93329D01*
X133165D01*
X133867Y93469D01*
X134462Y93867D01*
X136298Y95702D01*
X136695Y96298D01*
X136835Y97000D01*
Y108003D01*
X136976Y108211D01*
X138105Y108944D01*
X138250Y108915D01*
X141954D01*
X142250Y108856D01*
X142545Y108915D01*
X148954D01*
X149250Y108856D01*
X149545Y108915D01*
X152750D01*
X153452Y109054D01*
X154048Y109452D01*
X154446Y110048D01*
X154585Y110750D01*
Y119141D01*
X154609D01*
Y130361D01*
X143389D01*
Y126335D01*
X138250D01*
X138073Y126300D01*
X128729D01*
X127744Y126544D01*
X125855Y128433D01*
Y134067D01*
X127744Y135956D01*
X128729Y136200D01*
X141800D01*
Y145300D01*
X123700D01*
Y140729D01*
X123456Y139744D01*
X121570Y137857D01*
X120300Y138383D01*
Y145300D01*
X102200D01*
Y136200D01*
X119039D01*
X120145Y135250D01*
X120145Y134930D01*
Y127506D01*
X120145Y127250D01*
X119039Y126300D01*
X102200D01*
Y124177D01*
X102165Y124000D01*
Y114000D01*
X102304Y113298D01*
X102702Y112702D01*
X103298Y112304D01*
X104000Y112165D01*
X117240D01*
X122165Y107240D01*
Y105026D01*
X121728Y104373D01*
X121356Y102500D01*
X121728Y100627D01*
X122165Y99974D01*
Y98526D01*
X121728Y97873D01*
X121356Y96000D01*
X120814Y95340D01*
X118660D01*
Y94642D01*
X117487Y94157D01*
X115666Y95978D01*
X114773Y96574D01*
X113719Y96784D01*
X103205D01*
Y98302D01*
X104100Y98900D01*
X105050Y100322D01*
X105384Y102000D01*
X105050Y103678D01*
X104100Y105100D01*
X102678Y106051D01*
X101000Y106384D01*
X100822Y106349D01*
X99840Y107155D01*
Y110841D01*
X99874Y110875D01*
X99874Y110876D01*
X100449Y111735D01*
X100651Y112750D01*
Y128750D01*
X100651Y128750D01*
X100449Y129764D01*
X99874Y130625D01*
X97972Y132527D01*
X97800Y133273D01*
Y142550D01*
X82200D01*
Y128950D01*
X93477D01*
X94223Y128778D01*
X95349Y127652D01*
Y113848D01*
X94749Y113248D01*
X94122Y113090D01*
X91160D01*
Y107409D01*
X87877Y104126D01*
X87393Y103402D01*
X87050Y103223D01*
X85962Y103037D01*
X83151Y105848D01*
Y115500D01*
X82949Y116515D01*
X82374Y117374D01*
X80800Y118949D01*
Y129550D01*
X67137D01*
X67128Y129552D01*
X67113Y129550D01*
X67034D01*
X67009Y129555D01*
X66987Y129550D01*
X65200D01*
X64840Y130671D01*
Y133340D01*
X56160D01*
X56090Y133590D01*
X47410D01*
Y125860D01*
X47410Y124910D01*
X47410D01*
Y124590D01*
X47410D01*
Y120908D01*
X47209Y120102D01*
X42697Y115590D01*
X37410D01*
Y106910D01*
X46090D01*
Y109519D01*
X46140Y109564D01*
X47410Y109000D01*
Y108764D01*
X47405Y108741D01*
X47410Y108716D01*
Y108648D01*
X47408Y108635D01*
X47410Y108629D01*
X47410Y106910D01*
X47410D01*
Y106590D01*
X47410D01*
Y104871D01*
X47408Y104865D01*
X47410Y104852D01*
Y104783D01*
X47405Y104760D01*
X47410Y104735D01*
Y101760D01*
X46470Y100331D01*
X46289Y100211D01*
X45229Y98623D01*
X44856Y96750D01*
X45229Y94877D01*
X45654Y94240D01*
X46385Y92128D01*
Y89714D01*
X45115Y88500D01*
X37250Y88500D01*
Y54933D01*
X36764Y54205D01*
X36205Y53676D01*
X35394Y53134D01*
X34069Y52871D01*
X34000Y52884D01*
X32750D01*
Y148517D01*
X157497D01*
Y105850D01*
D02*
G37*
G36*
X53250Y107840D02*
X50250D01*
X49240Y108741D01*
X54260D01*
X53250Y107840D01*
D02*
G37*
G36*
X92991Y106241D02*
X96003D01*
X94532Y105901D01*
X92651Y106282D01*
X92991Y106241D01*
D02*
G37*
G36*
X54260Y104760D02*
X49240D01*
X50250Y105660D01*
X53250D01*
X54260Y104760D01*
D02*
G37*
G36*
X76500Y106737D02*
X76643Y106241D01*
X77509D01*
X76820Y105626D01*
X77239Y104175D01*
X80077Y102097D01*
X78457Y99474D01*
X76761Y99581D01*
X76248Y98101D01*
X73248Y98103D01*
X72350Y100699D01*
X76045Y100698D01*
X77238Y104174D01*
X72448Y104424D01*
X72999Y105787D01*
X72491Y106241D01*
X73182D01*
X73500Y107027D01*
X76500Y106737D01*
D02*
G37*
G36*
X99499Y100001D02*
X97132Y101200D01*
Y102800D01*
X99499Y103999D01*
Y100001D01*
D02*
G37*
G36*
X52312Y100111D02*
X52343Y99740D01*
X53812D01*
X52414Y98902D01*
X52494Y97963D01*
X47824Y99050D01*
X49312Y101312D01*
X52312Y100111D01*
D02*
G37*
G36*
X81370Y96501D02*
X78129D01*
X78199Y97401D01*
X81199D01*
X81370Y96501D01*
D02*
G37*
G36*
X76369Y96501D02*
X73128D01*
X73248Y97401D01*
X76248D01*
X76369Y96501D01*
D02*
G37*
G36*
X96353Y96470D02*
X93153D01*
X93953Y96980D01*
X95553D01*
X96353Y96470D01*
D02*
G37*
G36*
X86351D02*
X83151D01*
X83951Y96980D01*
X85551D01*
X86351Y96470D01*
D02*
G37*
G36*
X71347D02*
X68147D01*
X68947Y96980D01*
X70547D01*
X71347Y96470D01*
D02*
G37*
G36*
X91352Y96470D02*
X88152D01*
X88952Y96980D01*
X90552D01*
X91352Y96470D01*
D02*
G37*
G36*
X65545Y96470D02*
X63156Y93829D01*
X62743Y95484D01*
X63890Y96882D01*
X65545Y96470D01*
D02*
G37*
G36*
X149352Y93575D02*
X147026Y92662D01*
X145612Y94076D01*
X146525Y96402D01*
X149352Y93575D01*
D02*
G37*
G36*
X51250Y92352D02*
X48250D01*
X47351Y94949D01*
X52149D01*
X51250Y92352D01*
D02*
G37*
G36*
X101915Y94931D02*
Y93131D01*
X101375Y92231D01*
Y95831D01*
X101915Y94931D01*
D02*
G37*
G36*
X120300Y120700D02*
X125000Y116000D01*
X133000D01*
X135000Y114000D01*
Y97000D01*
X133165Y95165D01*
X128000D01*
Y90000D01*
X127000Y89000D01*
X124000D01*
Y108000D01*
X118000Y114000D01*
X104000D01*
Y124000D01*
X104117Y124116D01*
X120300D01*
X120300Y120700D01*
D02*
G37*
G36*
X143859Y88111D02*
X142020Y87656D01*
X140606Y89070D01*
X141061Y90909D01*
X143859Y88111D01*
D02*
G37*
G36*
X102231Y80803D02*
Y77703D01*
X102231D01*
Y70801D01*
X102231D01*
Y65800D01*
Y62699D01*
X102231D01*
Y55797D01*
X102231D01*
Y50796D01*
Y46769D01*
X93203D01*
Y46769D01*
X86301D01*
Y46769D01*
X78199D01*
Y46769D01*
X71297D01*
Y46769D01*
X62269D01*
Y50796D01*
Y55797D01*
X62269D01*
Y62699D01*
X62269D01*
Y65800D01*
Y70801D01*
X62269D01*
Y77703D01*
X62269D01*
Y80805D01*
X62269D01*
Y86731D01*
X71297D01*
Y86731D01*
X78199D01*
Y86731D01*
X86301D01*
Y86731D01*
X93203D01*
Y86731D01*
X102231D01*
Y80803D01*
D02*
G37*
G36*
X111900Y84668D02*
X110100D01*
X109543Y85848D01*
X109200Y85844D01*
X109466Y86013D01*
X109001Y86999D01*
X112999D01*
X111900Y84668D01*
D02*
G37*
G36*
X52499Y82635D02*
X52244Y82756D01*
Y85756D01*
X52499Y85876D01*
Y82635D01*
D02*
G37*
G36*
X136051Y81686D02*
X135626Y81510D01*
X131631D01*
X133470Y81934D01*
X136051Y81686D01*
D02*
G37*
G36*
X123153Y81510D02*
X120607Y78964D01*
X120225Y80619D01*
X121498Y81891D01*
X123153Y81510D01*
D02*
G37*
G36*
X44500Y76990D02*
X39500D01*
X39490Y78491D01*
X44510D01*
X44500Y76990D01*
D02*
G37*
G36*
X52499Y73751D02*
X53061Y73189D01*
X52582Y71750D01*
X53061Y70311D01*
X52499Y69749D01*
Y67630D01*
X52000Y67750D01*
Y69250D01*
X50939Y68189D01*
X49214Y68764D01*
X52200Y71750D01*
X49214Y74736D01*
X50939Y75311D01*
X52000Y74250D01*
Y75750D01*
X52499Y75872D01*
Y73751D01*
D02*
G37*
G36*
X44504Y75830D02*
X44877Y75819D01*
X44510Y75009D01*
X44114D01*
X44295Y74983D01*
X44302Y73476D01*
X40475Y74481D01*
X40697Y75009D01*
X39490D01*
X39500Y76509D01*
X44500D01*
X44504Y75830D01*
D02*
G37*
G36*
X117050Y72500D02*
X115450D01*
X114314Y73918D01*
X118186D01*
X117050Y72500D01*
D02*
G37*
G36*
X147846Y68432D02*
X145622Y69000D01*
X145025Y71000D01*
X147191Y72376D01*
X147846Y68432D01*
D02*
G37*
G36*
X120638Y68400D02*
X120127Y69200D01*
Y70800D01*
X120638Y71600D01*
Y68400D01*
D02*
G37*
G36*
X141061Y68000D02*
X140430Y69000D01*
Y71000D01*
X141061Y72000D01*
Y68000D01*
D02*
G37*
G36*
X136226Y71000D02*
Y69000D01*
X135596Y68000D01*
Y72000D01*
X136226Y71000D01*
D02*
G37*
G36*
X44500Y58491D02*
X39500D01*
X39490Y59991D01*
X44510D01*
X44500Y58491D01*
D02*
G37*
G36*
X124617Y59327D02*
X124884Y58491D01*
X125626D01*
X125048Y57975D01*
X125442Y56743D01*
X120994Y56851D01*
X121459Y52426D01*
X118964Y53000D01*
X118372Y56000D01*
X120733Y57093D01*
X121093Y58058D01*
X120607Y58491D01*
X121254D01*
X121617Y59462D01*
X124617Y59327D01*
D02*
G37*
G36*
X52530Y52647D02*
X52020Y53447D01*
Y55047D01*
X52530Y55847D01*
Y52647D01*
D02*
G37*
G36*
X44473Y55743D02*
X44510Y54260D01*
X39490D01*
Y49253D01*
X40475Y48234D01*
X39490Y49240D01*
Y49253D01*
X36963Y51866D01*
X39490Y54260D01*
X39474Y55971D01*
X44473Y55743D01*
D02*
G37*
G36*
X112892Y50746D02*
Y47746D01*
X112001Y47625D01*
Y50866D01*
X112892Y50746D01*
D02*
G37*
G36*
X54800Y47145D02*
X53200D01*
X52499Y47625D01*
X55600D01*
X54800Y47145D01*
D02*
G37*
G36*
X117221Y43124D02*
X114335Y43350D01*
X114025Y45150D01*
X115932Y46905D01*
X117221Y43124D01*
D02*
G37*
G36*
X101915Y41869D02*
Y40069D01*
X101375Y39169D01*
Y42769D01*
X101915Y41869D01*
D02*
G37*
G36*
X95553Y36519D02*
X93953D01*
X93153Y37030D01*
X96353D01*
X95553Y36519D01*
D02*
G37*
G36*
X85551D02*
X83951D01*
X83151Y37030D01*
X86351D01*
X85551Y36519D01*
D02*
G37*
G36*
X70547D02*
X68947D01*
X68147Y37030D01*
X71347D01*
X70547Y36519D01*
D02*
G37*
G36*
X76248Y36100D02*
X73248D01*
X73128Y36999D01*
X76369D01*
X76248Y36100D01*
D02*
G37*
G36*
X62812Y38312D02*
X63156Y38850D01*
X63143Y38114D01*
X63250Y38050D01*
Y36450D01*
X61273Y35267D01*
Y39233D01*
X62812Y38312D01*
D02*
G37*
G36*
X115281Y34880D02*
X114801Y34950D01*
Y36550D01*
X115311Y37350D01*
X115281Y34880D01*
D02*
G37*
G36*
X90439Y37030D02*
X91352D01*
X90721Y36628D01*
X91590Y34622D01*
X87600Y34874D01*
X88667Y36701D01*
X88152Y37030D01*
X88859D01*
X88952Y37189D01*
X90439Y37030D01*
D02*
G37*
G36*
X80684Y37030D02*
X81349D01*
X80883Y36732D01*
X82044Y34991D01*
X78078Y34488D01*
X78842Y36588D01*
X78149Y37030D01*
X79618D01*
X80549Y37232D01*
X80684Y37030D01*
D02*
G37*
G36*
X69868Y35024D02*
X68960Y32555D01*
X66241Y35487D01*
X68808Y36227D01*
X69868Y35024D01*
D02*
G37*
G36*
X86351Y29729D02*
X83151D01*
X83951Y30240D01*
X85551D01*
X86351Y29729D01*
D02*
G37*
G36*
X77301Y29175D02*
X72510Y28923D01*
X73248Y31485D01*
X76248Y31778D01*
X77301Y29175D01*
D02*
G37*
G36*
X61753Y29760D02*
X59490Y27497D01*
X59151Y28968D01*
X60282Y30099D01*
X61753Y29760D01*
D02*
G37*
G36*
X100038Y27059D02*
X97025Y27089D01*
X96686Y27047D01*
X98567Y27429D01*
X100038Y27059D01*
D02*
G37*
G36*
X55510Y29760D02*
X50490Y24741D01*
X50151Y28968D01*
X51282Y30099D01*
X55510Y29760D01*
D02*
G37*
G36*
X87599Y25532D02*
X86468Y24401D01*
X84997Y24741D01*
X87260Y27003D01*
X87599Y25532D01*
D02*
G37*
G36*
X89453Y22286D02*
X87750Y23450D01*
Y25050D01*
X89453Y26214D01*
Y22286D01*
D02*
G37*
G36*
X82240Y14741D02*
X81040Y15250D01*
Y19250D01*
X82240Y19760D01*
Y14741D01*
D02*
G37*
G36*
X64849Y15532D02*
X63718Y14401D01*
X62247Y14771D01*
X64479Y17003D01*
X64849Y15532D01*
D02*
G37*
G36*
X74099Y15532D02*
X72968Y14401D01*
X71497Y14771D01*
X73729Y17003D01*
X74099Y15532D01*
D02*
G37*
G36*
X97025Y11910D02*
X96545D01*
Y13510D01*
X97056Y14310D01*
X97025Y11910D01*
D02*
G37*
%LPC*%
G36*
X41639Y30834D02*
X35639D01*
X34937Y30695D01*
X34341Y30297D01*
X33944Y29701D01*
X33804Y28999D01*
Y27835D01*
X26550D01*
Y28800D01*
X15950D01*
Y18200D01*
X26550D01*
Y19165D01*
X33804D01*
Y18001D01*
X33944Y17299D01*
X34341Y16703D01*
X34937Y16305D01*
X35639Y16166D01*
X41639Y16166D01*
X42341Y16305D01*
X42936Y16703D01*
X43334Y17299D01*
X43474Y18001D01*
X43474Y28999D01*
X43334Y29701D01*
X42936Y30297D01*
X42341Y30695D01*
X41639Y30834D01*
D02*
G37*
%LPD*%
G36*
X41639Y18001D02*
X35639Y18001D01*
Y21001D01*
X21250D01*
Y25999D01*
X35639D01*
Y28999D01*
X41639D01*
X41639Y18001D01*
D02*
G37*
D12*
X106469Y40969D02*
X109750Y44250D01*
X99754Y40969D02*
X106469D01*
X109750Y44250D02*
X116366D01*
X118000Y45884D01*
X99754Y94031D02*
X113719D01*
X117000Y85117D02*
Y90750D01*
X113719Y94031D02*
X117000Y90750D01*
X56850Y102650D02*
X64746Y94754D01*
X56850Y102650D02*
Y114650D01*
X50750Y119750D02*
X51750D01*
X41750Y110750D02*
X50750Y119750D01*
X64746Y92531D02*
Y94754D01*
X51750Y119750D02*
X56850Y114650D01*
X117000Y85117D02*
X123117Y79000D01*
X111000Y84500D02*
Y88500D01*
X110754Y84254D02*
X111000Y84500D01*
X108031Y84254D02*
X110754D01*
D18*
X51750Y120250D02*
D03*
X41750D02*
D03*
X51750Y102250D02*
D03*
X41750D02*
D03*
X123117Y61000D02*
D03*
X133117D02*
D03*
X123000Y91000D02*
D03*
X133000D02*
D03*
X51750Y111250D02*
D03*
X41750D02*
D03*
Y129250D02*
D03*
X51750D02*
D03*
X75000Y108750D02*
D03*
X65000D02*
D03*
X123117Y79000D02*
D03*
X133117D02*
D03*
X123117Y70000D02*
D03*
X133117D02*
D03*
X85500Y108750D02*
D03*
X95500D02*
D03*
D19*
X84750Y27250D02*
D03*
Y17250D02*
D03*
X42000Y62500D02*
D03*
Y72500D02*
D03*
Y91000D02*
D03*
Y81000D02*
D03*
Y41750D02*
D03*
Y51750D02*
D03*
X53000Y27250D02*
D03*
Y17250D02*
D03*
X62000D02*
D03*
Y27250D02*
D03*
X71250Y17250D02*
D03*
Y27250D02*
D03*
X60500Y129000D02*
D03*
Y139000D02*
D03*
D20*
X34000Y48500D02*
D03*
X82500Y68000D02*
D03*
X70000D02*
D03*
X95000D02*
D03*
Y57500D02*
D03*
X82250D02*
D03*
X70000D02*
D03*
X118000Y45500D02*
D03*
X66500Y33000D02*
D03*
X89500Y33250D02*
D03*
X80250D02*
D03*
X79500Y21500D02*
D03*
X91000Y24250D02*
D03*
X59750Y37250D02*
D03*
X49500Y20000D02*
D03*
X65000Y114000D02*
D03*
X100250Y133750D02*
D03*
X35000Y144750D02*
D03*
X88000Y114750D02*
D03*
X35000Y117000D02*
D03*
Y131000D02*
D03*
Y99000D02*
D03*
Y85000D02*
D03*
Y70000D02*
D03*
Y56750D02*
D03*
X13250Y23500D02*
D03*
X149000Y19850D02*
D03*
Y96050D02*
D03*
Y70650D02*
D03*
X116250Y75500D02*
D03*
X48250Y144500D02*
D03*
X12750Y15250D02*
D03*
X20000D02*
D03*
X6750Y7250D02*
D03*
X101000Y102000D02*
D03*
X102250Y110250D02*
D03*
X82500Y78500D02*
D03*
X95000D02*
D03*
X70000D02*
D03*
X153000Y31000D02*
D03*
Y8000D02*
D03*
X143000Y133000D02*
D03*
X117000Y131000D02*
D03*
X111000D02*
D03*
X105000D02*
D03*
X154000Y133000D02*
D03*
X151000Y144000D02*
D03*
X7000Y40000D02*
D03*
Y14000D02*
D03*
Y33000D02*
D03*
X15750Y31750D02*
D03*
X23000Y32000D02*
D03*
X35000Y35000D02*
D03*
X41000Y34000D02*
D03*
X30000Y31000D02*
D03*
X38000Y41000D02*
D03*
X108000Y104000D02*
D03*
X111000Y88500D02*
D03*
D21*
X134005Y19500D02*
D03*
X100995D02*
D03*
D22*
X56469Y84256D02*
D03*
X56469Y79253D02*
D03*
X56469Y74252D02*
D03*
X56469Y69251D02*
D03*
Y64249D02*
D03*
X56469Y59248D02*
D03*
X56469Y54247D02*
D03*
Y49246D02*
D03*
X108031D02*
D03*
Y54247D02*
D03*
X108031Y59248D02*
D03*
X108031Y64249D02*
D03*
Y69251D02*
D03*
X108031Y74252D02*
D03*
X108031Y79253D02*
D03*
Y84254D02*
D03*
D23*
X64746Y40969D02*
D03*
X69747D02*
D03*
X74748Y40969D02*
D03*
X79749Y40969D02*
D03*
X84751D02*
D03*
X89752Y40969D02*
D03*
X94753Y40969D02*
D03*
X99754D02*
D03*
Y92531D02*
D03*
X94753D02*
D03*
X89752Y92531D02*
D03*
X84751Y92531D02*
D03*
X79749D02*
D03*
X74748Y92531D02*
D03*
X69747Y92531D02*
D03*
X64746D02*
D03*
D24*
X82250Y66750D02*
D03*
D25*
X22000Y39000D02*
D03*
Y8000D02*
D03*
D26*
X21250Y23500D02*
D03*
X5639D02*
D03*
D27*
X118750Y37750D02*
D03*
X130750D02*
D03*
D28*
X149000Y96050D02*
D03*
Y70650D02*
D03*
Y45250D02*
D03*
Y19850D02*
D03*
D29*
X90000Y135750D02*
D03*
X73000D02*
D03*
Y122750D02*
D03*
X90000D02*
D03*
D30*
X132750Y121750D02*
D03*
D31*
X132750Y131250D02*
D03*
Y140750D02*
D03*
X111250D02*
D03*
Y121750D02*
D03*
D32*
X130749Y104749D02*
D03*
X117749D02*
D03*
D33*
X148999Y124751D02*
D03*
Y137751D02*
D03*
D34*
X34000Y48500D02*
G03*
X42000Y56500I0J8000D01*
G01*
X4000Y48500D02*
X34000D01*
X4000D02*
Y63500D01*
X24000D01*
X4000Y73500D02*
X24000D01*
Y63500D02*
Y73500D01*
X4000D02*
Y83500D01*
X24000D01*
X4000Y93500D02*
X24000D01*
Y83500D02*
Y93500D01*
X4000D02*
Y103500D01*
X24000D01*
X4000Y113500D02*
X24000D01*
Y103500D02*
Y113500D01*
X4000D02*
Y123500D01*
X24000D01*
X4000Y133500D02*
Y147250D01*
Y133500D02*
X24000D01*
Y123500D02*
Y133500D01*
X42000Y72500D02*
Y81000D01*
Y56500D02*
Y62500D01*
D35*
X48753Y79253D02*
G03*
X42000Y72500I0J-6753D01*
G01*
X48753Y79253D02*
X56469D01*
D36*
X111250Y35750D02*
X116750D01*
X108250Y32750D02*
X111250Y35750D01*
X108250Y12250D02*
Y32750D01*
X116750Y35750D02*
X118750Y37750D01*
X66712Y33000D02*
X69747Y36035D01*
X66500Y33000D02*
X66712D01*
X79749Y33751D02*
Y40969D01*
Y33751D02*
X80250Y33250D01*
X105200Y9200D02*
X108250Y12250D01*
X70050Y9200D02*
X105200D01*
X97075Y12710D02*
X100995Y16630D01*
X75790Y12710D02*
X97075D01*
X71250Y17250D02*
X75790Y12710D01*
X62000Y17250D02*
X70050Y9200D01*
X100995Y16630D02*
Y20250D01*
Y23870D01*
X69747Y36035D02*
Y40969D01*
X64746Y38746D02*
Y40969D01*
X63250Y37250D02*
X64746Y38746D01*
X59750Y37250D02*
X63250D01*
X87750Y24250D02*
X91000D01*
X89752Y33498D02*
X90500Y32750D01*
X94753Y30111D02*
Y40969D01*
Y30111D02*
X100995Y23870D01*
X84750Y27250D02*
X87750Y24250D01*
X54000Y35250D02*
Y49246D01*
Y35250D02*
X62000Y27250D01*
X50469Y29781D02*
X53000Y27250D01*
X50469Y29781D02*
Y53225D01*
X51491Y54247D01*
X54000Y49246D02*
X56467D01*
X84751Y27251D02*
Y40969D01*
X84750Y27250D02*
X84751Y27251D01*
X51491Y54247D02*
X56469D01*
X69250Y126750D02*
X80500Y115500D01*
X84751Y92531D02*
Y100499D01*
X80500Y104750D02*
X84751Y100499D01*
X80500Y104750D02*
Y115500D01*
X95500Y108750D02*
Y110250D01*
Y108000D02*
Y108750D01*
X89500Y137250D02*
X98000Y128750D01*
Y112750D02*
Y128750D01*
X95500Y110250D02*
X98000Y112750D01*
X89752Y102252D02*
X95500Y108000D01*
X51250Y128750D02*
X60000Y120000D01*
X69747Y92531D02*
Y99003D01*
X67250Y101500D02*
X69747Y99003D01*
X62750Y101500D02*
X67250D01*
X60000Y104250D02*
X62750Y101500D01*
X60000Y104250D02*
Y120000D01*
X62000Y126750D02*
X69250D01*
X60250Y128500D02*
X62000Y126750D01*
X89752Y92531D02*
Y102252D01*
X96750Y102000D02*
X101000D01*
X94753Y100003D02*
X96750Y102000D01*
X94753Y92531D02*
Y100003D01*
X116250Y72500D02*
Y75500D01*
X118750Y70000D02*
X123117D01*
X116250Y72500D02*
X118750Y70000D01*
X89752Y33498D02*
Y40969D01*
D37*
X122500Y54500D02*
X123117Y55117D01*
X74748Y27006D02*
Y40969D01*
X75000Y26754D02*
Y27250D01*
X50812Y96750D02*
Y101312D01*
X112892Y49246D02*
X118146Y54500D01*
X108031Y49246D02*
X112892D01*
X49500Y71750D02*
X52000Y74250D01*
X49500Y71750D02*
X52000Y69250D01*
Y74250D02*
X56467D01*
X56469Y74252D01*
X52000Y69250D02*
X56468D01*
X56469Y69251D01*
X50812Y101312D02*
X51750Y102250D01*
X49750Y86750D02*
Y96750D01*
Y86750D02*
X52244Y84256D01*
X64000Y115000D02*
Y123250D01*
Y115000D02*
X65000Y114000D01*
X76250D01*
X65000Y108750D02*
X65000Y108750D01*
X118146Y54500D02*
X122500D01*
X79699Y92581D02*
Y100353D01*
X77553Y102500D02*
X79699Y100353D01*
X74750Y102500D02*
X77553D01*
X79699Y92581D02*
X79749Y92531D01*
X122500Y54500D02*
X122500D01*
X123000Y55000D01*
X123117Y55117D02*
Y61000D01*
X75000Y108750D02*
Y109000D01*
Y102750D02*
Y108750D01*
X74750Y102500D02*
X75000Y102750D01*
X74748Y102500D02*
X74750D01*
X74748Y94031D02*
Y102500D01*
X51750Y102250D02*
Y110750D01*
X52244Y84256D02*
X56469D01*
D38*
X80500Y17250D02*
X84750D01*
X79691Y18059D02*
X80500Y17250D01*
X79691Y18059D02*
Y21309D01*
X79500Y21500D02*
X79691Y21309D01*
X65000Y108750D02*
Y114000D01*
D39*
X123000Y127250D02*
Y135250D01*
Y127250D02*
X128500Y121750D01*
X123000Y135250D02*
X128500Y140750D01*
X132750D02*
X133000D01*
X128500D02*
X132750D01*
X132750Y121750D02*
X133000D01*
X128500D02*
X132750D01*
X133117Y70000D02*
X148350D01*
X149000Y70650D01*
X132533Y79583D02*
X149000Y96050D01*
X147650Y72000D02*
X149000Y70650D01*
D40*
X145500Y117625D02*
D03*
D41*
X145750Y45000D02*
D03*
X126250Y96000D02*
D03*
X75000Y27250D02*
D03*
X126250Y102500D02*
D03*
X49500Y71750D02*
D03*
X49750Y96750D02*
D03*
X74750Y102500D02*
D03*
X152250Y45000D02*
D03*
X123000Y55000D02*
D03*
X149250Y113750D02*
D03*
X142250D02*
D03*
X21000Y23500D02*
D03*
M02*
