G04*
G04 #@! TF.GenerationSoftware,Altium Limited,Altium Designer,20.0.1 (14)*
G04*
G04 Layer_Color=32896*
%FSLAX44Y44*%
%MOMM*%
G71*
G01*
G75*
%ADD10C,0.2540*%
%ADD43C,0.0254*%
G36*
X145091Y39510D02*
X145350Y39501D01*
X145590Y39482D01*
X145692Y39473D01*
X145793Y39464D01*
X145877Y39455D01*
X145950Y39445D01*
X146006Y39436D01*
X146052D01*
X146080Y39427D01*
X146089D01*
X146385Y39390D01*
X146653Y39344D01*
X146894Y39297D01*
X147004Y39270D01*
X147097Y39251D01*
X147189Y39233D01*
X147273Y39214D01*
X147337Y39196D01*
X147393Y39177D01*
X147439Y39168D01*
X147476Y39159D01*
X147494Y39149D01*
X147504D01*
X147633Y37670D01*
X147402Y37726D01*
X147162Y37781D01*
X146931Y37837D01*
X146709Y37883D01*
X146616Y37901D01*
X146524Y37920D01*
X146440Y37938D01*
X146376Y37947D01*
X146320Y37957D01*
X146283Y37966D01*
X146256Y37975D01*
X146246D01*
X145960Y38022D01*
X145692Y38059D01*
X145451Y38086D01*
X145248Y38105D01*
X145155Y38114D01*
X145072D01*
X144998Y38123D01*
X144832D01*
X144517Y38114D01*
X144240Y38077D01*
X144111Y38049D01*
X143990Y38022D01*
X143879Y37994D01*
X143787Y37966D01*
X143694Y37938D01*
X143621Y37910D01*
X143547Y37883D01*
X143491Y37855D01*
X143445Y37837D01*
X143417Y37818D01*
X143399Y37809D01*
X143389D01*
X143288Y37744D01*
X143204Y37670D01*
X143121Y37596D01*
X143057Y37513D01*
X143001Y37420D01*
X142955Y37337D01*
X142890Y37162D01*
X142844Y36995D01*
X142835Y36930D01*
X142825Y36866D01*
X142816Y36820D01*
Y36783D01*
Y36755D01*
Y36746D01*
X142825Y36524D01*
X142853Y36320D01*
X142890Y36126D01*
X142936Y35960D01*
X142983Y35812D01*
X143001Y35756D01*
X143020Y35701D01*
X143038Y35664D01*
X143047Y35636D01*
X143057Y35618D01*
Y35608D01*
X143149Y35405D01*
X143251Y35220D01*
X143352Y35035D01*
X143454Y34878D01*
X143547Y34748D01*
X143621Y34647D01*
X143648Y34610D01*
X143667Y34582D01*
X143676Y34564D01*
X143685Y34554D01*
X143842Y34360D01*
X144000Y34175D01*
X144157Y34000D01*
X144305Y33842D01*
X144425Y33713D01*
X144527Y33611D01*
X144564Y33574D01*
X144591Y33547D01*
X144610Y33528D01*
X144619Y33519D01*
X144823Y33325D01*
X145026Y33140D01*
X145220Y32955D01*
X145396Y32798D01*
X145553Y32659D01*
X145618Y32604D01*
X145673Y32557D01*
X145710Y32520D01*
X145747Y32493D01*
X145765Y32474D01*
X145775Y32465D01*
X150000Y28831D01*
Y27500D01*
X142742D01*
X142446Y28924D01*
X147624D01*
X144490Y31503D01*
X144221Y31725D01*
X143972Y31947D01*
X143731Y32150D01*
X143528Y32326D01*
X143445Y32400D01*
X143362Y32474D01*
X143288Y32539D01*
X143232Y32585D01*
X143186Y32631D01*
X143149Y32659D01*
X143131Y32678D01*
X143121Y32687D01*
X142890Y32909D01*
X142677Y33121D01*
X142493Y33325D01*
X142326Y33510D01*
X142197Y33667D01*
X142141Y33732D01*
X142095Y33787D01*
X142058Y33824D01*
X142030Y33861D01*
X142021Y33879D01*
X142012Y33889D01*
X141845Y34129D01*
X141688Y34360D01*
X141559Y34582D01*
X141457Y34795D01*
X141411Y34878D01*
X141374Y34961D01*
X141337Y35035D01*
X141309Y35100D01*
X141291Y35155D01*
X141272Y35192D01*
X141263Y35211D01*
Y35220D01*
X141171Y35488D01*
X141106Y35766D01*
X141060Y36034D01*
X141032Y36274D01*
X141013Y36385D01*
X141004Y36487D01*
Y36579D01*
X140995Y36653D01*
Y36718D01*
Y36764D01*
Y36792D01*
Y36801D01*
X141004Y37051D01*
X141032Y37282D01*
X141078Y37485D01*
X141124Y37670D01*
X141171Y37809D01*
X141189Y37874D01*
X141217Y37920D01*
X141226Y37957D01*
X141244Y37984D01*
X141254Y38003D01*
Y38012D01*
X141355Y38197D01*
X141466Y38364D01*
X141587Y38512D01*
X141707Y38632D01*
X141808Y38733D01*
X141892Y38807D01*
X141947Y38844D01*
X141956Y38863D01*
X141966D01*
X142150Y38983D01*
X142335Y39085D01*
X142520Y39168D01*
X142696Y39242D01*
X142853Y39297D01*
X142918Y39316D01*
X142973Y39334D01*
X143020Y39344D01*
X143057Y39353D01*
X143075Y39362D01*
X143084D01*
X143334Y39418D01*
X143584Y39455D01*
X143824Y39492D01*
X144046Y39510D01*
X144148Y39519D01*
X144323D01*
X144388Y39529D01*
X144804D01*
X145091Y39510D01*
D02*
G37*
G36*
X124602D02*
X124861Y39501D01*
X125102Y39482D01*
X125203Y39473D01*
X125305Y39464D01*
X125388Y39455D01*
X125462Y39445D01*
X125518Y39436D01*
X125564D01*
X125592Y39427D01*
X125601D01*
X125897Y39390D01*
X126165Y39344D01*
X126405Y39297D01*
X126516Y39270D01*
X126609Y39251D01*
X126701Y39233D01*
X126784Y39214D01*
X126849Y39196D01*
X126904Y39177D01*
X126951Y39168D01*
X126988Y39159D01*
X127006Y39149D01*
X127015D01*
X127145Y37670D01*
X126914Y37726D01*
X126673Y37781D01*
X126442Y37837D01*
X126220Y37883D01*
X126128Y37901D01*
X126035Y37920D01*
X125952Y37938D01*
X125887Y37947D01*
X125832Y37957D01*
X125795Y37966D01*
X125767Y37975D01*
X125758D01*
X125471Y38022D01*
X125203Y38059D01*
X124963Y38086D01*
X124760Y38105D01*
X124667Y38114D01*
X124584D01*
X124510Y38123D01*
X124344D01*
X124029Y38114D01*
X123752Y38077D01*
X123622Y38049D01*
X123502Y38022D01*
X123391Y37994D01*
X123299Y37966D01*
X123206Y37938D01*
X123132Y37910D01*
X123058Y37883D01*
X123003Y37855D01*
X122957Y37837D01*
X122929Y37818D01*
X122910Y37809D01*
X122901D01*
X122799Y37744D01*
X122716Y37670D01*
X122633Y37596D01*
X122568Y37513D01*
X122513Y37420D01*
X122467Y37337D01*
X122402Y37162D01*
X122356Y36995D01*
X122346Y36930D01*
X122337Y36866D01*
X122328Y36820D01*
Y36783D01*
Y36755D01*
Y36746D01*
X122337Y36524D01*
X122365Y36320D01*
X122402Y36126D01*
X122448Y35960D01*
X122494Y35812D01*
X122513Y35756D01*
X122531Y35701D01*
X122550Y35664D01*
X122559Y35636D01*
X122568Y35618D01*
Y35608D01*
X122661Y35405D01*
X122762Y35220D01*
X122864Y35035D01*
X122966Y34878D01*
X123058Y34748D01*
X123132Y34647D01*
X123160Y34610D01*
X123179Y34582D01*
X123188Y34564D01*
X123197Y34554D01*
X123354Y34360D01*
X123511Y34175D01*
X123668Y34000D01*
X123816Y33842D01*
X123937Y33713D01*
X124038Y33611D01*
X124075Y33574D01*
X124103Y33547D01*
X124122Y33528D01*
X124131Y33519D01*
X124334Y33325D01*
X124538Y33140D01*
X124732Y32955D01*
X124907Y32798D01*
X125065Y32659D01*
X125129Y32604D01*
X125185Y32557D01*
X125222Y32520D01*
X125259Y32493D01*
X125277Y32474D01*
X125287Y32465D01*
X129512Y28831D01*
Y27500D01*
X122254D01*
X121958Y28924D01*
X127136D01*
X124001Y31503D01*
X123733Y31725D01*
X123484Y31947D01*
X123243Y32150D01*
X123040Y32326D01*
X122957Y32400D01*
X122873Y32474D01*
X122799Y32539D01*
X122744Y32585D01*
X122698Y32631D01*
X122661Y32659D01*
X122642Y32678D01*
X122633Y32687D01*
X122402Y32909D01*
X122189Y33121D01*
X122004Y33325D01*
X121838Y33510D01*
X121708Y33667D01*
X121653Y33732D01*
X121607Y33787D01*
X121570Y33824D01*
X121542Y33861D01*
X121533Y33879D01*
X121524Y33889D01*
X121357Y34129D01*
X121200Y34360D01*
X121070Y34582D01*
X120969Y34795D01*
X120923Y34878D01*
X120886Y34961D01*
X120849Y35035D01*
X120821Y35100D01*
X120802Y35155D01*
X120784Y35192D01*
X120775Y35211D01*
Y35220D01*
X120682Y35488D01*
X120618Y35766D01*
X120571Y36034D01*
X120543Y36274D01*
X120525Y36385D01*
X120516Y36487D01*
Y36579D01*
X120506Y36653D01*
Y36718D01*
Y36764D01*
Y36792D01*
Y36801D01*
X120516Y37051D01*
X120543Y37282D01*
X120590Y37485D01*
X120636Y37670D01*
X120682Y37809D01*
X120701Y37874D01*
X120728Y37920D01*
X120738Y37957D01*
X120756Y37984D01*
X120765Y38003D01*
Y38012D01*
X120867Y38197D01*
X120978Y38364D01*
X121098Y38512D01*
X121219Y38632D01*
X121320Y38733D01*
X121403Y38807D01*
X121459Y38844D01*
X121468Y38863D01*
X121477D01*
X121662Y38983D01*
X121847Y39085D01*
X122032Y39168D01*
X122208Y39242D01*
X122365Y39297D01*
X122430Y39316D01*
X122485Y39334D01*
X122531Y39344D01*
X122568Y39353D01*
X122587Y39362D01*
X122596D01*
X122846Y39418D01*
X123095Y39455D01*
X123336Y39492D01*
X123558Y39510D01*
X123659Y39519D01*
X123835D01*
X123900Y39529D01*
X124316D01*
X124602Y39510D01*
D02*
G37*
G36*
X116041Y38539D02*
X116355Y37041D01*
X113619Y37735D01*
X115791Y27500D01*
X114081D01*
X111566Y39344D01*
X112953D01*
X116041Y38539D01*
D02*
G37*
G36*
X63341Y38539D02*
X63655Y37041D01*
X60919Y37735D01*
X63091Y27500D01*
X61381D01*
X58866Y39344D01*
X60253D01*
X63341Y38539D01*
D02*
G37*
G36*
X93287Y39519D02*
X93630Y39482D01*
X93796Y39455D01*
X93944Y39427D01*
X94083Y39399D01*
X94212Y39371D01*
X94332Y39334D01*
X94443Y39307D01*
X94536Y39279D01*
X94610Y39260D01*
X94674Y39233D01*
X94721Y39223D01*
X94748Y39205D01*
X94757D01*
X95053Y39076D01*
X95331Y38928D01*
X95571Y38770D01*
X95682Y38696D01*
X95775Y38623D01*
X95867Y38558D01*
X95950Y38493D01*
X96015Y38438D01*
X96070Y38391D01*
X96117Y38345D01*
X96154Y38317D01*
X96172Y38299D01*
X96181Y38290D01*
X96394Y38059D01*
X96579Y37818D01*
X96736Y37578D01*
X96866Y37356D01*
X96921Y37254D01*
X96967Y37152D01*
X97014Y37069D01*
X97041Y36995D01*
X97069Y36940D01*
X97087Y36893D01*
X97106Y36866D01*
Y36857D01*
X97217Y36533D01*
X97291Y36209D01*
X97346Y35886D01*
X97374Y35738D01*
X97393Y35590D01*
X97402Y35461D01*
X97411Y35340D01*
X97420Y35229D01*
Y35137D01*
X97430Y35063D01*
Y35007D01*
Y34970D01*
Y34961D01*
X97420Y34702D01*
X97393Y34462D01*
X97346Y34240D01*
X97291Y34027D01*
X97226Y33842D01*
X97152Y33667D01*
X97069Y33510D01*
X96986Y33371D01*
X96903Y33251D01*
X96819Y33149D01*
X96745Y33057D01*
X96681Y32983D01*
X96625Y32927D01*
X96579Y32890D01*
X96551Y32862D01*
X96542Y32853D01*
X96366Y32733D01*
X96181Y32631D01*
X95987Y32539D01*
X95793Y32456D01*
X95590Y32391D01*
X95395Y32335D01*
X95192Y32289D01*
X95007Y32252D01*
X94831Y32225D01*
X94665Y32206D01*
X94517Y32188D01*
X94388Y32178D01*
X94286D01*
X94203Y32169D01*
X93889D01*
X93648Y32188D01*
X93435Y32197D01*
X93251Y32215D01*
X93167Y32225D01*
X93093Y32234D01*
X93029Y32243D01*
X92982D01*
X92936Y32252D01*
X92908Y32262D01*
X92881D01*
X92668Y32299D01*
X92465Y32345D01*
X92280Y32382D01*
X92122Y32419D01*
X91984Y32456D01*
X91928Y32465D01*
X91882Y32483D01*
X91845Y32493D01*
X91808D01*
X91799Y32502D01*
X91790D01*
X91827Y32308D01*
X91873Y32114D01*
X91919Y31929D01*
X91965Y31762D01*
X92012Y31605D01*
X92058Y31457D01*
X92104Y31318D01*
X92150Y31189D01*
X92187Y31078D01*
X92224Y30976D01*
X92261Y30893D01*
X92289Y30819D01*
X92308Y30764D01*
X92326Y30727D01*
X92344Y30699D01*
Y30690D01*
X92474Y30431D01*
X92613Y30209D01*
X92742Y30006D01*
X92871Y29839D01*
X92982Y29710D01*
X93029Y29654D01*
X93066Y29617D01*
X93103Y29580D01*
X93130Y29553D01*
X93140Y29543D01*
X93149Y29534D01*
X93324Y29386D01*
X93509Y29257D01*
X93685Y29146D01*
X93842Y29062D01*
X93981Y28998D01*
X94046Y28970D01*
X94092Y28952D01*
X94138Y28933D01*
X94166Y28924D01*
X94184Y28915D01*
X94194D01*
X94416Y28850D01*
X94637Y28804D01*
X94850Y28776D01*
X95044Y28757D01*
X95211Y28739D01*
X95285D01*
X95340Y28730D01*
X95460D01*
X95922Y28739D01*
X96366Y28776D01*
X96579Y28804D01*
X96782Y28831D01*
X96976Y28859D01*
X97161Y28887D01*
X97328Y28915D01*
X97476Y28942D01*
X97614Y28970D01*
X97725Y28998D01*
X97818Y29016D01*
X97883Y29035D01*
X97920Y29044D01*
X97938D01*
X98225Y27620D01*
X97984Y27574D01*
X97753Y27537D01*
X97531Y27500D01*
X97319Y27463D01*
X97235Y27454D01*
X97152Y27445D01*
X97078Y27435D01*
X97014Y27426D01*
X96958Y27417D01*
X96921Y27408D01*
X96893D01*
X96634Y27380D01*
X96385Y27361D01*
X96163Y27343D01*
X95960Y27334D01*
X95793D01*
X95719Y27324D01*
X95553D01*
X95155Y27334D01*
X94776Y27371D01*
X94600Y27389D01*
X94434Y27417D01*
X94286Y27445D01*
X94138Y27472D01*
X94009Y27500D01*
X93898Y27528D01*
X93796Y27555D01*
X93703Y27574D01*
X93639Y27592D01*
X93583Y27611D01*
X93556Y27620D01*
X93546D01*
X93380Y27685D01*
X93214Y27750D01*
X92899Y27907D01*
X92622Y28082D01*
X92492Y28166D01*
X92381Y28249D01*
X92270Y28332D01*
X92178Y28406D01*
X92095Y28471D01*
X92030Y28526D01*
X91975Y28582D01*
X91938Y28619D01*
X91910Y28637D01*
X91901Y28647D01*
X91762Y28785D01*
X91632Y28933D01*
X91392Y29247D01*
X91180Y29571D01*
X90995Y29876D01*
X90911Y30015D01*
X90837Y30144D01*
X90782Y30264D01*
X90726Y30366D01*
X90689Y30449D01*
X90662Y30505D01*
X90643Y30551D01*
X90634Y30560D01*
X90532Y30791D01*
X90440Y31032D01*
X90273Y31522D01*
X90135Y32021D01*
X90070Y32262D01*
X90015Y32483D01*
X89959Y32705D01*
X89913Y32899D01*
X89876Y33075D01*
X89848Y33223D01*
X89820Y33352D01*
X89802Y33445D01*
Y33473D01*
X89793Y33500D01*
Y33510D01*
Y33519D01*
X89746Y33778D01*
X89709Y34027D01*
X89672Y34258D01*
X89645Y34480D01*
X89626Y34693D01*
X89608Y34887D01*
X89589Y35072D01*
X89571Y35239D01*
X89562Y35387D01*
X89552Y35516D01*
Y35636D01*
X89543Y35729D01*
Y35803D01*
Y35858D01*
Y35895D01*
Y35904D01*
X89552Y36265D01*
X89580Y36588D01*
X89617Y36893D01*
X89672Y37180D01*
X89737Y37430D01*
X89811Y37661D01*
X89885Y37864D01*
X89968Y38049D01*
X90051Y38206D01*
X90126Y38345D01*
X90199Y38456D01*
X90264Y38549D01*
X90310Y38613D01*
X90357Y38669D01*
X90384Y38696D01*
X90394Y38706D01*
X90560Y38854D01*
X90745Y38974D01*
X90939Y39085D01*
X91143Y39177D01*
X91355Y39260D01*
X91568Y39325D01*
X91771Y39381D01*
X91975Y39427D01*
X92169Y39464D01*
X92344Y39482D01*
X92511Y39501D01*
X92649Y39519D01*
X92760D01*
X92853Y39529D01*
X92927D01*
X93287Y39519D01*
D02*
G37*
G36*
X73715Y27500D02*
X71801D01*
X71440Y28018D01*
X71089Y28535D01*
X70747Y29044D01*
X70423Y29543D01*
X70118Y30033D01*
X69831Y30496D01*
X69563Y30939D01*
X69314Y31355D01*
X69092Y31734D01*
X68981Y31910D01*
X68888Y32086D01*
X68796Y32243D01*
X68713Y32391D01*
X68639Y32520D01*
X68565Y32650D01*
X68509Y32761D01*
X68454Y32853D01*
X68408Y32936D01*
X68371Y33010D01*
X68334Y33066D01*
X68315Y33103D01*
X68297Y33131D01*
Y33140D01*
X68010Y33685D01*
X67733Y34231D01*
X67464Y34785D01*
X67215Y35331D01*
X66975Y35858D01*
X66743Y36367D01*
X66531Y36866D01*
X66337Y37328D01*
X66253Y37541D01*
X66170Y37753D01*
X66087Y37957D01*
X66013Y38142D01*
X65939Y38317D01*
X65874Y38484D01*
X65819Y38641D01*
X65763Y38780D01*
X65717Y38909D01*
X65671Y39020D01*
X65634Y39112D01*
X65606Y39196D01*
X65578Y39260D01*
X65560Y39307D01*
X65551Y39334D01*
Y39344D01*
X67335D01*
X67548Y38789D01*
X67751Y38243D01*
X67964Y37716D01*
X68176Y37208D01*
X68380Y36727D01*
X68583Y36274D01*
X68768Y35849D01*
X68953Y35451D01*
X69036Y35266D01*
X69120Y35100D01*
X69194Y34933D01*
X69267Y34776D01*
X69341Y34628D01*
X69406Y34499D01*
X69462Y34379D01*
X69517Y34258D01*
X69563Y34166D01*
X69609Y34074D01*
X69647Y34000D01*
X69683Y33935D01*
X69702Y33889D01*
X69721Y33852D01*
X69739Y33833D01*
Y33824D01*
X69979Y33362D01*
X70229Y32918D01*
X70460Y32483D01*
X70691Y32067D01*
X70922Y31679D01*
X71135Y31309D01*
X71338Y30958D01*
X71523Y30643D01*
X71699Y30348D01*
X71856Y30098D01*
X71995Y29867D01*
X72060Y29774D01*
X72115Y29682D01*
X72161Y29599D01*
X72207Y29534D01*
X72245Y29469D01*
X72281Y29423D01*
X72300Y29386D01*
X72319Y29358D01*
X72337Y29340D01*
Y29331D01*
X73835Y39344D01*
X75545D01*
X73715Y27500D01*
D02*
G37*
G36*
X133783Y39510D02*
X134144Y39464D01*
X134495Y39390D01*
X134819Y39297D01*
X135124Y39186D01*
X135410Y39066D01*
X135669Y38937D01*
X135910Y38798D01*
X136122Y38659D01*
X136307Y38530D01*
X136464Y38410D01*
X136603Y38299D01*
X136705Y38206D01*
X136779Y38132D01*
X136825Y38086D01*
X136844Y38068D01*
X136964Y37929D01*
X137084Y37772D01*
X137315Y37448D01*
X137518Y37097D01*
X137713Y36727D01*
X137898Y36339D01*
X138055Y35951D01*
X138203Y35562D01*
X138332Y35183D01*
X138443Y34822D01*
X138545Y34480D01*
X138582Y34323D01*
X138628Y34175D01*
X138665Y34037D01*
X138693Y33907D01*
X138720Y33796D01*
X138748Y33685D01*
X138767Y33602D01*
X138785Y33519D01*
X138794Y33463D01*
X138804Y33417D01*
X138813Y33389D01*
Y33380D01*
X138859Y33103D01*
X138905Y32844D01*
X138942Y32613D01*
X138970Y32409D01*
X138979Y32317D01*
X138998Y32234D01*
X139007Y32169D01*
Y32104D01*
X139016Y32058D01*
X139025Y32021D01*
Y32003D01*
Y31993D01*
X139044Y31762D01*
X139062Y31550D01*
X139072Y31346D01*
X139081Y31180D01*
X139090Y31032D01*
Y30976D01*
Y30921D01*
Y30884D01*
Y30856D01*
Y30838D01*
Y30828D01*
X139081Y30496D01*
X139053Y30190D01*
X139016Y29904D01*
X138961Y29636D01*
X138905Y29395D01*
X138831Y29183D01*
X138767Y28979D01*
X138683Y28804D01*
X138609Y28656D01*
X138535Y28517D01*
X138471Y28406D01*
X138415Y28314D01*
X138360Y28249D01*
X138323Y28193D01*
X138295Y28166D01*
X138286Y28156D01*
X138119Y28008D01*
X137944Y27879D01*
X137750Y27768D01*
X137555Y27676D01*
X137352Y27592D01*
X137139Y27528D01*
X136936Y27472D01*
X136733Y27426D01*
X136548Y27398D01*
X136372Y27371D01*
X136215Y27352D01*
X136076Y27334D01*
X135956D01*
X135873Y27324D01*
X135799D01*
X135410Y27343D01*
X135050Y27380D01*
X134883Y27408D01*
X134726Y27435D01*
X134578Y27463D01*
X134440Y27500D01*
X134310Y27528D01*
X134199Y27555D01*
X134107Y27583D01*
X134024Y27611D01*
X133959Y27639D01*
X133913Y27648D01*
X133885Y27666D01*
X133876D01*
X133561Y27814D01*
X133275Y27990D01*
X133007Y28166D01*
X132896Y28258D01*
X132785Y28341D01*
X132692Y28425D01*
X132600Y28508D01*
X132526Y28572D01*
X132470Y28637D01*
X132415Y28683D01*
X132378Y28730D01*
X132359Y28748D01*
X132350Y28757D01*
X132230Y28905D01*
X132110Y29053D01*
X131888Y29368D01*
X131694Y29682D01*
X131527Y29987D01*
X131453Y30117D01*
X131389Y30246D01*
X131333Y30366D01*
X131287Y30459D01*
X131250Y30542D01*
X131222Y30607D01*
X131213Y30643D01*
X131204Y30653D01*
X131111Y30875D01*
X131028Y31106D01*
X130880Y31568D01*
X130741Y32040D01*
X130686Y32262D01*
X130631Y32465D01*
X130584Y32668D01*
X130538Y32844D01*
X130501Y33010D01*
X130473Y33149D01*
X130446Y33260D01*
X130427Y33343D01*
X130418Y33399D01*
Y33417D01*
X130372Y33685D01*
X130325Y33944D01*
X130288Y34175D01*
X130261Y34388D01*
X130242Y34471D01*
X130233Y34554D01*
X130224Y34628D01*
X130214Y34684D01*
Y34730D01*
X130205Y34767D01*
Y34785D01*
Y34795D01*
X130177Y35035D01*
X130159Y35257D01*
X130150Y35461D01*
X130140Y35636D01*
X130131Y35784D01*
Y35849D01*
Y35904D01*
Y35941D01*
Y35969D01*
Y35988D01*
Y35997D01*
X130140Y36330D01*
X130168Y36644D01*
X130205Y36930D01*
X130251Y37199D01*
X130316Y37439D01*
X130381Y37661D01*
X130455Y37855D01*
X130529Y38040D01*
X130603Y38188D01*
X130677Y38327D01*
X130741Y38438D01*
X130806Y38530D01*
X130852Y38595D01*
X130889Y38650D01*
X130917Y38678D01*
X130926Y38687D01*
X131083Y38835D01*
X131259Y38965D01*
X131453Y39076D01*
X131648Y39177D01*
X131851Y39251D01*
X132054Y39325D01*
X132258Y39381D01*
X132461Y39427D01*
X132646Y39455D01*
X132822Y39482D01*
X132979Y39501D01*
X133118Y39519D01*
X133238D01*
X133321Y39529D01*
X133395D01*
X133783Y39510D01*
D02*
G37*
G36*
X103051D02*
X103411Y39464D01*
X103763Y39390D01*
X104086Y39297D01*
X104391Y39186D01*
X104678Y39066D01*
X104937Y38937D01*
X105177Y38798D01*
X105390Y38659D01*
X105575Y38530D01*
X105732Y38410D01*
X105871Y38299D01*
X105972Y38206D01*
X106046Y38132D01*
X106093Y38086D01*
X106111Y38068D01*
X106231Y37929D01*
X106351Y37772D01*
X106583Y37448D01*
X106786Y37097D01*
X106980Y36727D01*
X107165Y36339D01*
X107322Y35951D01*
X107470Y35562D01*
X107600Y35183D01*
X107711Y34822D01*
X107812Y34480D01*
X107849Y34323D01*
X107895Y34175D01*
X107933Y34037D01*
X107960Y33907D01*
X107988Y33796D01*
X108016Y33685D01*
X108034Y33602D01*
X108053Y33519D01*
X108062Y33463D01*
X108071Y33417D01*
X108081Y33389D01*
Y33380D01*
X108127Y33103D01*
X108173Y32844D01*
X108210Y32613D01*
X108238Y32409D01*
X108247Y32317D01*
X108265Y32234D01*
X108275Y32169D01*
Y32104D01*
X108284Y32058D01*
X108293Y32021D01*
Y32003D01*
Y31993D01*
X108312Y31762D01*
X108330Y31550D01*
X108339Y31346D01*
X108349Y31180D01*
X108358Y31032D01*
Y30976D01*
Y30921D01*
Y30884D01*
Y30856D01*
Y30838D01*
Y30828D01*
X108349Y30496D01*
X108321Y30190D01*
X108284Y29904D01*
X108228Y29636D01*
X108173Y29395D01*
X108099Y29183D01*
X108034Y28979D01*
X107951Y28804D01*
X107877Y28656D01*
X107803Y28517D01*
X107738Y28406D01*
X107683Y28314D01*
X107627Y28249D01*
X107590Y28193D01*
X107563Y28166D01*
X107554Y28156D01*
X107387Y28008D01*
X107211Y27879D01*
X107017Y27768D01*
X106823Y27676D01*
X106620Y27592D01*
X106407Y27528D01*
X106204Y27472D01*
X106000Y27426D01*
X105815Y27398D01*
X105640Y27371D01*
X105482Y27352D01*
X105344Y27334D01*
X105224D01*
X105140Y27324D01*
X105066D01*
X104678Y27343D01*
X104318Y27380D01*
X104151Y27408D01*
X103994Y27435D01*
X103846Y27463D01*
X103707Y27500D01*
X103578Y27528D01*
X103467Y27555D01*
X103374Y27583D01*
X103291Y27611D01*
X103226Y27639D01*
X103180Y27648D01*
X103153Y27666D01*
X103143D01*
X102829Y27814D01*
X102542Y27990D01*
X102274Y28166D01*
X102163Y28258D01*
X102052Y28341D01*
X101960Y28425D01*
X101867Y28508D01*
X101793Y28572D01*
X101738Y28637D01*
X101683Y28683D01*
X101645Y28730D01*
X101627Y28748D01*
X101618Y28757D01*
X101498Y28905D01*
X101377Y29053D01*
X101156Y29368D01*
X100961Y29682D01*
X100795Y29987D01*
X100721Y30117D01*
X100656Y30246D01*
X100601Y30366D01*
X100555Y30459D01*
X100518Y30542D01*
X100490Y30607D01*
X100481Y30643D01*
X100471Y30653D01*
X100379Y30875D01*
X100296Y31106D01*
X100148Y31568D01*
X100009Y32040D01*
X99954Y32262D01*
X99898Y32465D01*
X99852Y32668D01*
X99806Y32844D01*
X99769Y33010D01*
X99741Y33149D01*
X99713Y33260D01*
X99695Y33343D01*
X99685Y33399D01*
Y33417D01*
X99639Y33685D01*
X99593Y33944D01*
X99556Y34175D01*
X99528Y34388D01*
X99510Y34471D01*
X99501Y34554D01*
X99491Y34628D01*
X99482Y34684D01*
Y34730D01*
X99473Y34767D01*
Y34785D01*
Y34795D01*
X99445Y35035D01*
X99427Y35257D01*
X99417Y35461D01*
X99408Y35636D01*
X99399Y35784D01*
Y35849D01*
Y35904D01*
Y35941D01*
Y35969D01*
Y35988D01*
Y35997D01*
X99408Y36330D01*
X99436Y36644D01*
X99473Y36930D01*
X99519Y37199D01*
X99584Y37439D01*
X99649Y37661D01*
X99722Y37855D01*
X99796Y38040D01*
X99870Y38188D01*
X99944Y38327D01*
X100009Y38438D01*
X100074Y38530D01*
X100120Y38595D01*
X100157Y38650D01*
X100185Y38678D01*
X100194Y38687D01*
X100351Y38835D01*
X100527Y38965D01*
X100721Y39076D01*
X100915Y39177D01*
X101118Y39251D01*
X101322Y39325D01*
X101525Y39381D01*
X101729Y39427D01*
X101914Y39455D01*
X102089Y39482D01*
X102247Y39501D01*
X102385Y39519D01*
X102505D01*
X102589Y39529D01*
X102662D01*
X103051Y39510D01*
D02*
G37*
G36*
X89996Y26187D02*
X78411D01*
X78180Y27324D01*
X89765D01*
X89996Y26187D01*
D02*
G37*
%LPC*%
G36*
X93186Y38123D02*
X93093D01*
X92899Y38114D01*
X92714Y38096D01*
X92566Y38068D01*
X92428Y38040D01*
X92326Y38003D01*
X92252Y37975D01*
X92206Y37957D01*
X92187Y37947D01*
X92058Y37883D01*
X91947Y37809D01*
X91854Y37726D01*
X91771Y37652D01*
X91706Y37587D01*
X91660Y37531D01*
X91632Y37494D01*
X91623Y37485D01*
X91549Y37374D01*
X91494Y37254D01*
X91438Y37134D01*
X91401Y37032D01*
X91374Y36930D01*
X91355Y36857D01*
X91337Y36810D01*
Y36801D01*
Y36792D01*
X91290Y36496D01*
X91272Y36348D01*
X91263Y36219D01*
X91253Y36108D01*
Y36024D01*
Y35988D01*
Y35960D01*
Y35951D01*
Y35941D01*
X91263Y35608D01*
X91272Y35451D01*
X91281Y35312D01*
X91300Y35183D01*
X91309Y35091D01*
Y35054D01*
X91318Y35026D01*
Y35017D01*
Y35007D01*
X91346Y34822D01*
X91374Y34647D01*
X91401Y34490D01*
X91429Y34342D01*
X91457Y34212D01*
X91475Y34120D01*
X91485Y34083D01*
Y34055D01*
X91494Y34046D01*
Y34037D01*
X91697Y33972D01*
X91901Y33907D01*
X92095Y33852D01*
X92270Y33805D01*
X92418Y33768D01*
X92483Y33759D01*
X92539Y33741D01*
X92585Y33732D01*
X92622D01*
X92640Y33722D01*
X92649D01*
X92881Y33685D01*
X93112Y33658D01*
X93334Y33639D01*
X93528Y33630D01*
X93620Y33621D01*
X93694D01*
X93768Y33611D01*
X93944D01*
X94120Y33621D01*
X94277Y33630D01*
X94425Y33648D01*
X94563Y33676D01*
X94684Y33704D01*
X94795Y33741D01*
X94896Y33778D01*
X94979Y33815D01*
X95053Y33852D01*
X95118Y33879D01*
X95174Y33916D01*
X95220Y33944D01*
X95248Y33972D01*
X95275Y33990D01*
X95285Y34009D01*
X95294D01*
X95423Y34175D01*
X95516Y34360D01*
X95590Y34554D01*
X95636Y34739D01*
X95664Y34915D01*
X95673Y34980D01*
Y35044D01*
X95682Y35100D01*
Y35137D01*
Y35165D01*
Y35174D01*
X95673Y35433D01*
X95654Y35673D01*
X95617Y35886D01*
X95580Y36071D01*
X95562Y36154D01*
X95543Y36219D01*
X95525Y36283D01*
X95506Y36339D01*
X95497Y36376D01*
X95488Y36404D01*
X95479Y36422D01*
Y36431D01*
X95395Y36625D01*
X95303Y36801D01*
X95220Y36958D01*
X95127Y37097D01*
X95053Y37199D01*
X94989Y37282D01*
X94952Y37328D01*
X94933Y37347D01*
X94795Y37476D01*
X94656Y37596D01*
X94517Y37698D01*
X94388Y37772D01*
X94277Y37837D01*
X94194Y37883D01*
X94157Y37901D01*
X94129Y37910D01*
X94120Y37920D01*
X94110D01*
X93935Y37984D01*
X93750Y38040D01*
X93583Y38077D01*
X93426Y38096D01*
X93287Y38114D01*
X93186Y38123D01*
D02*
G37*
G36*
X133700D02*
X133589D01*
X133423Y38114D01*
X133275Y38105D01*
X133127Y38077D01*
X132997Y38049D01*
X132877Y38012D01*
X132766Y37975D01*
X132664Y37929D01*
X132581Y37892D01*
X132498Y37846D01*
X132433Y37800D01*
X132378Y37763D01*
X132332Y37726D01*
X132295Y37698D01*
X132267Y37670D01*
X132258Y37661D01*
X132248Y37652D01*
X132175Y37559D01*
X132100Y37448D01*
X132045Y37328D01*
X131990Y37208D01*
X131916Y36940D01*
X131860Y36681D01*
X131842Y36551D01*
X131823Y36440D01*
X131814Y36330D01*
Y36237D01*
X131805Y36163D01*
Y36098D01*
Y36061D01*
Y36052D01*
Y35858D01*
X131823Y35655D01*
X131842Y35442D01*
X131860Y35220D01*
X131916Y34785D01*
X131953Y34564D01*
X131980Y34360D01*
X132017Y34166D01*
X132054Y33981D01*
X132082Y33815D01*
X132110Y33676D01*
X132128Y33556D01*
X132147Y33473D01*
X132165Y33417D01*
Y33408D01*
Y33399D01*
X132221Y33158D01*
X132276Y32927D01*
X132332Y32715D01*
X132378Y32502D01*
X132433Y32308D01*
X132480Y32132D01*
X132535Y31966D01*
X132581Y31808D01*
X132618Y31670D01*
X132655Y31550D01*
X132692Y31448D01*
X132720Y31355D01*
X132748Y31291D01*
X132757Y31235D01*
X132775Y31207D01*
Y31198D01*
X132896Y30884D01*
X133025Y30597D01*
X133090Y30468D01*
X133145Y30348D01*
X133210Y30246D01*
X133265Y30144D01*
X133312Y30052D01*
X133367Y29978D01*
X133404Y29913D01*
X133441Y29858D01*
X133469Y29811D01*
X133497Y29784D01*
X133506Y29765D01*
X133515Y29756D01*
X133672Y29562D01*
X133839Y29405D01*
X133987Y29266D01*
X134135Y29155D01*
X134255Y29072D01*
X134356Y29016D01*
X134393Y28998D01*
X134421Y28979D01*
X134430Y28970D01*
X134440D01*
X134634Y28887D01*
X134837Y28831D01*
X135031Y28785D01*
X135216Y28757D01*
X135373Y28739D01*
X135438D01*
X135494Y28730D01*
X135605D01*
X135771Y28739D01*
X135919Y28748D01*
X136067Y28776D01*
X136196Y28804D01*
X136316Y28841D01*
X136427Y28878D01*
X136529Y28915D01*
X136622Y28961D01*
X136696Y29007D01*
X136770Y29044D01*
X136825Y29081D01*
X136871Y29118D01*
X136908Y29146D01*
X136936Y29173D01*
X136945Y29183D01*
X136954Y29192D01*
X137028Y29284D01*
X137102Y29395D01*
X137158Y29516D01*
X137213Y29636D01*
X137287Y29904D01*
X137343Y30163D01*
X137361Y30292D01*
X137371Y30403D01*
X137389Y30514D01*
Y30607D01*
X137398Y30680D01*
Y30745D01*
Y30782D01*
Y30791D01*
Y30976D01*
X137380Y31180D01*
X137343Y31605D01*
X137287Y32040D01*
X137260Y32252D01*
X137223Y32456D01*
X137186Y32650D01*
X137158Y32826D01*
X137130Y32992D01*
X137102Y33131D01*
X137075Y33242D01*
X137065Y33325D01*
X137047Y33380D01*
Y33399D01*
X136991Y33639D01*
X136936Y33870D01*
X136881Y34092D01*
X136834Y34295D01*
X136779Y34490D01*
X136723Y34675D01*
X136677Y34841D01*
X136631Y34998D01*
X136594Y35137D01*
X136557Y35257D01*
X136520Y35359D01*
X136492Y35451D01*
X136464Y35516D01*
X136455Y35571D01*
X136437Y35599D01*
Y35608D01*
X136307Y35932D01*
X136243Y36080D01*
X136178Y36219D01*
X136113Y36348D01*
X136058Y36468D01*
X135993Y36579D01*
X135937Y36681D01*
X135891Y36764D01*
X135845Y36847D01*
X135799Y36912D01*
X135762Y36967D01*
X135734Y37014D01*
X135716Y37041D01*
X135697Y37060D01*
Y37069D01*
X135540Y37263D01*
X135373Y37430D01*
X135216Y37569D01*
X135078Y37679D01*
X134948Y37772D01*
X134846Y37827D01*
X134810Y37846D01*
X134782Y37864D01*
X134773Y37874D01*
X134763D01*
X134560Y37957D01*
X134356Y38022D01*
X134162Y38059D01*
X133977Y38096D01*
X133820Y38114D01*
X133756D01*
X133700Y38123D01*
D02*
G37*
G36*
X102968D02*
X102857D01*
X102690Y38114D01*
X102542Y38105D01*
X102394Y38077D01*
X102265Y38049D01*
X102145Y38012D01*
X102034Y37975D01*
X101932Y37929D01*
X101849Y37892D01*
X101766Y37846D01*
X101701Y37800D01*
X101645Y37763D01*
X101599Y37726D01*
X101562Y37698D01*
X101535Y37670D01*
X101525Y37661D01*
X101516Y37652D01*
X101442Y37559D01*
X101368Y37448D01*
X101313Y37328D01*
X101257Y37208D01*
X101183Y36940D01*
X101128Y36681D01*
X101109Y36551D01*
X101091Y36440D01*
X101081Y36330D01*
Y36237D01*
X101072Y36163D01*
Y36098D01*
Y36061D01*
Y36052D01*
Y35858D01*
X101091Y35655D01*
X101109Y35442D01*
X101128Y35220D01*
X101183Y34785D01*
X101220Y34564D01*
X101248Y34360D01*
X101285Y34166D01*
X101322Y33981D01*
X101350Y33815D01*
X101377Y33676D01*
X101396Y33556D01*
X101414Y33473D01*
X101433Y33417D01*
Y33408D01*
Y33399D01*
X101488Y33158D01*
X101544Y32927D01*
X101599Y32715D01*
X101645Y32502D01*
X101701Y32308D01*
X101747Y32132D01*
X101803Y31966D01*
X101849Y31808D01*
X101886Y31670D01*
X101923Y31550D01*
X101960Y31448D01*
X101988Y31355D01*
X102015Y31291D01*
X102025Y31235D01*
X102043Y31207D01*
Y31198D01*
X102163Y30884D01*
X102293Y30597D01*
X102357Y30468D01*
X102413Y30348D01*
X102478Y30246D01*
X102533Y30144D01*
X102579Y30052D01*
X102635Y29978D01*
X102672Y29913D01*
X102709Y29858D01*
X102737Y29811D01*
X102764Y29784D01*
X102774Y29765D01*
X102783Y29756D01*
X102940Y29562D01*
X103106Y29405D01*
X103254Y29266D01*
X103402Y29155D01*
X103522Y29072D01*
X103624Y29016D01*
X103661Y28998D01*
X103689Y28979D01*
X103698Y28970D01*
X103707D01*
X103901Y28887D01*
X104105Y28831D01*
X104299Y28785D01*
X104484Y28757D01*
X104641Y28739D01*
X104706D01*
X104761Y28730D01*
X104872D01*
X105039Y28739D01*
X105187Y28748D01*
X105335Y28776D01*
X105464Y28804D01*
X105584Y28841D01*
X105695Y28878D01*
X105797Y28915D01*
X105889Y28961D01*
X105963Y29007D01*
X106037Y29044D01*
X106093Y29081D01*
X106139Y29118D01*
X106176Y29146D01*
X106204Y29173D01*
X106213Y29183D01*
X106222Y29192D01*
X106296Y29284D01*
X106370Y29395D01*
X106426Y29516D01*
X106481Y29636D01*
X106555Y29904D01*
X106610Y30163D01*
X106629Y30292D01*
X106638Y30403D01*
X106657Y30514D01*
Y30607D01*
X106666Y30680D01*
Y30745D01*
Y30782D01*
Y30791D01*
Y30976D01*
X106647Y31180D01*
X106610Y31605D01*
X106555Y32040D01*
X106527Y32252D01*
X106490Y32456D01*
X106453Y32650D01*
X106426Y32826D01*
X106398Y32992D01*
X106370Y33131D01*
X106342Y33242D01*
X106333Y33325D01*
X106314Y33380D01*
Y33399D01*
X106259Y33639D01*
X106204Y33870D01*
X106148Y34092D01*
X106102Y34295D01*
X106046Y34490D01*
X105991Y34675D01*
X105945Y34841D01*
X105899Y34998D01*
X105862Y35137D01*
X105824Y35257D01*
X105787Y35359D01*
X105760Y35451D01*
X105732Y35516D01*
X105723Y35571D01*
X105704Y35599D01*
Y35608D01*
X105575Y35932D01*
X105510Y36080D01*
X105445Y36219D01*
X105381Y36348D01*
X105325Y36468D01*
X105260Y36579D01*
X105205Y36681D01*
X105159Y36764D01*
X105113Y36847D01*
X105066Y36912D01*
X105029Y36967D01*
X105002Y37014D01*
X104983Y37041D01*
X104965Y37060D01*
Y37069D01*
X104808Y37263D01*
X104641Y37430D01*
X104484Y37569D01*
X104345Y37679D01*
X104216Y37772D01*
X104114Y37827D01*
X104077Y37846D01*
X104049Y37864D01*
X104040Y37874D01*
X104031D01*
X103827Y37957D01*
X103624Y38022D01*
X103430Y38059D01*
X103245Y38096D01*
X103088Y38114D01*
X103023D01*
X102968Y38123D01*
D02*
G37*
%LPD*%
D10*
X1419Y20250D02*
Y94250D01*
X43270D01*
X1419Y20250D02*
X168270D01*
Y133250D01*
X43270D02*
X168270D01*
X43270Y94250D02*
Y133250D01*
D43*
X62157Y92024D02*
X72571D01*
X61649Y92278D02*
X72317D01*
X61141Y92532D02*
X72063D01*
X60379Y92786D02*
X71555D01*
X60125Y93040D02*
X71047D01*
X59363Y93294D02*
X70793D01*
X58855Y93548D02*
X70285D01*
X58347Y93802D02*
X69777D01*
X58093Y94056D02*
X69269D01*
X57331Y94310D02*
X69015Y94310D01*
X56569Y94564D02*
X68507Y94564D01*
X56315Y94818D02*
X67999Y94818D01*
X55807Y95072D02*
X67491D01*
X55045Y95326D02*
X67237D01*
X54537Y95580D02*
X66729D01*
X54029Y95834D02*
X65967D01*
X53521Y96088D02*
X65713D01*
X55045Y111328D02*
X63935Y111328D01*
X57331Y111582D02*
X61141D01*
X54029Y111074D02*
X65713D01*
X77905Y43510D02*
X78921D01*
X77651Y43764D02*
X79175Y43764D01*
X77651Y44018D02*
X79937D01*
X77397Y44272D02*
X80445Y44272D01*
X77397Y44526D02*
X80953D01*
X77651Y45034D02*
X81715D01*
X77651Y45288D02*
X81969D01*
X77905Y45542D02*
X82223D01*
X77905Y45796D02*
X82731D01*
X78159Y46050D02*
X82985D01*
X78159Y46304D02*
X83493D01*
X78413Y46558D02*
X83747D01*
X78413Y46812D02*
X84001Y46812D01*
X78667Y47066D02*
X84509D01*
X78921Y47320D02*
X84763D01*
X79175Y47574D02*
X85017Y47574D01*
X79175Y47828D02*
X85271D01*
X79429Y48082D02*
X85779D01*
X79683Y48336D02*
X86033D01*
X79937Y48590D02*
X86287Y48590D01*
X79937Y48844D02*
X86795D01*
X80191Y49098D02*
X87049D01*
X80445Y49352D02*
X87303Y49352D01*
X80699Y49606D02*
X87557D01*
X80699Y49860D02*
X87811D01*
X80953Y50114D02*
X88319D01*
X81207Y50368D02*
X88573D01*
X81461Y50622D02*
X88827D01*
X81715Y50876D02*
X89081D01*
X81969Y51130D02*
X89589D01*
X81969Y51384D02*
X89843D01*
X82223Y51638D02*
X90097D01*
X82477Y51892D02*
X90605D01*
X82731Y52146D02*
X90605D01*
X82731Y52400D02*
X91113Y52400D01*
X82985Y52654D02*
X91367Y52654D01*
X83239Y52908D02*
X91621D01*
X83493Y53162D02*
X92129D01*
X83747Y53416D02*
X92383D01*
X83747Y53670D02*
X92637D01*
X84001Y53924D02*
X93145D01*
X79175Y81864D02*
X92891D01*
X78667Y82118D02*
X92383Y82118D01*
X78159Y82372D02*
X91113Y82372D01*
X77905Y82626D02*
X90097D01*
X77651Y82880D02*
X89589D01*
X77143Y83134D02*
X88827D01*
X76889Y83388D02*
X87811D01*
X76381Y83642D02*
X87303D01*
X76127Y83896D02*
X86795Y83896D01*
X75619Y84150D02*
X86033Y84150D01*
X75365Y84404D02*
X85271D01*
X74857Y84658D02*
X84763D01*
X74603Y84912D02*
X84509Y84912D01*
X74095Y85166D02*
X83747D01*
X73333Y85674D02*
X82731D01*
X93907Y74752D02*
X94415D01*
X93653Y75006D02*
X94669D01*
X124895Y121234D02*
X133277D01*
X125911Y121488D02*
X132261D01*
X126673Y121742D02*
X131245D01*
X157153Y119710D02*
X163503D01*
X161217Y119964D02*
X164011D01*
X77397Y44780D02*
X81207D01*
X73841Y85420D02*
X83239D01*
X84255Y54178D02*
X93399Y54178D01*
X84509Y54432D02*
X93653D01*
X84763Y54686D02*
X94161D01*
X84763Y54940D02*
X94415Y54940D01*
X85017Y55194D02*
X94923Y55194D01*
X85271Y55448D02*
X95177D01*
X85525Y55702D02*
X95685D01*
X85779Y55956D02*
X95939D01*
X85779Y56210D02*
X96193D01*
X86033Y56464D02*
X96701D01*
X86287Y56718D02*
X97209D01*
X86541Y56972D02*
X97463D01*
X86541Y57226D02*
X97971D01*
X86795Y57480D02*
X98225D01*
X87303Y57988D02*
X98987D01*
X87303Y58242D02*
X99495D01*
X87557Y58496D02*
X100003D01*
X87811Y58750D02*
X100257Y58750D01*
X88065Y59004D02*
X100765D01*
X88319Y59258D02*
X101273D01*
X88319Y59512D02*
X101781Y59512D01*
X88573Y59766D02*
X102035D01*
X88827Y60020D02*
X102543Y60020D01*
X88827Y60274D02*
X103051D01*
X89335Y60528D02*
X103813D01*
X89335Y60782D02*
X104067D01*
X89589Y61036D02*
X104575D01*
X89589Y61290D02*
X105337Y61290D01*
X89843Y61544D02*
X106099D01*
X90097Y61798D02*
X106607D01*
X90351Y62052D02*
X110671D01*
X90351Y62306D02*
X113719D01*
X90605Y62560D02*
X114735Y62560D01*
X90859Y62814D02*
X115497D01*
X91113Y63068D02*
X116767D01*
X91367Y63322D02*
X117529D01*
X91367Y63576D02*
X118037D01*
X91621Y63830D02*
X118545Y63830D01*
X91621Y64084D02*
X119307D01*
X91875Y64338D02*
X119815Y64338D01*
X92129Y64592D02*
X120069D01*
X92383Y64846D02*
X120577Y64846D01*
X87049Y57734D02*
X98733Y57734D01*
X92637Y75260D02*
X94923D01*
X91367Y75514D02*
X94923Y75514D01*
X79683Y81356D02*
X94923D01*
X79429Y81610D02*
X93653D01*
X92637Y65354D02*
X121339D01*
X92891Y65608D02*
X121847D01*
X92891Y65862D02*
X122101D01*
X93145Y66116D02*
X122609Y66116D01*
X93399Y66370D02*
X122863Y66370D01*
X93399Y66624D02*
X123117D01*
X93653Y66878D02*
X123371D01*
X90859Y75768D02*
X95177Y75768D01*
X90351Y76022D02*
X95177D01*
X89335Y76276D02*
X95431D01*
X88573Y76530D02*
X95431D01*
X88065Y76784D02*
X95431D01*
X87557Y77038D02*
X95431D01*
X86795Y77292D02*
X95431D01*
X86033Y77546D02*
X95431Y77546D01*
X85779Y77800D02*
X95685D01*
X85271Y78054D02*
X95685D01*
X84763Y78308D02*
X95685Y78308D01*
X84255Y78562D02*
X95685D01*
X84001Y78816D02*
X95939Y78816D01*
X83493Y79070D02*
X95939D01*
X82985Y79324D02*
X95939Y79324D01*
X82477Y79578D02*
X96193D01*
X82223Y79832D02*
X96193D01*
X81715Y80086D02*
X96193D01*
X81207Y80340D02*
X96193D01*
X80953Y80594D02*
X96193D01*
X80699Y80848D02*
X96193D01*
X80191Y81102D02*
X95939Y81102D01*
X63935Y91008D02*
X74349D01*
X63681Y91262D02*
X73841D01*
X63173Y91516D02*
X73587D01*
X62411Y91770D02*
X73333D01*
X72825Y85928D02*
X82477D01*
X72571Y86182D02*
X81969Y86182D01*
X72317Y86436D02*
X81461D01*
X71809Y86690D02*
X80953Y86690D01*
X71301Y86944D02*
X80699Y86944D01*
X70793Y87198D02*
X80191D01*
X70539Y87452D02*
X79683D01*
X70031Y87706D02*
X79429Y87706D01*
X69523Y87960D02*
X79175D01*
X69015Y88214D02*
X78413Y88214D01*
X68761Y88468D02*
X78159D01*
X68253Y88722D02*
X77905D01*
X67745Y88976D02*
X77397Y88976D01*
X67491Y89230D02*
X77143D01*
X66983Y89484D02*
X76635D01*
X66221Y89738D02*
X76381Y89738D01*
X65967Y89992D02*
X75873D01*
X65459Y90246D02*
X75365D01*
X64951Y90500D02*
X75365Y90500D01*
X64443Y90754D02*
X74857Y90754D01*
X52759Y96342D02*
X65205D01*
X52251Y96596D02*
X64697D01*
X51743Y96850D02*
X64189D01*
X51235Y97104D02*
X63681Y97104D01*
X50473Y97358D02*
X63173Y97358D01*
X49965Y97612D02*
X62665D01*
X49457Y97866D02*
X62157D01*
X48695Y98120D02*
X61903Y98120D01*
X47425Y98628D02*
X60633Y98628D01*
X47933Y98882D02*
X60125D01*
X48187Y99136D02*
X59617D01*
X48695Y99390D02*
X59109D01*
X49203Y99644D02*
X58347D01*
X49711Y99898D02*
X58093D01*
X49965Y100152D02*
X57585D01*
X50981Y100406D02*
X57077D01*
X52251Y100660D02*
X56061D01*
X47933Y98374D02*
X61141D01*
X62665Y101168D02*
X109401D01*
X62157Y101422D02*
X107369D01*
X61903Y101676D02*
X106099Y101676D01*
X61395Y101930D02*
X105337Y101930D01*
X60633Y102184D02*
X104321D01*
X60379Y102438D02*
X103051Y102438D01*
X59871Y102692D02*
X102289Y102692D01*
X59109Y102946D02*
X101527D01*
X58601Y103200D02*
X100511D01*
X58347Y103454D02*
X99241D01*
X57585Y103708D02*
X98733D01*
X57077Y103962D02*
X97971D01*
X56569Y104216D02*
X96701D01*
X56061Y104470D02*
X95431D01*
X55553Y104724D02*
X94669D01*
X54791Y104978D02*
X93653D01*
X54283Y105232D02*
X92383D01*
X53775Y105486D02*
X91367Y105486D01*
X49711Y107264D02*
X84509Y107264D01*
X49203Y107518D02*
X83747D01*
X48187Y107772D02*
X82985D01*
X47933Y108026D02*
X81715D01*
X47425Y108280D02*
X80445Y108280D01*
X47933Y108534D02*
X79937Y108534D01*
X48187Y108788D02*
X78921D01*
X48695Y109042D02*
X77397D01*
X48949Y109296D02*
X76381Y109296D01*
X49203Y109550D02*
X75365D01*
X49711Y109804D02*
X74095D01*
X50473Y110058D02*
X72317D01*
X50981Y110312D02*
X71301D01*
X51489Y110566D02*
X70031D01*
X52505Y110820D02*
X67999D01*
X52505Y105994D02*
X89589D01*
X51997Y106248D02*
X88319D01*
X51489Y106502D02*
X87557D01*
X50727Y106756D02*
X87049D01*
X50219Y107010D02*
X85779Y107010D01*
X145977Y118948D02*
X161471D01*
X148009Y119202D02*
X162487D01*
X153089Y119456D02*
X162995D01*
X144199Y118694D02*
X159947Y118694D01*
X92383Y65100D02*
X121085D01*
X53267Y105740D02*
X90605D01*
X93907Y67132D02*
X123879D01*
X93907Y67386D02*
X123879D01*
X94161Y67640D02*
X124387D01*
X94161Y67894D02*
X124641D01*
X94415Y68148D02*
X124895Y68148D01*
X94669Y68402D02*
X125149D01*
X94669Y68656D02*
X125403D01*
X94923Y68910D02*
X125657D01*
X95177Y69164D02*
X125911D01*
X95177Y69418D02*
X125911D01*
X95431Y69672D02*
X126165D01*
X95431Y69926D02*
X126419Y69926D01*
X95685Y70180D02*
X126673Y70180D01*
X95939Y70434D02*
X126673D01*
X95939Y70688D02*
X126927Y70688D01*
X96193Y70942D02*
X127181D01*
X96193Y71196D02*
X127435D01*
X96193Y71450D02*
X127689D01*
X96447Y71704D02*
X127689Y71704D01*
X96701Y71958D02*
X127943Y71958D01*
X96701Y72212D02*
X128197D01*
X96955Y72466D02*
X128197Y72466D01*
X96955Y72720D02*
X128451Y72720D01*
X97209Y72974D02*
X128705Y72974D01*
X97209Y73228D02*
X128705Y73228D01*
X97209Y73482D02*
X128959D01*
X97463Y73736D02*
X128959Y73736D01*
X97717Y73990D02*
X129213D01*
X97717Y74244D02*
X129467D01*
X97971Y74498D02*
X129467D01*
X97971Y74752D02*
X129721D01*
X97971Y75006D02*
X129721D01*
X97971Y75260D02*
X129975D01*
X98225Y75514D02*
X129975Y75514D01*
X98225Y75768D02*
X130229Y75768D01*
X98479Y76022D02*
X130483D01*
X98479Y76276D02*
X130483D01*
X98733Y76530D02*
X130483D01*
X98733Y76784D02*
X130737Y76784D01*
X98733Y77038D02*
X130737Y77038D01*
X98733Y77292D02*
X130991Y77292D01*
X98987Y77546D02*
X131245Y77546D01*
X98987Y77800D02*
X131245D01*
X98987Y78308D02*
X131499D01*
X98987Y78562D02*
X131499Y78562D01*
X99241Y78816D02*
X131499D01*
X99241Y79070D02*
X131753D01*
X99241Y79324D02*
X131753Y79324D01*
X99495Y79578D02*
X132007Y79578D01*
X99495Y79832D02*
X132007D01*
X99495Y80340D02*
X132261D01*
X99749Y80594D02*
X132515D01*
X99749Y80848D02*
X132515D01*
X99749Y81102D02*
X132515Y81102D01*
X99749Y81356D02*
X132515Y81356D01*
X100003Y81610D02*
X132769D01*
X100003Y81864D02*
X132769Y81864D01*
X100003Y82118D02*
X132769Y82118D01*
X100003Y82372D02*
X133023Y82372D01*
X99749Y82626D02*
X133023D01*
X99495Y82880D02*
X133023D01*
X99241Y83134D02*
X133277Y83134D01*
X98225Y83388D02*
X133277D01*
X97209Y83642D02*
X133277D01*
X96193Y83896D02*
X133531D01*
X94669Y84150D02*
X133531D01*
X94161Y84404D02*
X133531D01*
X93145Y84658D02*
X133531D01*
X91875Y84912D02*
X133531Y84912D01*
X91113Y85166D02*
X133785Y85166D01*
X99495Y80086D02*
X132261D01*
X98987Y78054D02*
X131245D01*
X89843Y85674D02*
X133785Y85674D01*
X88827Y85928D02*
X134039D01*
X88319Y86182D02*
X134039D01*
X87811Y86436D02*
X134039Y86436D01*
X87049Y86690D02*
X134293Y86690D01*
X86541Y86944D02*
X134293D01*
X86033Y87198D02*
X134293D01*
X85525Y87452D02*
X134293D01*
X112957Y101168D02*
X136325Y101168D01*
X113973Y101422D02*
X136579Y101422D01*
X114481Y101676D02*
X136579Y101676D01*
X114735Y101930D02*
X136579Y101930D01*
X114989Y102184D02*
X136579D01*
X115243Y102438D02*
X136579D01*
X115497Y102692D02*
X136579D01*
X115751Y102946D02*
X136579Y102946D01*
X116005Y103200D02*
X136833Y103200D01*
X116005Y103454D02*
X136833D01*
X116259Y103708D02*
X136833Y103708D01*
X116259Y103962D02*
X136833D01*
X116513Y104216D02*
X137087D01*
X116513Y104470D02*
X137087Y104470D01*
X116767Y104724D02*
X137087D01*
X116767Y104978D02*
X137087D01*
X116767Y105232D02*
X137087D01*
X117021Y105486D02*
X137087Y105486D01*
X85017Y87706D02*
X134293D01*
X84509Y87960D02*
X134547Y87960D01*
X84001Y88214D02*
X134547Y88214D01*
X83747Y88468D02*
X134547Y88468D01*
X82985Y88722D02*
X134547Y88722D01*
X82731Y88976D02*
X134547D01*
X82223Y89230D02*
X134547D01*
X81969Y89484D02*
X134801D01*
X81461Y89738D02*
X134801D01*
X81207Y89992D02*
X134801D01*
X80699Y90246D02*
X134801D01*
X80445Y90500D02*
X135055Y90500D01*
X79937Y90754D02*
X135055Y90754D01*
X79683Y91008D02*
X135055D01*
X79175Y91262D02*
X135055Y91262D01*
X78921Y91516D02*
X135309D01*
X78413Y91770D02*
X135309Y91770D01*
X78159Y92024D02*
X135309D01*
X77905Y92278D02*
X135309D01*
X77397Y92532D02*
X135309Y92532D01*
X76889Y92786D02*
X135309D01*
X76635Y93040D02*
X135309D01*
X76381Y93294D02*
X135309D01*
X75873Y93548D02*
X135309D01*
X75365Y93802D02*
X135309D01*
X75111Y94056D02*
X135563D01*
X74603Y94310D02*
X135563Y94310D01*
X74349Y94564D02*
X135563Y94564D01*
X73841Y94818D02*
X135563Y94818D01*
X73587Y95072D02*
X135563Y95072D01*
X73079Y95326D02*
X135563D01*
X72571Y95580D02*
X135817D01*
X72317Y95834D02*
X135817D01*
X72063Y96088D02*
X135817D01*
X71555Y96342D02*
X135817D01*
X71047Y96596D02*
X135817D01*
X70793Y96850D02*
X135817D01*
X70285Y97104D02*
X136071Y97104D01*
X69777Y97358D02*
X136071Y97358D01*
X69269Y97612D02*
X136071D01*
X69015Y97866D02*
X136071Y97866D01*
X68507Y98120D02*
X136071D01*
X67491Y98628D02*
X136325D01*
X67237Y98882D02*
X136325D01*
X66729Y99136D02*
X136325Y99136D01*
X66221Y99390D02*
X136325D01*
X65713Y99644D02*
X136325D01*
X65205Y99898D02*
X136325D01*
X64697Y100152D02*
X136325D01*
X64189Y100406D02*
X136325D01*
X63935Y100660D02*
X136325D01*
X63173Y100914D02*
X136325D01*
X67999Y98374D02*
X136071D01*
X123117Y120472D02*
X135055D01*
X123625Y120726D02*
X134547D01*
X123879Y120980D02*
X134039D01*
X117021Y105994D02*
X137341D01*
X117021Y106248D02*
X137341Y106248D01*
X117275Y106502D02*
X137341D01*
X117275Y106756D02*
X137341D01*
X117275Y107010D02*
X137595D01*
X117275Y107264D02*
X137595Y107264D01*
X117529Y107518D02*
X137595Y107518D01*
X117529Y107772D02*
X137595D01*
X117529Y108026D02*
X137849D01*
X117783Y108280D02*
X137849Y108280D01*
X117783Y108534D02*
X138103Y108534D01*
X117783Y108788D02*
X138103Y108788D01*
X117783Y109042D02*
X138103D01*
X117783Y109296D02*
X138103Y109296D01*
X117783Y109550D02*
X138357Y109550D01*
X117783Y109804D02*
X138357D01*
X118037Y110058D02*
X138357D01*
X118037Y110312D02*
X138611D01*
X118037Y110566D02*
X138611Y110566D01*
X118037Y110820D02*
X138865D01*
X118037Y111074D02*
X138865D01*
X118037Y111328D02*
X139119D01*
X118291Y111582D02*
X139119D01*
X118291Y111836D02*
X139373D01*
X118291Y112090D02*
X139373Y112090D01*
X118291Y112344D02*
X139627D01*
X118545Y112598D02*
X139881D01*
X118545Y112852D02*
X140135Y112852D01*
X118545Y113106D02*
X140135Y113106D01*
X118545Y113360D02*
X140389D01*
X118799Y113614D02*
X140643D01*
X118799Y113868D02*
X140897D01*
X118799Y114122D02*
X141151D01*
X118799Y114376D02*
X141659D01*
X118799Y114630D02*
X141913D01*
X119053Y114884D02*
X142421Y114884D01*
X119053Y115138D02*
X142929D01*
X119053Y115392D02*
X143945D01*
X119307Y115646D02*
X144707Y115646D01*
X119307Y115900D02*
X145469D01*
X119561Y116154D02*
X147247D01*
X119561Y116408D02*
X148771D01*
X119815Y116662D02*
X149533D01*
X119815Y116916D02*
X150803D01*
X119815Y117170D02*
X152835D01*
X120069Y117424D02*
X154105Y117424D01*
X120069Y117678D02*
X154867Y117678D01*
X120323Y117932D02*
X156137D01*
X120577Y118186D02*
X157915D01*
X120831Y118440D02*
X158931D01*
X121085Y118948D02*
X139881D01*
X121339Y119202D02*
X138865D01*
X121847Y119456D02*
X137595Y119456D01*
X122101Y119710D02*
X136833Y119710D01*
X122355Y119964D02*
X136325Y119964D01*
X122609Y120218D02*
X135817D01*
X120831Y118694D02*
X140897Y118694D01*
X90605Y85420D02*
X133785D01*
X117021Y105740D02*
X137341D01*
M02*
