M48
;Layer_Color=9474304
;FILE_FORMAT=4:4
METRIC,LZ
;TYPE=PLATED
T1F00S00C0.3000
T2F00S00C0.4000
T3F00S00C0.5000
T4F00S00C0.6000
T5F00S00C0.7620
T6F00S00C1.5000
%
T01
X00081Y00022
Y0003
X0009
X00103Y00031
X00116Y00021
X00121Y00016
X00133Y000125
X00138Y0002775
X0014525Y0002875
X001525Y0002925
X0015225Y000495
Y0006
Y000705
X0014175
Y00081
X0015225
Y000915
X0014175
X0013125
Y00081
Y000705
Y0006
X0014175
Y000495
X0013125
X0012075Y0006
Y000705
Y00081
X0009763Y00084
X00095Y00098
X00075Y000975
X000725Y0009
X0008Y000875
X00075Y000825
X00065Y00085
X0006Y0009
Y000975
Y00105
X000675Y001025
Y00095
X00065Y0011
Y0012
X0006Y00115
Y00125
Y00135
Y001425
Y0015
X000675Y001475
Y0014
X000725Y00135
X00075Y001425
X000725Y001525
X00065Y00155
X0006Y0016
X00065Y00165
X00075Y001625
X00085
X00097Y001635
X00101Y00148
X00088Y00139
X0007Y00125
X00075Y001175
X000725Y001075
X00064648Y00072987
X0006Y000775
Y0004875
X00067Y00049
Y0004325
X000755Y0004275
X00075Y0005
X00071Y0005425
X0007525Y0005975
X0008Y00065
X000835Y0006975
X00082Y00056
X001Y00051
X000995Y000655
X0016275Y000705
Y0006
Y00081
X00182919Y00085081
X00182Y00095
X00183Y0010175
X001765Y0010325
X00162258Y00110755
X00179Y00123
Y00133
Y00145
X001755Y001545
X00168Y00158
X00159
X00149
X00139
X001305Y001545
X00127Y00145
Y00133
Y00123
X00141Y00124
X00214Y00124
Y00134
X0021625Y0007425
Y0006825
X0025575Y0006175
X00264Y0004575
X00282Y00032
X002905
X00293Y000605
Y00069
X00232Y0002
X00179562Y0002975
X00154Y00009
X00154Y00209
X00165
X00176
X00187
X00198
X00209
X0022
X00231
X00242
X00253
X00264
X00275
X00308
X00297Y00231
X00286
X002915Y00242
X003025
X00297Y00253
X00286
X002915Y00264
X003025
X00297Y00275
X00308
X003025Y00286
X002915
X00286Y00297
X00297
X00308
X003135Y00308
X003025
X002915
X00286Y00319
X00297
X00308
X003135Y0033
X003025
X002915
X00286Y00341
X00297
X00308
X003025Y00352
X002915
X00286Y00363
X00297
X00308
X003025Y00374
X002915
X00286Y00385
X00297
X00308
X003135Y00396
X003025
X002915
X00286Y00275
X00121
Y00297
Y00319
Y00341
Y00363
Y00385
X00099
X001045Y00396
X000935
Y00374
X001045
X00099Y00363
Y00341
X001045Y0033
X000935Y00264
X00121Y00253
Y00231
X00132Y00209
X00143
X0008275Y002025
X0007075
X000715Y00418
X000825
X000935
X001045
X001155
X0011Y00429
X00121
X001155Y0044
X001045
X000935
X000825
X000715
X00066Y00451
X00077
X00088
X00099
X0011
X00121
X001155Y00462
X001045
X000935
X000825
X000715
X00066Y00473
X00077
X00088
X00099
X0011
X00121
X001155Y00484
X001045
X000935
X000825
X000715
X00066Y00495
X00077
X00088
X00099
X001Y00505
X001075
X00115
X0011Y00495
X00121
X0013Y005125
X001375
X00145
X001525
Y0052
Y005275
Y00535
X001595Y00528
X001675Y005275
Y00535
Y005425
Y0055
Y00555
X001815Y0055
X001925
X002035
X002145
X002255
X0022Y00539
X00231
X002365Y00528
X002475
X00242Y00517
X00253
X00231
X0022
X00209
X00198
X00187
X00176
X001675Y0052
Y005125
X0016Y005125
X001815Y00528
X001925
X002035
X002145
X002255
X00209Y00539
X00198
X00187
X00176
X00145Y005425
Y0055
Y00555
X001
X000925
X00085
Y005425
Y00535
Y005275
Y0052
X000925
X001
Y005125
X000925
X00085
Y00505
X000925
X000715Y00506
X00075Y00515
X00066Y00517
X000715Y00528
X00066Y00539
X00077
X00075Y00545
X00125Y0052
X00121Y00407
X00099Y00429
X00088
X00077
X00066
X000305Y0041
X00286Y00407
X00297
X00308
X00319
X0033
X003355Y00418
X003245
X003135
X003025
X002915
X00286Y00429
X00297
X00308
X00319
X0033
X003355Y0044
X003245
X003135
X003025
X002915
X00286Y00451
X00297
X00308
X00319
X0033
X003355Y00462
X003245
X003135
X003025
X002915
X00286Y00473
X00297
X00308
X00319
X0033
X003355Y00484
X003245
X003135
X003025
X002915
X00286Y00495
X00297
X00308
X00319
X0033
X003355Y00506
X003245
X003135
X003025
X002915
X002805
Y00528
X00286Y00539
X00297
X00308
X00319
X003245Y00528
X003135
X00308Y00517
X00319
X0033
X003135Y0055
X003025
X002915
T02
X00098Y00037
X00097Y0007525
X00097928Y001045
X001235Y00113
X00142Y00112
X00183Y00109
X00186Y000695
Y0006125
Y00053
X00236Y00045
X00236Y00038
X00235Y000975
Y001065
X0023Y00102
X00225Y0010625
Y0009725
X00245Y00102
Y00111
Y0012
Y00129
Y00147
Y00156
Y00165
Y00174
X00293Y0017725
X00299Y00171
X0029875Y0015225
X00297Y00133
X0028Y00144
X00329Y00145
X00335Y00175
X003425
X00316Y001775
X0029925Y00195402
X00288Y0009925
X00273
X00258
X0022875Y0013725
X00064Y00212
X00054
X00059Y00218
X00064Y00224
X00054
X000495Y00389
X00112Y00545
T03
X0004Y0045885
Y0047135
T04
X0019975Y000225
X0021225
T05
X00323Y0002165
Y0004705
Y0007245
Y0009785
Y0012325
T06
X00361Y0002165
Y0004705
Y0007245
Y0009785
Y0012325
M30
