G04*
G04 #@! TF.GenerationSoftware,Altium Limited,Altium Designer,20.0.1 (14)*
G04*
G04 Layer_Color=8421504*
%FSLAX44Y44*%
%MOMM*%
G71*
G01*
G75*
%ADD21R,0.5000X0.4000*%
%ADD22R,1.0000X0.4500*%
%ADD23R,0.8890X0.8890*%
%ADD24O,0.2499X0.6000*%
%ADD25R,5.3000X5.3000*%
%ADD26O,0.6000X0.2499*%
%ADD27C,0.3000*%
%ADD28R,0.8000X1.7000*%
%ADD29R,0.7000X0.7000*%
%ADD30R,0.7620X0.7620*%
%ADD31R,0.7620X0.7620*%
%ADD32R,1.5240X2.5400*%
%ADD33R,2.5400X1.5240*%
%ADD34R,0.4500X1.0000*%
%ADD35P,0.7184X4X90.0*%
%ADD36R,1.0160X1.2700*%
%ADD37R,1.2000X0.4000*%
%ADD38R,1.7500X4.5000*%
%ADD39P,0.7184X4X180.0*%
%ADD40R,0.5080X0.5080*%
%ADD41R,0.5080X0.5080*%
%ADD42R,1.0000X1.2000*%
%ADD43C,1.0000*%
G36*
X117499Y550389D02*
X114499D01*
Y538962D01*
X115233Y538228D01*
Y535550D01*
X113339Y533656D01*
X110661D01*
X108767Y535550D01*
Y538228D01*
X109501Y538962D01*
Y550389D01*
X106501D01*
Y556389D01*
X117499D01*
Y550389D01*
D02*
G37*
G36*
X398000Y158770D02*
Y71000D01*
X389000Y62000D01*
X317000Y62000D01*
X313000Y66000D01*
X313000Y79000D01*
X317000Y83000D01*
X372000Y83000D01*
X378000Y89000D01*
X378000Y139000D01*
X372000Y145000D01*
X342000D01*
X333000Y154000D01*
X307379Y154000D01*
X307379Y159500D01*
X333500Y159500D01*
X341000Y167000D01*
X389770D01*
X398000Y158770D01*
D02*
G37*
G36*
X274000Y191000D02*
X274000Y165000D01*
X280000Y159000D01*
X293000D01*
X293000Y155000D01*
X280000Y155000D01*
X274000Y149000D01*
X274000Y141000D01*
X280000Y135000D01*
X280000Y129000D01*
X274000D01*
X274000Y134000D01*
X266000Y142000D01*
X251000Y142000D01*
X251000Y191000D01*
X274000Y191000D01*
D02*
G37*
G36*
X239250Y94000D02*
X204000Y94000D01*
X204000Y99750D01*
X219250Y115000D01*
X219250Y189250D01*
X221250Y191250D01*
X239250Y191250D01*
X239250Y94000D01*
D02*
G37*
G36*
X114483Y39977D02*
X114635Y39939D01*
X114783Y39880D01*
X114920Y39807D01*
X115047Y39713D01*
X115161Y39606D01*
X115260Y39484D01*
X115347Y39352D01*
X115413Y39210D01*
X115461Y39060D01*
X115489Y38907D01*
X115499Y38750D01*
Y37249D01*
X115489Y37094D01*
X115461Y36939D01*
X115413Y36789D01*
X115347Y36647D01*
X115260Y36515D01*
X115161Y36395D01*
X115047Y36286D01*
X114920Y36195D01*
X114783Y36119D01*
X114635Y36060D01*
X114483Y36022D01*
X114328Y36002D01*
X114171D01*
X114016Y36022D01*
X113863Y36060D01*
X113719Y36119D01*
X113581Y36195D01*
X113454Y36286D01*
X113340Y36395D01*
X113238Y36515D01*
X113155Y36647D01*
X113089Y36789D01*
X113040Y36939D01*
X113010Y37094D01*
X113000Y37249D01*
Y38750D01*
X113010Y38907D01*
X113040Y39060D01*
X113089Y39210D01*
X113155Y39352D01*
X113238Y39484D01*
X113340Y39606D01*
X113454Y39713D01*
X113581Y39807D01*
X113719Y39880D01*
X113863Y39939D01*
X114016Y39977D01*
X114171Y39997D01*
X114328D01*
X114483Y39977D01*
D02*
G37*
G36*
X220000Y50000D02*
X230250Y39750D01*
X230250Y25500D01*
X222250D01*
X204000Y43750D01*
X204000Y81000D01*
X220000D01*
X220000Y50000D01*
D02*
G37*
D21*
X271750Y62000D02*
D03*
X271749Y53001D02*
D03*
D22*
X256750Y53000D02*
D03*
Y72000D02*
D03*
X228750Y62500D02*
D03*
Y72000D02*
D03*
Y53000D02*
D03*
D23*
X227140Y87500D02*
D03*
X209360D02*
D03*
D24*
X169250Y36000D02*
D03*
X164250D02*
D03*
X159250D02*
D03*
X154250D02*
D03*
X149250D02*
D03*
X144250D02*
D03*
X139250D02*
D03*
X134250D02*
D03*
X129250D02*
D03*
X124250D02*
D03*
X119250D02*
D03*
X114250D02*
D03*
X164250Y105000D02*
D03*
X159250D02*
D03*
X154251D02*
D03*
X149250D02*
D03*
X144250D02*
D03*
X139250D02*
D03*
X134250D02*
D03*
X129250D02*
D03*
X124250D02*
D03*
X119250D02*
D03*
X114250D02*
D03*
X169251D02*
D03*
D25*
X141750Y70500D02*
D03*
D26*
X107250Y98001D02*
D03*
Y92999D02*
D03*
Y88001D02*
D03*
Y82999D02*
D03*
Y78001D02*
D03*
Y72999D02*
D03*
Y68001D02*
D03*
Y62999D02*
D03*
Y58001D02*
D03*
Y52999D02*
D03*
Y48001D02*
D03*
Y42999D02*
D03*
X176250Y47999D02*
D03*
Y53000D02*
D03*
Y58000D02*
D03*
Y63000D02*
D03*
Y68000D02*
D03*
Y73000D02*
D03*
Y78000D02*
D03*
Y83000D02*
D03*
Y88000D02*
D03*
Y93000D02*
D03*
Y98000D02*
D03*
Y43001D02*
D03*
D27*
X58518Y38644D02*
D03*
Y61010D02*
D03*
D28*
X96500Y536750D02*
D03*
X127500D02*
D03*
D29*
X112000Y536000D02*
D03*
Y520389D02*
D03*
D30*
X255751Y87501D02*
D03*
X242751D02*
D03*
X194372Y55749D02*
D03*
X207372D02*
D03*
X194372Y68999D02*
D03*
X207372D02*
D03*
D31*
X242521Y24973D02*
D03*
Y37973D02*
D03*
X255771Y24999D02*
D03*
Y37999D02*
D03*
D32*
X229060Y120000D02*
D03*
X258060D02*
D03*
D33*
X355000Y159302D02*
D03*
Y188302D02*
D03*
D34*
X40000Y422250D02*
D03*
X49500Y399570D02*
D03*
X30500D02*
D03*
D35*
X93286Y44785D02*
D03*
X86215Y37715D02*
D03*
Y50964D02*
D03*
X93286Y58035D02*
D03*
X80205Y76386D02*
D03*
X87389Y83570D02*
D03*
X86361Y64429D02*
D03*
X93545Y71614D02*
D03*
D36*
X109000Y148000D02*
D03*
X87410D02*
D03*
D37*
X313970Y169750D02*
D03*
Y163250D02*
D03*
X286030Y169750D02*
D03*
Y163250D02*
D03*
Y156750D02*
D03*
Y150250D02*
D03*
X313970D02*
D03*
Y156750D02*
D03*
D38*
X229750Y165000D02*
D03*
X262250D02*
D03*
D39*
X67179Y77639D02*
D03*
X74364Y70455D02*
D03*
X86180Y96639D02*
D03*
X93364Y89455D02*
D03*
D40*
X89938Y22360D02*
D03*
X100098D02*
D03*
X283062Y22902D02*
D03*
X272902D02*
D03*
X179562Y22402D02*
D03*
X169402D02*
D03*
X202062Y133402D02*
D03*
X191902D02*
D03*
X202062Y124402D02*
D03*
X191902D02*
D03*
X202098Y108598D02*
D03*
X191938D02*
D03*
X143902Y22402D02*
D03*
X154062D02*
D03*
X84652Y108902D02*
D03*
X94812D02*
D03*
X191938Y37098D02*
D03*
X202098D02*
D03*
X316062Y195402D02*
D03*
X305902D02*
D03*
X305938Y186598D02*
D03*
X316098D02*
D03*
X282938D02*
D03*
X293098D02*
D03*
X287062Y108402D02*
D03*
X276902D02*
D03*
D41*
X172598Y127902D02*
D03*
Y138062D02*
D03*
X133402Y138098D02*
D03*
Y127938D02*
D03*
X109348Y117902D02*
D03*
Y128062D02*
D03*
X117848Y117902D02*
D03*
Y128062D02*
D03*
X277068Y132098D02*
D03*
Y121938D02*
D03*
X329360Y163902D02*
D03*
Y174062D02*
D03*
X329402Y185366D02*
D03*
Y195526D02*
D03*
D42*
X146500Y129949D02*
D03*
Y146949D02*
D03*
X159500D02*
D03*
Y129949D02*
D03*
D43*
X387750Y156500D02*
D03*
X193750Y87500D02*
D03*
X271250Y37999D02*
D03*
M02*
