G04*
G04 #@! TF.GenerationSoftware,Altium Limited,Altium Designer,20.0.1 (14)*
G04*
G04 Layer_Color=16711935*
%FSLAX44Y44*%
%MOMM*%
G71*
G01*
G75*
%ADD43C,1.0000*%
%ADD66C,1.2032*%
%ADD67C,0.7032*%
%ADD68C,2.2032*%
%ADD69C,1.7272*%
%ADD70R,1.2032X1.2032*%
%ADD101R,1.7032X2.0032*%
%ADD102R,2.2032X1.7032*%
D43*
X112000Y545000D02*
D03*
D66*
X212250Y22500D02*
D03*
X199750D02*
D03*
X40000Y458850D02*
D03*
D67*
X141750Y70500D02*
D03*
X152250D02*
D03*
Y81000D02*
D03*
X141750D02*
D03*
Y60000D02*
D03*
X152250D02*
D03*
X131250D02*
D03*
Y70500D02*
D03*
Y81000D02*
D03*
X141750Y91500D02*
D03*
X152250D02*
D03*
X131250D02*
D03*
X120750Y81000D02*
D03*
Y70500D02*
D03*
Y60000D02*
D03*
X131250Y49500D02*
D03*
X141750D02*
D03*
X152250D02*
D03*
X162750Y60000D02*
D03*
Y70500D02*
D03*
Y81000D02*
D03*
D68*
X361000Y21650D02*
D03*
Y47050D02*
D03*
Y72450D02*
D03*
Y97850D02*
D03*
Y123250D02*
D03*
D69*
X323000Y21650D02*
D03*
Y47050D02*
D03*
Y72450D02*
D03*
Y97850D02*
D03*
Y123250D02*
D03*
D70*
X40000Y471350D02*
D03*
D101*
X132500Y549000D02*
D03*
X112500Y524000D02*
D03*
X267100D02*
D03*
X292500D02*
D03*
X137900D02*
D03*
X157900Y549000D02*
D03*
X272500D02*
D03*
X247100D02*
D03*
D102*
X77500Y217200D02*
D03*
Y395000D02*
D03*
Y369600D02*
D03*
Y344200D02*
D03*
Y318800D02*
D03*
Y293400D02*
D03*
Y268000D02*
D03*
Y242600D02*
D03*
Y191800D02*
D03*
X327500Y395000D02*
D03*
Y369600D02*
D03*
Y344200D02*
D03*
Y318800D02*
D03*
Y293400D02*
D03*
Y268000D02*
D03*
Y242600D02*
D03*
Y217200D02*
D03*
Y191800D02*
D03*
M02*
