G04*
G04 #@! TF.GenerationSoftware,Altium Limited,Altium Designer,20.0.1 (14)*
G04*
G04 Layer_Color=255*
%FSLAX44Y44*%
%MOMM*%
G71*
G01*
G75*
%ADD21R,0.8890X0.8890*%
%ADD22O,0.2499X0.6000*%
%ADD23R,5.3000X5.3000*%
%ADD24O,0.6000X0.2499*%
%ADD25C,0.3000*%
%ADD26R,0.8000X1.7000*%
%ADD27R,0.7000X0.7000*%
%ADD28R,1.2000X0.5000*%
%ADD29R,0.7620X0.7620*%
%ADD30R,0.7620X0.7620*%
%ADD31R,1.5240X2.5400*%
%ADD32R,2.5400X1.5240*%
%ADD33R,0.4500X1.0000*%
%ADD34P,0.7184X4X90.0*%
%ADD35R,1.0160X1.2700*%
%ADD36R,1.2000X0.4000*%
%ADD37R,1.7500X4.5000*%
%ADD38P,0.7184X4X180.0*%
%ADD39R,0.5080X0.5080*%
%ADD40R,0.5080X0.5080*%
%ADD41R,1.0000X1.2000*%
%ADD42C,1.0000*%
%ADD81C,0.5000*%
%ADD82C,2.0000*%
%ADD83C,1.5240*%
%ADD84R,1.0000X1.0000*%
D21*
X227140Y87500D02*
D03*
X209360D02*
D03*
D22*
X169250Y36000D02*
D03*
X164250D02*
D03*
X159250D02*
D03*
X154250D02*
D03*
X149250D02*
D03*
X144250D02*
D03*
X139250D02*
D03*
X134250D02*
D03*
X129250D02*
D03*
X124250D02*
D03*
X119250D02*
D03*
X114250D02*
D03*
X164250Y105000D02*
D03*
X159250D02*
D03*
X154251D02*
D03*
X149250D02*
D03*
X144250D02*
D03*
X139250D02*
D03*
X134250D02*
D03*
X129250D02*
D03*
X124250D02*
D03*
X119250D02*
D03*
X114250D02*
D03*
X169251D02*
D03*
D23*
X141750Y70500D02*
D03*
D24*
X107250Y98001D02*
D03*
Y92999D02*
D03*
Y88001D02*
D03*
Y82999D02*
D03*
Y78001D02*
D03*
Y72999D02*
D03*
Y68001D02*
D03*
Y62999D02*
D03*
Y58001D02*
D03*
Y52999D02*
D03*
Y48001D02*
D03*
Y42999D02*
D03*
X176250Y47999D02*
D03*
Y53000D02*
D03*
Y58000D02*
D03*
Y63000D02*
D03*
Y68000D02*
D03*
Y73000D02*
D03*
Y78000D02*
D03*
Y83000D02*
D03*
Y88000D02*
D03*
Y93000D02*
D03*
Y98000D02*
D03*
Y43001D02*
D03*
D25*
X58518Y38644D02*
D03*
Y61010D02*
D03*
D26*
X96500Y536750D02*
D03*
X127500D02*
D03*
D27*
X112000Y536000D02*
D03*
Y520389D02*
D03*
D28*
X228750Y53000D02*
D03*
Y72000D02*
D03*
Y62500D02*
D03*
X256750Y72000D02*
D03*
Y53000D02*
D03*
D29*
X255751Y87501D02*
D03*
X242751D02*
D03*
X194372Y55749D02*
D03*
X207372D02*
D03*
X194372Y68999D02*
D03*
X207372D02*
D03*
D30*
X242521Y24973D02*
D03*
Y37973D02*
D03*
X255771Y24999D02*
D03*
Y37999D02*
D03*
D31*
X229060Y120000D02*
D03*
X258060D02*
D03*
D32*
X355000Y159302D02*
D03*
Y188302D02*
D03*
D33*
X40000Y422250D02*
D03*
X49500Y399570D02*
D03*
X30500D02*
D03*
D34*
X93286Y44785D02*
D03*
X86215Y37715D02*
D03*
Y50964D02*
D03*
X93286Y58035D02*
D03*
X80205Y76386D02*
D03*
X87389Y83570D02*
D03*
X86361Y64429D02*
D03*
X93545Y71614D02*
D03*
D35*
X109000Y148000D02*
D03*
X87410D02*
D03*
D36*
X313970Y169750D02*
D03*
Y163250D02*
D03*
X286030Y169750D02*
D03*
Y163250D02*
D03*
Y156750D02*
D03*
Y150250D02*
D03*
X313970D02*
D03*
Y156750D02*
D03*
D37*
X229750Y165000D02*
D03*
X262250D02*
D03*
D38*
X67179Y77639D02*
D03*
X74364Y70455D02*
D03*
X86180Y96639D02*
D03*
X93364Y89455D02*
D03*
D39*
X89938Y22360D02*
D03*
X100098D02*
D03*
X283062Y22902D02*
D03*
X272902D02*
D03*
X179562Y22402D02*
D03*
X169402D02*
D03*
X202062Y133402D02*
D03*
X191902D02*
D03*
X202062Y124402D02*
D03*
X191902D02*
D03*
X202098Y108598D02*
D03*
X191938D02*
D03*
X143902Y22402D02*
D03*
X154062D02*
D03*
X84652Y108902D02*
D03*
X94812D02*
D03*
X191938Y37098D02*
D03*
X202098D02*
D03*
X316062Y195402D02*
D03*
X305902D02*
D03*
X305938Y186598D02*
D03*
X316098D02*
D03*
X282938D02*
D03*
X293098D02*
D03*
X287062Y108402D02*
D03*
X276902D02*
D03*
D40*
X172598Y127902D02*
D03*
Y138062D02*
D03*
X133402Y138098D02*
D03*
Y127938D02*
D03*
X109348Y117902D02*
D03*
Y128062D02*
D03*
X117848Y117902D02*
D03*
Y128062D02*
D03*
X277068Y132098D02*
D03*
Y121938D02*
D03*
X329360Y163902D02*
D03*
Y174062D02*
D03*
X329402Y185366D02*
D03*
Y195526D02*
D03*
D41*
X146500Y129949D02*
D03*
Y146949D02*
D03*
X159500D02*
D03*
Y129949D02*
D03*
D42*
X387750Y156500D02*
D03*
X193750Y87500D02*
D03*
X269750Y41500D02*
D03*
X212250Y22500D02*
D03*
X199750D02*
D03*
X40000Y458850D02*
D03*
D81*
X141750Y70500D02*
D03*
X152250D02*
D03*
Y81000D02*
D03*
X141750D02*
D03*
Y60000D02*
D03*
X152250D02*
D03*
X131250D02*
D03*
Y70500D02*
D03*
Y81000D02*
D03*
X141750Y91500D02*
D03*
X152250D02*
D03*
X131250D02*
D03*
X120750Y81000D02*
D03*
Y70500D02*
D03*
Y60000D02*
D03*
X131250Y49500D02*
D03*
X141750D02*
D03*
X152250D02*
D03*
X162750Y60000D02*
D03*
Y70500D02*
D03*
Y81000D02*
D03*
D82*
X361000Y21650D02*
D03*
Y47050D02*
D03*
Y72450D02*
D03*
Y97850D02*
D03*
Y123250D02*
D03*
D83*
X323000Y21650D02*
D03*
Y47050D02*
D03*
Y72450D02*
D03*
Y97850D02*
D03*
Y123250D02*
D03*
D84*
X40000Y471350D02*
D03*
M02*
