G04*
G04 #@! TF.GenerationSoftware,Altium Limited,Altium Designer,20.0.1 (14)*
G04*
G04 Layer_Physical_Order=4*
G04 Layer_Color=16711680*
%FSLAX44Y44*%
%MOMM*%
G71*
G01*
G75*
%ADD10C,0.2540*%
%ADD20C,0.1800*%
%ADD42C,1.0000*%
%ADD73C,0.7000*%
%ADD81C,0.5000*%
%ADD82C,2.0000*%
%ADD83C,1.5240*%
%ADD84R,1.0000X1.0000*%
%ADD85C,0.7000*%
%ADD86C,0.6000*%
%ADD94R,1.5000X1.8000*%
%ADD95R,2.0000X1.5000*%
%ADD96R,1.7500X1.4500*%
%ADD97R,3.8773X2.0000*%
G36*
X125030Y540031D02*
X124996Y540613D01*
X124892Y541096D01*
X124719Y541479D01*
X124476Y541762D01*
X124164Y541945D01*
X123784Y542027D01*
X123333Y542010D01*
X122814Y541893D01*
X122225Y541675D01*
X121566Y541357D01*
X121188Y549599D01*
X121918Y550024D01*
X122572Y550486D01*
X123148Y550984D01*
X123647Y551517D01*
X124070Y552087D01*
X124416Y552693D01*
X124685Y553335D01*
X124877Y554013D01*
X124992Y554727D01*
X125030Y555477D01*
Y540031D01*
D02*
G37*
G36*
X328813Y543666D02*
X328813Y543666D01*
X328749D01*
X329226Y540045D01*
X330624Y536671D01*
X332847Y533774D01*
X335744Y531551D01*
X339118Y530153D01*
X342739Y529676D01*
X344045Y529848D01*
X345000Y529011D01*
Y296927D01*
X344004Y296162D01*
X341781Y293265D01*
X340383Y289891D01*
X340370Y289792D01*
X339100Y289875D01*
Y302500D01*
X315900D01*
Y284300D01*
X338885D01*
X339100Y284300D01*
X340215Y283926D01*
X340383Y282649D01*
X341781Y279275D01*
X344004Y276378D01*
X345000Y275613D01*
Y197500D01*
X340040D01*
Y201840D01*
X314960D01*
Y197500D01*
X303982D01*
X302927Y199079D01*
X301240Y200206D01*
X299250Y200602D01*
X297260Y200206D01*
X295573Y199079D01*
X294518Y197500D01*
X289572D01*
X289086Y198673D01*
X305064Y214651D01*
X315900D01*
Y208100D01*
X339100D01*
Y226300D01*
X315900D01*
Y219749D01*
X307013D01*
X306527Y220922D01*
X319105Y233500D01*
X339100D01*
Y251700D01*
X315900D01*
Y238628D01*
X315819Y238574D01*
X314549Y239253D01*
Y254944D01*
X318505Y258900D01*
X339100D01*
Y277100D01*
X315900D01*
Y263770D01*
X315890Y263715D01*
X315865Y263619D01*
X315836Y263534D01*
X315803Y263458D01*
X315765Y263389D01*
X315730Y263335D01*
X310198Y257802D01*
X309645Y256975D01*
X309451Y256000D01*
Y236056D01*
X279444Y206049D01*
X215884D01*
X214908Y205855D01*
X214081Y205302D01*
X206279Y197500D01*
X194530D01*
X186727Y205302D01*
X185900Y205855D01*
X184925Y206049D01*
X122556D01*
X115949Y212656D01*
Y399600D01*
X115755Y400575D01*
X115202Y401402D01*
X104802Y411802D01*
X103975Y412355D01*
X103000Y412549D01*
X60000D01*
Y558344D01*
X123400D01*
Y555536D01*
X123367Y554899D01*
X123281Y554366D01*
X123142Y553875D01*
X122950Y553415D01*
X122702Y552981D01*
X122393Y552564D01*
X122016Y552162D01*
X121565Y551772D01*
X121035Y551397D01*
X120367Y551008D01*
X120274Y550925D01*
X118488Y549971D01*
X117977Y549552D01*
X116715Y549697D01*
X116707Y549707D01*
X115329Y550765D01*
X113723Y551430D01*
X112000Y551657D01*
X110277Y551430D01*
X108672Y550765D01*
X107293Y549707D01*
X106235Y548329D01*
X105570Y546723D01*
X105343Y545000D01*
X105570Y543277D01*
X106235Y541671D01*
X107293Y540293D01*
X108672Y539235D01*
X109045Y539080D01*
X109198Y538652D01*
X108845Y537487D01*
X108624Y536873D01*
X108368Y536327D01*
X108093Y535874D01*
X107805Y535507D01*
X107506Y535216D01*
X107192Y534989D01*
X106854Y534814D01*
X106477Y534686D01*
X106047Y534603D01*
X105995Y534600D01*
X103400D01*
Y513400D01*
X121600D01*
Y532969D01*
X121601Y532973D01*
X121600Y532977D01*
Y534600D01*
X120427D01*
X120040Y534842D01*
X119701Y535215D01*
X119441Y535695D01*
X119423Y535807D01*
X119425Y535876D01*
X120157Y537247D01*
X122003Y539497D01*
X122130Y539601D01*
X123400Y539000D01*
Y538400D01*
X125026D01*
X125030Y538399D01*
X125035Y538400D01*
X141600D01*
Y558344D01*
X147860D01*
Y550500D01*
X157900D01*
X167940D01*
Y558344D01*
X238000D01*
Y538400D01*
X256200D01*
Y558344D01*
X263400D01*
Y538400D01*
X281600D01*
Y558344D01*
X328813D01*
Y543666D01*
D02*
G37*
G36*
X118000Y536874D02*
X117799Y536132D01*
X117686Y535469D01*
X117662Y534883D01*
X117726Y534375D01*
X117878Y533946D01*
X118119Y533594D01*
X118449Y533321D01*
X118867Y533126D01*
X119374Y533008D01*
X119970Y532970D01*
X105560Y532939D01*
X106251Y532981D01*
X106896Y533105D01*
X107496Y533310D01*
X108050Y533596D01*
X108558Y533964D01*
X109020Y534413D01*
X109437Y534944D01*
X109808Y535556D01*
X110133Y536249D01*
X110412Y537024D01*
X118000Y536874D01*
D02*
G37*
G36*
X32334Y411754D02*
X32633Y411575D01*
X32954Y411417D01*
X33297Y411280D01*
X33664Y411164D01*
X34052Y411069D01*
X34464Y410995D01*
X34897Y410942D01*
X35832Y410900D01*
Y409100D01*
X35354Y409090D01*
X34464Y409005D01*
X34052Y408931D01*
X33664Y408836D01*
X33297Y408720D01*
X32954Y408583D01*
X32633Y408425D01*
X32334Y408245D01*
X32058Y408045D01*
Y411955D01*
X32334Y411754D01*
D02*
G37*
G36*
X87363Y364541D02*
X87296Y364391D01*
X87271Y364226D01*
X87286Y364045D01*
X87342Y363849D01*
X87439Y363638D01*
X87576Y363411D01*
X87755Y363169D01*
X87973Y362912D01*
X88233Y362640D01*
X86960Y361367D01*
X86688Y361627D01*
X86431Y361845D01*
X86189Y362024D01*
X85962Y362161D01*
X85751Y362258D01*
X85555Y362314D01*
X85374Y362329D01*
X85209Y362304D01*
X85059Y362237D01*
X84924Y362131D01*
X87470Y364676D01*
X87363Y364541D01*
D02*
G37*
G36*
X110851Y398544D02*
Y344013D01*
X109678Y343527D01*
X89104Y364101D01*
X89100Y364105D01*
Y364672D01*
X89101Y364676D01*
X89100Y364680D01*
Y378700D01*
X65900D01*
Y360500D01*
X84920D01*
X84924Y360499D01*
X84928Y360500D01*
X85495D01*
X85499Y360497D01*
X107451Y338544D01*
Y321813D01*
X106278Y321327D01*
X89100Y338505D01*
Y353300D01*
X65900D01*
Y335100D01*
X83854D01*
X84100Y335051D01*
X85344D01*
X104051Y316344D01*
Y300013D01*
X102878Y299527D01*
X89104Y313301D01*
X89100Y313305D01*
Y313872D01*
X89101Y313876D01*
X89100Y313880D01*
Y327900D01*
X65900D01*
Y309700D01*
X84920D01*
X84924Y309699D01*
X84928Y309700D01*
X85495D01*
X85499Y309697D01*
X100651Y294544D01*
Y278013D01*
X99478Y277527D01*
X89103Y287901D01*
X89100Y287905D01*
Y288472D01*
X89101Y288476D01*
X89100Y288480D01*
Y302500D01*
X65900D01*
Y289874D01*
X64630Y289791D01*
X64617Y289891D01*
X63219Y293265D01*
X60996Y296162D01*
X60000Y296926D01*
Y407451D01*
X101944D01*
X110851Y398544D01*
D02*
G37*
G36*
X87354Y338950D02*
X87280Y338807D01*
X87250Y338647D01*
X87262Y338469D01*
X87317Y338274D01*
X87415Y338061D01*
X87555Y337832D01*
X87739Y337585D01*
X87964Y337321D01*
X88233Y337040D01*
X86760Y335967D01*
X86497Y336217D01*
X86247Y336429D01*
X86010Y336603D01*
X85787Y336737D01*
X85576Y336833D01*
X85379Y336890D01*
X85196Y336908D01*
X85025Y336888D01*
X84868Y336828D01*
X84724Y336730D01*
X87470Y339076D01*
X87354Y338950D01*
D02*
G37*
G36*
X87363Y313741D02*
X87296Y313591D01*
X87271Y313426D01*
X87286Y313245D01*
X87342Y313049D01*
X87439Y312838D01*
X87576Y312611D01*
X87755Y312369D01*
X87973Y312112D01*
X88233Y311840D01*
X86960Y310567D01*
X86688Y310826D01*
X86431Y311045D01*
X86189Y311224D01*
X85962Y311361D01*
X85751Y311458D01*
X85555Y311514D01*
X85374Y311529D01*
X85209Y311504D01*
X85059Y311437D01*
X84924Y311331D01*
X87470Y313876D01*
X87363Y313741D01*
D02*
G37*
G36*
Y288341D02*
X87296Y288191D01*
X87271Y288025D01*
X87286Y287845D01*
X87342Y287649D01*
X87439Y287437D01*
X87576Y287211D01*
X87755Y286969D01*
X87973Y286712D01*
X88233Y286440D01*
X86960Y285167D01*
X86688Y285427D01*
X86431Y285645D01*
X86189Y285824D01*
X85962Y285961D01*
X85751Y286058D01*
X85555Y286114D01*
X85374Y286129D01*
X85209Y286104D01*
X85059Y286037D01*
X84924Y285931D01*
X87470Y288476D01*
X87363Y288341D01*
D02*
G37*
G36*
X85498Y284297D02*
X97251Y272544D01*
Y256013D01*
X96078Y255527D01*
X89103Y262501D01*
X89100Y262505D01*
Y263072D01*
X89101Y263076D01*
X89100Y263080D01*
Y277100D01*
X65900D01*
Y258900D01*
X84920D01*
X84924Y258899D01*
X84928Y258900D01*
X85495D01*
X85498Y258897D01*
X93851Y250544D01*
Y235413D01*
X92678Y234927D01*
X89270Y238335D01*
X89234Y238389D01*
X89197Y238459D01*
X89163Y238535D01*
X89134Y238619D01*
X89109Y238715D01*
X89100Y238768D01*
Y251700D01*
X65900D01*
Y233500D01*
X86895D01*
X89642Y230753D01*
X89016Y229583D01*
X88773Y229631D01*
X60000D01*
Y275613D01*
X60996Y276378D01*
X63219Y279275D01*
X64617Y282649D01*
X64785Y283926D01*
X65900Y284300D01*
Y284300D01*
X84920D01*
X84924Y284299D01*
X84928Y284300D01*
X85495D01*
X85498Y284297D01*
D02*
G37*
G36*
X317530Y260530D02*
X317575Y260523D01*
X317598Y260500D01*
X317601Y260462D01*
X317583Y260408D01*
X317544Y260340D01*
X317485Y260256D01*
X317404Y260156D01*
X317182Y259912D01*
X317040Y259767D01*
X316767Y262040D01*
X316916Y262201D01*
X317049Y262372D01*
X317167Y262552D01*
X317270Y262742D01*
X317357Y262940D01*
X317429Y263149D01*
X317485Y263367D01*
X317526Y263594D01*
X317551Y263830D01*
X317561Y264076D01*
X317530Y260530D01*
D02*
G37*
G36*
X87363Y262941D02*
X87296Y262791D01*
X87271Y262626D01*
X87286Y262445D01*
X87342Y262249D01*
X87439Y262038D01*
X87576Y261811D01*
X87755Y261569D01*
X87973Y261312D01*
X88233Y261040D01*
X86960Y259767D01*
X86688Y260026D01*
X86431Y260245D01*
X86189Y260424D01*
X85962Y260561D01*
X85751Y260658D01*
X85555Y260714D01*
X85374Y260729D01*
X85209Y260704D01*
X85059Y260637D01*
X84924Y260530D01*
X87470Y263076D01*
X87363Y262941D01*
D02*
G37*
G36*
X319676Y235161D02*
X319562Y235283D01*
X319428Y235360D01*
X319273Y235392D01*
X319100Y235380D01*
X318906Y235322D01*
X318692Y235221D01*
X318459Y235074D01*
X318206Y234883D01*
X317932Y234647D01*
X317640Y234367D01*
X316767Y236040D01*
X317012Y236297D01*
X317220Y236542D01*
X317391Y236776D01*
X317526Y236997D01*
X317624Y237207D01*
X317685Y237405D01*
X317709Y237590D01*
X317696Y237764D01*
X317647Y237926D01*
X317561Y238076D01*
X319676Y235161D01*
D02*
G37*
G36*
X87449Y238830D02*
X87474Y238594D01*
X87515Y238367D01*
X87571Y238149D01*
X87642Y237941D01*
X87730Y237742D01*
X87832Y237552D01*
X87950Y237372D01*
X88084Y237201D01*
X88233Y237040D01*
Y234494D01*
X88111Y234615D01*
X87592Y235073D01*
X87541Y235105D01*
X87500Y235124D01*
X87470Y235131D01*
X87439Y239076D01*
X87449Y238830D01*
D02*
G37*
G36*
X317561Y215400D02*
X317550Y215571D01*
X317516Y215724D01*
X317461Y215859D01*
X317383Y215976D01*
X317283Y216075D01*
X317161Y216156D01*
X317017Y216219D01*
X316850Y216264D01*
X316661Y216291D01*
X316451Y216300D01*
Y218100D01*
X316661Y218109D01*
X316850Y218136D01*
X317017Y218181D01*
X317161Y218244D01*
X317283Y218325D01*
X317383Y218424D01*
X317461Y218541D01*
X317516Y218676D01*
X317550Y218829D01*
X317561Y219000D01*
Y215400D01*
D02*
G37*
G36*
X299680Y191929D02*
X299200Y191849D01*
X298723Y191730D01*
X298248Y191572D01*
X297776Y191374D01*
X297306Y191136D01*
X296839Y190858D01*
X296374Y190541D01*
X295912Y190184D01*
X295453Y189788D01*
X294996Y189352D01*
X293200Y191148D01*
X293636Y191605D01*
X294389Y192527D01*
X294706Y192992D01*
X294984Y193459D01*
X295221Y193928D01*
X295420Y194401D01*
X295578Y194875D01*
X295697Y195352D01*
X295777Y195832D01*
X299680Y191929D01*
D02*
G37*
G36*
X368000Y140000D02*
X313000Y140000D01*
X299000Y126000D01*
Y93750D01*
X293250Y88000D01*
X226210D01*
X223071Y91139D01*
X223696Y92309D01*
X225000Y92050D01*
X226990Y92446D01*
X228677Y93573D01*
X229320Y94535D01*
X230847D01*
X231323Y93823D01*
X233010Y92696D01*
X235000Y92300D01*
X236990Y92696D01*
X238677Y93823D01*
X239804Y95510D01*
X240200Y97500D01*
X239804Y99490D01*
X238677Y101177D01*
X238395Y101365D01*
Y102635D01*
X238677Y102823D01*
X239804Y104510D01*
X240200Y106500D01*
X239804Y108490D01*
X238677Y110177D01*
X236990Y111304D01*
X235000Y111700D01*
X233010Y111304D01*
X231323Y110177D01*
X230680Y109215D01*
X229153D01*
X228677Y109927D01*
X226990Y111054D01*
X225000Y111450D01*
X223010Y111054D01*
X222669Y110826D01*
X221549Y111425D01*
Y129000D01*
X221355Y129976D01*
X220802Y130802D01*
X219323Y132282D01*
X219022Y132612D01*
X218819Y132871D01*
X218636Y133134D01*
X218483Y133386D01*
X218359Y133625D01*
X218261Y133852D01*
X218188Y134066D01*
X218138Y134269D01*
X218095Y134536D01*
X218048Y134664D01*
X217862Y135600D01*
X216956Y136956D01*
X215600Y137862D01*
X214000Y138180D01*
X213270Y138035D01*
X212000Y139006D01*
Y186395D01*
X215355Y189750D01*
X227452D01*
X227938Y188577D01*
X226681Y187319D01*
X226047Y186370D01*
X225824Y185250D01*
Y144192D01*
X225794Y143534D01*
X225734Y143033D01*
X225648Y142551D01*
X225541Y142110D01*
X225414Y141707D01*
X225269Y141342D01*
X225107Y141012D01*
X224929Y140716D01*
X224693Y140390D01*
X224645Y140287D01*
X223946Y139240D01*
X223550Y137250D01*
X223946Y135260D01*
X225073Y133573D01*
X226760Y132446D01*
X228750Y132050D01*
X230740Y132446D01*
X232427Y133573D01*
X233554Y135260D01*
X233950Y137250D01*
X233554Y139240D01*
X232855Y140287D01*
X232807Y140390D01*
X232571Y140716D01*
X232393Y141012D01*
X232231Y141342D01*
X232086Y141707D01*
X231959Y142110D01*
X231852Y142552D01*
X231770Y143012D01*
X231676Y144008D01*
Y184038D01*
X234962Y187324D01*
X294098D01*
X295217Y187547D01*
X296167Y188181D01*
X296667Y188681D01*
X296944Y188920D01*
X297334Y189221D01*
X297716Y189482D01*
X298092Y189705D01*
X298181Y189750D01*
X314960D01*
Y181760D01*
X340040D01*
Y189750D01*
X368000D01*
Y140000D01*
D02*
G37*
G36*
X230035Y144040D02*
X230152Y142792D01*
X230255Y142216D01*
X230387Y141672D01*
X230548Y141160D01*
X230739Y140680D01*
X230959Y140232D01*
X231208Y139816D01*
X231487Y139431D01*
X226013D01*
X226292Y139816D01*
X226541Y140232D01*
X226761Y140680D01*
X226952Y141160D01*
X227113Y141672D01*
X227245Y142216D01*
X227348Y142792D01*
X227421Y143400D01*
X227480Y144712D01*
X230020D01*
X230035Y144040D01*
D02*
G37*
G36*
X90636Y137636D02*
X89364Y136364D01*
X89345Y136368D01*
X89296Y136374D01*
X87791Y136509D01*
X90491Y139209D01*
X90636Y137636D01*
D02*
G37*
G36*
X216538Y133944D02*
X216622Y133606D01*
X216737Y133267D01*
X216883Y132927D01*
X217060Y132586D01*
X217268Y132244D01*
X217506Y131901D01*
X217776Y131557D01*
X218407Y130866D01*
X217134Y129593D01*
X216788Y129924D01*
X216099Y130494D01*
X215756Y130732D01*
X215414Y130940D01*
X215073Y131117D01*
X214733Y131263D01*
X214394Y131378D01*
X214056Y131462D01*
X213719Y131516D01*
X216484Y134281D01*
X216538Y133944D01*
D02*
G37*
G36*
X216500Y119079D02*
X214700Y118600D01*
X214679Y118977D01*
X214616Y119343D01*
X214511Y119701D01*
X214364Y120048D01*
X214175Y120386D01*
X213943Y120714D01*
X213670Y121032D01*
X213355Y121341D01*
X212998Y121640D01*
X212598Y121930D01*
X216351Y123150D01*
X216500Y119079D01*
D02*
G37*
G36*
X330790Y122603D02*
X331369Y119705D01*
X331718Y118414D01*
X332106Y117229D01*
X332533Y116149D01*
X333000Y115175D01*
X333506Y114307D01*
X334052Y113544D01*
X334636Y112886D01*
X333364Y111614D01*
X332706Y112198D01*
X331943Y112744D01*
X331075Y113250D01*
X330101Y113717D01*
X329021Y114144D01*
X327836Y114532D01*
X326545Y114881D01*
X323647Y115460D01*
X322040Y115691D01*
X330559Y124210D01*
X330790Y122603D01*
D02*
G37*
G36*
X162539Y108271D02*
X162202Y108218D01*
X161864Y108133D01*
X161525Y108018D01*
X161185Y107872D01*
X160844Y107696D01*
X160502Y107488D01*
X160159Y107249D01*
X159815Y106980D01*
X159124Y106348D01*
X157851Y107621D01*
X158182Y107967D01*
X158752Y108656D01*
X158990Y108999D01*
X159198Y109341D01*
X159375Y109682D01*
X159521Y110022D01*
X159636Y110361D01*
X159720Y110699D01*
X159774Y111036D01*
X162539Y108271D01*
D02*
G37*
G36*
X173964Y107406D02*
X174657Y106812D01*
X174995Y106562D01*
X175326Y106344D01*
X175651Y106156D01*
X175970Y106000D01*
X176282Y105876D01*
X176588Y105782D01*
X176888Y105720D01*
X174006Y103076D01*
X173965Y103446D01*
X173892Y103812D01*
X173790Y104175D01*
X173656Y104533D01*
X173491Y104888D01*
X173295Y105239D01*
X173069Y105587D01*
X172812Y105930D01*
X172524Y106270D01*
X172205Y106606D01*
X173608Y107750D01*
X173964Y107406D01*
D02*
G37*
G36*
X179826Y98462D02*
X180034Y98301D01*
X180260Y98153D01*
X180504Y98017D01*
X180767Y97895D01*
X181048Y97785D01*
X181347Y97688D01*
X181664Y97604D01*
X182353Y97475D01*
X179525Y94647D01*
X179467Y95000D01*
X179312Y95653D01*
X179215Y95952D01*
X179105Y96233D01*
X178983Y96496D01*
X178847Y96740D01*
X178699Y96966D01*
X178538Y97174D01*
X178364Y97364D01*
X179636Y98636D01*
X179826Y98462D01*
D02*
G37*
G36*
X187326Y88215D02*
X186995Y87869D01*
X186425Y87180D01*
X186187Y86837D01*
X185979Y86495D01*
X185802Y86154D01*
X185656Y85814D01*
X185541Y85475D01*
X185457Y85137D01*
X185403Y84800D01*
X182638Y87565D01*
X182975Y87619D01*
X183313Y87703D01*
X183652Y87818D01*
X183992Y87964D01*
X184333Y88141D01*
X184675Y88349D01*
X185018Y88587D01*
X185362Y88857D01*
X186053Y89488D01*
X187326Y88215D01*
D02*
G37*
G36*
X90911Y34853D02*
X90995Y33963D01*
X91069Y33552D01*
X91164Y33164D01*
X91280Y32797D01*
X91417Y32454D01*
X91575Y32133D01*
X91755Y31834D01*
X91955Y31558D01*
X88045D01*
X88245Y31834D01*
X88425Y32133D01*
X88583Y32454D01*
X88720Y32797D01*
X88836Y33164D01*
X88931Y33552D01*
X89005Y33963D01*
X89058Y34397D01*
X89100Y35332D01*
X90900D01*
X90911Y34853D01*
D02*
G37*
G36*
X138911Y32000D02*
X138944Y31682D01*
X138999Y31367D01*
X139075Y31056D01*
X139174Y30748D01*
X139294Y30443D01*
X139437Y30141D01*
X139601Y29843D01*
X139787Y29548D01*
X139995Y29256D01*
X136005D01*
X136213Y29548D01*
X136399Y29843D01*
X136563Y30141D01*
X136706Y30443D01*
X136826Y30748D01*
X136925Y31056D01*
X137001Y31367D01*
X137056Y31682D01*
X137089Y32000D01*
X137100Y32321D01*
X138900D01*
X138911Y32000D01*
D02*
G37*
G36*
X156907Y32384D02*
X156576Y32038D01*
X156006Y31349D01*
X155768Y31006D01*
X155560Y30664D01*
X155383Y30323D01*
X155237Y29983D01*
X155122Y29644D01*
X155038Y29306D01*
X154984Y28969D01*
X152219Y31734D01*
X152556Y31788D01*
X152894Y31872D01*
X153233Y31987D01*
X153573Y32133D01*
X153914Y32310D01*
X154256Y32518D01*
X154599Y32756D01*
X154943Y33026D01*
X155634Y33657D01*
X156907Y32384D01*
D02*
G37*
G36*
X117597Y22959D02*
X117856Y22842D01*
X118146Y22738D01*
X118469Y22649D01*
X118823Y22573D01*
X119626Y22462D01*
X120076Y22428D01*
X121071Y22400D01*
X121468Y20600D01*
X121022Y20586D01*
X120592Y20544D01*
X120178Y20473D01*
X119780Y20375D01*
X119398Y20248D01*
X119032Y20094D01*
X118682Y19911D01*
X118348Y19700D01*
X118030Y19461D01*
X117728Y19194D01*
X117371Y23091D01*
X117597Y22959D01*
D02*
G37*
G36*
X123636Y17364D02*
X123632Y17345D01*
X123626Y17296D01*
X123491Y15791D01*
X120791Y18491D01*
X122363Y18636D01*
X123636Y17364D01*
D02*
G37*
G36*
X138351Y13350D02*
X137983Y13328D01*
X137625Y13263D01*
X137277Y13154D01*
X136939Y13001D01*
X136611Y12805D01*
X136292Y12565D01*
X135983Y12281D01*
X135685Y11954D01*
X135395Y11583D01*
X135116Y11169D01*
X133758Y14882D01*
X137785Y15150D01*
X138351Y13350D01*
D02*
G37*
%LPC*%
G36*
X167940Y547500D02*
X157900D01*
X147860D01*
Y537460D01*
X167940D01*
Y547500D01*
D02*
G37*
G36*
X147940Y535540D02*
X127860D01*
Y525500D01*
X137900D01*
X147940D01*
Y535540D01*
D02*
G37*
G36*
X301600Y534600D02*
X283400D01*
Y513400D01*
X301600D01*
Y534600D01*
D02*
G37*
G36*
X276200D02*
X258000D01*
Y513400D01*
X276200D01*
Y534600D01*
D02*
G37*
G36*
X147940Y522500D02*
X137900D01*
X127860D01*
Y512460D01*
X147940D01*
Y522500D01*
D02*
G37*
G36*
X340040Y405040D02*
X329000D01*
Y395000D01*
Y384960D01*
X340040D01*
Y405040D01*
D02*
G37*
G36*
X326000D02*
X314960D01*
Y384960D01*
X326000D01*
Y395000D01*
Y405040D01*
D02*
G37*
G36*
X339100Y378700D02*
X315900D01*
Y360500D01*
X339100D01*
Y378700D01*
D02*
G37*
G36*
Y353300D02*
X315900D01*
Y335100D01*
X339100D01*
Y353300D01*
D02*
G37*
G36*
Y327900D02*
X315900D01*
Y309700D01*
X339100D01*
Y327900D01*
D02*
G37*
G36*
X274500Y502926D02*
X130500D01*
X129380Y502704D01*
X128431Y502069D01*
X127796Y501120D01*
X127574Y500000D01*
Y220000D01*
X127796Y218880D01*
X128431Y217931D01*
X129380Y217297D01*
X130500Y217074D01*
X274500D01*
X275620Y217297D01*
X276569Y217931D01*
X277204Y218880D01*
X277426Y220000D01*
Y500000D01*
X277204Y501120D01*
X276569Y502069D01*
X275620Y502704D01*
X274500Y502926D01*
D02*
G37*
G36*
X90040Y405040D02*
X79000D01*
Y395000D01*
Y384960D01*
X90040D01*
Y405040D01*
D02*
G37*
G36*
X76000D02*
X64960D01*
Y384960D01*
X76000D01*
Y395000D01*
Y405040D01*
D02*
G37*
%LPD*%
D10*
X233750Y190250D02*
X294098D01*
X228750Y185250D02*
X233750Y190250D01*
X228750Y137250D02*
Y185250D01*
X294098Y190250D02*
X299250Y195402D01*
X277617Y590000D02*
Y605235D01*
X270000Y597617D01*
X280157D01*
X285235Y605235D02*
Y590000D01*
X292853D01*
X295392Y592539D01*
Y595078D01*
X292853Y597617D01*
X285235D01*
X292853D01*
X295392Y600157D01*
Y602696D01*
X292853Y605235D01*
X285235D01*
X308088D02*
X303009D01*
X300470Y602696D01*
Y592539D01*
X303009Y590000D01*
X308088D01*
X310627Y592539D01*
Y602696D01*
X308088Y605235D01*
X315705D02*
X325862D01*
X320784D01*
Y590000D01*
X330940Y605235D02*
X341097D01*
X336019D01*
Y590000D01*
X353793Y605235D02*
X348714D01*
X346175Y602696D01*
Y592539D01*
X348714Y590000D01*
X353793D01*
X356332Y592539D01*
Y602696D01*
X353793Y605235D01*
X361410Y590000D02*
Y605235D01*
X366489Y600157D01*
X371567Y605235D01*
Y590000D01*
D20*
X144679Y39000D02*
X179958D01*
X138000Y32321D02*
X144679Y39000D01*
X138000Y27750D02*
Y32321D01*
X224150Y81600D02*
X311558D01*
X215600Y90150D02*
X224150Y81600D01*
X215600Y90150D02*
Y122400D01*
X225605Y85000D02*
X310150D01*
X219000Y91605D02*
X225605Y85000D01*
X219000Y91605D02*
Y129000D01*
X218700Y196700D02*
X283508D01*
X217292Y200100D02*
X282100D01*
X215884Y203500D02*
X280500D01*
X209000Y187000D02*
X218700Y196700D01*
X205600Y188408D02*
X217292Y200100D01*
X283508Y196700D02*
X304008Y217200D01*
X282100Y200100D02*
X325000Y243000D01*
X202100Y189716D02*
X215884Y203500D01*
X280500D02*
X312000Y235000D01*
X116500Y21500D02*
X178383D01*
X116000Y21000D02*
X116500Y21500D01*
X178383D02*
X202100Y45217D01*
X123000Y18000D02*
X179691D01*
X121000Y16000D02*
X123000Y18000D01*
X179691D02*
X205600Y43909D01*
X134750Y14250D02*
X180749D01*
X133000Y12500D02*
X134750Y14250D01*
X180749D02*
X209000Y42501D01*
X90000Y30000D02*
Y137000D01*
X88000Y139000D02*
X90000Y137000D01*
X209000Y42501D02*
Y187000D01*
X205600Y43909D02*
Y188408D01*
X202100Y45217D02*
Y189716D01*
X214000Y134000D02*
X219000Y129000D01*
X214000Y124000D02*
X215600Y122400D01*
X198700Y48125D02*
Y189725D01*
X195300Y49533D02*
Y188317D01*
X191900Y50942D02*
Y186908D01*
X188500Y90662D02*
Y185500D01*
X182919Y85081D02*
X188500Y90662D01*
X179513Y28938D02*
X198700Y48125D01*
X181367Y35600D02*
X195300Y49533D01*
X182108Y196700D02*
X191900Y186908D01*
X183517Y200100D02*
X195300Y188317D01*
X179958Y39000D02*
X191900Y50942D01*
X184925Y203500D02*
X198700Y189725D01*
X180700Y193300D02*
X188500Y185500D01*
X179062Y28938D02*
X179513D01*
X103000Y410000D02*
X113400Y399600D01*
X31000Y410000D02*
X103000D01*
X113400Y211600D02*
Y399600D01*
X158850Y35600D02*
X181367D01*
X153103Y101600D02*
X162258Y110755D01*
X121592Y101600D02*
X153103D01*
X123000Y105000D02*
X149431D01*
X164329Y115755D02*
X176500Y103584D01*
Y103250D02*
Y103584D01*
X149431Y105000D02*
X160187Y115755D01*
X164329D01*
X152500Y29250D02*
X158850Y35600D01*
X311558Y81600D02*
X315958Y86000D01*
X310150Y85000D02*
X323000Y97850D01*
X116000Y112000D02*
X123000Y105000D01*
X116000Y112000D02*
Y189617D01*
X120383Y98000D02*
X179000D01*
X109200Y109183D02*
X120383Y98000D01*
X109200Y109183D02*
Y186800D01*
X112600Y110592D02*
Y188208D01*
Y110592D02*
X121592Y101600D01*
X179000Y98000D02*
X182000Y95000D01*
X323000Y123250D02*
X334000Y112250D01*
Y92000D02*
Y112250D01*
X328000Y86000D02*
X334000Y92000D01*
X315958Y86000D02*
X328000D01*
X117125Y193300D02*
X180700D01*
X312000Y235000D02*
Y256000D01*
X304008Y217200D02*
X327500D01*
X325000Y243000D02*
X327100D01*
X312000Y256000D02*
X324000Y268000D01*
X121500Y203500D02*
X184925D01*
X119941Y200100D02*
X183517D01*
X118533Y196700D02*
X182108D01*
X113400Y211600D02*
X121500Y203500D01*
X110000Y210042D02*
X119941Y200100D01*
X106600Y208633D02*
X118533Y196700D01*
X103200Y207225D02*
X117125Y193300D01*
X93000Y203000D02*
X109200Y186800D01*
X96400Y204408D02*
X112600Y188208D01*
X99800Y205817D02*
X116000Y189617D01*
X110000Y210042D02*
Y339600D01*
X80000Y369600D02*
X110000Y339600D01*
X106600Y208633D02*
Y317400D01*
X86400Y337600D02*
X106600Y317400D01*
X80000Y318800D02*
X103200Y295600D01*
Y207225D02*
Y295600D01*
X99800Y205817D02*
Y273600D01*
X96400Y204408D02*
Y251600D01*
X80000Y268000D02*
X96400Y251600D01*
X80000Y293400D02*
X99800Y273600D01*
X93000Y203000D02*
Y231000D01*
X81400Y242600D02*
X93000Y231000D01*
X77500Y293400D02*
X80000D01*
X84100Y337600D02*
X86400D01*
X77500Y344200D02*
X84100Y337600D01*
X77500Y369600D02*
X80000D01*
X77500Y318800D02*
X80000D01*
X77500Y242600D02*
X81400D01*
X77500Y268000D02*
X80000D01*
X324000D02*
X327500D01*
X327100Y243000D02*
X327500Y242600D01*
D42*
X212250Y22500D02*
D03*
X199750D02*
D03*
X40000Y458850D02*
D03*
X112000Y545000D02*
D03*
D73*
X132500Y549000D02*
G03*
X112500Y529000I0J-20000D01*
G01*
Y524000D02*
Y529000D01*
D81*
X141750Y70500D02*
D03*
X152250D02*
D03*
Y81000D02*
D03*
X141750D02*
D03*
Y60000D02*
D03*
X152250D02*
D03*
X131250D02*
D03*
Y70500D02*
D03*
Y81000D02*
D03*
X141750Y91500D02*
D03*
X152250D02*
D03*
X131250D02*
D03*
X120750Y81000D02*
D03*
Y70500D02*
D03*
Y60000D02*
D03*
X131250Y49500D02*
D03*
X141750D02*
D03*
X152250D02*
D03*
X162750Y60000D02*
D03*
Y70500D02*
D03*
Y81000D02*
D03*
X145250Y28750D02*
D03*
X138000Y27750D02*
D03*
X63250Y53750D02*
D03*
X70000Y56750D02*
D03*
X76000Y59250D02*
D03*
X80000Y65000D02*
D03*
X82000Y56000D02*
D03*
X64648Y72987D02*
D03*
X83500Y69750D02*
D03*
X75000Y82500D02*
D03*
X80000Y87500D02*
D03*
X60000Y48750D02*
D03*
X67000Y49000D02*
D03*
X75000Y50000D02*
D03*
X216250Y68250D02*
D03*
X82750Y202500D02*
D03*
X216250Y74250D02*
D03*
X97630Y84000D02*
D03*
X95000Y98000D02*
D03*
X330000Y517000D02*
D03*
X335500Y506000D02*
D03*
X330000Y495000D02*
D03*
X335500Y484000D02*
D03*
X330000Y473000D02*
D03*
X335500Y462000D02*
D03*
X330000Y451000D02*
D03*
X335500Y440000D02*
D03*
X330000Y429000D02*
D03*
X335500Y418000D02*
D03*
X330000Y407000D02*
D03*
X319000Y539000D02*
D03*
X324500Y528000D02*
D03*
X319000Y517000D02*
D03*
X324500Y506000D02*
D03*
X319000Y495000D02*
D03*
X324500Y484000D02*
D03*
X319000Y473000D02*
D03*
X324500Y462000D02*
D03*
X319000Y451000D02*
D03*
X324500Y440000D02*
D03*
X319000Y429000D02*
D03*
X324500Y418000D02*
D03*
X319000Y407000D02*
D03*
X313500Y550000D02*
D03*
X308000Y539000D02*
D03*
X313500Y528000D02*
D03*
X308000Y517000D02*
D03*
X313500Y506000D02*
D03*
X308000Y495000D02*
D03*
X313500Y484000D02*
D03*
X308000Y473000D02*
D03*
X313500Y462000D02*
D03*
X308000Y451000D02*
D03*
X313500Y440000D02*
D03*
X308000Y429000D02*
D03*
X313500Y418000D02*
D03*
X308000Y407000D02*
D03*
X313500Y396000D02*
D03*
X308000Y385000D02*
D03*
Y363000D02*
D03*
Y341000D02*
D03*
X313500Y330000D02*
D03*
X308000Y319000D02*
D03*
X313500Y308000D02*
D03*
X308000Y297000D02*
D03*
Y275000D02*
D03*
Y209000D02*
D03*
X302500Y550000D02*
D03*
X297000Y539000D02*
D03*
X302500Y506000D02*
D03*
X297000Y495000D02*
D03*
X302500Y484000D02*
D03*
X297000Y473000D02*
D03*
X302500Y462000D02*
D03*
X297000Y451000D02*
D03*
X302500Y440000D02*
D03*
X297000Y429000D02*
D03*
X302500Y418000D02*
D03*
X297000Y407000D02*
D03*
X302500Y396000D02*
D03*
X297000Y385000D02*
D03*
X302500Y374000D02*
D03*
X297000Y363000D02*
D03*
X302500Y352000D02*
D03*
X297000Y341000D02*
D03*
X302500Y330000D02*
D03*
X297000Y319000D02*
D03*
X302500Y308000D02*
D03*
X297000Y297000D02*
D03*
X302500Y286000D02*
D03*
X297000Y275000D02*
D03*
X302500Y264000D02*
D03*
X297000Y253000D02*
D03*
X302500Y242000D02*
D03*
X297000Y231000D02*
D03*
X291500Y550000D02*
D03*
X286000Y539000D02*
D03*
X291500Y506000D02*
D03*
X286000Y495000D02*
D03*
X291500Y484000D02*
D03*
X286000Y473000D02*
D03*
X291500Y462000D02*
D03*
X286000Y451000D02*
D03*
X291500Y440000D02*
D03*
X286000Y429000D02*
D03*
X291500Y418000D02*
D03*
X286000Y407000D02*
D03*
X291500Y396000D02*
D03*
X286000Y385000D02*
D03*
X291500Y374000D02*
D03*
X286000Y363000D02*
D03*
X291500Y352000D02*
D03*
X286000Y341000D02*
D03*
X291500Y330000D02*
D03*
X286000Y319000D02*
D03*
X291500Y308000D02*
D03*
X286000Y297000D02*
D03*
X291500Y286000D02*
D03*
X286000Y275000D02*
D03*
X291500Y264000D02*
D03*
X286000Y253000D02*
D03*
X291500Y242000D02*
D03*
X286000Y231000D02*
D03*
X280500Y528000D02*
D03*
Y506000D02*
D03*
X275000Y209000D02*
D03*
X264000D02*
D03*
X253000Y517000D02*
D03*
Y209000D02*
D03*
X247500Y528000D02*
D03*
X242000Y517000D02*
D03*
Y209000D02*
D03*
X231000Y539000D02*
D03*
X236500Y528000D02*
D03*
X231000Y517000D02*
D03*
Y209000D02*
D03*
X225500Y550000D02*
D03*
X220000Y539000D02*
D03*
X225500Y528000D02*
D03*
X220000Y517000D02*
D03*
Y209000D02*
D03*
X214500Y550000D02*
D03*
X209000Y539000D02*
D03*
X214500Y528000D02*
D03*
X209000Y517000D02*
D03*
Y209000D02*
D03*
X203500Y550000D02*
D03*
X198000Y539000D02*
D03*
X203500Y528000D02*
D03*
X198000Y517000D02*
D03*
Y209000D02*
D03*
X192500Y550000D02*
D03*
X187000Y539000D02*
D03*
X192500Y528000D02*
D03*
X187000Y517000D02*
D03*
Y209000D02*
D03*
X181500Y550000D02*
D03*
X176000Y539000D02*
D03*
X181500Y528000D02*
D03*
X176000Y517000D02*
D03*
Y209000D02*
D03*
X165000D02*
D03*
X159500Y528000D02*
D03*
X154000Y209000D02*
D03*
X143000D02*
D03*
X132000D02*
D03*
X121000Y495000D02*
D03*
Y473000D02*
D03*
Y451000D02*
D03*
Y429000D02*
D03*
Y407000D02*
D03*
Y385000D02*
D03*
Y363000D02*
D03*
Y341000D02*
D03*
Y319000D02*
D03*
Y297000D02*
D03*
Y275000D02*
D03*
Y253000D02*
D03*
Y231000D02*
D03*
X110000Y495000D02*
D03*
X115500Y484000D02*
D03*
X110000Y473000D02*
D03*
X115500Y462000D02*
D03*
X110000Y451000D02*
D03*
X115500Y440000D02*
D03*
X110000Y429000D02*
D03*
X115500Y418000D02*
D03*
X99000Y495000D02*
D03*
X104500Y484000D02*
D03*
X99000Y473000D02*
D03*
X104500Y462000D02*
D03*
X99000Y451000D02*
D03*
X104500Y440000D02*
D03*
X99000Y429000D02*
D03*
X104500Y418000D02*
D03*
Y396000D02*
D03*
X99000Y385000D02*
D03*
X104500Y374000D02*
D03*
X99000Y363000D02*
D03*
Y341000D02*
D03*
X104500Y330000D02*
D03*
X88000Y495000D02*
D03*
X93500Y484000D02*
D03*
X88000Y473000D02*
D03*
X93500Y462000D02*
D03*
X88000Y451000D02*
D03*
X93500Y440000D02*
D03*
X88000Y429000D02*
D03*
X93500Y418000D02*
D03*
Y396000D02*
D03*
Y374000D02*
D03*
Y264000D02*
D03*
X77000Y539000D02*
D03*
Y495000D02*
D03*
X82500Y484000D02*
D03*
X77000Y473000D02*
D03*
X82500Y462000D02*
D03*
X77000Y451000D02*
D03*
X82500Y440000D02*
D03*
X77000Y429000D02*
D03*
X82500Y418000D02*
D03*
X66000Y539000D02*
D03*
X71500Y528000D02*
D03*
X66000Y517000D02*
D03*
X71500Y506000D02*
D03*
X66000Y495000D02*
D03*
X71500Y484000D02*
D03*
X66000Y473000D02*
D03*
X71500Y462000D02*
D03*
X66000Y451000D02*
D03*
X71500Y440000D02*
D03*
X66000Y429000D02*
D03*
X71500Y418000D02*
D03*
X81000Y22000D02*
D03*
X100000Y51000D02*
D03*
X103000Y31000D02*
D03*
X81000Y30000D02*
D03*
X293000Y60500D02*
D03*
Y69000D02*
D03*
X290500Y32000D02*
D03*
X282000D02*
D03*
X183000Y101750D02*
D03*
X70750Y202500D02*
D03*
X97000Y163500D02*
D03*
X85000Y162500D02*
D03*
X60000Y135000D02*
D03*
X67500Y140000D02*
D03*
X72500Y135000D02*
D03*
X75000Y142500D02*
D03*
X60000D02*
D03*
Y150000D02*
D03*
X67500Y147500D02*
D03*
X72500Y152500D02*
D03*
X65000Y155000D02*
D03*
X60000Y160000D02*
D03*
X65000Y165000D02*
D03*
X75000Y162500D02*
D03*
X232000Y20000D02*
D03*
X75000Y117500D02*
D03*
X70000Y125000D02*
D03*
X65000Y120000D02*
D03*
X60000Y125000D02*
D03*
Y115000D02*
D03*
X65000Y110000D02*
D03*
X72500Y107500D02*
D03*
X67500Y102500D02*
D03*
X60000Y105000D02*
D03*
X179562Y29750D02*
D03*
X162258Y110755D02*
D03*
X152500Y29250D02*
D03*
X154000Y9000D02*
D03*
X90000Y30000D02*
D03*
X133000Y12500D02*
D03*
X99500Y65500D02*
D03*
X176500Y103250D02*
D03*
X100000Y555000D02*
D03*
X92500D02*
D03*
X85000D02*
D03*
Y542500D02*
D03*
Y535000D02*
D03*
Y527500D02*
D03*
X125000Y520000D02*
D03*
X100000D02*
D03*
X92500D02*
D03*
X85000D02*
D03*
Y512500D02*
D03*
Y505000D02*
D03*
X152500Y535000D02*
D03*
Y527500D02*
D03*
Y520000D02*
D03*
X92500Y512500D02*
D03*
Y505000D02*
D03*
X115000D02*
D03*
X107500D02*
D03*
X100000D02*
D03*
Y512500D02*
D03*
X130000D02*
D03*
X137500D02*
D03*
X88000Y139000D02*
D03*
X101000Y148000D02*
D03*
X167500Y555000D02*
D03*
Y550000D02*
D03*
Y542500D02*
D03*
Y535000D02*
D03*
Y527500D02*
D03*
Y520000D02*
D03*
Y512500D02*
D03*
X145000Y555000D02*
D03*
X160000Y512500D02*
D03*
X152500D02*
D03*
X145000Y550000D02*
D03*
Y542500D02*
D03*
Y512500D02*
D03*
X75000Y515000D02*
D03*
Y545000D02*
D03*
X214000Y134000D02*
D03*
Y124000D02*
D03*
X30500Y410000D02*
D03*
X182000Y95000D02*
D03*
X116000Y21000D02*
D03*
X121000Y16000D02*
D03*
X130500Y154500D02*
D03*
X168000Y158000D02*
D03*
X139000D02*
D03*
X175500Y154500D02*
D03*
X159000Y158000D02*
D03*
X149000D02*
D03*
X60000Y97500D02*
D03*
X75500Y42750D02*
D03*
X75000Y97500D02*
D03*
X72500Y90000D02*
D03*
X65000Y85000D02*
D03*
X60000Y77500D02*
D03*
X67000Y43250D02*
D03*
X67500Y95000D02*
D03*
X60000Y90000D02*
D03*
X179000Y123000D02*
D03*
X127000Y133000D02*
D03*
Y123000D02*
D03*
X182919Y85081D02*
D03*
X141000Y124000D02*
D03*
X179000Y133000D02*
D03*
Y145000D02*
D03*
X127000D02*
D03*
D82*
X361000Y21650D02*
D03*
Y47050D02*
D03*
Y72450D02*
D03*
Y97850D02*
D03*
Y123250D02*
D03*
D83*
X323000Y21650D02*
D03*
Y47050D02*
D03*
Y72450D02*
D03*
Y97850D02*
D03*
Y123250D02*
D03*
D84*
X40000Y471350D02*
D03*
D85*
X236000Y38000D02*
D03*
X236000Y45000D02*
D03*
X225000Y97250D02*
D03*
X230000Y102000D02*
D03*
X235000Y106500D02*
D03*
X225000Y106250D02*
D03*
X235000Y97500D02*
D03*
X299250Y195402D02*
D03*
X228750Y137250D02*
D03*
X288000Y99250D02*
D03*
X258000D02*
D03*
X273000D02*
D03*
X54000Y224000D02*
D03*
Y212000D02*
D03*
X64000Y224000D02*
D03*
Y212000D02*
D03*
X59000Y218000D02*
D03*
X245000Y129000D02*
D03*
Y120000D02*
D03*
Y102000D02*
D03*
Y111000D02*
D03*
X335000Y175000D02*
D03*
X297000Y133000D02*
D03*
X245000Y147000D02*
D03*
Y156000D02*
D03*
Y165000D02*
D03*
Y174000D02*
D03*
X329000Y145000D02*
D03*
X280000Y144000D02*
D03*
X342500Y175000D02*
D03*
X316000Y177500D02*
D03*
X293000Y177250D02*
D03*
X299000Y171000D02*
D03*
X298750Y152250D02*
D03*
D86*
X186000Y61250D02*
D03*
Y53000D02*
D03*
Y69500D02*
D03*
X97000Y75250D02*
D03*
X98000Y37000D02*
D03*
X123500Y113000D02*
D03*
X49500Y389000D02*
D03*
X183000Y109000D02*
D03*
X142000Y112000D02*
D03*
X97928Y104500D02*
D03*
D94*
X132500Y549000D02*
D03*
X112500Y524000D02*
D03*
X267100D02*
D03*
X292500D02*
D03*
X137900D02*
D03*
X157900Y549000D02*
D03*
X272500D02*
D03*
X247100D02*
D03*
D95*
X77500Y217200D02*
D03*
Y395000D02*
D03*
Y369600D02*
D03*
Y344200D02*
D03*
Y318800D02*
D03*
Y293400D02*
D03*
Y268000D02*
D03*
Y242600D02*
D03*
Y191800D02*
D03*
X327500Y395000D02*
D03*
Y369600D02*
D03*
Y344200D02*
D03*
Y318800D02*
D03*
Y293400D02*
D03*
Y268000D02*
D03*
Y242600D02*
D03*
Y217200D02*
D03*
Y191800D02*
D03*
D96*
X327500Y199500D02*
D03*
X76750Y197750D02*
D03*
D97*
X69387Y218000D02*
D03*
M02*
