G04*
G04 #@! TF.GenerationSoftware,Altium Limited,Altium Designer,20.0.1 (14)*
G04*
G04 Layer_Color=255*
%FSLAX44Y44*%
%MOMM*%
G71*
G01*
G75*
%ADD18R,0.5080X0.5080*%
%ADD19R,0.5080X0.5080*%
%ADD20C,0.5000*%
%ADD21R,0.8000X1.5240*%
%ADD22R,0.8000X0.3302*%
%ADD23R,0.3302X0.8000*%
%ADD24R,3.8000X3.8000*%
%ADD25R,0.7000X0.5800*%
%ADD26R,1.6000X1.6000*%
%ADD27R,1.2000X1.0000*%
%ADD28R,1.4500X0.5500*%
%ADD29R,1.4500X0.5500*%
%ADD30R,0.7620X0.7620*%
%ADD31R,0.7620X0.7620*%
D18*
X56750Y120250D02*
D03*
X46750D02*
D03*
X56750Y102250D02*
D03*
X46750D02*
D03*
X128117Y61000D02*
D03*
X138117D02*
D03*
X128000Y91000D02*
D03*
X138000D02*
D03*
X56750Y111250D02*
D03*
X46750D02*
D03*
Y129250D02*
D03*
X56750D02*
D03*
X80000Y108750D02*
D03*
X70000D02*
D03*
X128117Y79000D02*
D03*
X138117D02*
D03*
X128117Y70000D02*
D03*
X138117D02*
D03*
X90500Y108750D02*
D03*
X100500D02*
D03*
D19*
X89750Y27250D02*
D03*
Y17250D02*
D03*
X47000Y62500D02*
D03*
Y72500D02*
D03*
Y91000D02*
D03*
Y81000D02*
D03*
Y41750D02*
D03*
Y51750D02*
D03*
X51000Y27250D02*
D03*
Y17250D02*
D03*
X60000D02*
D03*
Y27250D02*
D03*
X76250Y17250D02*
D03*
Y27250D02*
D03*
X65500Y129000D02*
D03*
Y139000D02*
D03*
D20*
X34000Y48500D02*
D03*
D21*
X139005Y19500D02*
D03*
X105995D02*
D03*
D22*
X61469Y84256D02*
D03*
X61469Y79253D02*
D03*
X61469Y74252D02*
D03*
X61469Y69251D02*
D03*
Y64249D02*
D03*
X61469Y59248D02*
D03*
X61469Y54247D02*
D03*
Y49246D02*
D03*
X113031D02*
D03*
Y54247D02*
D03*
X113031Y59248D02*
D03*
X113031Y64249D02*
D03*
Y69251D02*
D03*
X113031Y74252D02*
D03*
X113031Y79253D02*
D03*
Y84254D02*
D03*
D23*
X69746Y40969D02*
D03*
X74747D02*
D03*
X79748Y40969D02*
D03*
X84749Y40969D02*
D03*
X89751D02*
D03*
X94752Y40969D02*
D03*
X99753Y40969D02*
D03*
X104754D02*
D03*
Y92531D02*
D03*
X99753D02*
D03*
X94752Y92531D02*
D03*
X89751Y92531D02*
D03*
X84749D02*
D03*
X79748Y92531D02*
D03*
X74747Y92531D02*
D03*
X69746D02*
D03*
D24*
X87250Y66750D02*
D03*
D25*
X123750Y37750D02*
D03*
X135750D02*
D03*
D26*
X159000Y95400D02*
D03*
Y70000D02*
D03*
Y44600D02*
D03*
Y19200D02*
D03*
D27*
X95000Y135750D02*
D03*
X78000D02*
D03*
Y122750D02*
D03*
X95000D02*
D03*
D28*
X137750Y121750D02*
D03*
D29*
X137750Y131250D02*
D03*
Y140750D02*
D03*
X116250D02*
D03*
Y121750D02*
D03*
D30*
X135749Y104749D02*
D03*
X122749D02*
D03*
D31*
X153999Y124751D02*
D03*
Y137751D02*
D03*
M02*
