G04*
G04 #@! TF.GenerationSoftware,Altium Limited,Altium Designer,20.0.1 (14)*
G04*
G04 Layer_Color=8388736*
%FSLAX44Y44*%
%MOMM*%
G71*
G01*
G75*
%ADD41C,1.0000*%
%ADD42R,1.4032X0.7032*%
%ADD43R,0.9652X0.9652*%
%ADD44R,0.9652X0.9652*%
%ADD45R,1.7272X2.7432*%
%ADD46R,2.7432X1.7272*%
%ADD47C,0.5032*%
%ADD48R,0.6532X1.2032*%
%ADD49O,0.4531X0.8032*%
%ADD50O,0.8032X0.4531*%
%ADD51R,5.5032X5.5032*%
%ADD52P,1.0058X4X90.0*%
%ADD53R,0.7112X0.7112*%
%ADD54R,1.2192X1.4732*%
%ADD55R,1.4032X0.6032*%
%ADD56R,1.9532X4.7032*%
%ADD57P,1.0058X4X180.0*%
%ADD58R,0.9032X0.9032*%
%ADD59R,1.0032X1.9032*%
%ADD60R,0.7112X0.7112*%
%ADD61R,1.2032X1.4032*%
%ADD62C,1.2032*%
%ADD63C,0.7032*%
%ADD64R,1.2032X1.2032*%
%ADD65C,2.2032*%
%ADD66C,1.7272*%
G36*
X117499Y550389D02*
X114499D01*
Y538962D01*
X115233Y538228D01*
Y535550D01*
X113339Y533656D01*
X110661D01*
X108767Y535550D01*
Y538228D01*
X109501Y538962D01*
Y550389D01*
X106501D01*
X106501Y556389D01*
X117499D01*
X117499Y550389D01*
D02*
G37*
D41*
X112000Y545000D02*
D03*
D42*
X235000Y65250D02*
D03*
Y84250D02*
D03*
Y74750D02*
D03*
X263000Y84250D02*
D03*
Y65250D02*
D03*
D43*
X194372Y83749D02*
D03*
X207372D02*
D03*
X194372Y55749D02*
D03*
X207372D02*
D03*
X194372Y68999D02*
D03*
X207372D02*
D03*
D44*
X242521Y29223D02*
D03*
Y42223D02*
D03*
X255771Y29249D02*
D03*
Y42249D02*
D03*
D45*
X229060Y120000D02*
D03*
X258060D02*
D03*
D46*
X355000Y159302D02*
D03*
Y188302D02*
D03*
D47*
X59268Y64010D02*
D03*
Y41644D02*
D03*
D48*
X40000Y422250D02*
D03*
X49500Y399570D02*
D03*
X30500D02*
D03*
D49*
X169251Y105000D02*
D03*
X114250D02*
D03*
X119250D02*
D03*
X124250D02*
D03*
X129250D02*
D03*
X134250D02*
D03*
X139250D02*
D03*
X144250D02*
D03*
X149250D02*
D03*
X154251D02*
D03*
X159250D02*
D03*
X164250D02*
D03*
X114250Y36000D02*
D03*
X119250D02*
D03*
X124250D02*
D03*
X129250D02*
D03*
X134250D02*
D03*
X139250D02*
D03*
X144250D02*
D03*
X149250D02*
D03*
X154250D02*
D03*
X159250D02*
D03*
X164250D02*
D03*
X169250D02*
D03*
D50*
X176250Y43001D02*
D03*
Y98000D02*
D03*
Y93000D02*
D03*
Y88000D02*
D03*
Y83000D02*
D03*
Y78000D02*
D03*
Y73000D02*
D03*
Y68000D02*
D03*
Y63000D02*
D03*
Y58000D02*
D03*
Y53000D02*
D03*
Y47999D02*
D03*
X107250Y42999D02*
D03*
Y48001D02*
D03*
Y52999D02*
D03*
Y58001D02*
D03*
Y62999D02*
D03*
Y68001D02*
D03*
Y72999D02*
D03*
Y78001D02*
D03*
Y82999D02*
D03*
Y88001D02*
D03*
Y92999D02*
D03*
Y98001D02*
D03*
D51*
X141750Y70500D02*
D03*
D52*
X93286Y44785D02*
D03*
X86215Y37715D02*
D03*
Y50964D02*
D03*
X93286Y58035D02*
D03*
X80205Y76386D02*
D03*
X87389Y83570D02*
D03*
X86361Y64429D02*
D03*
X93545Y71614D02*
D03*
D53*
X84848Y128062D02*
D03*
Y117902D02*
D03*
X172598Y127902D02*
D03*
Y138062D02*
D03*
X133402Y138098D02*
D03*
Y127938D02*
D03*
X112598Y117902D02*
D03*
Y128062D02*
D03*
X121098Y117902D02*
D03*
Y128062D02*
D03*
X101848D02*
D03*
Y117902D02*
D03*
X93402Y128098D02*
D03*
Y117938D02*
D03*
X277068Y132098D02*
D03*
Y121938D02*
D03*
X329360Y163902D02*
D03*
Y174062D02*
D03*
X329402Y185366D02*
D03*
Y195526D02*
D03*
D54*
X109000Y148000D02*
D03*
X87410D02*
D03*
D55*
X313970Y169750D02*
D03*
Y163250D02*
D03*
X286030Y169750D02*
D03*
Y163250D02*
D03*
Y156750D02*
D03*
Y150250D02*
D03*
X313970D02*
D03*
Y156750D02*
D03*
D56*
X229750Y165000D02*
D03*
X262250D02*
D03*
D57*
X67179Y77639D02*
D03*
X74364Y70455D02*
D03*
X86180Y96639D02*
D03*
X93364Y89455D02*
D03*
D58*
X112000Y520389D02*
D03*
Y536000D02*
D03*
D59*
X127500Y536750D02*
D03*
X96500D02*
D03*
D60*
X89938Y22360D02*
D03*
X100098D02*
D03*
X283062Y22402D02*
D03*
X272902D02*
D03*
X179562D02*
D03*
X169402D02*
D03*
X202062Y133402D02*
D03*
X191902D02*
D03*
X202062Y124402D02*
D03*
X191902D02*
D03*
X202098Y108598D02*
D03*
X191938D02*
D03*
X143902Y22402D02*
D03*
X154062D02*
D03*
X84652Y108902D02*
D03*
X94812D02*
D03*
X191938Y37098D02*
D03*
X202098D02*
D03*
X316062Y195402D02*
D03*
X305902D02*
D03*
X305938Y186598D02*
D03*
X316098D02*
D03*
X282938D02*
D03*
X293098D02*
D03*
X287062Y108402D02*
D03*
X276902D02*
D03*
D61*
X146500Y129949D02*
D03*
Y146949D02*
D03*
X159500D02*
D03*
Y129949D02*
D03*
D62*
X387750Y156500D02*
D03*
X221500Y92500D02*
D03*
X279000Y49000D02*
D03*
X212250Y22500D02*
D03*
X199750D02*
D03*
X40000Y458850D02*
D03*
D63*
X162750Y81000D02*
D03*
Y70500D02*
D03*
Y60000D02*
D03*
X152250Y49500D02*
D03*
X141750D02*
D03*
X131250D02*
D03*
X120750Y60000D02*
D03*
Y70500D02*
D03*
Y81000D02*
D03*
X131250Y91500D02*
D03*
X152250D02*
D03*
X141750D02*
D03*
X131250Y81000D02*
D03*
Y70500D02*
D03*
Y60000D02*
D03*
X152250D02*
D03*
X141750D02*
D03*
Y81000D02*
D03*
X152250D02*
D03*
Y70500D02*
D03*
X141750D02*
D03*
D64*
X40000Y471350D02*
D03*
D65*
X361000Y123250D02*
D03*
Y97850D02*
D03*
Y72450D02*
D03*
Y47050D02*
D03*
Y21650D02*
D03*
D66*
X323000Y123250D02*
D03*
Y97850D02*
D03*
Y72450D02*
D03*
Y47050D02*
D03*
Y21650D02*
D03*
M02*
