G04*
G04 #@! TF.GenerationSoftware,Altium Limited,Altium Designer,20.0.1 (14)*
G04*
G04 Layer_Color=255*
%FSLAX44Y44*%
%MOMM*%
G71*
G01*
G75*
%ADD41C,1.0000*%
%ADD77C,0.5000*%
%ADD78R,1.0000X1.0000*%
%ADD79C,2.0000*%
%ADD80C,1.5240*%
%ADD91R,1.5000X1.8000*%
%ADD92R,2.0000X1.5000*%
D41*
X212250Y22500D02*
D03*
X199750D02*
D03*
X40000Y458850D02*
D03*
D77*
X162750Y81000D02*
D03*
Y70500D02*
D03*
Y60000D02*
D03*
X152250Y49500D02*
D03*
X141750D02*
D03*
X131250D02*
D03*
X120750Y60000D02*
D03*
Y70500D02*
D03*
Y81000D02*
D03*
X131250Y91500D02*
D03*
X152250D02*
D03*
X141750D02*
D03*
X131250Y81000D02*
D03*
Y70500D02*
D03*
Y60000D02*
D03*
X152250D02*
D03*
X141750D02*
D03*
Y81000D02*
D03*
X152250D02*
D03*
Y70500D02*
D03*
X141750D02*
D03*
D78*
X40000Y471350D02*
D03*
D79*
X361000Y123250D02*
D03*
Y97850D02*
D03*
Y72450D02*
D03*
Y47050D02*
D03*
Y21650D02*
D03*
D80*
X323000Y123250D02*
D03*
Y97850D02*
D03*
Y72450D02*
D03*
Y47050D02*
D03*
Y21650D02*
D03*
D91*
X132500Y549000D02*
D03*
X112500Y524000D02*
D03*
X267100D02*
D03*
X292500D02*
D03*
X137900D02*
D03*
X157900Y549000D02*
D03*
X272500D02*
D03*
X247100D02*
D03*
D92*
X77500Y217200D02*
D03*
Y395000D02*
D03*
Y369600D02*
D03*
Y344200D02*
D03*
Y318800D02*
D03*
Y293400D02*
D03*
Y268000D02*
D03*
Y242600D02*
D03*
Y191800D02*
D03*
X327500Y395000D02*
D03*
Y369600D02*
D03*
Y344200D02*
D03*
Y318800D02*
D03*
Y293400D02*
D03*
Y268000D02*
D03*
Y242600D02*
D03*
Y217200D02*
D03*
Y191800D02*
D03*
M02*
