G04*
G04 #@! TF.GenerationSoftware,Altium Limited,Altium Designer,20.0.1 (14)*
G04*
G04 Layer_Physical_Order=1*
G04 Layer_Color=255*
%FSLAX44Y44*%
%MOMM*%
G71*
G01*
G75*
%ADD10C,0.2540*%
%ADD11C,0.2500*%
%ADD20C,0.1800*%
%ADD21R,1.2000X0.5000*%
%ADD22R,0.7620X0.7620*%
%ADD23R,0.7620X0.7620*%
%ADD24R,1.5240X2.5400*%
%ADD25R,2.5400X1.5240*%
%ADD26C,0.3000*%
%ADD27R,0.4500X1.0000*%
%ADD28O,0.2499X0.6000*%
%ADD29O,0.6000X0.2499*%
%ADD30R,5.3000X5.3000*%
%ADD31P,0.7184X4X90.0*%
%ADD32R,0.5080X0.5080*%
%ADD33R,1.0160X1.2700*%
%ADD34R,1.2000X0.4000*%
%ADD35R,1.7500X4.5000*%
%ADD36P,0.7184X4X180.0*%
%ADD37R,0.7000X0.7000*%
%ADD38R,0.8000X1.7000*%
%ADD39R,0.5080X0.5080*%
%ADD40R,1.0000X1.2000*%
%ADD41C,1.0000*%
%ADD67C,0.5000*%
%ADD68C,0.4000*%
%ADD69C,0.3000*%
%ADD70C,1.0000*%
%ADD71C,0.6000*%
%ADD72R,2.8121X0.4723*%
%ADD73R,1.0000X3.6000*%
%ADD74R,0.3700X0.5010*%
%ADD75R,2.2000X0.6500*%
%ADD76R,1.5500X2.4500*%
%ADD77C,0.5000*%
%ADD78R,1.0000X1.0000*%
%ADD79C,2.0000*%
%ADD80C,1.5240*%
%ADD81C,0.6000*%
%ADD82C,0.7000*%
G36*
X117499Y550389D02*
X114499D01*
Y536000D01*
X109501D01*
Y550389D01*
X106501D01*
X106501Y556389D01*
X117499D01*
X117499Y550389D01*
D02*
G37*
G36*
X328813Y543666D02*
X328813Y543666D01*
X328749D01*
X329226Y540045D01*
X330624Y536671D01*
X332847Y533774D01*
X335744Y531551D01*
X339118Y530153D01*
X342739Y529676D01*
X344045Y529848D01*
X345000Y529011D01*
Y296927D01*
X344004Y296162D01*
X341781Y293265D01*
X340383Y289891D01*
X339906Y286270D01*
X340383Y282649D01*
X341781Y279275D01*
X344004Y276378D01*
X345000Y275613D01*
Y200000D01*
X60000D01*
Y207012D01*
X61270Y207690D01*
X62010Y207196D01*
X64000Y206800D01*
X65990Y207196D01*
X67677Y208323D01*
X68804Y210010D01*
X69200Y212000D01*
X68804Y213990D01*
X67677Y215677D01*
X65990Y216804D01*
X64039Y217192D01*
X64200Y218000D01*
X64039Y218808D01*
X65990Y219196D01*
X67677Y220323D01*
X68804Y222010D01*
X69200Y224000D01*
X68804Y225990D01*
X67677Y227677D01*
X65990Y228804D01*
X64000Y229200D01*
X62010Y228804D01*
X61270Y228310D01*
X60000Y228988D01*
Y275613D01*
X60996Y276378D01*
X63219Y279275D01*
X64617Y282649D01*
X65094Y286270D01*
X64617Y289891D01*
X63219Y293265D01*
X60996Y296162D01*
X60000Y296926D01*
Y558344D01*
X104435D01*
X105035Y557074D01*
X104994Y557013D01*
X104870Y556389D01*
X104869Y550389D01*
X104994Y549765D01*
X105347Y549236D01*
X105884Y548688D01*
X105924Y547578D01*
X105570Y546723D01*
X105343Y545000D01*
X105570Y543277D01*
X106235Y541671D01*
X106900Y540805D01*
Y530900D01*
X117100D01*
Y540805D01*
X117765Y541671D01*
X118430Y543277D01*
X118657Y545000D01*
X118430Y546723D01*
X118076Y547578D01*
X118116Y548688D01*
X118653Y549236D01*
X119006Y549765D01*
X119130Y550389D01*
X119130Y556389D01*
X119006Y557013D01*
X118966Y557074D01*
X119565Y558344D01*
X328813D01*
Y543666D01*
D02*
G37*
G36*
X32000Y406500D02*
X29000D01*
X28501Y408499D01*
X32499D01*
X32000Y406500D01*
D02*
G37*
G36*
X32720Y404539D02*
X28280D01*
X29000Y405439D01*
X32000D01*
X32720Y404539D01*
D02*
G37*
G36*
X326893Y193017D02*
X325693Y193464D01*
Y197464D01*
X326893Y198036D01*
Y193017D01*
D02*
G37*
G36*
X303392Y192893D02*
X302192Y193402D01*
Y197402D01*
X303392Y197912D01*
Y192893D01*
D02*
G37*
G36*
X319771Y197464D02*
Y193464D01*
X318571Y192893D01*
X318080Y191693D01*
X314080D01*
X313552Y192893D01*
X318571D01*
Y197912D01*
X319771Y197464D01*
D02*
G37*
G36*
X318608Y189107D02*
X313589D01*
X314080Y190307D01*
X318080D01*
X318608Y189107D01*
D02*
G37*
G36*
X339760Y189802D02*
X355000D01*
Y186802D01*
X339760D01*
Y178142D01*
X368000D01*
Y168631D01*
X341000D01*
X340376Y168507D01*
X339846Y168153D01*
X339846Y168153D01*
X334673Y162980D01*
X333500Y163466D01*
Y167712D01*
X333500Y168042D01*
X334296Y168982D01*
X334440D01*
Y172562D01*
X329360D01*
X324280D01*
Y168982D01*
X324281D01*
X325089Y167988D01*
X325055Y167846D01*
X324277Y166921D01*
X321570D01*
Y173350D01*
X314325D01*
X313970Y173421D01*
X313431D01*
X310881Y174030D01*
X309609Y175302D01*
Y182458D01*
X310078D01*
Y184070D01*
X310079Y184074D01*
X310078Y184078D01*
Y184084D01*
X310079Y184088D01*
X310078Y184093D01*
Y190738D01*
X310078D01*
X310078Y190738D01*
X310042Y191993D01*
Y198000D01*
X311922D01*
Y192897D01*
X311921Y192893D01*
X311922Y192889D01*
Y192860D01*
X311921Y192857D01*
X311922Y192855D01*
Y191993D01*
X311922Y191262D01*
X311922D01*
X311958Y190738D01*
X311958D01*
Y189111D01*
X311957Y189107D01*
X311958Y189104D01*
X311957Y189100D01*
X311958Y189096D01*
Y182458D01*
X320238D01*
Y189103D01*
X320239Y189107D01*
X320238Y189111D01*
Y189140D01*
X320239Y189142D01*
X320238Y189145D01*
Y190738D01*
X320755Y191794D01*
X323943D01*
X324034Y191597D01*
X324322Y190446D01*
X324322D01*
Y186866D01*
X329402D01*
X334482D01*
Y190446D01*
X334339D01*
X333542Y191386D01*
X333542Y191716D01*
Y198000D01*
X339760D01*
Y189802D01*
D02*
G37*
G36*
X307938Y182888D02*
X303938D01*
X303429Y184088D01*
X308448D01*
X307938Y182888D01*
D02*
G37*
G36*
X284938D02*
X280938D01*
X280429Y184088D01*
X285448D01*
X284938Y182888D01*
D02*
G37*
G36*
X301798Y190738D02*
Y184093D01*
X301797Y184088D01*
X301798Y184084D01*
Y184078D01*
X301797Y184074D01*
X301798Y184070D01*
Y182458D01*
X302268D01*
Y173782D01*
X302547Y172377D01*
X303343Y171186D01*
X305821Y168708D01*
X306370Y167440D01*
Y163242D01*
X305197Y162756D01*
X301747Y166206D01*
X300391Y167112D01*
X298791Y167430D01*
X293630D01*
Y173350D01*
X287352D01*
X286609Y173807D01*
Y181191D01*
X286839Y181298D01*
X288018Y181518D01*
Y181518D01*
X291598D01*
Y186598D01*
X294598D01*
Y181518D01*
X298178D01*
X298178Y191678D01*
X299426Y191732D01*
X301132D01*
X301798Y190738D01*
D02*
G37*
G36*
X286938Y171689D02*
X280061Y171719D01*
X280938Y172920D01*
X284938D01*
X286938Y171689D01*
D02*
G37*
G36*
X313657D02*
X308001Y167780D01*
X307152Y169740D01*
X309980Y172568D01*
X313657Y171689D01*
D02*
G37*
G36*
X326850Y161392D02*
X325650Y161250D01*
Y165250D01*
X326850Y166411D01*
Y161392D01*
D02*
G37*
G36*
X398000Y158770D02*
Y71000D01*
X389000Y62000D01*
X319000Y62000D01*
X315000Y66000D01*
X315000Y79000D01*
X319000Y83000D01*
X372000Y83000D01*
X378000Y89000D01*
X378000Y139000D01*
X372000Y145000D01*
X342000D01*
X333000Y154000D01*
X307379Y154000D01*
X307379Y159500D01*
X333500Y159500D01*
X341000Y167000D01*
X389770D01*
X398000Y158770D01*
D02*
G37*
G36*
X164469Y152919D02*
X154530D01*
X156000Y154719D01*
X162000D01*
X164469Y152919D01*
D02*
G37*
G36*
X103981Y143000D02*
X102451Y145500D01*
Y150500D01*
X103981Y153000D01*
Y143000D01*
D02*
G37*
G36*
X144076Y140979D02*
X142421Y140598D01*
X141149Y141870D01*
X141530Y143525D01*
X144076Y140979D01*
D02*
G37*
G36*
X114058Y140480D02*
X110058D01*
X108058Y141680D01*
X114050D01*
X114058Y140480D01*
D02*
G37*
G36*
X130893Y135589D02*
X129393Y135598D01*
Y140598D01*
X130893Y140608D01*
Y135589D01*
D02*
G37*
G36*
X176607Y140562D02*
Y135562D01*
X175107Y135552D01*
Y140571D01*
X176607Y140562D01*
D02*
G37*
G36*
X107250Y182271D02*
X107250Y156890D01*
X101380D01*
Y139110D01*
X107250D01*
X107250Y132220D01*
X105980Y132202D01*
X97708D01*
Y132202D01*
X97542Y132238D01*
X97542Y132238D01*
X96453Y132238D01*
X89928D01*
Y133142D01*
X79768D01*
Y129562D01*
X84848D01*
Y126562D01*
X79768D01*
Y122982D01*
X79911D01*
X80708Y122042D01*
Y113982D01*
X79572D01*
Y103822D01*
X84519D01*
X85005Y102649D01*
X78995Y96639D01*
X81527Y94108D01*
X85119Y97700D01*
X87240Y95579D01*
X83648Y91987D01*
X86146Y89489D01*
X86176Y89459D01*
X86179Y89402D01*
X86158Y88194D01*
X84605Y86641D01*
X84434Y86526D01*
X84319Y86355D01*
X82313Y84349D01*
X81395Y83500D01*
X81395D01*
X81395Y83500D01*
X80066Y82171D01*
X80100Y82136D01*
X77869Y79905D01*
X76981Y79017D01*
X76741Y79258D01*
X76735Y79244D01*
X76736Y78772D01*
X75625Y77661D01*
X74825Y77647D01*
X74268Y77736D01*
X71832Y80171D01*
X68240Y76579D01*
X64648Y72987D01*
X66839Y70796D01*
X66950Y69280D01*
X66864Y69214D01*
X64984Y68436D01*
X64204Y68333D01*
X62968Y68250D01*
Y68250D01*
X57000D01*
Y182271D01*
X107250Y182271D01*
D02*
G37*
G36*
X212652Y131894D02*
X210553Y132431D01*
X210196Y134971D01*
X212353Y135881D01*
X212652Y131894D01*
D02*
G37*
G36*
X205333Y134971D02*
Y132431D01*
X204541Y131161D01*
X204571Y135912D01*
X205333Y134971D01*
D02*
G37*
G36*
X115107Y130571D02*
X110088D01*
X110058Y131771D01*
X114058D01*
X115107Y130571D01*
D02*
G37*
G36*
X191938Y130923D02*
X190283Y130511D01*
X189010Y131784D01*
X189423Y133438D01*
X191938Y130923D01*
D02*
G37*
G36*
X135388Y130442D02*
X135912Y130448D01*
X136294Y130021D01*
X135388Y130442D01*
X132902Y130417D01*
X134557Y130830D01*
X135388Y130442D01*
D02*
G37*
G36*
X274000Y191000D02*
X274000Y165000D01*
X280000Y159000D01*
X293000D01*
X293000Y155000D01*
X280000Y155000D01*
X274000Y149000D01*
X274000Y141000D01*
X280000Y135000D01*
X280000Y129000D01*
X274000D01*
X274000Y134000D01*
X266000Y142000D01*
X251000Y142000D01*
X251000Y191000D01*
X274000Y191000D01*
D02*
G37*
G36*
X99338Y126530D02*
X98798Y127430D01*
Y129230D01*
X99338Y130130D01*
Y126530D01*
D02*
G37*
G36*
X96452Y129230D02*
Y127430D01*
X95912Y126530D01*
Y130130D01*
X96452Y129230D01*
D02*
G37*
G36*
X118588Y125552D02*
X117388Y126062D01*
Y130062D01*
X118588Y130571D01*
Y125552D01*
D02*
G37*
G36*
X116307Y130062D02*
Y126062D01*
X115107Y125552D01*
Y130571D01*
X116307Y130062D01*
D02*
G37*
G36*
X170088Y125551D02*
X169548Y126451D01*
Y128251D01*
X170088Y129151D01*
Y125551D01*
D02*
G37*
G36*
X165009Y128251D02*
Y126451D01*
X164439Y125551D01*
Y129151D01*
X165009Y128251D01*
D02*
G37*
G36*
X104739Y126443D02*
X103466Y125170D01*
X101812Y125583D01*
X104327Y128098D01*
X104739Y126443D01*
D02*
G37*
G36*
X135912Y125429D02*
X135900Y124889D01*
X134100D01*
X133200Y125459D01*
X135912Y125429D01*
D02*
G37*
G36*
X181000Y124764D02*
X177000D01*
X176877Y130880D01*
X181123D01*
X181000Y124764D01*
D02*
G37*
G36*
X129000Y128062D02*
X125000Y124062D01*
X121098Y126062D01*
Y130062D01*
X125000Y132062D01*
X129000Y128062D01*
D02*
G37*
G36*
X156870Y123598D02*
X154325D01*
X154530Y123980D01*
X158525Y124010D01*
X156870Y123598D01*
D02*
G37*
G36*
X141530Y125246D02*
X143010Y123131D01*
X141530Y123980D01*
Y125246D01*
X140682Y126459D01*
X141530Y130136D01*
Y125246D01*
D02*
G37*
G36*
X212400Y122079D02*
X210240Y122931D01*
X210479Y125471D01*
X212601Y126072D01*
X212400Y122079D01*
D02*
G37*
G36*
X205333Y125471D02*
Y122931D01*
X204571Y121893D01*
X204541Y126741D01*
X205333Y125471D01*
D02*
G37*
G36*
X191897Y120875D02*
X189988Y121511D01*
X189392Y121893D01*
X194188Y121923D01*
X191897Y120875D01*
D02*
G37*
G36*
X333530Y128000D02*
X333095Y118000D01*
X327450Y117064D01*
X327700Y129248D01*
X333530Y128000D01*
D02*
G37*
G36*
X99338Y116352D02*
X98798Y117252D01*
Y119052D01*
X99338Y119952D01*
Y116352D01*
D02*
G37*
G36*
X96452Y119052D02*
Y117252D01*
X95912Y116352D01*
Y119952D01*
X96452Y119052D01*
D02*
G37*
G36*
X90923Y116352D02*
X90353Y117252D01*
Y119052D01*
X90923Y119952D01*
Y116352D01*
D02*
G37*
G36*
X87897Y119052D02*
Y117252D01*
X87327Y116352D01*
Y119952D01*
X87897Y119052D01*
D02*
G37*
G36*
X116007Y119371D02*
Y116371D01*
X115107Y115392D01*
Y120411D01*
X116007Y119371D01*
D02*
G37*
G36*
X355121Y115161D02*
X346489Y118000D01*
X346200Y128000D01*
X354871Y131151D01*
X355121Y115161D01*
D02*
G37*
G36*
X102748Y114852D02*
X100948D01*
X100048Y115423D01*
X103648D01*
X102748Y114852D01*
D02*
G37*
G36*
X118588Y115392D02*
X121088D01*
X122158Y116463D01*
X123751Y115990D01*
X123154Y115392D01*
X123607D01*
X123865Y114756D01*
X121844Y114082D01*
X120511Y112748D01*
X120085Y114180D01*
X118588Y115392D01*
X117688Y116371D01*
Y119371D01*
X118588Y120411D01*
Y115392D01*
D02*
G37*
G36*
X289571Y110912D02*
X284552D01*
X285062Y112112D01*
X289062D01*
X289571Y110912D01*
D02*
G37*
G36*
X142353Y109021D02*
X140148Y108352D01*
X138352Y110148D01*
X139021Y112353D01*
X142353Y109021D01*
D02*
G37*
G36*
X125500Y108964D02*
X123000Y108242D01*
X121415Y110843D01*
X126152Y111598D01*
X125500Y108964D01*
D02*
G37*
G36*
X164886Y108636D02*
X163614Y107364D01*
X161553Y108357D01*
X164757Y110673D01*
X164886Y108636D01*
D02*
G37*
G36*
X187518Y110270D02*
Y107730D01*
X184802Y106601D01*
Y111399D01*
X187518Y110270D01*
D02*
G37*
G36*
X181199Y106601D02*
X178482Y107730D01*
Y110270D01*
X181199Y111399D01*
Y106601D01*
D02*
G37*
G36*
X189459Y106460D02*
X188667Y107730D01*
Y110270D01*
X189429Y111107D01*
X189459Y106460D01*
D02*
G37*
G36*
X82142Y106393D02*
X80942Y106902D01*
Y110902D01*
X82142Y111412D01*
Y106393D01*
D02*
G37*
G36*
X204608Y106088D02*
X201569Y105240D01*
X198740Y108068D01*
X199589Y111107D01*
X204608Y106088D01*
D02*
G37*
G36*
X171033Y106736D02*
X170463Y104401D01*
X169251Y107993D01*
X169771Y109066D01*
X171033Y106736D01*
D02*
G37*
G36*
X97696Y107491D02*
X96950Y106393D01*
X97321D01*
X97333Y105863D01*
X96372Y105542D01*
X95062Y103613D01*
X94168Y105284D01*
X92302Y106393D01*
X94588D01*
X95696Y107500D01*
X97696Y107491D01*
D02*
G37*
G36*
X102013Y102183D02*
X100245Y100415D01*
X97506Y101530D01*
X100898Y104922D01*
X102013Y102183D01*
D02*
G37*
G36*
X177529Y99692D02*
X178294Y99154D01*
X174700Y99213D01*
X175467Y99699D01*
X174501Y101749D01*
X178499D01*
X177529Y99692D01*
D02*
G37*
G36*
X182209Y92509D02*
X180636Y92364D01*
X179364Y93636D01*
X179509Y95209D01*
X182209Y92509D01*
D02*
G37*
G36*
X333322Y102850D02*
Y92850D01*
X327576Y91757D01*
Y103943D01*
X333322Y102850D01*
D02*
G37*
G36*
X354995Y89854D02*
X346340Y92850D01*
Y102850D01*
X354995Y105846D01*
Y89854D01*
D02*
G37*
G36*
X97793Y90195D02*
X96913Y89455D01*
X93364Y93004D01*
X94854Y93173D01*
X97793Y90195D01*
D02*
G37*
G36*
X93364Y85906D02*
X92296Y84852D01*
X88761Y88388D01*
X89815Y89455D01*
X93364Y85906D01*
D02*
G37*
G36*
X183271Y87556D02*
X180444Y84729D01*
X179573Y87155D01*
X180846Y88427D01*
X183271Y87556D01*
D02*
G37*
G36*
X92037Y84593D02*
X90939Y83570D01*
X87389Y87120D01*
X88502Y88129D01*
X92037Y84593D01*
D02*
G37*
G36*
X241719Y85500D02*
Y83000D01*
X240970Y81781D01*
Y86720D01*
X241719Y85500D01*
D02*
G37*
G36*
X239000Y80000D02*
X203750Y80000D01*
X203750Y86750D01*
X219000Y102000D01*
X219000Y189000D01*
X221000Y191000D01*
X239000Y191000D01*
Y80000D01*
D02*
G37*
G36*
X94777Y74900D02*
X94915Y74870D01*
X96711Y73074D01*
X96728Y73001D01*
X97462Y72286D01*
X96945Y72064D01*
X97049Y71616D01*
X96706Y71962D01*
X94770Y71134D01*
X92932Y72888D01*
X93753Y74952D01*
X93545Y75163D01*
X93814Y75105D01*
X94024Y75633D01*
X94777Y74900D01*
D02*
G37*
G36*
X101093Y77547D02*
X99970Y74828D01*
X96578Y78220D01*
X99297Y79343D01*
X101093Y77547D01*
D02*
G37*
G36*
X80205Y72837D02*
X79183Y71739D01*
X75647Y75274D01*
X76656Y76386D01*
X80205Y72837D01*
D02*
G37*
G36*
X52000Y172500D02*
X10268D01*
Y155000D01*
X37268D01*
Y127500D01*
X10268D01*
Y110000D01*
X37268D01*
Y83510D01*
X10268D01*
Y66510D01*
X59268D01*
Y61510D01*
X10268D01*
Y44777D01*
X57768D01*
Y45894D01*
X57000Y46399D01*
Y59838D01*
X62840Y59855D01*
X62968Y59830D01*
Y59832D01*
X66115Y60142D01*
X69140Y61060D01*
X71929Y62551D01*
X74353Y64540D01*
X74375Y64555D01*
X82023Y72202D01*
X82910Y73089D01*
X82910Y73089D01*
X82915Y73084D01*
X82924Y73097D01*
X83717Y74043D01*
X86060Y76386D01*
X86060Y76386D01*
X86060Y76386D01*
X86060Y76455D01*
X86471Y76866D01*
X87389Y77716D01*
X87390D01*
X87389Y77716D01*
X90050Y80376D01*
X90492Y80671D01*
X96570Y86749D01*
X96570Y86749D01*
X96685Y86921D01*
X98008Y88245D01*
X98415Y88587D01*
X99336Y88968D01*
X99962Y88415D01*
X100249Y87883D01*
X100074Y87000D01*
Y82462D01*
X98313Y80702D01*
X95975Y79736D01*
X95205Y79583D01*
X93684Y78566D01*
X92667Y77045D01*
X92554Y76478D01*
X92402Y76325D01*
X92398Y76323D01*
X92396Y76320D01*
X87690Y71614D01*
X86462Y71512D01*
X86361Y71614D01*
X83829Y69082D01*
X87421Y65490D01*
X85300Y63369D01*
X81708Y66961D01*
X79176Y64429D01*
X85619Y57986D01*
X85836Y57770D01*
X85534Y57468D01*
X83683Y55617D01*
X87275Y52025D01*
X85154Y49904D01*
X81562Y53496D01*
X79030Y50964D01*
X85466Y44529D01*
X86132Y43675D01*
X85466Y42820D01*
X80360Y37715D01*
X85058Y33016D01*
X85061Y33012D01*
X85065Y33009D01*
X86215Y31860D01*
X86167Y31643D01*
X86138Y31600D01*
X85820Y30000D01*
X86138Y28400D01*
X86503Y27854D01*
X86509Y27829D01*
X86629Y27570D01*
X85945Y26500D01*
X85798D01*
Y18220D01*
X94078D01*
Y26500D01*
X94037D01*
X93361Y27575D01*
X93458Y27777D01*
X93465Y27807D01*
X93862Y28400D01*
X94180Y30000D01*
X93862Y31600D01*
X93219Y32562D01*
X94038Y33623D01*
X95567Y33094D01*
X96205Y32667D01*
X98000Y32310D01*
X99795Y32667D01*
X101316Y33684D01*
X102333Y35205D01*
X102690Y37000D01*
X102333Y38795D01*
X101316Y40316D01*
X99795Y41333D01*
X98000Y41690D01*
X97802Y41651D01*
X97176Y42821D01*
X99140Y44785D01*
X96296Y47630D01*
X95835Y48398D01*
Y54407D01*
X96248Y55068D01*
X96906Y55479D01*
X102674Y55466D01*
X103352Y54195D01*
X103192Y53955D01*
X103002Y52999D01*
X103192Y52044D01*
X103734Y51233D01*
Y49767D01*
X103192Y48956D01*
X103002Y48001D01*
X103192Y47045D01*
X103734Y46235D01*
Y44766D01*
X103192Y43955D01*
X103002Y42999D01*
X103192Y42044D01*
X103734Y41233D01*
X104544Y40692D01*
X105500Y40502D01*
X107250D01*
X107250Y19710D01*
X106077Y19224D01*
X104238Y21062D01*
Y26500D01*
X95958D01*
Y18220D01*
X99111D01*
X100081Y17996D01*
X100802Y17117D01*
X100323Y16000D01*
X76724Y16000D01*
Y18874D01*
X76787D01*
X76311Y22495D01*
X74913Y25869D01*
X72690Y28766D01*
X69792Y30989D01*
X66418Y32387D01*
X62797Y32864D01*
X59177Y32387D01*
X58056Y31923D01*
X57000Y32628D01*
Y36890D01*
X57768Y37394D01*
Y38511D01*
X10268D01*
Y38510D01*
X5268D01*
Y88510D01*
X32268D01*
Y105000D01*
X5268D01*
Y132500D01*
X32268D01*
Y150000D01*
X5268D01*
Y177500D01*
X52000D01*
Y172500D01*
D02*
G37*
G36*
X78967Y71523D02*
X77913Y70455D01*
X74364Y74004D01*
X75431Y75058D01*
X78967Y71523D01*
D02*
G37*
G36*
X74364Y66906D02*
X73296Y65852D01*
X69761Y69388D01*
X70815Y70455D01*
X74364Y66906D01*
D02*
G37*
G36*
X241719Y66500D02*
Y64000D01*
X240970Y62780D01*
Y67719D01*
X241719Y66500D01*
D02*
G37*
G36*
X287000Y82250D02*
X287000Y44000D01*
X281500Y38500D01*
X231730D01*
X227000Y43230D01*
Y57000D01*
X271000Y57000D01*
X275000Y61000D01*
X275000Y72500D01*
X271500Y76000D01*
X256000Y76000D01*
Y87500D01*
X281750D01*
X287000Y82250D01*
D02*
G37*
G36*
X96475Y58935D02*
Y58932D01*
X96480Y58929D01*
X96475Y58027D01*
Y57136D01*
X96469Y57132D01*
X96469Y57129D01*
X95064Y56253D01*
X94185Y54847D01*
X92386D01*
X91486Y56287D01*
X95031D01*
X95035Y58032D01*
Y59836D01*
X96475Y58935D01*
D02*
G37*
G36*
X192470Y51970D02*
X198151D01*
X193455Y51333D01*
X192470Y51970D01*
X190592D01*
X190878Y52999D01*
X192470Y51970D01*
D02*
G37*
G36*
X95064Y46513D02*
X91507D01*
X92386Y47975D01*
X94185D01*
X95064Y46513D01*
D02*
G37*
G36*
X333322Y52050D02*
Y42050D01*
X327576Y40957D01*
Y53143D01*
X333322Y52050D01*
D02*
G37*
G36*
X194448Y39607D02*
X189429D01*
X190438Y40507D01*
X193438D01*
X194448Y39607D01*
D02*
G37*
G36*
X354995Y39054D02*
X346340Y42050D01*
Y52050D01*
X354995Y55046D01*
Y39054D01*
D02*
G37*
G36*
X96199Y34601D02*
X93602Y35500D01*
Y38500D01*
X96199Y39399D01*
Y34601D01*
D02*
G37*
G36*
X89763Y37715D02*
X89268Y37219D01*
X88449Y35500D01*
X86215Y34165D01*
X89268Y37219D01*
X89878Y38500D01*
X89763Y37715D01*
D02*
G37*
G36*
X200650Y34048D02*
X198850D01*
X199589Y34588D01*
X201550D01*
X200650Y34048D01*
D02*
G37*
G36*
X140150Y32665D02*
X140376Y29779D01*
X136595Y31068D01*
X138350Y32975D01*
X140150Y32665D01*
D02*
G37*
G36*
X147213Y30268D02*
X142525Y29256D01*
X142980Y31761D01*
X145520Y32788D01*
X147213Y30268D01*
D02*
G37*
G36*
X152961Y31707D02*
X150012Y29008D01*
X149236Y31491D01*
X150605Y32667D01*
X152961Y31707D01*
D02*
G37*
G36*
X91987Y28483D02*
X90869Y26156D01*
X89069Y26180D01*
X87989Y28514D01*
X91987Y28483D01*
D02*
G37*
G36*
X180462Y25918D02*
X178662D01*
X177563Y28249D01*
X181561D01*
X180462Y25918D01*
D02*
G37*
G36*
X203748Y25503D02*
X195752D01*
X198850Y30418D01*
X200650D01*
X203748Y25503D01*
D02*
G37*
G36*
X181362Y24912D02*
X177762D01*
X178662Y25452D01*
X180462D01*
X181362Y24912D01*
D02*
G37*
G36*
X171050D02*
X167450D01*
X168350Y25452D01*
X170150D01*
X171050Y24912D01*
D02*
G37*
G36*
X91769Y24839D02*
X88169D01*
X89069Y25409D01*
X90869D01*
X91769Y24839D01*
D02*
G37*
G36*
X147165Y25691D02*
X145426Y23205D01*
X142886Y24353D01*
X142798Y24912D01*
X141616D01*
X142696Y25560D01*
X142500Y26802D01*
X147165Y25691D01*
D02*
G37*
G36*
X249369Y191000D02*
X249369Y142000D01*
X249493Y141376D01*
X249846Y140846D01*
X250376Y140493D01*
X251000Y140369D01*
X265324Y140369D01*
X272369Y133324D01*
X272369Y129000D01*
X272493Y128376D01*
X272846Y127846D01*
X273376Y127493D01*
X274000Y127369D01*
X280000D01*
X280624Y127493D01*
X281154Y127846D01*
X281507Y128376D01*
X281631Y129000D01*
X281631Y135000D01*
X281631Y135000D01*
X281507Y135624D01*
X281208Y136071D01*
Y136238D01*
X281069D01*
X275631Y141676D01*
X275631Y148035D01*
X276220Y148498D01*
X277490Y147906D01*
Y146784D01*
X278000Y148220D01*
X281252D01*
X279212Y150260D01*
X280061Y152219D01*
X291999Y148280D01*
X282273Y147452D01*
X282713Y146211D01*
X277490D01*
Y145710D01*
X286723D01*
X287249Y144440D01*
X284466Y141657D01*
X283671Y140466D01*
X283391Y139062D01*
Y112542D01*
X282922D01*
Y110930D01*
X282921Y110926D01*
X282922Y110922D01*
Y110916D01*
X282921Y110912D01*
X282922Y110908D01*
Y104262D01*
X291202D01*
Y110908D01*
X291203Y110912D01*
X291202Y110916D01*
Y110922D01*
X291203Y110926D01*
X291202Y110930D01*
Y112542D01*
X290732D01*
Y137541D01*
X292520Y139330D01*
X301000D01*
X302405Y139609D01*
X303595Y140405D01*
X309770Y146580D01*
X313970D01*
X314325Y146650D01*
X321570D01*
Y152369D01*
X332324Y152369D01*
X340846Y143847D01*
X340846Y143846D01*
X341376Y143493D01*
X342000Y143369D01*
X342000Y143369D01*
X368000D01*
Y140000D01*
X313000Y140000D01*
X299000Y126000D01*
X299000Y103500D01*
X299000D01*
X299000Y31250D01*
X294292Y26542D01*
X285576D01*
X285571Y26543D01*
X285567Y26542D01*
X268762D01*
Y19879D01*
X268761Y19875D01*
X268762Y19871D01*
Y18262D01*
X268762Y18262D01*
X268762D01*
X268424Y17132D01*
X267632Y16328D01*
X220651Y15997D01*
X219750Y16891D01*
X219750Y28000D01*
X203000Y44750D01*
X203000Y70750D01*
X195500Y78250D01*
X190000Y78250D01*
X190000Y87500D01*
X200000D01*
X200000Y80750D01*
X203750Y77000D01*
X225000Y77000D01*
X225000Y42500D01*
X230750Y36750D01*
X235945Y36750D01*
X236171Y35480D01*
Y30723D01*
X242521D01*
Y27723D01*
X236171D01*
Y22873D01*
X248162D01*
X248871Y22873D01*
X250130Y22899D01*
X262121D01*
Y27749D01*
X255771D01*
Y30749D01*
X262121D01*
Y35480D01*
X262121Y35599D01*
X262409Y36750D01*
X277500Y36750D01*
Y36869D01*
X281500D01*
X282124Y36993D01*
X282654Y37346D01*
X282654Y37346D01*
X288153Y42846D01*
X288507Y43376D01*
X288631Y44000D01*
X288631Y44000D01*
X288631Y82250D01*
X288507Y82874D01*
X288154Y83404D01*
X288153Y83404D01*
X282903Y88653D01*
X282903Y88653D01*
X282374Y89007D01*
X281750Y89131D01*
X281750Y89131D01*
X256000D01*
X255376Y89007D01*
X255365Y89000D01*
X241000Y89000D01*
X241000Y191732D01*
X248219D01*
X249369Y191000D01*
D02*
G37*
G36*
X119346Y23073D02*
X118475Y20648D01*
X115648Y23475D01*
X118074Y24346D01*
X119346Y23073D01*
D02*
G37*
G36*
X286771Y24650D02*
Y20650D01*
X285571Y19893D01*
Y24912D01*
X286771Y24650D01*
D02*
G37*
G36*
X102608Y19850D02*
X102476D01*
X100955Y19468D01*
X99300Y19850D01*
X102476D01*
X102990Y19979D01*
X102608Y19850D01*
D02*
G37*
G36*
X272302Y19353D02*
X270502D01*
X270392Y19893D01*
X273202Y19923D01*
X272302Y19353D01*
D02*
G37*
G36*
X155500Y18993D02*
X152500D01*
X151552Y19893D01*
X156571D01*
X155500Y18993D01*
D02*
G37*
G36*
X200563Y17567D02*
X194937Y16165D01*
X193619Y17392D01*
X194785Y23094D01*
X200563Y17567D01*
D02*
G37*
G36*
X317938Y15954D02*
X310874Y20650D01*
X311423Y24650D01*
X318940Y28098D01*
X317938Y15954D01*
D02*
G37*
G36*
X124346Y18074D02*
X123475Y15648D01*
X120648Y18475D01*
X123073Y19346D01*
X124346Y18074D01*
D02*
G37*
G36*
X333322Y26650D02*
Y16650D01*
X327576Y15557D01*
Y27743D01*
X333322Y26650D01*
D02*
G37*
G36*
X133900Y16332D02*
X134999Y14001D01*
X131001Y14001D01*
X132100Y16332D01*
X133900Y16332D01*
D02*
G37*
G36*
X354995Y13654D02*
X346340Y16650D01*
Y26650D01*
X354995Y29646D01*
Y13654D01*
D02*
G37*
G36*
X155999Y10501D02*
X152001D01*
X152500Y12500D01*
X155500D01*
X155999Y10501D01*
D02*
G37*
G36*
X386554Y528988D02*
X386734D01*
X386939Y528964D01*
X387191Y528952D01*
X387479Y528916D01*
X387792Y528880D01*
X388128Y528820D01*
X388488Y528760D01*
X388849Y528676D01*
X389233Y528579D01*
X389618Y528459D01*
X390014Y528327D01*
X390399Y528183D01*
X390783Y528003D01*
X390807Y527991D01*
X390867Y527955D01*
X390975Y527895D01*
X391119Y527823D01*
X391288Y527715D01*
X391480Y527594D01*
X391696Y527438D01*
X391925Y527270D01*
X392165Y527078D01*
X392417Y526874D01*
X392681Y526645D01*
X392934Y526381D01*
X393186Y526117D01*
X393426Y525816D01*
X393655Y525504D01*
X393859Y525168D01*
X393871Y525144D01*
X393907Y525083D01*
X393955Y524987D01*
X394027Y524843D01*
X394099Y524663D01*
X394195Y524459D01*
X394291Y524230D01*
X394387Y523954D01*
X394483Y523666D01*
X394580Y523353D01*
X394676Y523005D01*
X394748Y522645D01*
X394820Y522272D01*
X394868Y521876D01*
X394904Y521467D01*
X394916Y521047D01*
Y520938D01*
X394904Y520818D01*
Y520662D01*
X394880Y520458D01*
X394856Y520218D01*
X394820Y519953D01*
X394784Y519665D01*
X394724Y519353D01*
X394652Y519016D01*
X394556Y518668D01*
X394459Y518319D01*
X394327Y517959D01*
X394183Y517598D01*
X394015Y517238D01*
X393823Y516890D01*
X393811Y516866D01*
X393775Y516806D01*
X393715Y516710D01*
X393619Y516589D01*
X393510Y516433D01*
X393378Y516253D01*
X393210Y516061D01*
X393030Y515844D01*
X392826Y515616D01*
X392597Y515388D01*
X392345Y515148D01*
X392069Y514919D01*
X391768Y514691D01*
X391456Y514463D01*
X391119Y514259D01*
X390759Y514066D01*
X390735Y514054D01*
X390675Y514018D01*
X390567Y513970D01*
X390411Y513910D01*
X390230Y513838D01*
X390002Y513754D01*
X389750Y513670D01*
X389462Y513574D01*
X389149Y513490D01*
X388813Y513406D01*
X388440Y513321D01*
X388056Y513249D01*
X387647Y513177D01*
X387227Y513129D01*
X386782Y513105D01*
X386326Y513093D01*
X386302D01*
X386230D01*
X386122D01*
X385977Y513105D01*
X385797Y513117D01*
X385593Y513129D01*
X385353Y513141D01*
X385088Y513165D01*
X384812Y513201D01*
X384524Y513249D01*
X384211Y513297D01*
X383899Y513358D01*
X383575Y513430D01*
X383262Y513514D01*
X382938Y513610D01*
X382626Y513718D01*
X382601Y513730D01*
X382553Y513742D01*
X382469Y513778D01*
X382349Y513838D01*
X382205Y513898D01*
X382049Y513982D01*
X381857Y514078D01*
X381664Y514187D01*
X381448Y514319D01*
X381220Y514451D01*
X380979Y514607D01*
X380739Y514775D01*
X380499Y514955D01*
X380259Y515160D01*
X380018Y515376D01*
X379790Y515604D01*
X379778Y515592D01*
X379742Y515532D01*
X379694Y515460D01*
X379622Y515340D01*
X379526Y515208D01*
X379430Y515051D01*
X379322Y514871D01*
X379201Y514679D01*
X379081Y514463D01*
X378949Y514247D01*
X378685Y513766D01*
X378445Y513273D01*
X378336Y513021D01*
X378240Y512781D01*
X376715Y513430D01*
X376726Y513454D01*
X376750Y513514D01*
X376787Y513610D01*
X376835Y513742D01*
X376907Y513898D01*
X376991Y514090D01*
X377099Y514307D01*
X377207Y514547D01*
X377351Y514811D01*
X377495Y515088D01*
X377664Y515388D01*
X377844Y515688D01*
X378048Y516013D01*
X378264Y516337D01*
X378493Y516661D01*
X378745Y516998D01*
X378733Y517022D01*
X378697Y517082D01*
X378649Y517178D01*
X378589Y517322D01*
X378505Y517490D01*
X378420Y517707D01*
X378324Y517935D01*
X378240Y518199D01*
X378144Y518488D01*
X378048Y518812D01*
X377964Y519148D01*
X377880Y519497D01*
X377820Y519881D01*
X377772Y520266D01*
X377736Y520662D01*
X377724Y521083D01*
Y521179D01*
X377736Y521299D01*
Y521467D01*
X377760Y521659D01*
X377784Y521900D01*
X377820Y522152D01*
X377856Y522440D01*
X377916Y522753D01*
X377988Y523077D01*
X378072Y523413D01*
X378180Y523762D01*
X378300Y524122D01*
X378445Y524471D01*
X378613Y524831D01*
X378805Y525179D01*
X378817Y525204D01*
X378853Y525264D01*
X378925Y525360D01*
X379009Y525480D01*
X379117Y525636D01*
X379249Y525816D01*
X379418Y526008D01*
X379598Y526225D01*
X379802Y526453D01*
X380030Y526681D01*
X380283Y526909D01*
X380559Y527150D01*
X380859Y527378D01*
X381172Y527606D01*
X381508Y527823D01*
X381869Y528015D01*
X381893Y528027D01*
X381953Y528051D01*
X382073Y528111D01*
X382217Y528171D01*
X382397Y528243D01*
X382626Y528327D01*
X382878Y528411D01*
X383166Y528507D01*
X383479Y528604D01*
X383815Y528688D01*
X384187Y528772D01*
X384572Y528844D01*
X384980Y528904D01*
X385413Y528952D01*
X385857Y528988D01*
X386314Y529000D01*
X386326D01*
X386338D01*
X386374D01*
X386422D01*
X386482D01*
X386554Y528988D01*
D02*
G37*
G36*
Y510919D02*
X386734D01*
X386939Y510895D01*
X387191Y510883D01*
X387479Y510847D01*
X387792Y510811D01*
X388128Y510750D01*
X388488Y510690D01*
X388849Y510606D01*
X389233Y510510D01*
X389618Y510390D01*
X390014Y510258D01*
X390399Y510114D01*
X390783Y509934D01*
X390807Y509921D01*
X390867Y509885D01*
X390975Y509825D01*
X391119Y509753D01*
X391288Y509645D01*
X391480Y509525D01*
X391696Y509369D01*
X391925Y509201D01*
X392165Y509008D01*
X392417Y508804D01*
X392681Y508576D01*
X392934Y508312D01*
X393186Y508047D01*
X393426Y507747D01*
X393655Y507435D01*
X393859Y507098D01*
X393871Y507074D01*
X393907Y507014D01*
X393955Y506918D01*
X394027Y506774D01*
X394099Y506594D01*
X394195Y506389D01*
X394291Y506161D01*
X394387Y505885D01*
X394483Y505596D01*
X394580Y505284D01*
X394676Y504936D01*
X394748Y504575D01*
X394820Y504203D01*
X394868Y503806D01*
X394904Y503398D01*
X394916Y502977D01*
Y502869D01*
X394904Y502749D01*
Y502593D01*
X394880Y502389D01*
X394856Y502148D01*
X394820Y501884D01*
X394784Y501596D01*
X394724Y501283D01*
X394652Y500947D01*
X394556Y500598D01*
X394459Y500250D01*
X394327Y499890D01*
X394183Y499529D01*
X394015Y499169D01*
X393823Y498820D01*
X393811Y498796D01*
X393775Y498736D01*
X393715Y498640D01*
X393619Y498520D01*
X393510Y498364D01*
X393378Y498184D01*
X393210Y497991D01*
X393030Y497775D01*
X392826Y497547D01*
X392597Y497319D01*
X392345Y497078D01*
X392069Y496850D01*
X391768Y496622D01*
X391456Y496394D01*
X391119Y496189D01*
X390759Y495997D01*
X390735Y495985D01*
X390675Y495949D01*
X390567Y495901D01*
X390411Y495841D01*
X390230Y495769D01*
X390002Y495685D01*
X389750Y495601D01*
X389462Y495504D01*
X389149Y495420D01*
X388813Y495336D01*
X388440Y495252D01*
X388056Y495180D01*
X387647Y495108D01*
X387227Y495060D01*
X386782Y495036D01*
X386326Y495024D01*
X386302D01*
X386230D01*
X386122D01*
X385977Y495036D01*
X385797Y495048D01*
X385593Y495060D01*
X385353Y495072D01*
X385088Y495096D01*
X384812Y495132D01*
X384524Y495180D01*
X384211Y495228D01*
X383899Y495288D01*
X383575Y495360D01*
X383262Y495444D01*
X382938Y495541D01*
X382626Y495649D01*
X382601Y495661D01*
X382553Y495673D01*
X382469Y495709D01*
X382349Y495769D01*
X382205Y495829D01*
X382049Y495913D01*
X381857Y496009D01*
X381664Y496117D01*
X381448Y496249D01*
X381220Y496381D01*
X380979Y496538D01*
X380739Y496706D01*
X380499Y496886D01*
X380259Y497090D01*
X380018Y497307D01*
X379790Y497535D01*
X379778Y497523D01*
X379742Y497463D01*
X379694Y497391D01*
X379622Y497271D01*
X379526Y497138D01*
X379430Y496982D01*
X379322Y496802D01*
X379201Y496610D01*
X379081Y496394D01*
X378949Y496177D01*
X378685Y495697D01*
X378445Y495204D01*
X378336Y494952D01*
X378240Y494711D01*
X376715Y495360D01*
X376726Y495384D01*
X376750Y495444D01*
X376787Y495541D01*
X376835Y495673D01*
X376907Y495829D01*
X376991Y496021D01*
X377099Y496237D01*
X377207Y496478D01*
X377351Y496742D01*
X377495Y497018D01*
X377664Y497319D01*
X377844Y497619D01*
X378048Y497943D01*
X378264Y498268D01*
X378493Y498592D01*
X378745Y498928D01*
X378733Y498952D01*
X378697Y499013D01*
X378649Y499109D01*
X378589Y499253D01*
X378505Y499421D01*
X378420Y499637D01*
X378324Y499866D01*
X378240Y500130D01*
X378144Y500418D01*
X378048Y500743D01*
X377964Y501079D01*
X377880Y501427D01*
X377820Y501812D01*
X377772Y502196D01*
X377736Y502593D01*
X377724Y503013D01*
Y503109D01*
X377736Y503229D01*
Y503398D01*
X377760Y503590D01*
X377784Y503830D01*
X377820Y504083D01*
X377856Y504371D01*
X377916Y504683D01*
X377988Y505008D01*
X378072Y505344D01*
X378180Y505692D01*
X378300Y506053D01*
X378445Y506401D01*
X378613Y506762D01*
X378805Y507110D01*
X378817Y507134D01*
X378853Y507194D01*
X378925Y507290D01*
X379009Y507411D01*
X379117Y507567D01*
X379249Y507747D01*
X379418Y507939D01*
X379598Y508155D01*
X379802Y508384D01*
X380030Y508612D01*
X380283Y508840D01*
X380559Y509081D01*
X380859Y509309D01*
X381172Y509537D01*
X381508Y509753D01*
X381869Y509945D01*
X381893Y509958D01*
X381953Y509981D01*
X382073Y510042D01*
X382217Y510102D01*
X382397Y510174D01*
X382626Y510258D01*
X382878Y510342D01*
X383166Y510438D01*
X383479Y510534D01*
X383815Y510618D01*
X384187Y510702D01*
X384572Y510774D01*
X384980Y510835D01*
X385413Y510883D01*
X385857Y510919D01*
X386314Y510931D01*
X386326D01*
X386338D01*
X386374D01*
X386422D01*
X386482D01*
X386554Y510919D01*
D02*
G37*
G36*
X382541Y490759D02*
X382529D01*
X382469Y490747D01*
X382397Y490735D01*
X382289Y490711D01*
X382157Y490675D01*
X382001Y490639D01*
X381833Y490591D01*
X381652Y490531D01*
X381280Y490386D01*
X381076Y490302D01*
X380883Y490206D01*
X380691Y490086D01*
X380511Y489966D01*
X380343Y489822D01*
X380187Y489665D01*
X380175Y489654D01*
X380150Y489630D01*
X380115Y489581D01*
X380066Y489509D01*
X380006Y489425D01*
X379934Y489317D01*
X379874Y489209D01*
X379802Y489077D01*
X379718Y488933D01*
X379658Y488764D01*
X379586Y488596D01*
X379526Y488404D01*
X379478Y488212D01*
X379442Y488008D01*
X379418Y487791D01*
X379406Y487563D01*
Y487491D01*
X379418Y487419D01*
Y487311D01*
X379442Y487191D01*
X379466Y487034D01*
X379502Y486866D01*
X379550Y486686D01*
X379598Y486494D01*
X379670Y486289D01*
X379766Y486085D01*
X379874Y485869D01*
X379994Y485665D01*
X380150Y485448D01*
X380319Y485244D01*
X380511Y485052D01*
X380523Y485040D01*
X380559Y485004D01*
X380631Y484956D01*
X380715Y484896D01*
X380823Y484812D01*
X380956Y484728D01*
X381112Y484632D01*
X381292Y484535D01*
X381496Y484451D01*
X381712Y484355D01*
X381953Y484271D01*
X382217Y484187D01*
X382505Y484127D01*
X382806Y484079D01*
X383118Y484043D01*
X383455Y484031D01*
X383479D01*
X383526D01*
X383623Y484043D01*
X383743D01*
X383887Y484055D01*
X384067Y484079D01*
X384247Y484115D01*
X384464Y484151D01*
X384680Y484211D01*
X384896Y484271D01*
X385124Y484355D01*
X385365Y484451D01*
X385593Y484560D01*
X385809Y484692D01*
X386026Y484848D01*
X386218Y485016D01*
X386230Y485028D01*
X386266Y485064D01*
X386314Y485112D01*
X386374Y485196D01*
X386458Y485292D01*
X386542Y485412D01*
X386626Y485545D01*
X386722Y485701D01*
X386818Y485881D01*
X386903Y486073D01*
X386999Y486278D01*
X387071Y486506D01*
X387131Y486758D01*
X387179Y487022D01*
X387215Y487299D01*
X387227Y487587D01*
Y487683D01*
X387215Y487755D01*
Y487839D01*
X387203Y487948D01*
X387191Y488056D01*
X387167Y488188D01*
X387119Y488464D01*
X387035Y488764D01*
X386927Y489077D01*
X386770Y489377D01*
Y489389D01*
X386746Y489413D01*
X386722Y489449D01*
X386686Y489509D01*
X386590Y489654D01*
X386458Y489834D01*
X386290Y490026D01*
X386098Y490230D01*
X385869Y490434D01*
X385617Y490615D01*
X385869Y492537D01*
X394411Y490927D01*
Y482649D01*
X392465D01*
Y489305D01*
X387984Y490194D01*
X387996Y490182D01*
X388032Y490122D01*
X388080Y490050D01*
X388152Y489930D01*
X388224Y489798D01*
X388320Y489641D01*
X388404Y489449D01*
X388512Y489245D01*
X388609Y489017D01*
X388705Y488777D01*
X388789Y488512D01*
X388861Y488248D01*
X388933Y487960D01*
X388981Y487671D01*
X389017Y487359D01*
X389029Y487058D01*
Y486962D01*
X389017Y486842D01*
X389005Y486698D01*
X388981Y486506D01*
X388945Y486289D01*
X388897Y486037D01*
X388837Y485773D01*
X388765Y485497D01*
X388657Y485196D01*
X388536Y484896D01*
X388392Y484584D01*
X388212Y484271D01*
X388020Y483959D01*
X387780Y483658D01*
X387515Y483370D01*
X387503Y483358D01*
X387443Y483310D01*
X387359Y483226D01*
X387239Y483130D01*
X387095Y483022D01*
X386914Y482890D01*
X386698Y482757D01*
X386458Y482613D01*
X386194Y482481D01*
X385905Y482349D01*
X385581Y482217D01*
X385245Y482097D01*
X384872Y482012D01*
X384476Y481928D01*
X384067Y481880D01*
X383635Y481868D01*
X383623D01*
X383611D01*
X383575D01*
X383539D01*
X383418Y481880D01*
X383262Y481892D01*
X383058Y481904D01*
X382830Y481940D01*
X382577Y481976D01*
X382301Y482037D01*
X382001Y482109D01*
X381688Y482193D01*
X381364Y482301D01*
X381040Y482421D01*
X380703Y482577D01*
X380379Y482757D01*
X380054Y482962D01*
X379742Y483190D01*
X379718Y483214D01*
X379658Y483262D01*
X379562Y483358D01*
X379430Y483478D01*
X379273Y483646D01*
X379105Y483839D01*
X378925Y484067D01*
X378733Y484331D01*
X378541Y484632D01*
X378360Y484956D01*
X378192Y485316D01*
X378036Y485713D01*
X377916Y486133D01*
X377808Y486578D01*
X377748Y487058D01*
X377724Y487563D01*
Y487659D01*
X377736Y487779D01*
X377748Y487935D01*
X377760Y488128D01*
X377796Y488356D01*
X377832Y488608D01*
X377880Y488873D01*
X377952Y489161D01*
X378036Y489461D01*
X378132Y489774D01*
X378252Y490086D01*
X378396Y490386D01*
X378565Y490699D01*
X378769Y490987D01*
X378985Y491263D01*
X378997Y491275D01*
X379045Y491324D01*
X379117Y491396D01*
X379213Y491492D01*
X379346Y491600D01*
X379502Y491732D01*
X379682Y491864D01*
X379886Y492008D01*
X380115Y492152D01*
X380367Y492285D01*
X380643Y492429D01*
X380943Y492561D01*
X381268Y492669D01*
X381616Y492765D01*
X381977Y492849D01*
X382361Y492897D01*
X382541Y490759D01*
D02*
G37*
G36*
X394628Y473062D02*
Y471392D01*
X383851D01*
Y469145D01*
X381977D01*
Y471392D01*
X378000D01*
Y473434D01*
X381977D01*
Y480643D01*
X383851D01*
X394628Y473062D01*
D02*
G37*
G36*
X383082Y467079D02*
X383214Y467067D01*
X383382Y467043D01*
X383563Y467019D01*
X383755Y466983D01*
X383959Y466947D01*
X384187Y466887D01*
X384404Y466827D01*
X384632Y466742D01*
X384860Y466646D01*
X385088Y466538D01*
X385305Y466418D01*
X385521Y466274D01*
X385533Y466262D01*
X385569Y466238D01*
X385629Y466190D01*
X385701Y466118D01*
X385785Y466034D01*
X385893Y465925D01*
X386002Y465805D01*
X386122Y465673D01*
X386242Y465505D01*
X386362Y465337D01*
X386494Y465145D01*
X386614Y464928D01*
X386722Y464700D01*
X386830Y464460D01*
X386927Y464195D01*
X387011Y463919D01*
Y463931D01*
X387035Y463979D01*
X387059Y464039D01*
X387095Y464123D01*
X387143Y464231D01*
X387203Y464352D01*
X387275Y464484D01*
X387347Y464628D01*
X387539Y464940D01*
X387768Y465253D01*
X388032Y465553D01*
X388176Y465685D01*
X388332Y465805D01*
X388344Y465817D01*
X388368Y465829D01*
X388416Y465865D01*
X388488Y465901D01*
X388573Y465950D01*
X388669Y465998D01*
X388789Y466058D01*
X388921Y466106D01*
X389065Y466166D01*
X389221Y466226D01*
X389389Y466274D01*
X389570Y466322D01*
X389966Y466394D01*
X390182Y466406D01*
X390399Y466418D01*
X390423D01*
X390483D01*
X390579Y466406D01*
X390699Y466394D01*
X390855Y466382D01*
X391035Y466346D01*
X391240Y466310D01*
X391456Y466250D01*
X391696Y466190D01*
X391936Y466106D01*
X392189Y465998D01*
X392453Y465865D01*
X392705Y465721D01*
X392970Y465553D01*
X393210Y465349D01*
X393450Y465121D01*
X393462Y465108D01*
X393498Y465060D01*
X393570Y464988D01*
X393643Y464880D01*
X393739Y464748D01*
X393847Y464592D01*
X393955Y464412D01*
X394075Y464195D01*
X394183Y463967D01*
X394291Y463703D01*
X394399Y463414D01*
X394496Y463102D01*
X394580Y462778D01*
X394640Y462417D01*
X394676Y462045D01*
X394688Y461648D01*
Y461552D01*
X394676Y461444D01*
X394664Y461288D01*
X394652Y461108D01*
X394616Y460891D01*
X394580Y460651D01*
X394532Y460399D01*
X394459Y460123D01*
X394375Y459834D01*
X394279Y459546D01*
X394147Y459258D01*
X394003Y458969D01*
X393835Y458681D01*
X393643Y458405D01*
X393414Y458152D01*
X393402Y458140D01*
X393354Y458092D01*
X393282Y458032D01*
X393186Y457948D01*
X393066Y457840D01*
X392922Y457732D01*
X392753Y457612D01*
X392561Y457480D01*
X392345Y457359D01*
X392105Y457239D01*
X391852Y457131D01*
X391588Y457023D01*
X391300Y456939D01*
X390987Y456879D01*
X390675Y456831D01*
X390339Y456819D01*
X390327D01*
X390290D01*
X390230D01*
X390146Y456831D01*
X390050Y456843D01*
X389930Y456855D01*
X389798Y456867D01*
X389654Y456891D01*
X389341Y456963D01*
X389005Y457071D01*
X388837Y457143D01*
X388669Y457227D01*
X388500Y457323D01*
X388332Y457431D01*
X388320Y457443D01*
X388296Y457455D01*
X388248Y457491D01*
X388188Y457552D01*
X388116Y457612D01*
X388044Y457696D01*
X387948Y457780D01*
X387852Y457888D01*
X387743Y458020D01*
X387635Y458152D01*
X387527Y458308D01*
X387419Y458465D01*
X387311Y458657D01*
X387203Y458849D01*
X387107Y459053D01*
X387011Y459282D01*
Y459270D01*
X386987Y459210D01*
X386963Y459137D01*
X386914Y459029D01*
X386866Y458897D01*
X386794Y458753D01*
X386722Y458585D01*
X386626Y458417D01*
X386518Y458224D01*
X386398Y458032D01*
X386266Y457840D01*
X386122Y457648D01*
X385965Y457455D01*
X385785Y457275D01*
X385605Y457095D01*
X385401Y456939D01*
X385389Y456927D01*
X385353Y456903D01*
X385293Y456867D01*
X385209Y456807D01*
X385100Y456747D01*
X384968Y456687D01*
X384824Y456614D01*
X384656Y456530D01*
X384464Y456458D01*
X384271Y456386D01*
X384043Y456326D01*
X383815Y456254D01*
X383563Y456206D01*
X383310Y456170D01*
X383034Y456146D01*
X382746Y456134D01*
X382722D01*
X382649D01*
X382541Y456146D01*
X382385Y456158D01*
X382205Y456182D01*
X382001Y456218D01*
X381760Y456266D01*
X381496Y456326D01*
X381220Y456398D01*
X380932Y456506D01*
X380643Y456627D01*
X380343Y456771D01*
X380030Y456951D01*
X379742Y457143D01*
X379442Y457383D01*
X379165Y457648D01*
X379153Y457660D01*
X379105Y457720D01*
X379033Y457804D01*
X378937Y457924D01*
X378829Y458068D01*
X378709Y458260D01*
X378577Y458465D01*
X378445Y458705D01*
X378312Y458981D01*
X378180Y459282D01*
X378060Y459606D01*
X377952Y459954D01*
X377856Y460339D01*
X377784Y460735D01*
X377736Y461168D01*
X377724Y461612D01*
Y461721D01*
X377736Y461853D01*
X377748Y462021D01*
X377772Y462225D01*
X377796Y462465D01*
X377844Y462742D01*
X377904Y463030D01*
X377988Y463342D01*
X378084Y463667D01*
X378192Y463991D01*
X378336Y464328D01*
X378505Y464664D01*
X378697Y464988D01*
X378925Y465289D01*
X379177Y465589D01*
X379189Y465601D01*
X379249Y465649D01*
X379322Y465733D01*
X379442Y465817D01*
X379586Y465938D01*
X379754Y466070D01*
X379946Y466202D01*
X380175Y466334D01*
X380427Y466478D01*
X380703Y466610D01*
X381004Y466742D01*
X381316Y466851D01*
X381664Y466947D01*
X382025Y467031D01*
X382409Y467079D01*
X382806Y467091D01*
X382830D01*
X382878D01*
X382962D01*
X383082Y467079D01*
D02*
G37*
G36*
Y454164D02*
X383214Y454151D01*
X383382Y454128D01*
X383563Y454104D01*
X383755Y454067D01*
X383959Y454031D01*
X384187Y453971D01*
X384404Y453911D01*
X384632Y453827D01*
X384860Y453731D01*
X385088Y453623D01*
X385305Y453503D01*
X385521Y453359D01*
X385533Y453347D01*
X385569Y453323D01*
X385629Y453274D01*
X385701Y453202D01*
X385785Y453118D01*
X385893Y453010D01*
X386002Y452890D01*
X386122Y452758D01*
X386242Y452590D01*
X386362Y452421D01*
X386494Y452229D01*
X386614Y452013D01*
X386722Y451785D01*
X386830Y451544D01*
X386927Y451280D01*
X387011Y451004D01*
Y451016D01*
X387035Y451064D01*
X387059Y451124D01*
X387095Y451208D01*
X387143Y451316D01*
X387203Y451436D01*
X387275Y451568D01*
X387347Y451713D01*
X387539Y452025D01*
X387768Y452337D01*
X388032Y452638D01*
X388176Y452770D01*
X388332Y452890D01*
X388344Y452902D01*
X388368Y452914D01*
X388416Y452950D01*
X388488Y452986D01*
X388573Y453034D01*
X388669Y453082D01*
X388789Y453142D01*
X388921Y453190D01*
X389065Y453251D01*
X389221Y453311D01*
X389389Y453359D01*
X389570Y453407D01*
X389966Y453479D01*
X390182Y453491D01*
X390399Y453503D01*
X390423D01*
X390483D01*
X390579Y453491D01*
X390699Y453479D01*
X390855Y453467D01*
X391035Y453431D01*
X391240Y453395D01*
X391456Y453335D01*
X391696Y453274D01*
X391936Y453190D01*
X392189Y453082D01*
X392453Y452950D01*
X392705Y452806D01*
X392970Y452638D01*
X393210Y452434D01*
X393450Y452205D01*
X393462Y452193D01*
X393498Y452145D01*
X393570Y452073D01*
X393643Y451965D01*
X393739Y451833D01*
X393847Y451677D01*
X393955Y451496D01*
X394075Y451280D01*
X394183Y451052D01*
X394291Y450788D01*
X394399Y450499D01*
X394496Y450187D01*
X394580Y449863D01*
X394640Y449502D01*
X394676Y449130D01*
X394688Y448733D01*
Y448637D01*
X394676Y448529D01*
X394664Y448373D01*
X394652Y448192D01*
X394616Y447976D01*
X394580Y447736D01*
X394532Y447484D01*
X394459Y447207D01*
X394375Y446919D01*
X394279Y446631D01*
X394147Y446342D01*
X394003Y446054D01*
X393835Y445766D01*
X393643Y445489D01*
X393414Y445237D01*
X393402Y445225D01*
X393354Y445177D01*
X393282Y445117D01*
X393186Y445033D01*
X393066Y444925D01*
X392922Y444817D01*
X392753Y444696D01*
X392561Y444564D01*
X392345Y444444D01*
X392105Y444324D01*
X391852Y444216D01*
X391588Y444108D01*
X391300Y444024D01*
X390987Y443964D01*
X390675Y443915D01*
X390339Y443903D01*
X390327D01*
X390290D01*
X390230D01*
X390146Y443915D01*
X390050Y443927D01*
X389930Y443940D01*
X389798Y443951D01*
X389654Y443975D01*
X389341Y444048D01*
X389005Y444156D01*
X388837Y444228D01*
X388669Y444312D01*
X388500Y444408D01*
X388332Y444516D01*
X388320Y444528D01*
X388296Y444540D01*
X388248Y444576D01*
X388188Y444636D01*
X388116Y444696D01*
X388044Y444781D01*
X387948Y444865D01*
X387852Y444973D01*
X387743Y445105D01*
X387635Y445237D01*
X387527Y445393D01*
X387419Y445549D01*
X387311Y445742D01*
X387203Y445934D01*
X387107Y446138D01*
X387011Y446366D01*
Y446354D01*
X386987Y446294D01*
X386963Y446222D01*
X386914Y446114D01*
X386866Y445982D01*
X386794Y445838D01*
X386722Y445670D01*
X386626Y445501D01*
X386518Y445309D01*
X386398Y445117D01*
X386266Y444925D01*
X386122Y444732D01*
X385965Y444540D01*
X385785Y444360D01*
X385605Y444180D01*
X385401Y444024D01*
X385389Y444012D01*
X385353Y443988D01*
X385293Y443951D01*
X385209Y443891D01*
X385100Y443831D01*
X384968Y443771D01*
X384824Y443699D01*
X384656Y443615D01*
X384464Y443543D01*
X384271Y443471D01*
X384043Y443411D01*
X383815Y443339D01*
X383563Y443291D01*
X383310Y443255D01*
X383034Y443231D01*
X382746Y443219D01*
X382722D01*
X382649D01*
X382541Y443231D01*
X382385Y443243D01*
X382205Y443267D01*
X382001Y443303D01*
X381760Y443351D01*
X381496Y443411D01*
X381220Y443483D01*
X380932Y443591D01*
X380643Y443711D01*
X380343Y443855D01*
X380030Y444036D01*
X379742Y444228D01*
X379442Y444468D01*
X379165Y444732D01*
X379153Y444744D01*
X379105Y444804D01*
X379033Y444889D01*
X378937Y445009D01*
X378829Y445153D01*
X378709Y445345D01*
X378577Y445549D01*
X378445Y445790D01*
X378312Y446066D01*
X378180Y446366D01*
X378060Y446691D01*
X377952Y447039D01*
X377856Y447424D01*
X377784Y447820D01*
X377736Y448253D01*
X377724Y448697D01*
Y448805D01*
X377736Y448937D01*
X377748Y449106D01*
X377772Y449310D01*
X377796Y449550D01*
X377844Y449826D01*
X377904Y450115D01*
X377988Y450427D01*
X378084Y450751D01*
X378192Y451076D01*
X378336Y451412D01*
X378505Y451749D01*
X378697Y452073D01*
X378925Y452373D01*
X379177Y452674D01*
X379189Y452686D01*
X379249Y452734D01*
X379322Y452818D01*
X379442Y452902D01*
X379586Y453022D01*
X379754Y453154D01*
X379946Y453287D01*
X380175Y453419D01*
X380427Y453563D01*
X380703Y453695D01*
X381004Y453827D01*
X381316Y453935D01*
X381664Y454031D01*
X382025Y454115D01*
X382409Y454164D01*
X382806Y454176D01*
X382830D01*
X382878D01*
X382962D01*
X383082Y454164D01*
D02*
G37*
G36*
X382662Y439182D02*
X382637D01*
X382589Y439170D01*
X382493Y439146D01*
X382373Y439110D01*
X382229Y439074D01*
X382073Y439026D01*
X381893Y438966D01*
X381700Y438905D01*
X381280Y438737D01*
X380871Y438533D01*
X380667Y438413D01*
X380475Y438281D01*
X380307Y438149D01*
X380150Y437992D01*
X380139Y437980D01*
X380115Y437956D01*
X380079Y437908D01*
X380030Y437836D01*
X379970Y437764D01*
X379910Y437656D01*
X379838Y437548D01*
X379778Y437416D01*
X379706Y437272D01*
X379634Y437115D01*
X379574Y436947D01*
X379514Y436767D01*
X379466Y436575D01*
X379430Y436371D01*
X379406Y436166D01*
X379394Y435938D01*
Y435878D01*
X379406Y435794D01*
Y435698D01*
X379430Y435566D01*
X379442Y435421D01*
X379478Y435265D01*
X379514Y435085D01*
X379574Y434905D01*
X379634Y434701D01*
X379718Y434496D01*
X379814Y434292D01*
X379934Y434088D01*
X380066Y433884D01*
X380211Y433691D01*
X380391Y433499D01*
X380403Y433487D01*
X380439Y433451D01*
X380487Y433403D01*
X380571Y433343D01*
X380667Y433271D01*
X380787Y433187D01*
X380919Y433091D01*
X381076Y432994D01*
X381244Y432910D01*
X381436Y432814D01*
X381628Y432730D01*
X381857Y432658D01*
X382085Y432598D01*
X382325Y432550D01*
X382589Y432514D01*
X382854Y432502D01*
X382866D01*
X382914D01*
X382986D01*
X383094Y432514D01*
X383202Y432526D01*
X383346Y432550D01*
X383503Y432574D01*
X383671Y432622D01*
X383851Y432670D01*
X384043Y432730D01*
X384235Y432802D01*
X384428Y432886D01*
X384620Y432994D01*
X384812Y433127D01*
X384992Y433259D01*
X385173Y433427D01*
X385185Y433439D01*
X385209Y433463D01*
X385257Y433523D01*
X385317Y433595D01*
X385389Y433679D01*
X385461Y433787D01*
X385545Y433920D01*
X385629Y434064D01*
X385713Y434220D01*
X385797Y434400D01*
X385869Y434592D01*
X385941Y434797D01*
X386002Y435013D01*
X386049Y435253D01*
X386073Y435494D01*
X386086Y435758D01*
Y435866D01*
X386073Y435986D01*
X386062Y436154D01*
X386037Y436371D01*
X385989Y436611D01*
X385941Y436887D01*
X385869Y437200D01*
X387659Y436971D01*
Y436935D01*
X387647Y436899D01*
Y436851D01*
X387635Y436743D01*
Y436515D01*
X387647Y436431D01*
X387659Y436311D01*
X387671Y436178D01*
X387696Y436034D01*
X387719Y435866D01*
X387756Y435686D01*
X387804Y435505D01*
X387924Y435109D01*
X387996Y434905D01*
X388092Y434701D01*
X388188Y434496D01*
X388308Y434304D01*
X388320Y434292D01*
X388344Y434256D01*
X388380Y434208D01*
X388440Y434136D01*
X388512Y434064D01*
X388596Y433968D01*
X388705Y433884D01*
X388825Y433775D01*
X388969Y433679D01*
X389125Y433583D01*
X389293Y433499D01*
X389486Y433427D01*
X389690Y433355D01*
X389918Y433307D01*
X390158Y433271D01*
X390411Y433259D01*
X390423D01*
X390459D01*
X390519D01*
X390603Y433271D01*
X390687Y433283D01*
X390807Y433295D01*
X390927Y433319D01*
X391059Y433355D01*
X391348Y433451D01*
X391504Y433511D01*
X391660Y433583D01*
X391816Y433667D01*
X391973Y433775D01*
X392117Y433896D01*
X392261Y434028D01*
X392273Y434040D01*
X392297Y434064D01*
X392333Y434100D01*
X392381Y434160D01*
X392429Y434244D01*
X392501Y434328D01*
X392561Y434436D01*
X392633Y434556D01*
X392705Y434688D01*
X392766Y434833D01*
X392837Y435001D01*
X392886Y435169D01*
X392934Y435361D01*
X392970Y435554D01*
X392994Y435770D01*
X393006Y435986D01*
Y436106D01*
X392994Y436178D01*
X392982Y436286D01*
X392970Y436407D01*
X392946Y436539D01*
X392910Y436683D01*
X392826Y436995D01*
X392766Y437151D01*
X392681Y437320D01*
X392597Y437488D01*
X392501Y437656D01*
X392381Y437812D01*
X392249Y437968D01*
X392237Y437980D01*
X392213Y438004D01*
X392165Y438041D01*
X392105Y438101D01*
X392033Y438161D01*
X391936Y438233D01*
X391816Y438305D01*
X391696Y438389D01*
X391540Y438473D01*
X391372Y438557D01*
X391192Y438653D01*
X390987Y438725D01*
X390771Y438809D01*
X390543Y438870D01*
X390290Y438930D01*
X390014Y438978D01*
X390375Y441020D01*
X390387D01*
X390399D01*
X390471Y440996D01*
X390567Y440972D01*
X390711Y440936D01*
X390891Y440888D01*
X391083Y440828D01*
X391300Y440756D01*
X391540Y440672D01*
X391792Y440564D01*
X392057Y440443D01*
X392321Y440299D01*
X392585Y440143D01*
X392850Y439975D01*
X393102Y439783D01*
X393342Y439566D01*
X393558Y439326D01*
X393570Y439314D01*
X393606Y439266D01*
X393666Y439194D01*
X393739Y439086D01*
X393823Y438954D01*
X393919Y438797D01*
X394015Y438617D01*
X394123Y438413D01*
X394231Y438185D01*
X394327Y437932D01*
X394423Y437668D01*
X394507Y437380D01*
X394580Y437067D01*
X394640Y436731D01*
X394676Y436382D01*
X394688Y436022D01*
Y435890D01*
X394676Y435794D01*
Y435674D01*
X394652Y435530D01*
X394640Y435373D01*
X394616Y435205D01*
X394580Y435013D01*
X394544Y434821D01*
X394435Y434400D01*
X394375Y434172D01*
X394291Y433956D01*
X394207Y433739D01*
X394099Y433523D01*
X394087Y433511D01*
X394075Y433475D01*
X394039Y433415D01*
X393991Y433331D01*
X393931Y433235D01*
X393859Y433127D01*
X393775Y433007D01*
X393679Y432874D01*
X393450Y432586D01*
X393174Y432298D01*
X392862Y432021D01*
X392681Y431889D01*
X392501Y431769D01*
X392489Y431757D01*
X392453Y431745D01*
X392405Y431709D01*
X392321Y431673D01*
X392237Y431625D01*
X392117Y431577D01*
X391996Y431517D01*
X391852Y431457D01*
X391696Y431409D01*
X391540Y431349D01*
X391180Y431253D01*
X390783Y431180D01*
X390579Y431168D01*
X390363Y431156D01*
X390351D01*
X390315D01*
X390255D01*
X390182Y431168D01*
X390086D01*
X389978Y431192D01*
X389846Y431204D01*
X389714Y431228D01*
X389402Y431301D01*
X389077Y431409D01*
X388909Y431469D01*
X388729Y431553D01*
X388560Y431637D01*
X388392Y431745D01*
X388380Y431757D01*
X388356Y431769D01*
X388308Y431805D01*
X388248Y431853D01*
X388176Y431913D01*
X388092Y431985D01*
X387996Y432069D01*
X387888Y432178D01*
X387780Y432286D01*
X387671Y432418D01*
X387551Y432550D01*
X387431Y432706D01*
X387323Y432874D01*
X387203Y433055D01*
X387095Y433247D01*
X386999Y433451D01*
Y433439D01*
X386987Y433391D01*
X386963Y433307D01*
X386927Y433211D01*
X386890Y433079D01*
X386830Y432934D01*
X386770Y432778D01*
X386686Y432610D01*
X386602Y432430D01*
X386494Y432238D01*
X386386Y432045D01*
X386254Y431853D01*
X386110Y431673D01*
X385953Y431493D01*
X385773Y431312D01*
X385581Y431156D01*
X385569Y431144D01*
X385533Y431120D01*
X385473Y431084D01*
X385389Y431024D01*
X385281Y430964D01*
X385160Y430892D01*
X385016Y430820D01*
X384848Y430748D01*
X384656Y430676D01*
X384452Y430592D01*
X384235Y430532D01*
X383995Y430472D01*
X383743Y430411D01*
X383479Y430375D01*
X383202Y430351D01*
X382902Y430339D01*
X382878D01*
X382806D01*
X382686Y430351D01*
X382541Y430363D01*
X382349Y430387D01*
X382133Y430424D01*
X381893Y430472D01*
X381628Y430544D01*
X381340Y430628D01*
X381052Y430724D01*
X380739Y430856D01*
X380427Y431012D01*
X380115Y431192D01*
X379802Y431409D01*
X379502Y431661D01*
X379213Y431937D01*
X379201Y431961D01*
X379153Y432009D01*
X379069Y432094D01*
X378973Y432226D01*
X378865Y432382D01*
X378733Y432562D01*
X378601Y432790D01*
X378456Y433031D01*
X378312Y433307D01*
X378180Y433619D01*
X378048Y433944D01*
X377940Y434304D01*
X377844Y434677D01*
X377760Y435085D01*
X377712Y435505D01*
X377700Y435950D01*
Y436046D01*
X377712Y436166D01*
X377724Y436311D01*
X377736Y436503D01*
X377772Y436719D01*
X377808Y436959D01*
X377868Y437224D01*
X377928Y437500D01*
X378012Y437800D01*
X378120Y438101D01*
X378252Y438413D01*
X378396Y438713D01*
X378565Y439014D01*
X378769Y439314D01*
X378997Y439590D01*
X379009Y439602D01*
X379057Y439650D01*
X379129Y439723D01*
X379238Y439819D01*
X379370Y439927D01*
X379526Y440059D01*
X379706Y440191D01*
X379910Y440335D01*
X380139Y440479D01*
X380403Y440624D01*
X380679Y440756D01*
X380979Y440888D01*
X381304Y440996D01*
X381640Y441104D01*
X382001Y441176D01*
X382385Y441224D01*
X382662Y439182D01*
D02*
G37*
G36*
X386098Y428393D02*
X386230D01*
X386386Y428381D01*
X386566D01*
X386746Y428369D01*
X386963Y428345D01*
X387179Y428333D01*
X387419Y428309D01*
X387912Y428261D01*
X388452Y428177D01*
X389017Y428093D01*
X389606Y427973D01*
X390182Y427828D01*
X390759Y427660D01*
X391324Y427456D01*
X391852Y427216D01*
X392105Y427084D01*
X392333Y426939D01*
X392561Y426783D01*
X392777Y426627D01*
X392802Y426603D01*
X392862Y426555D01*
X392958Y426471D01*
X393078Y426339D01*
X393222Y426183D01*
X393378Y426002D01*
X393558Y425774D01*
X393739Y425522D01*
X393907Y425233D01*
X394087Y424921D01*
X394243Y424585D01*
X394387Y424212D01*
X394507Y423804D01*
X394604Y423383D01*
X394664Y422927D01*
X394688Y422446D01*
Y422362D01*
X394676Y422254D01*
Y422122D01*
X394652Y421954D01*
X394628Y421761D01*
X394592Y421545D01*
X394556Y421305D01*
X394496Y421064D01*
X394423Y420800D01*
X394327Y420536D01*
X394219Y420271D01*
X394099Y419995D01*
X393943Y419731D01*
X393775Y419479D01*
X393582Y419238D01*
X393570Y419226D01*
X393534Y419178D01*
X393462Y419118D01*
X393378Y419034D01*
X393270Y418938D01*
X393126Y418830D01*
X392970Y418710D01*
X392789Y418577D01*
X392585Y418445D01*
X392357Y418313D01*
X392105Y418181D01*
X391828Y418073D01*
X391540Y417953D01*
X391228Y417857D01*
X390891Y417785D01*
X390543Y417724D01*
X390387Y419755D01*
X390399D01*
X390435Y419767D01*
X390507Y419779D01*
X390579Y419803D01*
X390687Y419839D01*
X390795Y419863D01*
X391059Y419959D01*
X391336Y420067D01*
X391624Y420199D01*
X391900Y420356D01*
X392021Y420440D01*
X392129Y420536D01*
X392141Y420548D01*
X392165Y420572D01*
X392213Y420620D01*
X392261Y420680D01*
X392333Y420764D01*
X392405Y420860D01*
X392489Y420968D01*
X392573Y421101D01*
X392645Y421245D01*
X392729Y421401D01*
X392802Y421557D01*
X392874Y421737D01*
X392922Y421930D01*
X392970Y422134D01*
X392994Y422350D01*
X393006Y422566D01*
Y422662D01*
X392994Y422734D01*
Y422818D01*
X392982Y422915D01*
X392958Y423023D01*
X392934Y423155D01*
X392874Y423419D01*
X392777Y423708D01*
X392633Y423996D01*
X392549Y424140D01*
X392453Y424284D01*
X392441Y424296D01*
X392417Y424320D01*
X392381Y424380D01*
X392321Y424440D01*
X392249Y424524D01*
X392165Y424621D01*
X392057Y424717D01*
X391936Y424837D01*
X391804Y424957D01*
X391648Y425077D01*
X391480Y425209D01*
X391300Y425330D01*
X391096Y425462D01*
X390879Y425582D01*
X390651Y425702D01*
X390411Y425810D01*
X390399D01*
X390351Y425834D01*
X390266Y425858D01*
X390158Y425894D01*
X390026Y425942D01*
X389858Y425990D01*
X389654Y426038D01*
X389426Y426086D01*
X389173Y426134D01*
X388885Y426194D01*
X388560Y426243D01*
X388224Y426279D01*
X387852Y426315D01*
X387455Y426351D01*
X387023Y426363D01*
X386566Y426375D01*
X386578Y426363D01*
X386614Y426339D01*
X386674Y426303D01*
X386746Y426243D01*
X386842Y426171D01*
X386951Y426086D01*
X387071Y425990D01*
X387203Y425870D01*
X387335Y425750D01*
X387467Y425618D01*
X387743Y425305D01*
X388008Y424969D01*
X388128Y424777D01*
X388236Y424585D01*
X388248Y424573D01*
X388260Y424537D01*
X388284Y424477D01*
X388320Y424404D01*
X388368Y424296D01*
X388416Y424188D01*
X388464Y424056D01*
X388512Y423900D01*
X388560Y423744D01*
X388609Y423563D01*
X388705Y423191D01*
X388765Y422771D01*
X388789Y422554D01*
Y422242D01*
X388777Y422134D01*
X388765Y422001D01*
X388741Y421821D01*
X388705Y421617D01*
X388657Y421389D01*
X388596Y421137D01*
X388524Y420872D01*
X388416Y420596D01*
X388296Y420308D01*
X388152Y420007D01*
X387972Y419719D01*
X387780Y419431D01*
X387539Y419142D01*
X387275Y418866D01*
X387263Y418854D01*
X387203Y418806D01*
X387119Y418734D01*
X386999Y418638D01*
X386855Y418529D01*
X386674Y418409D01*
X386470Y418277D01*
X386230Y418145D01*
X385965Y418013D01*
X385665Y417881D01*
X385353Y417761D01*
X385004Y417652D01*
X384632Y417556D01*
X384247Y417484D01*
X383827Y417436D01*
X383394Y417424D01*
X383382D01*
X383322D01*
X383238D01*
X383130Y417436D01*
X382986Y417448D01*
X382830Y417460D01*
X382649Y417484D01*
X382445Y417508D01*
X382229Y417544D01*
X382001Y417592D01*
X381760Y417640D01*
X381508Y417713D01*
X381256Y417797D01*
X381004Y417881D01*
X380739Y417989D01*
X380487Y418109D01*
X380475Y418121D01*
X380427Y418145D01*
X380355Y418181D01*
X380271Y418229D01*
X380150Y418301D01*
X380018Y418385D01*
X379886Y418481D01*
X379730Y418590D01*
X379562Y418722D01*
X379394Y418854D01*
X379226Y419010D01*
X379057Y419178D01*
X378889Y419346D01*
X378721Y419539D01*
X378577Y419743D01*
X378433Y419959D01*
X378420Y419971D01*
X378396Y420007D01*
X378372Y420079D01*
X378324Y420163D01*
X378264Y420284D01*
X378204Y420416D01*
X378144Y420560D01*
X378084Y420740D01*
X378012Y420920D01*
X377952Y421124D01*
X377892Y421353D01*
X377832Y421581D01*
X377784Y421833D01*
X377760Y422086D01*
X377736Y422362D01*
X377724Y422638D01*
Y422746D01*
X377736Y422807D01*
Y422879D01*
X377748Y423059D01*
X377784Y423275D01*
X377820Y423527D01*
X377880Y423804D01*
X377964Y424116D01*
X378060Y424440D01*
X378180Y424777D01*
X378336Y425113D01*
X378517Y425462D01*
X378733Y425810D01*
X378985Y426158D01*
X379273Y426483D01*
X379598Y426795D01*
X379622Y426807D01*
X379682Y426867D01*
X379802Y426939D01*
X379958Y427048D01*
X380163Y427168D01*
X380283Y427240D01*
X380415Y427300D01*
X380559Y427372D01*
X380715Y427444D01*
X380895Y427528D01*
X381076Y427600D01*
X381268Y427672D01*
X381472Y427744D01*
X381700Y427828D01*
X381929Y427901D01*
X382181Y427961D01*
X382433Y428033D01*
X382710Y428093D01*
X382998Y428153D01*
X383298Y428213D01*
X383611Y428261D01*
X383935Y428297D01*
X384271Y428333D01*
X384632Y428369D01*
X384992Y428381D01*
X385377Y428405D01*
X385773D01*
X385785D01*
X385833D01*
X385893D01*
X385989D01*
X386098Y428393D01*
D02*
G37*
G36*
Y415478D02*
X386230D01*
X386386Y415466D01*
X386566D01*
X386746Y415454D01*
X386963Y415430D01*
X387179Y415418D01*
X387419Y415394D01*
X387912Y415346D01*
X388452Y415262D01*
X389017Y415177D01*
X389606Y415057D01*
X390182Y414913D01*
X390759Y414745D01*
X391324Y414541D01*
X391852Y414300D01*
X392105Y414168D01*
X392333Y414024D01*
X392561Y413868D01*
X392777Y413712D01*
X392802Y413688D01*
X392862Y413640D01*
X392958Y413556D01*
X393078Y413423D01*
X393222Y413267D01*
X393378Y413087D01*
X393558Y412859D01*
X393739Y412606D01*
X393907Y412318D01*
X394087Y412006D01*
X394243Y411669D01*
X394387Y411297D01*
X394507Y410888D01*
X394604Y410468D01*
X394664Y410011D01*
X394688Y409531D01*
Y409447D01*
X394676Y409339D01*
Y409206D01*
X394652Y409038D01*
X394628Y408846D01*
X394592Y408630D01*
X394556Y408390D01*
X394496Y408149D01*
X394423Y407885D01*
X394327Y407621D01*
X394219Y407356D01*
X394099Y407080D01*
X393943Y406816D01*
X393775Y406563D01*
X393582Y406323D01*
X393570Y406311D01*
X393534Y406263D01*
X393462Y406203D01*
X393378Y406119D01*
X393270Y406023D01*
X393126Y405914D01*
X392970Y405794D01*
X392789Y405662D01*
X392585Y405530D01*
X392357Y405398D01*
X392105Y405266D01*
X391828Y405158D01*
X391540Y405037D01*
X391228Y404941D01*
X390891Y404869D01*
X390543Y404809D01*
X390387Y406840D01*
X390399D01*
X390435Y406852D01*
X390507Y406864D01*
X390579Y406888D01*
X390687Y406924D01*
X390795Y406948D01*
X391059Y407044D01*
X391336Y407152D01*
X391624Y407284D01*
X391900Y407440D01*
X392021Y407524D01*
X392129Y407621D01*
X392141Y407633D01*
X392165Y407657D01*
X392213Y407705D01*
X392261Y407765D01*
X392333Y407849D01*
X392405Y407945D01*
X392489Y408053D01*
X392573Y408185D01*
X392645Y408329D01*
X392729Y408486D01*
X392802Y408642D01*
X392874Y408822D01*
X392922Y409014D01*
X392970Y409218D01*
X392994Y409435D01*
X393006Y409651D01*
Y409747D01*
X392994Y409819D01*
Y409903D01*
X392982Y409999D01*
X392958Y410107D01*
X392934Y410240D01*
X392874Y410504D01*
X392777Y410792D01*
X392633Y411081D01*
X392549Y411225D01*
X392453Y411369D01*
X392441Y411381D01*
X392417Y411405D01*
X392381Y411465D01*
X392321Y411525D01*
X392249Y411609D01*
X392165Y411705D01*
X392057Y411801D01*
X391936Y411922D01*
X391804Y412042D01*
X391648Y412162D01*
X391480Y412294D01*
X391300Y412414D01*
X391096Y412546D01*
X390879Y412667D01*
X390651Y412787D01*
X390411Y412895D01*
X390399D01*
X390351Y412919D01*
X390266Y412943D01*
X390158Y412979D01*
X390026Y413027D01*
X389858Y413075D01*
X389654Y413123D01*
X389426Y413171D01*
X389173Y413219D01*
X388885Y413279D01*
X388560Y413327D01*
X388224Y413363D01*
X387852Y413399D01*
X387455Y413435D01*
X387023Y413447D01*
X386566Y413459D01*
X386578Y413447D01*
X386614Y413423D01*
X386674Y413387D01*
X386746Y413327D01*
X386842Y413255D01*
X386951Y413171D01*
X387071Y413075D01*
X387203Y412955D01*
X387335Y412835D01*
X387467Y412703D01*
X387743Y412390D01*
X388008Y412054D01*
X388128Y411862D01*
X388236Y411669D01*
X388248Y411657D01*
X388260Y411621D01*
X388284Y411561D01*
X388320Y411489D01*
X388368Y411381D01*
X388416Y411273D01*
X388464Y411141D01*
X388512Y410984D01*
X388560Y410828D01*
X388609Y410648D01*
X388705Y410276D01*
X388765Y409855D01*
X388789Y409639D01*
Y409327D01*
X388777Y409218D01*
X388765Y409086D01*
X388741Y408906D01*
X388705Y408702D01*
X388657Y408474D01*
X388596Y408221D01*
X388524Y407957D01*
X388416Y407681D01*
X388296Y407392D01*
X388152Y407092D01*
X387972Y406804D01*
X387780Y406515D01*
X387539Y406227D01*
X387275Y405951D01*
X387263Y405939D01*
X387203Y405891D01*
X387119Y405818D01*
X386999Y405722D01*
X386855Y405614D01*
X386674Y405494D01*
X386470Y405362D01*
X386230Y405230D01*
X385965Y405098D01*
X385665Y404965D01*
X385353Y404845D01*
X385004Y404737D01*
X384632Y404641D01*
X384247Y404569D01*
X383827Y404521D01*
X383394Y404509D01*
X383382D01*
X383322D01*
X383238D01*
X383130Y404521D01*
X382986Y404533D01*
X382830Y404545D01*
X382649Y404569D01*
X382445Y404593D01*
X382229Y404629D01*
X382001Y404677D01*
X381760Y404725D01*
X381508Y404797D01*
X381256Y404881D01*
X381004Y404965D01*
X380739Y405074D01*
X380487Y405194D01*
X380475Y405206D01*
X380427Y405230D01*
X380355Y405266D01*
X380271Y405314D01*
X380150Y405386D01*
X380018Y405470D01*
X379886Y405566D01*
X379730Y405674D01*
X379562Y405806D01*
X379394Y405939D01*
X379226Y406095D01*
X379057Y406263D01*
X378889Y406431D01*
X378721Y406623D01*
X378577Y406828D01*
X378433Y407044D01*
X378420Y407056D01*
X378396Y407092D01*
X378372Y407164D01*
X378324Y407248D01*
X378264Y407368D01*
X378204Y407500D01*
X378144Y407645D01*
X378084Y407825D01*
X378012Y408005D01*
X377952Y408209D01*
X377892Y408438D01*
X377832Y408666D01*
X377784Y408918D01*
X377760Y409170D01*
X377736Y409447D01*
X377724Y409723D01*
Y409831D01*
X377736Y409891D01*
Y409963D01*
X377748Y410144D01*
X377784Y410360D01*
X377820Y410612D01*
X377880Y410888D01*
X377964Y411201D01*
X378060Y411525D01*
X378180Y411862D01*
X378336Y412198D01*
X378517Y412546D01*
X378733Y412895D01*
X378985Y413243D01*
X379273Y413568D01*
X379598Y413880D01*
X379622Y413892D01*
X379682Y413952D01*
X379802Y414024D01*
X379958Y414132D01*
X380163Y414252D01*
X380283Y414324D01*
X380415Y414384D01*
X380559Y414457D01*
X380715Y414529D01*
X380895Y414613D01*
X381076Y414685D01*
X381268Y414757D01*
X381472Y414829D01*
X381700Y414913D01*
X381929Y414985D01*
X382181Y415045D01*
X382433Y415117D01*
X382710Y415177D01*
X382998Y415238D01*
X383298Y415298D01*
X383611Y415346D01*
X383935Y415382D01*
X384271Y415418D01*
X384632Y415454D01*
X384992Y415466D01*
X385377Y415490D01*
X385773D01*
X385785D01*
X385833D01*
X385893D01*
X385989D01*
X386098Y415478D01*
D02*
G37*
G36*
X390519Y400905D02*
X390543Y400857D01*
X390591Y400760D01*
X390651Y400640D01*
X390723Y400496D01*
X390819Y400316D01*
X390927Y400124D01*
X391047Y399919D01*
X391192Y399691D01*
X391336Y399451D01*
X391672Y398946D01*
X392045Y398430D01*
X392453Y397937D01*
X392465Y397925D01*
X392501Y397877D01*
X392561Y397817D01*
X392645Y397733D01*
X392753Y397625D01*
X392874Y397505D01*
X393018Y397372D01*
X393162Y397228D01*
X393330Y397084D01*
X393510Y396928D01*
X393883Y396628D01*
X394279Y396351D01*
X394483Y396231D01*
X394688Y396123D01*
Y394801D01*
X378000D01*
Y396844D01*
X390999D01*
X390987Y396856D01*
X390963Y396880D01*
X390927Y396916D01*
X390879Y396976D01*
X390819Y397048D01*
X390735Y397144D01*
X390651Y397252D01*
X390555Y397360D01*
X390459Y397505D01*
X390339Y397649D01*
X390230Y397805D01*
X390098Y397973D01*
X389978Y398165D01*
X389846Y398358D01*
X389582Y398790D01*
X389570Y398802D01*
X389546Y398838D01*
X389510Y398910D01*
X389474Y398994D01*
X389413Y399090D01*
X389341Y399211D01*
X389269Y399355D01*
X389185Y399499D01*
X389017Y399835D01*
X388849Y400196D01*
X388681Y400568D01*
X388536Y400929D01*
X390507D01*
X390519Y400905D01*
D02*
G37*
%LPC*%
G36*
X134040Y547790D02*
X129000D01*
Y536750D01*
Y525710D01*
X134040D01*
Y547790D01*
D02*
G37*
G36*
X126000D02*
X120960D01*
Y525710D01*
X126000D01*
Y536750D01*
Y547790D01*
D02*
G37*
G36*
X103040D02*
X98000D01*
Y536750D01*
Y525710D01*
X103040D01*
Y547790D01*
D02*
G37*
G36*
X95000D02*
X89960D01*
Y525710D01*
X95000D01*
Y536750D01*
Y547790D01*
D02*
G37*
G36*
X117100Y525489D02*
X106900D01*
Y515289D01*
X117100D01*
Y525489D01*
D02*
G37*
G36*
X274500Y502926D02*
X130500D01*
X129380Y502704D01*
X128431Y502069D01*
X127796Y501120D01*
X127574Y500000D01*
Y220000D01*
X127796Y218880D01*
X128431Y217931D01*
X129380Y217297D01*
X130500Y217074D01*
X274500D01*
X275620Y217297D01*
X276569Y217931D01*
X277204Y218880D01*
X277426Y220000D01*
Y500000D01*
X277204Y501120D01*
X276569Y502069D01*
X275620Y502704D01*
X274500Y502926D01*
D02*
G37*
G36*
X334482Y183866D02*
X329402D01*
X324322D01*
Y180394D01*
X324280Y179142D01*
X324280Y179034D01*
Y175562D01*
X329360D01*
X334440D01*
Y179034D01*
X334482Y180286D01*
X334482Y180394D01*
Y183866D01*
D02*
G37*
G36*
X94090Y155950D02*
X80730D01*
Y140050D01*
X83028D01*
X83833Y139068D01*
X83820Y139000D01*
X84138Y137400D01*
X85044Y136044D01*
X86400Y135138D01*
X88000Y134820D01*
X89600Y135138D01*
X90956Y136044D01*
X91862Y137400D01*
X92180Y139000D01*
X92167Y139068D01*
X92972Y140050D01*
X94090D01*
Y155950D01*
D02*
G37*
G36*
X67179Y84824D02*
X59995Y77639D01*
X62527Y75108D01*
X66119Y78700D01*
X69711Y82292D01*
X67179Y84824D01*
D02*
G37*
%LPD*%
G36*
X89705Y141680D02*
X91000D01*
X89873Y141004D01*
X89999Y140501D01*
X86001D01*
X86127Y141004D01*
X85000Y141680D01*
X86295D01*
X86500Y142500D01*
X89500D01*
X89705Y141680D01*
D02*
G37*
%LPC*%
G36*
X60768Y45465D02*
Y41644D01*
Y37823D01*
X60844Y37839D01*
X62181Y38732D01*
X63074Y40068D01*
X63387Y41644D01*
X63074Y43221D01*
X62181Y44557D01*
X60844Y45450D01*
X60768Y45465D01*
D02*
G37*
G36*
X268220Y135240D02*
X259560D01*
Y120000D01*
Y104760D01*
X268220D01*
Y135240D01*
D02*
G37*
G36*
X256560D02*
X247900D01*
Y104760D01*
X256560D01*
Y120000D01*
Y135240D01*
D02*
G37*
G36*
X281208Y126078D02*
X272928D01*
Y119433D01*
X272927Y119429D01*
X272928Y119424D01*
Y117798D01*
X273314D01*
Y112542D01*
X272762D01*
Y110916D01*
X272761Y110912D01*
X272762Y110908D01*
Y104262D01*
X281042D01*
Y110908D01*
X281043Y110912D01*
X281042Y110916D01*
Y112542D01*
X280656D01*
Y117798D01*
X281208D01*
Y119424D01*
X281209Y119429D01*
X281208Y119433D01*
Y126078D01*
D02*
G37*
%LPD*%
G36*
X278985Y118229D02*
X274985D01*
X274559Y119429D01*
X279578D01*
X278985Y118229D01*
D02*
G37*
G36*
X279411Y110912D02*
X274392D01*
X274985Y112112D01*
X278985D01*
X279411Y110912D01*
D02*
G37*
%LPC*%
G36*
X386314Y526729D02*
X386302D01*
X386278D01*
X386230D01*
X386170D01*
X386098Y526717D01*
X386002D01*
X385893D01*
X385785Y526705D01*
X385653Y526693D01*
X385509Y526681D01*
X385196Y526645D01*
X384848Y526597D01*
X384476Y526525D01*
X384079Y526441D01*
X383671Y526333D01*
X383262Y526213D01*
X382842Y526057D01*
X382445Y525876D01*
X382049Y525660D01*
X381676Y525408D01*
X381340Y525131D01*
X381316Y525107D01*
X381268Y525059D01*
X381184Y524963D01*
X381076Y524843D01*
X380943Y524687D01*
X380787Y524495D01*
X380631Y524266D01*
X380475Y524014D01*
X380319Y523738D01*
X380163Y523425D01*
X380006Y523089D01*
X379886Y522729D01*
X379766Y522332D01*
X379682Y521924D01*
X379634Y521491D01*
X379610Y521035D01*
Y520914D01*
X379622Y520830D01*
Y520722D01*
X379634Y520602D01*
X379646Y520458D01*
X379670Y520314D01*
X379682Y520145D01*
X379718Y519965D01*
X379790Y519593D01*
X379898Y519208D01*
X380042Y518812D01*
X380054Y518824D01*
X380066Y518860D01*
X380103Y518908D01*
X380150Y518992D01*
X380211Y519088D01*
X380271Y519196D01*
X380343Y519329D01*
X380415Y519461D01*
X380487Y519617D01*
X380571Y519797D01*
X380727Y520158D01*
X380871Y520566D01*
X380992Y520987D01*
X382601Y520446D01*
Y520422D01*
X382577Y520362D01*
X382541Y520266D01*
X382505Y520134D01*
X382445Y519965D01*
X382373Y519785D01*
X382289Y519569D01*
X382205Y519341D01*
X382097Y519100D01*
X381977Y518848D01*
X381844Y518584D01*
X381700Y518319D01*
X381544Y518055D01*
X381376Y517803D01*
X381196Y517551D01*
X381004Y517310D01*
X381028Y517286D01*
X381088Y517226D01*
X381196Y517130D01*
X381340Y517010D01*
X381520Y516854D01*
X381748Y516698D01*
X382025Y516517D01*
X382325Y516337D01*
X382686Y516157D01*
X383082Y515977D01*
X383515Y515820D01*
X383995Y515664D01*
X384512Y515544D01*
X385064Y515448D01*
X385665Y515388D01*
X386314Y515364D01*
X386338D01*
X386398D01*
X386506D01*
X386650Y515376D01*
X386830Y515388D01*
X387035Y515400D01*
X387263Y515424D01*
X387515Y515448D01*
X387780Y515484D01*
X388056Y515532D01*
X388356Y515592D01*
X388657Y515652D01*
X388957Y515736D01*
X389257Y515832D01*
X389546Y515941D01*
X389834Y516061D01*
X389846Y516073D01*
X389906Y516097D01*
X389978Y516133D01*
X390086Y516193D01*
X390206Y516265D01*
X390363Y516349D01*
X390519Y516445D01*
X390699Y516565D01*
X390879Y516698D01*
X391072Y516854D01*
X391264Y517010D01*
X391456Y517190D01*
X391648Y517394D01*
X391840Y517598D01*
X392009Y517827D01*
X392177Y518067D01*
X392189Y518079D01*
X392213Y518127D01*
X392249Y518199D01*
X392309Y518295D01*
X392369Y518428D01*
X392441Y518572D01*
X392525Y518740D01*
X392597Y518932D01*
X392681Y519148D01*
X392753Y519377D01*
X392826Y519617D01*
X392886Y519881D01*
X392946Y520145D01*
X392982Y520434D01*
X393006Y520734D01*
X393018Y521035D01*
Y521143D01*
X393006Y521275D01*
X392994Y521443D01*
X392970Y521647D01*
X392934Y521900D01*
X392874Y522164D01*
X392813Y522464D01*
X392717Y522777D01*
X392609Y523101D01*
X392477Y523449D01*
X392309Y523786D01*
X392117Y524134D01*
X391888Y524471D01*
X391636Y524795D01*
X391336Y525107D01*
X391312Y525119D01*
X391252Y525179D01*
X391156Y525252D01*
X391023Y525360D01*
X390843Y525480D01*
X390627Y525624D01*
X390375Y525768D01*
X390074Y525912D01*
X389738Y526068D01*
X389365Y526213D01*
X388957Y526357D01*
X388512Y526477D01*
X388020Y526585D01*
X387491Y526657D01*
X386927Y526705D01*
X386314Y526729D01*
D02*
G37*
G36*
Y508660D02*
X386302D01*
X386278D01*
X386230D01*
X386170D01*
X386098Y508648D01*
X386002D01*
X385893D01*
X385785Y508636D01*
X385653Y508624D01*
X385509Y508612D01*
X385196Y508576D01*
X384848Y508528D01*
X384476Y508456D01*
X384079Y508372D01*
X383671Y508264D01*
X383262Y508143D01*
X382842Y507987D01*
X382445Y507807D01*
X382049Y507591D01*
X381676Y507338D01*
X381340Y507062D01*
X381316Y507038D01*
X381268Y506990D01*
X381184Y506894D01*
X381076Y506774D01*
X380943Y506618D01*
X380787Y506425D01*
X380631Y506197D01*
X380475Y505945D01*
X380319Y505668D01*
X380163Y505356D01*
X380006Y505020D01*
X379886Y504659D01*
X379766Y504263D01*
X379682Y503854D01*
X379634Y503422D01*
X379610Y502965D01*
Y502845D01*
X379622Y502761D01*
Y502653D01*
X379634Y502533D01*
X379646Y502389D01*
X379670Y502244D01*
X379682Y502076D01*
X379718Y501896D01*
X379790Y501524D01*
X379898Y501139D01*
X380042Y500743D01*
X380054Y500755D01*
X380066Y500791D01*
X380103Y500839D01*
X380150Y500923D01*
X380211Y501019D01*
X380271Y501127D01*
X380343Y501259D01*
X380415Y501391D01*
X380487Y501548D01*
X380571Y501728D01*
X380727Y502088D01*
X380871Y502497D01*
X380992Y502917D01*
X382601Y502377D01*
Y502352D01*
X382577Y502292D01*
X382541Y502196D01*
X382505Y502064D01*
X382445Y501896D01*
X382373Y501716D01*
X382289Y501499D01*
X382205Y501271D01*
X382097Y501031D01*
X381977Y500779D01*
X381844Y500514D01*
X381700Y500250D01*
X381544Y499986D01*
X381376Y499733D01*
X381196Y499481D01*
X381004Y499241D01*
X381028Y499217D01*
X381088Y499157D01*
X381196Y499061D01*
X381340Y498941D01*
X381520Y498784D01*
X381748Y498628D01*
X382025Y498448D01*
X382325Y498268D01*
X382686Y498088D01*
X383082Y497907D01*
X383515Y497751D01*
X383995Y497595D01*
X384512Y497475D01*
X385064Y497379D01*
X385665Y497319D01*
X386314Y497295D01*
X386338D01*
X386398D01*
X386506D01*
X386650Y497307D01*
X386830Y497319D01*
X387035Y497331D01*
X387263Y497355D01*
X387515Y497379D01*
X387780Y497415D01*
X388056Y497463D01*
X388356Y497523D01*
X388657Y497583D01*
X388957Y497667D01*
X389257Y497763D01*
X389546Y497871D01*
X389834Y497991D01*
X389846Y498003D01*
X389906Y498027D01*
X389978Y498063D01*
X390086Y498124D01*
X390206Y498196D01*
X390363Y498280D01*
X390519Y498376D01*
X390699Y498496D01*
X390879Y498628D01*
X391072Y498784D01*
X391264Y498941D01*
X391456Y499121D01*
X391648Y499325D01*
X391840Y499529D01*
X392009Y499757D01*
X392177Y499998D01*
X392189Y500010D01*
X392213Y500058D01*
X392249Y500130D01*
X392309Y500226D01*
X392369Y500358D01*
X392441Y500502D01*
X392525Y500671D01*
X392597Y500863D01*
X392681Y501079D01*
X392753Y501307D01*
X392826Y501548D01*
X392886Y501812D01*
X392946Y502076D01*
X392982Y502365D01*
X393006Y502665D01*
X393018Y502965D01*
Y503073D01*
X393006Y503205D01*
X392994Y503374D01*
X392970Y503578D01*
X392934Y503830D01*
X392874Y504095D01*
X392813Y504395D01*
X392717Y504707D01*
X392609Y505032D01*
X392477Y505380D01*
X392309Y505717D01*
X392117Y506065D01*
X391888Y506401D01*
X391636Y506726D01*
X391336Y507038D01*
X391312Y507050D01*
X391252Y507110D01*
X391156Y507182D01*
X391023Y507290D01*
X390843Y507411D01*
X390627Y507555D01*
X390375Y507699D01*
X390074Y507843D01*
X389738Y507999D01*
X389365Y508143D01*
X388957Y508288D01*
X388512Y508408D01*
X388020Y508516D01*
X387491Y508588D01*
X386927Y508636D01*
X386314Y508660D01*
D02*
G37*
G36*
X383851Y478648D02*
Y473434D01*
X391348D01*
X383851Y478648D01*
D02*
G37*
G36*
X390471Y464316D02*
X390459D01*
X390423D01*
X390363D01*
X390279Y464304D01*
X390170Y464291D01*
X390062Y464280D01*
X389930Y464255D01*
X389786Y464219D01*
X389486Y464135D01*
X389329Y464075D01*
X389161Y464003D01*
X389005Y463919D01*
X388849Y463811D01*
X388693Y463703D01*
X388549Y463571D01*
X388536Y463559D01*
X388512Y463535D01*
X388476Y463487D01*
X388428Y463438D01*
X388380Y463354D01*
X388308Y463270D01*
X388248Y463162D01*
X388176Y463042D01*
X388104Y462910D01*
X388044Y462754D01*
X387972Y462598D01*
X387924Y462417D01*
X387876Y462237D01*
X387840Y462033D01*
X387816Y461817D01*
X387804Y461600D01*
Y461492D01*
X387816Y461408D01*
X387828Y461300D01*
X387840Y461192D01*
X387864Y461060D01*
X387900Y460915D01*
X387984Y460615D01*
X388044Y460459D01*
X388116Y460291D01*
X388200Y460135D01*
X388296Y459978D01*
X388404Y459822D01*
X388536Y459678D01*
X388549Y459666D01*
X388573Y459642D01*
X388609Y459606D01*
X388669Y459558D01*
X388741Y459498D01*
X388825Y459438D01*
X388933Y459366D01*
X389041Y459294D01*
X389173Y459234D01*
X389305Y459161D01*
X389618Y459041D01*
X389786Y458993D01*
X389966Y458957D01*
X390158Y458933D01*
X390351Y458921D01*
X390363D01*
X390399D01*
X390459D01*
X390543Y458933D01*
X390639Y458945D01*
X390747Y458957D01*
X390867Y458981D01*
X391011Y459017D01*
X391300Y459113D01*
X391456Y459174D01*
X391624Y459246D01*
X391780Y459342D01*
X391936Y459450D01*
X392093Y459570D01*
X392237Y459702D01*
X392249Y459714D01*
X392273Y459738D01*
X392309Y459786D01*
X392357Y459834D01*
X392417Y459918D01*
X392477Y460003D01*
X392549Y460111D01*
X392621Y460231D01*
X392693Y460363D01*
X392766Y460507D01*
X392826Y460663D01*
X392886Y460831D01*
X392934Y461024D01*
X392970Y461216D01*
X392994Y461408D01*
X393006Y461624D01*
Y461732D01*
X392994Y461817D01*
X392982Y461913D01*
X392970Y462033D01*
X392946Y462165D01*
X392910Y462297D01*
X392826Y462609D01*
X392766Y462766D01*
X392681Y462934D01*
X392597Y463090D01*
X392501Y463258D01*
X392381Y463414D01*
X392249Y463559D01*
X392237Y463571D01*
X392213Y463595D01*
X392177Y463631D01*
X392117Y463679D01*
X392045Y463739D01*
X391960Y463799D01*
X391864Y463871D01*
X391744Y463931D01*
X391624Y464003D01*
X391492Y464075D01*
X391180Y464195D01*
X391023Y464244D01*
X390843Y464280D01*
X390663Y464304D01*
X390471Y464316D01*
D02*
G37*
G36*
X382794Y464988D02*
X382782D01*
X382758D01*
X382710D01*
X382649Y464976D01*
X382565D01*
X382481Y464964D01*
X382373Y464952D01*
X382265Y464940D01*
X382001Y464892D01*
X381724Y464820D01*
X381424Y464712D01*
X381112Y464580D01*
X381100D01*
X381076Y464556D01*
X381040Y464532D01*
X380979Y464508D01*
X380907Y464460D01*
X380835Y464412D01*
X380643Y464268D01*
X380451Y464099D01*
X380235Y463895D01*
X380030Y463643D01*
X379850Y463354D01*
Y463342D01*
X379826Y463318D01*
X379814Y463270D01*
X379778Y463210D01*
X379742Y463138D01*
X379706Y463042D01*
X379670Y462946D01*
X379634Y462826D01*
X379550Y462561D01*
X379478Y462273D01*
X379430Y461949D01*
X379406Y461600D01*
Y461540D01*
X379418Y461456D01*
Y461360D01*
X379430Y461228D01*
X379454Y461084D01*
X379490Y460928D01*
X379526Y460747D01*
X379574Y460567D01*
X379634Y460363D01*
X379706Y460171D01*
X379802Y459966D01*
X379910Y459762D01*
X380030Y459558D01*
X380175Y459366D01*
X380343Y459185D01*
X380355Y459174D01*
X380391Y459149D01*
X380439Y459101D01*
X380511Y459041D01*
X380607Y458969D01*
X380715Y458885D01*
X380847Y458801D01*
X380992Y458705D01*
X381160Y458621D01*
X381340Y458537D01*
X381532Y458453D01*
X381748Y458381D01*
X381977Y458321D01*
X382217Y458272D01*
X382469Y458248D01*
X382734Y458236D01*
X382746D01*
X382794D01*
X382878Y458248D01*
X382974D01*
X383106Y458260D01*
X383250Y458284D01*
X383406Y458321D01*
X383587Y458357D01*
X383779Y458417D01*
X383971Y458477D01*
X384175Y458561D01*
X384380Y458657D01*
X384584Y458765D01*
X384776Y458897D01*
X384980Y459053D01*
X385160Y459221D01*
X385173Y459234D01*
X385209Y459270D01*
X385257Y459318D01*
X385317Y459402D01*
X385389Y459498D01*
X385473Y459606D01*
X385557Y459738D01*
X385653Y459894D01*
X385737Y460062D01*
X385821Y460243D01*
X385905Y460447D01*
X385977Y460663D01*
X386049Y460891D01*
X386098Y461144D01*
X386122Y461396D01*
X386134Y461672D01*
Y461817D01*
X386122Y461913D01*
X386110Y462033D01*
X386086Y462177D01*
X386049Y462333D01*
X386013Y462513D01*
X385965Y462694D01*
X385905Y462886D01*
X385821Y463078D01*
X385725Y463282D01*
X385617Y463487D01*
X385485Y463679D01*
X385341Y463871D01*
X385173Y464051D01*
X385160Y464063D01*
X385124Y464087D01*
X385076Y464135D01*
X385004Y464195D01*
X384908Y464268D01*
X384800Y464352D01*
X384668Y464436D01*
X384524Y464520D01*
X384356Y464604D01*
X384175Y464688D01*
X383983Y464772D01*
X383767Y464844D01*
X383539Y464904D01*
X383310Y464952D01*
X383058Y464976D01*
X382794Y464988D01*
D02*
G37*
G36*
X390471Y451400D02*
X390459D01*
X390423D01*
X390363D01*
X390279Y451388D01*
X390170Y451376D01*
X390062Y451364D01*
X389930Y451340D01*
X389786Y451304D01*
X389486Y451220D01*
X389329Y451160D01*
X389161Y451088D01*
X389005Y451004D01*
X388849Y450896D01*
X388693Y450788D01*
X388549Y450655D01*
X388536Y450643D01*
X388512Y450619D01*
X388476Y450571D01*
X388428Y450523D01*
X388380Y450439D01*
X388308Y450355D01*
X388248Y450247D01*
X388176Y450127D01*
X388104Y449995D01*
X388044Y449838D01*
X387972Y449682D01*
X387924Y449502D01*
X387876Y449322D01*
X387840Y449118D01*
X387816Y448901D01*
X387804Y448685D01*
Y448577D01*
X387816Y448493D01*
X387828Y448385D01*
X387840Y448277D01*
X387864Y448144D01*
X387900Y448000D01*
X387984Y447700D01*
X388044Y447544D01*
X388116Y447375D01*
X388200Y447219D01*
X388296Y447063D01*
X388404Y446907D01*
X388536Y446763D01*
X388549Y446751D01*
X388573Y446727D01*
X388609Y446691D01*
X388669Y446643D01*
X388741Y446583D01*
X388825Y446522D01*
X388933Y446450D01*
X389041Y446378D01*
X389173Y446318D01*
X389305Y446246D01*
X389618Y446126D01*
X389786Y446078D01*
X389966Y446042D01*
X390158Y446018D01*
X390351Y446006D01*
X390363D01*
X390399D01*
X390459D01*
X390543Y446018D01*
X390639Y446030D01*
X390747Y446042D01*
X390867Y446066D01*
X391011Y446102D01*
X391300Y446198D01*
X391456Y446258D01*
X391624Y446330D01*
X391780Y446426D01*
X391936Y446535D01*
X392093Y446655D01*
X392237Y446787D01*
X392249Y446799D01*
X392273Y446823D01*
X392309Y446871D01*
X392357Y446919D01*
X392417Y447003D01*
X392477Y447087D01*
X392549Y447195D01*
X392621Y447315D01*
X392693Y447448D01*
X392766Y447592D01*
X392826Y447748D01*
X392886Y447916D01*
X392934Y448108D01*
X392970Y448301D01*
X392994Y448493D01*
X393006Y448709D01*
Y448817D01*
X392994Y448901D01*
X392982Y448997D01*
X392970Y449118D01*
X392946Y449250D01*
X392910Y449382D01*
X392826Y449694D01*
X392766Y449851D01*
X392681Y450019D01*
X392597Y450175D01*
X392501Y450343D01*
X392381Y450499D01*
X392249Y450643D01*
X392237Y450655D01*
X392213Y450679D01*
X392177Y450715D01*
X392117Y450764D01*
X392045Y450824D01*
X391960Y450884D01*
X391864Y450956D01*
X391744Y451016D01*
X391624Y451088D01*
X391492Y451160D01*
X391180Y451280D01*
X391023Y451328D01*
X390843Y451364D01*
X390663Y451388D01*
X390471Y451400D01*
D02*
G37*
G36*
X382794Y452073D02*
X382782D01*
X382758D01*
X382710D01*
X382649Y452061D01*
X382565D01*
X382481Y452049D01*
X382373Y452037D01*
X382265Y452025D01*
X382001Y451977D01*
X381724Y451905D01*
X381424Y451797D01*
X381112Y451665D01*
X381100D01*
X381076Y451641D01*
X381040Y451617D01*
X380979Y451592D01*
X380907Y451544D01*
X380835Y451496D01*
X380643Y451352D01*
X380451Y451184D01*
X380235Y450980D01*
X380030Y450728D01*
X379850Y450439D01*
Y450427D01*
X379826Y450403D01*
X379814Y450355D01*
X379778Y450295D01*
X379742Y450223D01*
X379706Y450127D01*
X379670Y450031D01*
X379634Y449911D01*
X379550Y449646D01*
X379478Y449358D01*
X379430Y449034D01*
X379406Y448685D01*
Y448625D01*
X379418Y448541D01*
Y448445D01*
X379430Y448313D01*
X379454Y448168D01*
X379490Y448012D01*
X379526Y447832D01*
X379574Y447652D01*
X379634Y447448D01*
X379706Y447255D01*
X379802Y447051D01*
X379910Y446847D01*
X380030Y446643D01*
X380175Y446450D01*
X380343Y446270D01*
X380355Y446258D01*
X380391Y446234D01*
X380439Y446186D01*
X380511Y446126D01*
X380607Y446054D01*
X380715Y445970D01*
X380847Y445886D01*
X380992Y445790D01*
X381160Y445706D01*
X381340Y445621D01*
X381532Y445537D01*
X381748Y445465D01*
X381977Y445405D01*
X382217Y445357D01*
X382469Y445333D01*
X382734Y445321D01*
X382746D01*
X382794D01*
X382878Y445333D01*
X382974D01*
X383106Y445345D01*
X383250Y445369D01*
X383406Y445405D01*
X383587Y445441D01*
X383779Y445501D01*
X383971Y445561D01*
X384175Y445645D01*
X384380Y445742D01*
X384584Y445850D01*
X384776Y445982D01*
X384980Y446138D01*
X385160Y446306D01*
X385173Y446318D01*
X385209Y446354D01*
X385257Y446402D01*
X385317Y446487D01*
X385389Y446583D01*
X385473Y446691D01*
X385557Y446823D01*
X385653Y446979D01*
X385737Y447147D01*
X385821Y447327D01*
X385905Y447532D01*
X385977Y447748D01*
X386049Y447976D01*
X386098Y448228D01*
X386122Y448481D01*
X386134Y448757D01*
Y448901D01*
X386122Y448997D01*
X386110Y449118D01*
X386086Y449262D01*
X386049Y449418D01*
X386013Y449598D01*
X385965Y449778D01*
X385905Y449971D01*
X385821Y450163D01*
X385725Y450367D01*
X385617Y450571D01*
X385485Y450764D01*
X385341Y450956D01*
X385173Y451136D01*
X385160Y451148D01*
X385124Y451172D01*
X385076Y451220D01*
X385004Y451280D01*
X384908Y451352D01*
X384800Y451436D01*
X384668Y451520D01*
X384524Y451604D01*
X384356Y451689D01*
X384175Y451773D01*
X383983Y451857D01*
X383767Y451929D01*
X383539Y451989D01*
X383310Y452037D01*
X383058Y452061D01*
X382794Y452073D01*
D02*
G37*
G36*
X383394Y426062D02*
X383382D01*
X383346D01*
X383286D01*
X383214Y426050D01*
X383118D01*
X383010Y426038D01*
X382878Y426026D01*
X382746Y426002D01*
X382433Y425954D01*
X382097Y425870D01*
X381736Y425762D01*
X381364Y425618D01*
X381352D01*
X381328Y425594D01*
X381268Y425570D01*
X381208Y425534D01*
X381124Y425486D01*
X381040Y425438D01*
X380823Y425293D01*
X380583Y425125D01*
X380343Y424909D01*
X380103Y424657D01*
X379898Y424380D01*
Y424368D01*
X379874Y424344D01*
X379850Y424296D01*
X379826Y424236D01*
X379790Y424164D01*
X379742Y424080D01*
X379694Y423984D01*
X379658Y423864D01*
X379562Y423611D01*
X379478Y423323D01*
X379430Y423011D01*
X379406Y422686D01*
Y422626D01*
X379418Y422554D01*
Y422470D01*
X379442Y422362D01*
X379466Y422230D01*
X379490Y422086D01*
X379538Y421917D01*
X379586Y421749D01*
X379658Y421569D01*
X379742Y421389D01*
X379838Y421197D01*
X379958Y421016D01*
X380103Y420824D01*
X380259Y420644D01*
X380439Y420464D01*
X380451Y420452D01*
X380487Y420428D01*
X380547Y420380D01*
X380631Y420320D01*
X380739Y420247D01*
X380859Y420163D01*
X381016Y420079D01*
X381184Y419995D01*
X381376Y419911D01*
X381592Y419827D01*
X381820Y419743D01*
X382073Y419671D01*
X382349Y419611D01*
X382637Y419563D01*
X382950Y419539D01*
X383274Y419527D01*
X383298D01*
X383346D01*
X383442D01*
X383563Y419539D01*
X383707Y419551D01*
X383875Y419575D01*
X384055Y419599D01*
X384259Y419647D01*
X384476Y419695D01*
X384692Y419755D01*
X384920Y419827D01*
X385149Y419911D01*
X385365Y420019D01*
X385581Y420151D01*
X385797Y420284D01*
X385989Y420452D01*
X386002Y420464D01*
X386037Y420488D01*
X386086Y420548D01*
X386146Y420620D01*
X386218Y420704D01*
X386302Y420812D01*
X386398Y420944D01*
X386494Y421077D01*
X386578Y421245D01*
X386674Y421413D01*
X386758Y421605D01*
X386830Y421809D01*
X386890Y422026D01*
X386939Y422254D01*
X386975Y422506D01*
X386987Y422758D01*
Y422818D01*
X386975Y422891D01*
Y422987D01*
X386951Y423107D01*
X386939Y423251D01*
X386903Y423395D01*
X386866Y423563D01*
X386806Y423744D01*
X386746Y423936D01*
X386662Y424128D01*
X386566Y424332D01*
X386458Y424524D01*
X386314Y424729D01*
X386170Y424921D01*
X385989Y425101D01*
X385977Y425113D01*
X385941Y425137D01*
X385881Y425185D01*
X385809Y425245D01*
X385713Y425330D01*
X385593Y425402D01*
X385449Y425498D01*
X385293Y425582D01*
X385112Y425666D01*
X384920Y425762D01*
X384704Y425834D01*
X384476Y425906D01*
X384223Y425978D01*
X383959Y426026D01*
X383683Y426050D01*
X383394Y426062D01*
D02*
G37*
G36*
Y413147D02*
X383382D01*
X383346D01*
X383286D01*
X383214Y413135D01*
X383118D01*
X383010Y413123D01*
X382878Y413111D01*
X382746Y413087D01*
X382433Y413039D01*
X382097Y412955D01*
X381736Y412847D01*
X381364Y412703D01*
X381352D01*
X381328Y412678D01*
X381268Y412654D01*
X381208Y412618D01*
X381124Y412570D01*
X381040Y412522D01*
X380823Y412378D01*
X380583Y412210D01*
X380343Y411994D01*
X380103Y411741D01*
X379898Y411465D01*
Y411453D01*
X379874Y411429D01*
X379850Y411381D01*
X379826Y411321D01*
X379790Y411249D01*
X379742Y411165D01*
X379694Y411069D01*
X379658Y410948D01*
X379562Y410696D01*
X379478Y410408D01*
X379430Y410095D01*
X379406Y409771D01*
Y409711D01*
X379418Y409639D01*
Y409555D01*
X379442Y409447D01*
X379466Y409314D01*
X379490Y409170D01*
X379538Y409002D01*
X379586Y408834D01*
X379658Y408654D01*
X379742Y408474D01*
X379838Y408281D01*
X379958Y408101D01*
X380103Y407909D01*
X380259Y407729D01*
X380439Y407548D01*
X380451Y407536D01*
X380487Y407512D01*
X380547Y407464D01*
X380631Y407404D01*
X380739Y407332D01*
X380859Y407248D01*
X381016Y407164D01*
X381184Y407080D01*
X381376Y406996D01*
X381592Y406912D01*
X381820Y406828D01*
X382073Y406755D01*
X382349Y406696D01*
X382637Y406647D01*
X382950Y406623D01*
X383274Y406611D01*
X383298D01*
X383346D01*
X383442D01*
X383563Y406623D01*
X383707Y406635D01*
X383875Y406659D01*
X384055Y406683D01*
X384259Y406731D01*
X384476Y406780D01*
X384692Y406840D01*
X384920Y406912D01*
X385149Y406996D01*
X385365Y407104D01*
X385581Y407236D01*
X385797Y407368D01*
X385989Y407536D01*
X386002Y407548D01*
X386037Y407573D01*
X386086Y407633D01*
X386146Y407705D01*
X386218Y407789D01*
X386302Y407897D01*
X386398Y408029D01*
X386494Y408161D01*
X386578Y408329D01*
X386674Y408498D01*
X386758Y408690D01*
X386830Y408894D01*
X386890Y409110D01*
X386939Y409339D01*
X386975Y409591D01*
X386987Y409843D01*
Y409903D01*
X386975Y409975D01*
Y410071D01*
X386951Y410192D01*
X386939Y410336D01*
X386903Y410480D01*
X386866Y410648D01*
X386806Y410828D01*
X386746Y411021D01*
X386662Y411213D01*
X386566Y411417D01*
X386458Y411609D01*
X386314Y411814D01*
X386170Y412006D01*
X385989Y412186D01*
X385977Y412198D01*
X385941Y412222D01*
X385881Y412270D01*
X385809Y412330D01*
X385713Y412414D01*
X385593Y412486D01*
X385449Y412582D01*
X385293Y412667D01*
X385112Y412751D01*
X384920Y412847D01*
X384704Y412919D01*
X384476Y412991D01*
X384223Y413063D01*
X383959Y413111D01*
X383683Y413135D01*
X383394Y413147D01*
D02*
G37*
%LPD*%
D10*
X144250Y29000D02*
X145250Y28000D01*
X144250Y29000D02*
Y36000D01*
X104001Y88001D02*
X107250D01*
X103000Y87000D02*
X104001Y88001D01*
X103000Y81250D02*
Y87000D01*
X97000Y75250D02*
X103000Y81250D01*
X107230Y83020D02*
X107250Y82999D01*
X103932Y83020D02*
X107230D01*
X103000Y83952D02*
X103932Y83020D01*
X93545Y71614D02*
Y71704D01*
X97000Y75160D01*
Y75250D01*
X171500Y109000D02*
X183000D01*
X169251Y106751D02*
X171500Y109000D01*
X169251Y105000D02*
Y106751D01*
X213396Y124201D02*
X213598Y124402D01*
X139250Y105000D02*
Y109250D01*
X144156Y23148D02*
Y27500D01*
X213104Y133701D02*
X213402Y133402D01*
X202062D02*
X202361Y133701D01*
X213104D01*
X202062Y124402D02*
X202263Y124201D01*
X213396D01*
X213402Y133402D02*
X214000Y134000D01*
X213598Y124402D02*
X214000Y124000D01*
X183000Y109000D02*
X191938D01*
X191938Y109000D01*
X139250Y109250D02*
X142000Y112000D01*
X30000Y590000D02*
X35078D01*
X32539D01*
Y605235D01*
X30000Y602696D01*
X42696Y605235D02*
X52853D01*
X47774D01*
Y590000D01*
X65549Y605235D02*
X60470D01*
X57931Y602696D01*
Y592539D01*
X60470Y590000D01*
X65549D01*
X68088Y592539D01*
Y602696D01*
X65549Y605235D01*
X73166Y590000D02*
Y605235D01*
X80784D01*
X83323Y602696D01*
Y597617D01*
X80784Y595078D01*
X73166D01*
D11*
X235000Y84250D02*
X245750D01*
X234000D02*
X235000D01*
Y65250D02*
X245250D01*
X234000D02*
X235000D01*
X245250D02*
X247500Y67500D01*
X104427Y98001D02*
X109251D01*
X124250Y105000D02*
Y112250D01*
X94812Y106616D02*
X97428Y104000D01*
X97928Y104500D02*
X104427Y98001D01*
X247500Y67500D02*
Y82500D01*
X245750Y84250D02*
X247500Y82500D01*
X94812Y106616D02*
Y108902D01*
X121067Y117933D02*
X121098Y117902D01*
D20*
X133000Y11000D02*
Y31071D01*
X271402Y15402D02*
Y22402D01*
X197000Y13000D02*
X269000D01*
X194000Y10000D02*
X197000Y13000D01*
X165750Y10000D02*
X194000D01*
X269000Y13000D02*
X271402Y15402D01*
X133170Y128170D02*
X139000Y134000D01*
X129250Y105000D02*
Y114500D01*
Y103000D02*
Y105000D01*
X199750Y34749D02*
X202098Y37098D01*
X199750Y22250D02*
Y34749D01*
X191500Y14000D02*
X199750Y22250D01*
X168000Y14000D02*
X191500D01*
X179562Y22402D02*
Y29750D01*
X89938Y29938D02*
X89969Y29907D01*
X170250Y116750D02*
X172400Y114600D01*
X161182Y116750D02*
X170250D01*
X154251Y109819D02*
X161182Y116750D01*
X159650Y120150D02*
X171658D01*
X173808Y118000D01*
X149250Y109750D02*
X159650Y120150D01*
X154251Y105000D02*
Y109819D01*
X149250Y105000D02*
Y109750D01*
X173808Y118000D02*
X182750D01*
X172400Y114600D02*
X184350D01*
X151000Y119000D02*
X159000Y127000D01*
X139000Y119000D02*
X151000D01*
X159250Y16500D02*
X165750Y10000D01*
X159250Y16500D02*
Y36000D01*
X164250Y17750D02*
X168000Y14000D01*
X93286Y58035D02*
X107215Y58005D01*
X93286Y58035D02*
X107215D01*
X162098Y127351D02*
X173598D01*
X162258Y109992D02*
X164250Y108000D01*
X162258Y109992D02*
Y110755D01*
X164250Y105000D02*
Y108000D01*
X169250Y22804D02*
X169652Y22402D01*
X169250Y22804D02*
Y36000D01*
X164250Y17750D02*
Y36000D01*
X119250Y105000D02*
Y107750D01*
X114500Y112500D02*
X119250Y107750D01*
X109384Y112500D02*
X114500D01*
X186862Y122112D02*
Y128362D01*
X182750Y118000D02*
X186862Y122112D01*
X184350Y114600D02*
X191902Y122152D01*
Y124402D01*
X114250Y105000D02*
Y107000D01*
X84848Y118152D02*
X101848D01*
X113000Y108250D02*
X114250Y107000D01*
X106750Y108250D02*
X113000D01*
X176500Y98000D02*
Y103250D01*
X149250Y32750D02*
Y36000D01*
X152500Y29250D02*
Y29500D01*
X149250Y32750D02*
X152500Y29500D01*
X138000Y29000D02*
Y29866D01*
X133000Y31071D02*
X134250Y32321D01*
Y36000D01*
X138000Y29866D02*
X139250Y31116D01*
Y36000D01*
X89938Y29938D02*
X90000Y30000D01*
X89969Y22391D02*
Y29907D01*
X186862Y128362D02*
X191902Y133402D01*
X93286Y44785D02*
Y58035D01*
X180000Y93000D02*
X182000Y95000D01*
X176250Y93000D02*
X180000D01*
X180000Y88000D02*
X182919Y85081D01*
X176250Y88000D02*
X180000D01*
X133402Y127938D02*
X135000Y126341D01*
Y120250D02*
Y126341D01*
X129250Y114500D02*
X135000Y120250D01*
X134250Y114250D02*
X139000Y119000D01*
X134250Y105000D02*
Y114250D01*
X129250Y17179D02*
Y36000D01*
X123071Y11000D02*
X129250Y17179D01*
X121000Y16000D02*
X124250Y19250D01*
Y36000D01*
X119250Y24250D02*
Y36000D01*
X116000Y21000D02*
X119250Y24250D01*
X139000Y138449D02*
X146500Y145949D01*
X110696Y11000D02*
X123071D01*
X89938Y22360D02*
X89969Y22391D01*
X100098Y21598D02*
X110696Y11000D01*
X139000Y134000D02*
Y138449D01*
X159000Y127000D02*
Y129449D01*
X159500Y129949D01*
X162098Y127351D01*
X146500Y145949D02*
Y146949D01*
X101848Y113152D02*
X106750Y108250D01*
X101848Y113152D02*
Y117902D01*
X106888Y114996D02*
X109384Y112500D01*
X101848Y128062D02*
X106888Y123022D01*
Y114996D02*
Y123022D01*
X101848Y117902D02*
Y118152D01*
X93402Y128348D02*
X93420Y128330D01*
X101829D01*
X101848Y128312D01*
D21*
X235000Y65250D02*
D03*
Y84250D02*
D03*
Y74750D02*
D03*
X263000Y84250D02*
D03*
Y65250D02*
D03*
D22*
X194372Y83749D02*
D03*
X207372D02*
D03*
X194372Y55749D02*
D03*
X207372D02*
D03*
X194372Y68999D02*
D03*
X207372D02*
D03*
D23*
X242521Y29223D02*
D03*
Y42223D02*
D03*
X255771Y29249D02*
D03*
Y42249D02*
D03*
D24*
X229060Y120000D02*
D03*
X258060D02*
D03*
D25*
X355000Y159302D02*
D03*
Y188302D02*
D03*
D26*
X59268Y64010D02*
D03*
Y41644D02*
D03*
D27*
X40000Y422250D02*
D03*
X49500Y399570D02*
D03*
X30500D02*
D03*
D28*
X169251Y105000D02*
D03*
X114250D02*
D03*
X119250D02*
D03*
X124250D02*
D03*
X129250D02*
D03*
X134250D02*
D03*
X139250D02*
D03*
X144250D02*
D03*
X149250D02*
D03*
X154251D02*
D03*
X159250D02*
D03*
X164250D02*
D03*
X114250Y36000D02*
D03*
X119250D02*
D03*
X124250D02*
D03*
X129250D02*
D03*
X134250D02*
D03*
X139250D02*
D03*
X144250D02*
D03*
X149250D02*
D03*
X154250D02*
D03*
X159250D02*
D03*
X164250D02*
D03*
X169250D02*
D03*
D29*
X176250Y43001D02*
D03*
Y98000D02*
D03*
Y93000D02*
D03*
Y88000D02*
D03*
Y83000D02*
D03*
Y78000D02*
D03*
Y73000D02*
D03*
Y68000D02*
D03*
Y63000D02*
D03*
Y58000D02*
D03*
Y53000D02*
D03*
Y47999D02*
D03*
X107250Y42999D02*
D03*
Y48001D02*
D03*
Y52999D02*
D03*
Y58001D02*
D03*
Y62999D02*
D03*
Y68001D02*
D03*
Y72999D02*
D03*
Y78001D02*
D03*
Y82999D02*
D03*
Y88001D02*
D03*
Y92999D02*
D03*
Y98001D02*
D03*
D30*
X141750Y70500D02*
D03*
D31*
X93286Y44785D02*
D03*
X86215Y37715D02*
D03*
Y50964D02*
D03*
X93286Y58035D02*
D03*
X80205Y76386D02*
D03*
X87389Y83570D02*
D03*
X86361Y64429D02*
D03*
X93545Y71614D02*
D03*
D32*
X84848Y128062D02*
D03*
Y117902D02*
D03*
X172598Y127902D02*
D03*
Y138062D02*
D03*
X133402Y138098D02*
D03*
Y127938D02*
D03*
X112598Y117902D02*
D03*
Y128062D02*
D03*
X121098Y117902D02*
D03*
Y128062D02*
D03*
X101848D02*
D03*
Y117902D02*
D03*
X93402Y128098D02*
D03*
Y117938D02*
D03*
X277068Y132098D02*
D03*
Y121938D02*
D03*
X329360Y163902D02*
D03*
Y174062D02*
D03*
X329402Y185366D02*
D03*
Y195526D02*
D03*
D33*
X109000Y148000D02*
D03*
X87410D02*
D03*
D34*
X313970Y169750D02*
D03*
Y163250D02*
D03*
X286030Y169750D02*
D03*
Y163250D02*
D03*
Y156750D02*
D03*
Y150250D02*
D03*
X313970D02*
D03*
Y156750D02*
D03*
D35*
X229750Y165000D02*
D03*
X262250D02*
D03*
D36*
X67179Y77639D02*
D03*
X74364Y70455D02*
D03*
X86180Y96639D02*
D03*
X93364Y89455D02*
D03*
D37*
X112000Y520389D02*
D03*
Y536000D02*
D03*
D38*
X127500Y536750D02*
D03*
X96500D02*
D03*
D39*
X89938Y22360D02*
D03*
X100098D02*
D03*
X283062Y22402D02*
D03*
X272902D02*
D03*
X179562D02*
D03*
X169402D02*
D03*
X202062Y133402D02*
D03*
X191902D02*
D03*
X202062Y124402D02*
D03*
X191902D02*
D03*
X202098Y108598D02*
D03*
X191938D02*
D03*
X143902Y22402D02*
D03*
X154062D02*
D03*
X84652Y108902D02*
D03*
X94812D02*
D03*
X191938Y37098D02*
D03*
X202098D02*
D03*
X316062Y195402D02*
D03*
X305902D02*
D03*
X305938Y186598D02*
D03*
X316098D02*
D03*
X282938D02*
D03*
X293098D02*
D03*
X287062Y108402D02*
D03*
X276902D02*
D03*
D40*
X146500Y129949D02*
D03*
Y146949D02*
D03*
X159500D02*
D03*
Y129949D02*
D03*
D41*
X387750Y156500D02*
D03*
X221500Y92500D02*
D03*
X279000Y49000D02*
D03*
X212250Y22500D02*
D03*
X199750D02*
D03*
X40000Y458850D02*
D03*
X112000Y545000D02*
D03*
D67*
X79954Y76045D02*
G03*
X79955Y76046I-271J271D01*
G01*
X62968Y64010D02*
G03*
X71419Y67511I0J11952D01*
G01*
X286030Y163250D02*
X298791D01*
X282250D02*
X286030D01*
X305291Y156750D02*
X313970D01*
X298791Y163250D02*
X305291Y156750D01*
X101000Y148000D02*
X109000D01*
X49500Y389500D02*
X50000Y389000D01*
X79954Y76045D02*
X79955Y76046D01*
X71419Y67511D02*
X74364Y70455D01*
X93614Y89705D02*
X93614D01*
X87536Y83627D02*
X93614Y89705D01*
X87389Y83570D02*
X87446D01*
X87503Y83627D01*
X87536D01*
X172598Y138062D02*
X179000D01*
X127000Y138098D02*
X133402D01*
X74364Y70455D02*
X79954Y76045D01*
D68*
X101566Y92999D02*
G03*
X93614Y89705I0J-11247D01*
G01*
X280000Y148220D02*
X282030Y150250D01*
X280000Y144000D02*
Y148220D01*
X282030Y150250D02*
X286030D01*
X199000Y105499D02*
X202098Y108598D01*
X199000Y101750D02*
Y105499D01*
X183000Y101750D02*
X199000D01*
X215000Y191000D02*
X219402Y195402D01*
X215000Y143250D02*
Y191000D01*
Y143250D02*
X223250Y135000D01*
Y130890D02*
Y135000D01*
Y130890D02*
X229060Y125080D01*
Y120000D02*
Y125080D01*
X74173Y108902D02*
X84652D01*
X72771Y107500D02*
X74173Y108902D01*
X72500Y107500D02*
X72771D01*
X112058Y128602D02*
Y143532D01*
Y128602D02*
X112598Y128062D01*
X109590Y146000D02*
X112058Y143532D01*
X287062Y108402D02*
Y139062D01*
X101566Y92999D02*
X109251D01*
X219402Y195402D02*
X305902D01*
X276985Y121855D02*
X277068Y121938D01*
X276985Y108486D02*
Y121855D01*
X276902Y108402D02*
X276985Y108486D01*
X291000Y143000D02*
X301000D01*
X287062Y139062D02*
X291000Y143000D01*
X308250Y150250D02*
X313970D01*
X301000Y143000D02*
X308250Y150250D01*
X282938Y169750D02*
Y186598D01*
Y169750D02*
X286030D01*
X283062Y22650D02*
X325000D01*
X305938Y173782D02*
Y186598D01*
Y173782D02*
X309970Y169750D01*
X313970D01*
Y163250D02*
X329011D01*
X316062Y195402D02*
X316080Y195384D01*
Y186616D02*
Y195384D01*
Y186616D02*
X316098Y186598D01*
X316062Y195402D02*
X316124Y195464D01*
X329340D01*
X329402Y195526D01*
X179000Y123000D02*
Y133000D01*
X159000Y147449D02*
X159500Y146949D01*
X127000Y123000D02*
Y128062D01*
Y133000D01*
X141242Y124191D02*
X147000Y129949D01*
X121098Y128062D02*
X127000D01*
X112598D02*
X121098D01*
D69*
X191938Y37098D02*
Y51938D01*
X194000Y54000D01*
X154000Y9000D02*
Y23019D01*
X86844Y37000D02*
X98000D01*
X86129Y37715D02*
X86844Y37000D01*
X121098Y115402D02*
X124250Y112250D01*
X121098Y115402D02*
Y117902D01*
X87410Y148000D02*
X88000Y147410D01*
Y139000D02*
Y147410D01*
X30500Y399570D02*
Y410000D01*
X112598Y117963D02*
X112628Y117933D01*
Y117871D02*
X120969D01*
D70*
X323000Y123000D02*
X360750D01*
X49500Y389500D02*
Y399570D01*
X323250Y47050D02*
X361000D01*
X323250Y21650D02*
X361000D01*
X323250Y97850D02*
X361000D01*
X360750Y123000D02*
X361000Y123250D01*
X40000Y422250D02*
Y459000D01*
D71*
X127000Y133000D02*
Y138098D01*
X179000Y133000D02*
Y145000D01*
X175500Y154500D02*
X179000Y151000D01*
X130500Y154500D02*
X134000Y158000D01*
X139000D01*
X127000Y151000D02*
X130500Y154500D01*
X127000Y145000D02*
Y151000D01*
X159000Y158000D02*
X168000D01*
X172000D01*
X139000D02*
X149000D01*
X172000D02*
X175500Y154500D01*
X179000Y145000D02*
Y151000D01*
X149000Y158000D02*
X159000D01*
Y147449D02*
Y158000D01*
X127000Y138098D02*
Y145000D01*
D72*
X249060Y29638D02*
D03*
D73*
X258000Y120000D02*
D03*
D74*
X61118Y64005D02*
D03*
D75*
X230000Y73750D02*
D03*
D76*
X190750Y60500D02*
D03*
D77*
X162750Y81000D02*
D03*
Y70500D02*
D03*
Y60000D02*
D03*
X152250Y49500D02*
D03*
X141750D02*
D03*
X131250D02*
D03*
X120750Y60000D02*
D03*
Y70500D02*
D03*
Y81000D02*
D03*
X131250Y91500D02*
D03*
X152250D02*
D03*
X141750D02*
D03*
X131250Y81000D02*
D03*
Y70500D02*
D03*
Y60000D02*
D03*
X152250D02*
D03*
X141750D02*
D03*
Y81000D02*
D03*
X152250D02*
D03*
Y70500D02*
D03*
X141750D02*
D03*
X97630Y84000D02*
D03*
X95000Y98000D02*
D03*
X330000Y517000D02*
D03*
X335500Y506000D02*
D03*
X330000Y495000D02*
D03*
X335500Y484000D02*
D03*
X330000Y473000D02*
D03*
X335500Y462000D02*
D03*
X330000Y451000D02*
D03*
X335500Y440000D02*
D03*
X330000Y429000D02*
D03*
X335500Y418000D02*
D03*
X330000Y407000D02*
D03*
X319000Y539000D02*
D03*
X324500Y528000D02*
D03*
X319000Y517000D02*
D03*
X324500Y506000D02*
D03*
X319000Y495000D02*
D03*
X324500Y484000D02*
D03*
X319000Y473000D02*
D03*
X324500Y462000D02*
D03*
X319000Y451000D02*
D03*
X324500Y440000D02*
D03*
X319000Y429000D02*
D03*
X324500Y418000D02*
D03*
X319000Y407000D02*
D03*
X313500Y550000D02*
D03*
X308000Y539000D02*
D03*
X313500Y528000D02*
D03*
X308000Y517000D02*
D03*
X313500Y506000D02*
D03*
X308000Y495000D02*
D03*
X313500Y484000D02*
D03*
X308000Y473000D02*
D03*
X313500Y462000D02*
D03*
X308000Y451000D02*
D03*
X313500Y440000D02*
D03*
X308000Y429000D02*
D03*
X313500Y418000D02*
D03*
X308000Y407000D02*
D03*
X313500Y396000D02*
D03*
X308000Y385000D02*
D03*
Y363000D02*
D03*
Y341000D02*
D03*
X313500Y330000D02*
D03*
X308000Y319000D02*
D03*
X313500Y308000D02*
D03*
X308000Y297000D02*
D03*
Y275000D02*
D03*
Y209000D02*
D03*
X302500Y550000D02*
D03*
X297000Y539000D02*
D03*
X302500Y506000D02*
D03*
X297000Y495000D02*
D03*
X302500Y484000D02*
D03*
X297000Y473000D02*
D03*
X302500Y462000D02*
D03*
X297000Y451000D02*
D03*
X302500Y440000D02*
D03*
X297000Y429000D02*
D03*
X302500Y418000D02*
D03*
X297000Y407000D02*
D03*
X302500Y396000D02*
D03*
X297000Y385000D02*
D03*
X302500Y374000D02*
D03*
X297000Y363000D02*
D03*
X302500Y352000D02*
D03*
X297000Y341000D02*
D03*
X302500Y330000D02*
D03*
X297000Y319000D02*
D03*
X302500Y308000D02*
D03*
X297000Y297000D02*
D03*
X302500Y286000D02*
D03*
X297000Y275000D02*
D03*
X302500Y264000D02*
D03*
X297000Y253000D02*
D03*
X302500Y242000D02*
D03*
X297000Y231000D02*
D03*
X291500Y550000D02*
D03*
X286000Y539000D02*
D03*
X291500Y506000D02*
D03*
X286000Y495000D02*
D03*
X291500Y484000D02*
D03*
X286000Y473000D02*
D03*
X291500Y462000D02*
D03*
X286000Y451000D02*
D03*
X291500Y440000D02*
D03*
X286000Y429000D02*
D03*
X291500Y418000D02*
D03*
X286000Y407000D02*
D03*
X291500Y396000D02*
D03*
X286000Y385000D02*
D03*
X291500Y374000D02*
D03*
X286000Y363000D02*
D03*
X291500Y352000D02*
D03*
X286000Y341000D02*
D03*
X291500Y330000D02*
D03*
X286000Y319000D02*
D03*
X291500Y308000D02*
D03*
X286000Y297000D02*
D03*
X291500Y286000D02*
D03*
X286000Y275000D02*
D03*
X291500Y264000D02*
D03*
X286000Y253000D02*
D03*
X291500Y242000D02*
D03*
X286000Y231000D02*
D03*
X280500Y528000D02*
D03*
Y506000D02*
D03*
X275000Y209000D02*
D03*
X264000D02*
D03*
X253000Y517000D02*
D03*
Y209000D02*
D03*
X247500Y528000D02*
D03*
X242000Y517000D02*
D03*
Y209000D02*
D03*
X231000Y539000D02*
D03*
X236500Y528000D02*
D03*
X231000Y517000D02*
D03*
Y209000D02*
D03*
X225500Y550000D02*
D03*
X220000Y539000D02*
D03*
X225500Y528000D02*
D03*
X220000Y517000D02*
D03*
Y209000D02*
D03*
X214500Y550000D02*
D03*
X209000Y539000D02*
D03*
X214500Y528000D02*
D03*
X209000Y517000D02*
D03*
Y209000D02*
D03*
X203500Y550000D02*
D03*
X198000Y539000D02*
D03*
X203500Y528000D02*
D03*
X198000Y517000D02*
D03*
Y209000D02*
D03*
X192500Y550000D02*
D03*
X187000Y539000D02*
D03*
X192500Y528000D02*
D03*
X187000Y517000D02*
D03*
Y209000D02*
D03*
X181500Y550000D02*
D03*
X176000Y539000D02*
D03*
X181500Y528000D02*
D03*
X176000Y517000D02*
D03*
Y209000D02*
D03*
X165000D02*
D03*
X159500Y528000D02*
D03*
X154000Y209000D02*
D03*
X143000D02*
D03*
X132000D02*
D03*
X121000Y495000D02*
D03*
Y473000D02*
D03*
Y451000D02*
D03*
Y429000D02*
D03*
Y407000D02*
D03*
Y385000D02*
D03*
Y363000D02*
D03*
Y341000D02*
D03*
Y319000D02*
D03*
Y297000D02*
D03*
Y275000D02*
D03*
Y253000D02*
D03*
Y231000D02*
D03*
X110000Y495000D02*
D03*
X115500Y484000D02*
D03*
X110000Y473000D02*
D03*
X115500Y462000D02*
D03*
X110000Y451000D02*
D03*
X115500Y440000D02*
D03*
X110000Y429000D02*
D03*
X115500Y418000D02*
D03*
X99000Y495000D02*
D03*
X104500Y484000D02*
D03*
X99000Y473000D02*
D03*
X104500Y462000D02*
D03*
X99000Y451000D02*
D03*
X104500Y440000D02*
D03*
X99000Y429000D02*
D03*
X104500Y418000D02*
D03*
Y396000D02*
D03*
X99000Y385000D02*
D03*
X104500Y374000D02*
D03*
X99000Y363000D02*
D03*
Y341000D02*
D03*
X104500Y330000D02*
D03*
X88000Y495000D02*
D03*
X93500Y484000D02*
D03*
X88000Y473000D02*
D03*
X93500Y462000D02*
D03*
X88000Y451000D02*
D03*
X93500Y440000D02*
D03*
X88000Y429000D02*
D03*
X93500Y418000D02*
D03*
Y396000D02*
D03*
Y374000D02*
D03*
Y264000D02*
D03*
X77000Y539000D02*
D03*
Y495000D02*
D03*
X82500Y484000D02*
D03*
X77000Y473000D02*
D03*
X82500Y462000D02*
D03*
X77000Y451000D02*
D03*
X82500Y440000D02*
D03*
X77000Y429000D02*
D03*
X82500Y418000D02*
D03*
X66000Y539000D02*
D03*
X71500Y528000D02*
D03*
X66000Y517000D02*
D03*
X71500Y506000D02*
D03*
X66000Y495000D02*
D03*
X71500Y484000D02*
D03*
X66000Y473000D02*
D03*
X71500Y462000D02*
D03*
X66000Y451000D02*
D03*
X71500Y440000D02*
D03*
X66000Y429000D02*
D03*
X71500Y418000D02*
D03*
X81000Y22000D02*
D03*
X100000Y51000D02*
D03*
X103000Y31000D02*
D03*
X81000Y30000D02*
D03*
X82000Y56000D02*
D03*
X67000Y49000D02*
D03*
X293000Y60500D02*
D03*
Y69000D02*
D03*
X273500Y32000D02*
D03*
X290500D02*
D03*
X282000D02*
D03*
X183000Y101750D02*
D03*
X240500Y20000D02*
D03*
X220000Y32000D02*
D03*
X75000Y202500D02*
D03*
X60000Y48750D02*
D03*
X65000Y72500D02*
D03*
X97000Y163500D02*
D03*
X85000Y162500D02*
D03*
X60000Y135000D02*
D03*
X67500Y140000D02*
D03*
X72500Y135000D02*
D03*
X75000Y142500D02*
D03*
X60000D02*
D03*
Y150000D02*
D03*
X67500Y147500D02*
D03*
X72500Y152500D02*
D03*
X65000Y155000D02*
D03*
X60000Y160000D02*
D03*
X65000Y165000D02*
D03*
X75000Y162500D02*
D03*
X249000Y20000D02*
D03*
X232000D02*
D03*
X220000Y39000D02*
D03*
X75000Y117500D02*
D03*
X70000Y125000D02*
D03*
X65000Y120000D02*
D03*
X60000Y125000D02*
D03*
Y115000D02*
D03*
X65000Y110000D02*
D03*
X72500Y107500D02*
D03*
X67500Y102500D02*
D03*
X60000Y105000D02*
D03*
X179562Y29750D02*
D03*
X162258Y110755D02*
D03*
X152500Y29250D02*
D03*
X154000Y9000D02*
D03*
X138000Y29000D02*
D03*
X90000Y30000D02*
D03*
X133000Y12500D02*
D03*
X99500Y65500D02*
D03*
X83500Y69750D02*
D03*
X176500Y103250D02*
D03*
X100000Y555000D02*
D03*
X92500D02*
D03*
X85000D02*
D03*
Y542500D02*
D03*
Y535000D02*
D03*
Y527500D02*
D03*
X125000Y520000D02*
D03*
X100000D02*
D03*
X92500D02*
D03*
X85000D02*
D03*
Y512500D02*
D03*
Y505000D02*
D03*
X152500Y535000D02*
D03*
Y527500D02*
D03*
Y520000D02*
D03*
X92500Y512500D02*
D03*
Y505000D02*
D03*
X115000D02*
D03*
X107500D02*
D03*
X100000D02*
D03*
Y512500D02*
D03*
X130000D02*
D03*
X137500D02*
D03*
X88000Y139000D02*
D03*
X101000Y148000D02*
D03*
X167500Y555000D02*
D03*
Y550000D02*
D03*
Y542500D02*
D03*
Y535000D02*
D03*
Y527500D02*
D03*
Y520000D02*
D03*
Y512500D02*
D03*
X145000Y555000D02*
D03*
X160000Y512500D02*
D03*
X152500D02*
D03*
X145000Y550000D02*
D03*
Y542500D02*
D03*
Y512500D02*
D03*
X75000Y515000D02*
D03*
Y545000D02*
D03*
X214000Y134000D02*
D03*
Y124000D02*
D03*
X220000Y74250D02*
D03*
Y68250D02*
D03*
X30500Y410000D02*
D03*
X182000Y95000D02*
D03*
X116000Y21000D02*
D03*
X121000Y16000D02*
D03*
X130500Y154500D02*
D03*
X168000Y158000D02*
D03*
X139000D02*
D03*
X175500Y154500D02*
D03*
X159000Y158000D02*
D03*
X149000D02*
D03*
X60000Y97500D02*
D03*
X75500Y42750D02*
D03*
X75000Y97500D02*
D03*
X72500Y90000D02*
D03*
X65000Y85000D02*
D03*
X60000Y77500D02*
D03*
X75000Y50000D02*
D03*
X67000Y43250D02*
D03*
X62500Y54750D02*
D03*
X75000Y82500D02*
D03*
X80000Y87500D02*
D03*
X70000Y55000D02*
D03*
X80000Y65000D02*
D03*
X75000Y60000D02*
D03*
X67500Y95000D02*
D03*
X60000Y90000D02*
D03*
X179000Y123000D02*
D03*
X127000Y133000D02*
D03*
Y123000D02*
D03*
X182919Y85081D02*
D03*
X141000Y124000D02*
D03*
X179000Y133000D02*
D03*
Y145000D02*
D03*
X127000D02*
D03*
D78*
X40000Y471350D02*
D03*
D79*
X361000Y123250D02*
D03*
Y97850D02*
D03*
Y72450D02*
D03*
Y47050D02*
D03*
Y21650D02*
D03*
D80*
X323000Y123250D02*
D03*
Y97850D02*
D03*
Y72450D02*
D03*
Y47050D02*
D03*
Y21650D02*
D03*
D81*
X145250Y28000D02*
D03*
X186000Y61250D02*
D03*
Y53000D02*
D03*
Y69500D02*
D03*
X97000Y75250D02*
D03*
X98000Y37000D02*
D03*
X64000Y203000D02*
D03*
X86000D02*
D03*
X123500Y113000D02*
D03*
X49500Y389000D02*
D03*
X245000Y54000D02*
D03*
X238000D02*
D03*
X231000D02*
D03*
X183000Y109000D02*
D03*
X142000Y112000D02*
D03*
X97928Y104500D02*
D03*
D82*
X244750Y183250D02*
D03*
X275000Y95000D02*
D03*
X260000D02*
D03*
X290000D02*
D03*
X54000Y224000D02*
D03*
Y212000D02*
D03*
X64000Y224000D02*
D03*
Y212000D02*
D03*
X59000Y218000D02*
D03*
X245000Y129000D02*
D03*
Y120000D02*
D03*
X225000Y102500D02*
D03*
X235000D02*
D03*
X245000Y102000D02*
D03*
Y111000D02*
D03*
X230000Y97500D02*
D03*
X335000Y175000D02*
D03*
X297000Y133000D02*
D03*
X225000Y92500D02*
D03*
X235000D02*
D03*
X245000Y147000D02*
D03*
Y156000D02*
D03*
Y165000D02*
D03*
Y174000D02*
D03*
X329000Y145000D02*
D03*
X280000Y144000D02*
D03*
X342500Y175000D02*
D03*
X316000Y177500D02*
D03*
X293000Y177250D02*
D03*
X299000Y171000D02*
D03*
X298750Y152250D02*
D03*
M02*
