G04*
G04 #@! TF.GenerationSoftware,Altium Limited,Altium Designer,20.0.1 (14)*
G04*
G04 Layer_Color=32768*
%FSLAX44Y44*%
%MOMM*%
G71*
G01*
G75*
%ADD17C,0.0254*%
%ADD96C,0.1000*%
%ADD97C,0.0500*%
%ADD98C,0.0400*%
%ADD99C,0.1001*%
%ADD100C,0.0025*%
%ADD101C,0.1501*%
D17*
X202143Y83750D02*
G03*
X202143Y83750I-1270J0D01*
G01*
X243790Y35724D02*
G03*
X243790Y35724I-1270J0D01*
G01*
X257040Y35750D02*
G03*
X257040Y35750I-1270J0D01*
G01*
X202143Y55750D02*
G03*
X202143Y55750I-1270J0D01*
G01*
Y69000D02*
G03*
X202143Y69000I-1270J0D01*
G01*
X200873Y81750D02*
Y85750D01*
X198873Y83750D02*
X202873D01*
X240520Y35724D02*
X244520D01*
X242520Y33724D02*
Y37724D01*
X253770Y35750D02*
X257770D01*
X255770Y33750D02*
Y37750D01*
X200873Y53750D02*
Y57750D01*
X198873Y55750D02*
X202873D01*
X200873Y67000D02*
Y71000D01*
X198873Y69000D02*
X202873D01*
D96*
X227410Y91260D02*
X270590D01*
X227410Y58240D02*
Y91260D01*
Y58240D02*
X270590D01*
Y91260D01*
X56000Y393220D02*
Y428780D01*
X24000Y393220D02*
Y428780D01*
X56000D01*
X24000Y393220D02*
X56000D01*
X278410Y143490D02*
X321590D01*
X278410Y176510D02*
X321590D01*
Y143490D02*
Y176510D01*
X278410Y143490D02*
Y176510D01*
D97*
X252500Y74750D02*
G03*
X252500Y74750I-3500J0D01*
G01*
X247060Y120000D02*
G03*
X247060Y120000I-3500J0D01*
G01*
X358500Y173802D02*
G03*
X358500Y173802I-3500J0D01*
G01*
X43500Y411000D02*
G03*
X43500Y411000I-3500J0D01*
G01*
Y465000D02*
G03*
X43500Y465000I-3500J0D01*
G01*
X303500Y160000D02*
G03*
X303500Y160000I-3500J0D01*
G01*
X249000Y69750D02*
Y79750D01*
X244000Y74750D02*
X254000D01*
X243560Y115000D02*
Y125000D01*
X238560Y120000D02*
X248560D01*
X350000Y173802D02*
X360000D01*
X355000Y168802D02*
Y178802D01*
X40000Y406000D02*
Y416000D01*
X35000Y411000D02*
X45000D01*
X35000Y465000D02*
X45000D01*
X40000Y460000D02*
Y470000D01*
X295000Y160000D02*
X305000D01*
X300000Y155000D02*
Y165000D01*
D98*
X154796Y138449D02*
G03*
X154796Y138449I-1796J0D01*
G01*
X153000Y135909D02*
Y140989D01*
X150460Y138449D02*
X155540D01*
D99*
X106751Y35501D02*
Y95499D01*
Y35501D02*
X176749D01*
Y105499D01*
X116751D02*
X176749D01*
X106751Y95499D02*
X116751Y105499D01*
D100*
X109206Y536365D02*
X109714Y536872D01*
D101*
X129751Y65500D02*
Y75497D01*
X134749D01*
X136416Y73831D01*
Y70498D01*
X134749Y68832D01*
X129751D01*
X133083D02*
X136416Y65500D01*
X146412Y75497D02*
X139748D01*
Y65500D01*
X146412D01*
X139748Y70498D02*
X143080D01*
X156409Y75497D02*
X149745D01*
Y70498D01*
X153077D01*
X149745D01*
Y65500D01*
M02*
